<?xml version="1.0" encoding="UTF-8" standalone="no"?>
<svg width="98px" height="48px" viewBox="0 0 98 48" version="1.1" xmlns="http://www.w3.org/2000/svg" xmlns:xlink="http://www.w3.org/1999/xlink">
    <!-- Generator: Sketch 3.6 (26304) - http://www.bohemiancoding.com/sketch -->
    <title>Untitled 4</title>
    <desc>Created with Sketch.</desc>
    <defs></defs>
    <g id="Page-1" stroke="none" stroke-width="1" fill="none" fill-rule="evenodd">
        <path d="M20.612,37.0552 L26.0072,37.0552 L26.0072,23.9984 L29.6064,23.9984 L30.0832,19.4992 L26.0072,19.4992 L26.0128,17.2464 C26.0128,16.0736 26.1248,15.444 27.808,15.444 L30.0576,15.444 L30.0576,10.944 L26.4576,10.944 C22.1336,10.944 20.612,13.1272 20.612,16.7976 L20.612,19.4992 L17.9168,19.4992 L17.9168,23.9992 L20.612,23.9992 L20.612,37.0552 L20.612,37.0552 Z M0,0 L48,0 L48,48 L0,48 L0,0 L0,0 Z" id="Shape" fill="#5790B1"></path>
        <path d="M70.612,37.0552 L76.0072,37.0552 L76.0072,23.9984 L79.6064,23.9984 L80.0832,19.4992 L76.0072,19.4992 L76.0128,17.2464 C76.0128,16.0736 76.1248,15.444 77.808,15.444 L80.0576,15.444 L80.0576,10.944 L76.4576,10.944 C72.1336,10.944 70.612,13.1272 70.612,16.7976 L70.612,19.4992 L67.9168,19.4992 L67.9168,23.9992 L70.612,23.9992 L70.612,37.0552 L70.612,37.0552 Z M50,0 L98,0 L98,48 L50,48 L50,0 L50,0 Z" id="Shape" fill="#0A4B82"></path>
    </g>
</svg>