<?xml version="1.0" encoding="UTF-8" standalone="no"?>
<svg width="670px" height="357px" viewBox="0 0 670 357" version="1.1" xmlns="http://www.w3.org/2000/svg" xmlns:xlink="http://www.w3.org/1999/xlink" xmlns:sketch="http://www.bohemiancoding.com/sketch/ns">
    <!-- Generator: Sketch 3.3.3 (12081) - http://www.bohemiancoding.com/sketch -->
    <title>Untitled 4</title>
    <desc>Created with Sketch.</desc>
    <defs></defs>
    <g id="Page-1" stroke="none" stroke-width="1" fill="none" fill-rule="evenodd" sketch:type="MSPage">
        <g id="logo" sketch:type="MSLayerGroup">
            <g id="Group" sketch:type="MSShapeGroup">
                <path d="M379.801,32.352 C378.621,33.36 378.032,35.118 378.032,37.625 C378.032,39.328 378.422,40.705 379.2,41.758 C379.979,42.811 381.303,43.336 383.174,43.336 C384.954,43.336 386.367,42.844 387.414,41.858 C388.46,40.873 388.983,39.439 388.983,37.558 L388.983,30.84 L384.108,30.84 C382.417,30.84 380.981,31.344 379.801,32.352 L379.801,32.352 Z" id="Shape"></path>
                <path d="M237.382,178.317 L259.856,178.317 L259.856,92.346 L237.382,84.534 L237.382,178.317 Z" id="Shape"></path>
                <path d="M330.184,264.832 L369.583,215.646 L369.618,80.864 L330.184,80.864 L330.184,264.832 Z" id="Shape"></path>
                <path d="M275.074,43.336 C276.854,43.336 278.267,42.844 279.314,41.858 C280.36,40.873 280.883,39.439 280.883,37.558 L280.883,30.84 L276.008,30.84 C274.316,30.84 272.88,31.344 271.7,32.352 C270.52,33.36 269.931,35.118 269.931,37.625 C269.931,39.328 270.321,40.705 271.099,41.758 C271.879,42.811 273.203,43.336 275.074,43.336 L275.074,43.336 Z" id="Shape"></path>
                <path d="M237.382,316.965 L259.856,345.022 L259.856,220.075 L237.382,220.075 L237.382,316.965 Z" id="Shape"></path>
                <path d="M482.312,40.648 C482.623,40.111 482.832,39.506 482.943,38.835 C483.054,38.164 483.132,37.447 483.177,36.685 L483.111,27.078 C483.111,25.734 483.066,24.458 482.978,23.248 C482.888,22.039 482.623,20.997 482.179,20.124 C481.735,19.251 481.07,18.557 480.183,18.041 C479.296,17.527 478.054,17.292 476.458,17.336 L476.458,43.808 C477.878,43.719 479.087,43.394 480.083,42.833 C481.082,42.272 481.824,41.545 482.312,40.648 L482.312,40.648 Z" id="Shape"></path>
                <path d="M580.902,43.336 C582.683,43.336 584.095,42.844 585.142,41.858 C586.189,40.872 586.712,39.439 586.712,37.558 L586.712,30.84 L581.837,30.84 C580.144,30.84 578.708,31.344 577.528,32.352 C576.348,33.36 575.76,35.118 575.76,37.625 C575.76,39.328 576.149,40.705 576.928,41.758 C577.707,42.811 579.031,43.336 580.902,43.336 L580.902,43.336 Z" id="Shape"></path>
                <path d="M465.709,37.088 C465.754,37.85 465.832,38.532 465.945,39.137 C466.056,39.742 466.224,40.246 466.449,40.649 C466.941,41.59 467.658,42.319 468.597,42.833 C469.538,43.349 470.792,43.673 472.361,43.808 L472.361,17.335 C470.345,17.469 468.777,18.019 467.658,18.981 C466.537,19.945 465.933,21.344 465.844,23.18 C465.754,24.48 465.698,25.913 465.676,27.481 C465.653,29.049 465.643,30.638 465.643,32.251 C465.643,33.014 465.653,33.819 465.676,34.67 C465.697,35.521 465.709,36.327 465.709,37.088 L465.709,37.088 Z" id="Shape"></path>
                <path d="M530.146,20.82 C529.789,19.568 529.232,18.686 528.474,18.173 C527.718,17.659 526.716,17.402 525.47,17.402 C523.734,17.402 522.376,17.971 521.398,19.111 C520.418,20.251 519.929,21.736 519.929,23.567 L519.929,36.903 C519.929,38.689 520.363,40.198 521.23,41.426 C522.099,42.655 523.468,43.269 525.337,43.269 C527.919,43.269 529.544,41.996 530.21,39.449 C530.433,38.511 530.577,37.182 530.644,35.463 C530.712,33.743 530.746,31.878 530.746,29.866 C530.746,27.766 530.713,25.958 530.644,24.438 C530.578,22.92 530.412,21.714 530.146,20.82 L530.146,20.82 Z" id="Shape"></path>
                <path d="M507.131,24.975 C507.108,24.037 507.053,23.188 506.963,22.428 C506.873,21.668 506.762,21.088 506.627,20.685 C506.268,19.524 505.641,18.642 504.746,18.039 C503.85,17.436 502.797,17.134 501.588,17.134 C500.557,17.134 499.594,17.358 498.699,17.805 C497.803,18.252 497.107,19.057 496.615,20.218 C496.303,21.022 496.099,22.251 496.011,23.904 C495.919,25.557 495.876,27.523 495.876,29.8 L495.876,31.946 C495.876,33.777 495.897,35.408 495.942,36.838 C495.987,38.268 496.143,39.362 496.413,40.122 C497.085,42.4 498.809,43.54 501.587,43.54 C502.886,43.54 503.993,43.161 504.913,42.4 C505.829,41.641 506.446,40.614 506.761,39.317 C506.894,38.513 507.005,37.33 507.097,35.765 C507.185,34.203 507.23,32.572 507.23,30.873 C507.23,29.935 507.22,28.952 507.197,27.924 C507.174,26.896 507.152,25.913 507.131,24.975 L507.131,24.975 Z" id="Shape"></path>
                <path d="M255.521,42.067 C255.005,42.557 254.422,42.902 253.774,43.103 C253.125,43.303 252.463,43.403 251.792,43.403 C250.224,43.403 248.959,43.011 247.996,42.227 C247.032,41.444 246.507,40.156 246.417,38.364 L242.386,38.968 C242.521,40.447 242.845,41.704 243.361,42.739 C243.876,43.774 244.548,44.622 245.376,45.284 C246.204,45.945 247.153,46.425 248.224,46.721 C249.294,47.016 250.431,47.165 251.636,47.165 C252.884,47.165 254.088,46.997 255.247,46.661 C256.406,46.325 257.443,45.777 258.357,45.015 C259.271,44.254 259.995,43.246 260.531,41.992 C261.066,40.739 261.334,39.193 261.334,37.356 C261.334,35.565 261.143,33.963 260.763,32.552 C260.382,31.141 259.43,30.167 257.908,29.629 L257.908,29.495 C259.342,28.913 260.27,27.928 260.696,26.538 C261.122,25.15 261.335,23.717 261.335,22.238 C261.335,20.671 261.111,19.327 260.665,18.207 C260.219,17.088 259.583,16.182 258.758,15.486 C257.932,14.792 256.95,14.277 255.812,13.941 C254.674,13.605 253.414,13.437 252.03,13.437 C249.531,13.437 247.433,14.086 245.738,15.385 C244.041,16.685 243.082,18.655 242.859,21.297 C242.948,21.342 243.183,21.398 243.564,21.465 C243.945,21.532 244.347,21.622 244.774,21.734 C245.199,21.846 245.602,21.936 245.983,22.003 C246.363,22.07 246.622,22.127 246.755,22.171 C246.89,20.47 247.416,19.215 248.334,18.409 C249.252,17.602 250.495,17.199 252.063,17.199 C253.63,17.199 254.884,17.647 255.825,18.543 C256.766,19.439 257.236,20.738 257.236,22.44 C257.236,24.321 256.888,25.676 256.195,26.504 C255.5,27.333 254.526,27.747 253.272,27.747 L249.778,27.747 L249.778,31.375 L253.071,31.375 C255.847,31.375 257.236,33.335 257.236,37.255 C257.236,38.413 257.079,39.382 256.766,40.161 C256.45,40.942 256.036,41.578 255.521,42.067 L255.521,42.067 Z" id="Shape" fill="#0A2E4F"></path>
                <path d="M267.546,44.311 C268.151,45.184 268.935,45.89 269.898,46.427 C270.861,46.965 272.059,47.234 273.493,47.234 C274.881,47.234 276.191,47.021 277.424,46.595 C278.655,46.17 279.764,45.263 280.75,43.874 L280.816,43.874 L280.816,46.83 L284.982,46.83 L284.982,22.307 C284.982,18.993 284.186,16.675 282.597,15.353 C281.006,14.033 278.755,13.372 275.844,13.372 C273.425,13.372 271.432,13.922 269.865,15.022 C268.297,16.122 267.221,17.632 266.64,19.552 L270.536,20.762 C270.848,19.463 271.532,18.534 272.585,17.973 C273.638,17.414 274.656,17.133 275.643,17.133 C277.703,17.133 279.091,17.607 279.808,18.554 C280.524,19.501 280.883,20.764 280.883,22.342 L280.883,27.211 L275.038,27.211 C273.2,27.211 271.7,27.537 270.536,28.186 C269.371,28.835 268.431,29.665 267.714,30.672 C266.997,31.679 266.505,32.811 266.236,34.065 C265.967,35.32 265.833,36.574 265.833,37.828 C265.833,39.037 265.968,40.202 266.236,41.321 C266.505,42.44 266.942,43.438 267.546,44.311 L267.546,44.311 Z M271.701,32.352 C272.881,31.344 274.316,30.84 276.009,30.84 L280.884,30.84 L280.884,37.559 C280.884,39.44 280.361,40.873 279.315,41.859 C278.268,42.844 276.855,43.337 275.075,43.337 C273.204,43.337 271.881,42.812 271.101,41.759 C270.323,40.706 269.933,39.329 269.933,37.626 C269.932,35.117 270.521,33.359 271.701,32.352 L271.701,32.352 Z" id="Shape" fill="#0A2E4F"></path>
                <path d="M321.665,13.774 L317.566,13.774 L317.566,42.934 L308.294,42.934 L308.294,13.774 L304.196,13.774 L304.196,42.934 L295.058,42.934 L295.058,13.774 L290.96,13.774 L290.96,46.83 L320.186,46.83 L320.186,54.557 L323.881,54.557 L323.881,42.934 L321.665,42.934 L321.665,13.774 Z" id="Shape" fill="#0A2E4F"></path>
                <path d="M344.642,21.366 L344.709,21.366 L344.709,46.83 L348.807,46.83 L348.807,13.841 L344.709,13.841 C342.703,18.007 340.722,22.23 338.763,26.506 C336.803,30.784 334.821,35.028 332.817,39.238 L332.75,39.238 L332.75,13.841 L328.651,13.841 L328.651,46.83 L332.616,46.83 L344.642,21.366 L344.642,21.366 Z" id="Shape" fill="#0A2E4F"></path>
                <path d="M359.289,46.83 L363.387,46.83 L363.387,17.536 L370.778,17.536 L370.778,13.774 L351.965,13.774 L351.965,17.536 L359.289,17.536 L359.289,46.83 Z" id="Shape" fill="#0A2E4F"></path>
                <path d="M390.698,15.353 C389.107,14.033 386.856,13.372 383.945,13.372 C381.526,13.372 379.533,13.922 377.966,15.022 C376.398,16.122 375.322,17.632 374.741,19.552 L378.637,20.762 C378.949,19.463 379.633,18.534 380.686,17.973 C381.739,17.414 382.757,17.133 383.744,17.133 C385.804,17.133 387.192,17.607 387.909,18.554 C388.625,19.501 388.984,20.764 388.984,22.342 L388.984,27.211 L383.139,27.211 C381.301,27.211 379.801,27.537 378.637,28.186 C377.472,28.835 376.532,29.665 375.815,30.672 C375.098,31.679 374.606,32.811 374.337,34.065 C374.068,35.32 373.934,36.574 373.934,37.828 C373.934,39.037 374.069,40.202 374.337,41.321 C374.606,42.441 375.042,43.438 375.647,44.311 C376.252,45.184 377.036,45.89 377.999,46.427 C378.962,46.965 380.16,47.234 381.594,47.234 C382.982,47.234 384.292,47.021 385.525,46.595 C386.756,46.17 387.865,45.263 388.851,43.874 L388.917,43.874 L388.917,46.83 L393.083,46.83 L393.083,22.307 C393.083,18.992 392.287,16.675 390.698,15.353 L390.698,15.353 Z M388.984,37.559 C388.984,39.44 388.461,40.873 387.415,41.859 C386.368,42.844 384.955,43.337 383.175,43.337 C381.304,43.337 379.981,42.812 379.201,41.759 C378.423,40.706 378.033,39.329 378.033,37.626 C378.033,35.118 378.622,33.36 379.802,32.353 C380.982,31.346 382.417,30.841 384.11,30.841 L388.985,30.841 L388.985,37.559 L388.984,37.559 Z" id="Shape" fill="#0A2E4F"></path>
                <path d="M427.146,21.366 L427.212,21.366 L427.212,46.83 L431.31,46.83 L431.31,13.841 L427.212,13.841 C425.206,18.007 423.226,22.23 421.267,26.506 C419.306,30.784 417.324,35.028 415.32,39.238 L415.254,39.238 L415.254,13.841 L411.154,13.841 L411.154,46.83 L415.119,46.83 L427.146,21.366 L427.146,21.366 Z" id="Shape" fill="#0A2E4F"></path>
                <path d="M441.523,31.713 L452.07,31.713 L452.07,46.83 L456.371,46.83 L456.371,13.774 L452.07,13.774 L452.07,28.085 L441.523,28.085 L441.523,13.774 L437.424,13.774 L437.424,46.83 L441.523,46.83 L441.523,31.713 Z" id="Shape" fill="#0A2E4F"></path>
                <path d="M462.014,39.54 C462.194,40.593 462.53,41.567 463.022,42.463 C463.918,44.21 465.127,45.408 466.651,46.058 C468.172,46.707 470.1,47.166 472.428,47.435 L472.428,59.932 L476.459,59.932 C476.459,57.827 476.471,55.744 476.492,53.684 C476.515,51.622 476.527,49.54 476.527,47.435 C480.441,47.032 483.179,45.89 484.738,44.008 C485.494,43.158 486.05,42.195 486.408,41.119 C486.763,40.044 486.986,38.835 487.074,37.491 C487.164,36.192 487.209,34.837 487.209,33.426 L487.209,29.227 C487.209,27.749 487.186,26.316 487.143,24.927 C487.098,23.539 486.965,22.239 486.743,21.031 C486.343,18.747 485.307,16.922 483.638,15.555 C481.969,14.188 479.599,13.439 476.529,13.304 C476.529,11.154 476.517,9.027 476.494,6.921 C476.473,4.817 476.461,2.689 476.461,0.538 L472.363,0.538 L472.363,13.304 C469.853,13.394 467.828,13.932 466.283,14.916 C464.736,15.902 463.584,17.2 462.822,18.812 C462.597,19.306 462.408,19.966 462.252,20.794 C462.094,21.623 461.971,22.541 461.881,23.549 C461.791,24.557 461.725,25.588 461.68,26.64 C461.635,27.693 461.614,28.689 461.614,29.629 L461.614,33.593 C461.614,34.534 461.635,35.385 461.68,36.147 C461.723,37.356 461.834,38.488 462.014,39.54 L462.014,39.54 Z M476.459,17.335 C478.055,17.291 479.297,17.526 480.184,18.04 C481.071,18.556 481.737,19.25 482.18,20.123 C482.623,20.996 482.889,22.038 482.979,23.247 C483.067,24.457 483.112,25.733 483.112,27.077 L483.178,36.684 C483.133,37.447 483.055,38.163 482.944,38.834 C482.833,39.505 482.624,40.11 482.313,40.647 C481.825,41.543 481.083,42.271 480.084,42.831 C479.088,43.392 477.879,43.717 476.459,43.806 L476.459,17.335 L476.459,17.335 Z M465.676,27.48 C465.697,25.913 465.754,24.479 465.844,23.179 C465.934,21.343 466.537,19.944 467.658,18.98 C468.777,18.018 470.346,17.468 472.361,17.334 L472.361,43.806 C470.793,43.671 469.539,43.347 468.597,42.831 C467.658,42.317 466.941,41.589 466.449,40.647 C466.224,40.245 466.056,39.741 465.945,39.135 C465.832,38.531 465.754,37.848 465.709,37.086 C465.709,36.325 465.697,35.519 465.676,34.667 C465.653,33.816 465.643,33.011 465.643,32.248 C465.643,30.638 465.652,29.049 465.676,27.48 L465.676,27.48 Z" id="Shape" fill="#0A2E4F"></path>
                <path d="M510.387,18.544 C509.846,17.066 508.891,15.835 507.52,14.849 C506.149,13.865 504.206,13.371 501.688,13.371 C499.262,13.371 497.319,13.864 495.858,14.849 C494.395,15.835 493.374,17.133 492.79,18.746 C492.565,19.283 492.395,19.988 492.284,20.862 C492.171,21.735 492.071,22.71 491.981,23.785 C491.889,24.859 491.835,25.991 491.813,27.178 C491.79,28.366 491.778,29.541 491.778,30.705 L491.778,33.527 C491.778,34.512 491.801,35.487 491.846,36.449 C491.889,37.413 491.957,38.308 492.047,39.137 C492.137,39.967 492.25,40.649 492.385,41.187 C492.834,42.889 493.733,44.334 495.082,45.52 C496.43,46.708 498.475,47.301 501.217,47.301 C502.252,47.301 503.307,47.177 504.387,46.931 C505.465,46.686 506.465,46.259 507.387,45.655 C508.309,45.051 509.094,44.211 509.746,43.135 C510.398,42.059 510.812,40.695 510.994,39.036 C511.129,37.692 511.217,36.428 511.262,35.24 C511.307,34.053 511.33,32.855 511.33,31.645 L511.33,28.353 C511.33,26.562 511.273,24.77 511.16,22.978 C511.049,21.188 510.791,19.71 510.387,18.544 L510.387,18.544 Z M507.098,35.764 C507.006,37.328 506.895,38.512 506.762,39.316 C506.448,40.613 505.83,41.64 504.914,42.399 C503.994,43.16 502.887,43.539 501.588,43.539 C498.811,43.539 497.086,42.399 496.414,40.121 C496.144,39.361 495.988,38.267 495.943,36.837 C495.898,35.407 495.877,33.776 495.877,31.945 L495.877,29.799 C495.877,27.522 495.92,25.556 496.012,23.903 C496.1,22.251 496.303,21.021 496.616,20.217 C497.108,19.056 497.804,18.251 498.7,17.804 C499.595,17.357 500.557,17.133 501.589,17.133 C502.798,17.133 503.851,17.436 504.747,18.038 C505.642,18.642 506.268,19.523 506.628,20.684 C506.763,21.087 506.874,21.667 506.964,22.427 C507.054,23.187 507.109,24.035 507.132,24.974 C507.153,25.912 507.175,26.896 507.198,27.922 C507.221,28.95 507.231,29.933 507.231,30.871 C507.23,32.57 507.186,34.201 507.098,35.764 L507.098,35.764 Z" id="Shape" fill="#0A2E4F"></path>
                <path d="M533.479,17.234 C532.879,16.182 532.202,15.376 531.448,14.815 C530.694,14.255 529.884,13.875 529.018,13.672 C528.153,13.471 527.364,13.37 526.655,13.37 C524.88,13.37 523.526,13.666 522.594,14.258 C521.662,14.85 520.817,15.67 520.063,16.718 L519.93,16.718 L519.93,13.84 L515.83,13.84 L515.83,59.796 L519.93,59.796 L519.93,44.008 L520.063,44.008 C520.551,44.86 521.317,45.611 522.36,46.259 C523.405,46.908 524.702,47.234 526.256,47.234 C528.475,47.234 530.151,46.763 531.283,45.823 C532.414,44.883 533.246,43.673 533.779,42.195 C534.31,40.716 534.621,38.936 534.711,36.853 C534.799,34.77 534.844,32.498 534.844,30.034 L534.844,25.566 C534.844,24.155 534.778,22.755 534.643,21.367 C534.465,19.664 534.076,18.287 533.479,17.234 L533.479,17.234 Z M530.645,35.463 C530.579,37.183 530.434,38.512 530.211,39.449 C529.545,41.996 527.92,43.269 525.338,43.269 C523.469,43.269 522.1,42.655 521.231,41.426 C520.364,40.197 519.93,38.689 519.93,36.903 L519.93,23.567 C519.93,21.736 520.418,20.251 521.399,19.111 C522.378,17.971 523.735,17.402 525.471,17.402 C526.717,17.402 527.719,17.659 528.475,18.173 C529.233,18.687 529.789,19.569 530.147,20.82 C530.413,21.714 530.579,22.92 530.645,24.438 C530.713,25.958 530.747,27.766 530.747,29.866 C530.746,31.878 530.713,33.743 530.645,35.463 L530.645,35.463 Z" id="Shape" fill="#0A2E4F"></path>
                <path d="M544.586,23.247 L544.654,23.18 C544.832,23.539 545.113,24.099 545.496,24.86 C545.879,25.623 546.271,26.429 546.676,27.279 C547.08,28.131 547.463,28.937 547.822,29.698 C548.181,30.461 548.451,31.019 548.633,31.378 L552.477,39.172 L554.702,39.172 C555.331,37.873 555.983,36.563 556.657,35.241 C557.331,33.921 557.985,32.587 558.614,31.243 L562.593,22.711 L562.796,22.711 L562.796,46.831 L566.894,46.831 L566.894,13.841 L563.064,13.841 L557.873,24.457 L553.691,33.393 L553.625,33.393 C553.266,32.632 552.736,31.545 552.039,30.134 C551.342,28.723 550.613,27.167 549.85,25.465 C549.309,24.346 548.78,23.214 548.264,22.071 C547.746,20.929 547.252,19.843 546.78,18.812 C546.309,17.783 545.87,16.831 545.466,15.958 C545.06,15.084 544.724,14.379 544.454,13.841 L540.491,13.841 L540.491,46.83 L544.589,46.83 L544.589,23.247 L544.586,23.247 Z" id="Shape" fill="#0A2E4F"></path>
                <path d="M573.375,44.311 C573.98,45.184 574.764,45.89 575.727,46.427 C576.69,46.965 577.889,47.234 579.323,47.234 C580.71,47.234 582.02,47.021 583.253,46.595 C584.485,46.17 585.593,45.263 586.579,43.874 L586.645,43.874 L586.645,46.83 L590.811,46.83 L590.811,22.307 C590.811,18.993 590.016,16.675 588.426,15.353 C586.836,14.033 584.584,13.372 581.674,13.372 C579.254,13.372 577.262,13.922 575.694,15.022 C574.126,16.122 573.051,17.632 572.469,19.552 L576.365,20.762 C576.677,19.463 577.361,18.534 578.414,17.973 C579.467,17.414 580.486,17.133 581.473,17.133 C583.532,17.133 584.92,17.607 585.637,18.554 C586.354,19.501 586.713,20.764 586.713,22.342 L586.713,27.211 L580.867,27.211 C579.029,27.211 577.529,27.537 576.365,28.186 C575.201,28.835 574.26,29.665 573.543,30.672 C572.826,31.679 572.334,32.811 572.066,34.065 C571.796,35.32 571.662,36.574 571.662,37.828 C571.662,39.037 571.797,40.202 572.066,41.321 C572.334,42.44 572.771,43.438 573.375,44.311 L573.375,44.311 Z M577.529,32.352 C578.709,31.344 580.144,30.84 581.838,30.84 L586.713,30.84 L586.713,37.559 C586.713,39.44 586.19,40.873 585.143,41.859 C584.096,42.845 582.684,43.337 580.903,43.337 C579.032,43.337 577.71,42.812 576.93,41.759 C576.15,40.706 575.762,39.329 575.762,37.626 C575.762,35.117 576.35,33.359 577.529,32.352 L577.529,32.352 Z" id="Shape" fill="#0A2E4F"></path>
                <path d="M613.988,55.296 L617.818,55.296 L617.818,42.934 L615.602,42.934 L615.602,13.774 L611.369,13.774 L611.369,42.934 L600.82,42.934 L600.82,13.774 L596.723,13.774 L596.723,46.83 L613.988,46.83 L613.988,55.296 Z" id="Shape" fill="#0A2E4F"></path>
                <path d="M637.707,21.366 L637.773,21.366 L637.773,46.83 L641.871,46.83 L641.871,13.841 L637.773,13.841 C635.767,18.007 633.787,22.23 631.828,26.506 C629.867,30.784 627.885,35.028 625.881,39.238 L625.815,39.238 L625.815,13.841 L621.715,13.841 L621.715,46.83 L625.68,46.83 L637.707,21.366 L637.707,21.366 Z" id="Shape" fill="#0A2E4F"></path>
                <path d="M663.775,21.366 L663.841,21.366 L663.841,46.83 L667.939,46.83 L667.939,13.841 L663.841,13.841 C661.835,18.007 659.855,22.23 657.896,26.506 C655.935,30.784 653.953,35.028 651.949,39.238 L651.883,39.238 L651.883,13.841 L647.783,13.841 L647.783,46.83 L651.748,46.83 L663.775,21.366 L663.775,21.366 Z" id="Shape" fill="#0A2E4F"></path>
                <path d="M198.625,74.864 L153.191,74.864 C152.395,74.864 151.632,75.18 151.07,75.743 C150.507,76.305 150.191,77.069 150.191,77.865 L150.227,216.701 C150.227,217.383 150.459,218.044 150.885,218.576 L196.282,275.252 C196.863,275.977 197.731,276.376 198.625,276.376 C198.957,276.376 199.292,276.321 199.618,276.207 C200.819,275.784 201.624,274.649 201.624,273.376 L201.624,77.864 C201.625,76.207 200.282,74.864 198.625,74.864 L198.625,74.864 Z" id="Shape" fill="#0A417C"></path>
                <path d="M291.426,214.075 L262.91,214.075 C262.901,214.075 262.892,214.078 262.884,214.078 C262.874,214.078 262.866,214.075 262.857,214.075 L234.383,214.075 C232.726,214.075 231.383,215.418 231.383,217.075 L231.383,318.018 C231.383,318.7 231.615,319.362 232.041,319.894 L260.515,355.442 C260.574,355.514 260.646,355.568 260.709,355.634 C260.744,355.672 260.782,355.707 260.819,355.743 C260.899,355.818 260.977,355.897 261.064,355.963 C261.309,356.153 261.585,356.31 261.888,356.421 C262.221,356.543 262.566,356.602 262.909,356.602 C263.782,356.602 264.637,356.22 265.221,355.531 C265.239,355.51 265.278,355.463 265.295,355.442 L293.769,319.894 C294.195,319.362 294.427,318.7 294.427,318.018 L294.427,217.075 C294.426,215.418 293.083,214.075 291.426,214.075 L291.426,214.075 Z M259.856,345.022 L237.382,316.964 L237.382,220.074 L259.856,220.074 L259.856,345.022 L259.856,345.022 Z" id="Shape" fill="#0A417C"></path>
                <path d="M372.619,74.864 L327.184,74.864 C325.527,74.864 324.184,76.207 324.184,77.864 L324.184,273.376 C324.184,274.649 324.989,275.784 326.19,276.207 C326.516,276.321 326.851,276.376 327.183,276.376 C328.077,276.376 328.945,275.977 329.526,275.252 L374.924,218.576 C375.35,218.044 375.582,217.383 375.582,216.701 L375.618,77.865 C375.618,77.069 375.303,76.305 374.74,75.743 C374.177,75.181 373.415,74.864 372.619,74.864 L372.619,74.864 Z M369.583,215.646 L330.185,264.832 L330.185,80.864 L369.619,80.864 L369.583,215.646 L369.583,215.646 Z" id="Shape" fill="#0A417C"></path>
                <path d="M293.165,77.87 C292.373,77.308 291.359,77.162 290.441,77.481 L262.905,87.052 L235.368,77.481 C234.449,77.162 233.435,77.307 232.644,77.87 C231.852,78.433 231.382,79.345 231.382,80.315 L231.382,181.317 C231.382,182.974 232.725,184.317 234.382,184.317 L262.856,184.317 C262.866,184.317 262.874,184.314 262.883,184.314 C262.892,184.314 262.901,184.317 262.909,184.317 L291.426,184.317 C293.083,184.317 294.426,182.974 294.426,181.317 L294.426,80.315 C294.426,79.345 293.957,78.434 293.165,77.87 L293.165,77.87 Z M259.856,178.317 L237.382,178.317 L237.382,84.534 L259.856,92.346 L259.856,178.317 L259.856,178.317 Z" id="Shape" fill="#0A417C"></path>
                <path d="M65.148,72.217 C29.389,72.217 0.895,101.271 0.895,136.47 L0.895,284.532 C0.895,319.732 29.389,348.787 65.148,348.787 C100.347,348.787 129.401,319.732 129.401,284.532 L129.401,263.86 C129.401,258.832 125.491,254.921 120.463,254.921 L102.582,254.921 C97.555,254.921 93.644,258.832 93.644,263.86 L93.644,284.532 C93.644,300.177 80.793,313.028 65.149,313.028 C49.503,313.028 36.654,300.176 36.654,284.532 L36.654,136.47 C36.654,120.826 49.504,107.976 65.149,107.976 C80.794,107.976 93.644,120.827 93.644,136.47 L93.644,155.466 C93.644,160.494 97.555,164.406 102.582,164.406 L120.463,164.406 C125.491,164.406 129.401,160.494 129.401,155.466 L129.401,136.47 C129.401,101.271 100.347,72.217 65.148,72.217 L65.148,72.217 Z" id="Shape" fill="#0A417C"></path>
                <path d="M490.473,72.217 L404.429,72.217 C399.4,72.217 395.49,76.128 395.49,81.156 L395.49,99.035 C395.49,104.063 399.4,107.975 404.429,107.975 L429.571,107.975 L429.571,339.847 C429.571,344.316 433.481,348.786 438.51,348.786 L456.389,348.786 C461.418,348.786 465.328,344.315 465.328,339.847 L465.328,107.976 L490.473,107.976 C495.5,107.976 499.412,104.064 499.412,99.036 L499.412,81.156 C499.412,76.128 495.5,72.217 490.473,72.217 L490.473,72.217 Z" id="Shape" fill="#0A417C"></path>
                <path d="M669.26,81.156 C669.26,76.128 665.35,72.217 660.321,72.217 L642.442,72.217 C637.415,72.217 633.503,76.128 633.503,81.156 L633.503,163.29 C633.503,179.492 620.651,192.343 604.448,192.343 L575.954,192.343 L575.954,81.156 C575.954,76.128 572.042,72.217 567.015,72.217 L549.136,72.217 C544.107,72.217 540.197,76.128 540.197,81.156 L540.197,192.343 L540.197,228.102 L540.197,339.848 C540.197,344.317 544.107,348.787 549.136,348.787 L567.015,348.787 C572.042,348.787 575.954,344.316 575.954,339.848 L575.954,228.102 L604.448,228.102 C620.651,228.102 633.503,240.954 633.503,256.596 L633.503,339.848 C633.503,344.317 637.415,348.787 642.442,348.787 L660.321,348.787 C665.35,348.787 669.26,344.316 669.26,339.848 L669.26,256.596 C669.26,238.159 661.438,221.956 649.147,210.223 C661.438,198.49 669.26,181.727 669.26,163.29 L669.26,81.156 L669.26,81.156 Z" id="Shape" fill="#0A417C"></path>
            </g>
        </g>
    </g>
</svg>