<?xml version="1.0" encoding="UTF-8" standalone="no"?>
<svg width="23px" height="34px" viewBox="0 0 23 34" version="1.1" xmlns="http://www.w3.org/2000/svg" xmlns:xlink="http://www.w3.org/1999/xlink">
    <!-- Generator: Sketch 3.6 (26304) - http://www.bohemiancoding.com/sketch -->
    <title>Untitled 12</title>
    <desc>Created with Sketch.</desc>
    <defs></defs>
    <g id="Page-1" stroke="none" stroke-width="1" fill="none" fill-rule="evenodd">
        <path d="M11.4570395,0.6624 C5.68174729,0.6624 1,5.34414729 1,11.1194395 C1,12.9768711 1.49880078,14.7140468 2.34791239,16.225089 C2.48895171,16.476058 2.6367881,16.7231055 2.79730366,16.9610032 L11.4570395,32.0335184 L20.1167753,16.9610032 C20.2501026,16.7636265 20.36513,16.5544857 20.4840788,16.3479592 L20.566428,16.225089 C21.4147553,14.7140468 21.914079,12.9768711 21.914079,11.1194395 C21.914079,5.34414729 17.2319395,0.6624 11.4570395,0.6624 L11.4570395,0.6624 Z M11.4570395,5.89091974 C14.3444895,5.89091974 16.6855592,8.23185874 16.6855592,11.1194395 C16.6855592,14.0068895 14.3444895,16.3479592 11.4570395,16.3479592 C8.56945874,16.3479592 6.22851974,14.0068895 6.22851974,11.1194395 C6.22851974,8.23185874 8.56945874,5.89091974 11.4570395,5.89091974 L11.4570395,5.89091974 Z" id="Shape" stroke="#FFFFFF" fill="#5790B1"></path>
        <path d="M11.4570395,4.5837898 C7.84753088,4.5837898 4.9213898,7.50993088 4.9213898,11.1194395 C4.9213898,14.7284252 7.84753088,17.6550892 11.4570395,17.6550892 C15.0660252,17.6550892 17.9926892,14.7284252 17.9926892,11.1194395 C17.9926892,7.50993088 15.0660252,4.5837898 11.4570395,4.5837898 L11.4570395,4.5837898 Z M11.4570395,7.19804967 C13.6229538,7.19804967 15.3784293,8.95365589 15.3784293,11.1194395 C15.3784293,13.2852231 13.6229538,15.0408293 11.4570395,15.0408293 C9.29112518,15.0408293 7.53564967,13.2852231 7.53564967,11.1194395 C7.53564967,8.95365589 9.29112518,7.19804967 11.4570395,7.19804967 L11.4570395,7.19804967 Z" id="Shape" fill="#E3E9EB"></path>
    </g>
</svg>