<?xml version="1.0" encoding="utf-8"?>
<!-- Generator: Avocode 2.6.0 - http://avocode.com -->
<svg height="16" width="16" xmlns:xlink="http://www.w3.org/1999/xlink" xmlns="http://www.w3.org/2000/svg" viewBox="0 0 16 16">
    <path fill="#0a4b82" fill-rule="evenodd" d="M 15.82 15.82 C 15.6 16.05 15.22 16.05 15 15.82 C 15 15.82 11.12 11.95 11.12 11.95 C 9.94 12.94 8.43 13.54 6.77 13.54 C 3.03 13.54 0 10.51 0 6.77 C 0 3.03 3.03 0 6.77 0 C 10.51 0 13.54 3.03 13.54 6.77 C 13.54 8.43 12.94 9.95 11.95 11.12 C 11.95 11.12 15.82 15 15.82 15 C 16.05 15.22 16.05 15.6 15.82 15.82 Z M 12.31 6.77 C 12.31 3.71 9.83 1.23 6.77 1.23 C 3.71 1.23 1.23 3.71 1.23 6.77 C 1.23 9.83 3.71 12.31 6.77 12.31 C 9.83 12.31 12.31 9.83 12.31 6.77 Z" />
</svg>