<svg width="66" height="32" xmlns="http://www.w3.org/2000/svg"><g fill="none" fill-rule="evenodd"><path d="M13.74 24.703h3.598V16h2.4l.317-3h-2.717l.004-1.502c0-.782.075-1.202 1.197-1.202h1.497v-3h-2.4c-2.882 0-3.897 1.455-3.897 3.902v1.8h-1.795v3h1.796v8.705zM0 0h32v32H0V0z" fill="#5790B1"/><path d="M47.075 24.703h3.596V16h2.4l.32-3h-2.72l.006-1.502c0-.782.075-1.202 1.197-1.202h1.5v-3h-2.4c-2.883 0-3.897 1.455-3.897 3.902v1.8H45.28v3h1.796v8.705zM33.333 0h32v32h-32V0z" fill="#0A4B82"/></g></svg>