<svg width="98" height="48" xmlns="http://www.w3.org/2000/svg"><g fill="none" fill-rule="evenodd"><path d="M20.612 37.055h5.395V23.998h3.6l.476-4.5h-4.076l.006-2.252c0-1.172.112-1.802 1.795-1.802h2.25v-4.5h-3.6c-4.324 0-5.846 2.183-5.846 5.854v2.7h-2.695V24h2.695v13.057zM0 0h48v48H0V0z" fill="#5790B1"/><path d="M70.612 37.055h5.395V23.998h3.6l.476-4.5h-4.076l.006-2.252c0-1.172.112-1.802 1.795-1.802h2.25v-4.5h-3.6c-4.324 0-5.846 2.183-5.846 5.854v2.7h-2.695V24h2.695v13.057zM50 0h48v48H50V0z" fill="#0A4B82"/></g></svg>