<?xml version="1.0" encoding="UTF-8" standalone="no"?>
<svg width="14px" height="20px" viewBox="0 0 14 20" version="1.1" xmlns="http://www.w3.org/2000/svg" xmlns:xlink="http://www.w3.org/1999/xlink">
    <!-- Generator: Sketch 3.6 (26304) - http://www.bohemiancoding.com/sketch -->
    <title>Untitled 12</title>
    <desc>Created with Sketch.</desc>
    <defs></defs>
    <g id="Page-1" stroke="none" stroke-width="1" fill="none" fill-rule="evenodd">
        <path d="M6.81818182,20 C6.81818182,20 13.6363636,11.0251982 13.6363636,7.10256182 C13.6363636,3.17992545 11.3807264,-9.09090907e-07 6.81818182,0 C2.25563727,9.09090907e-07 0,3.17992545 0,7.10256182 C0,11.0251982 6.81818182,20 6.81818182,20 L6.81818182,20 L6.81818182,20 Z M6.81818182,9.54545455 C8.82649,9.54545455 10.4545455,7.91739909 10.4545455,5.90909091 C10.4545455,3.90078273 8.82649,2.27272727 6.81818182,2.27272727 C4.80987364,2.27272727 3.18181818,3.90078273 3.18181818,5.90909091 C3.18181818,7.91739909 4.80987364,9.54545455 6.81818182,9.54545455 L6.81818182,9.54545455 L6.81818182,9.54545455 Z" id="map-location-pin-map-marker-glyph" fill="#FFFFFF"></path>
    </g>
</svg>