<?xml version="1.0" encoding="UTF-8" standalone="no"?>
<svg width="15px" height="20px" viewBox="0 0 15 20" version="1.1" xmlns="http://www.w3.org/2000/svg" xmlns:xlink="http://www.w3.org/1999/xlink" xmlns:sketch="http://www.bohemiancoding.com/sketch/ns">
    <!-- Generator: Sketch 3.3.3 (12081) - http://www.bohemiancoding.com/sketch -->
    <title>Untitled 4</title>
    <desc>Created with Sketch.</desc>
    <defs></defs>
    <g id="Page-1" stroke="none" stroke-width="1" fill="none" fill-rule="evenodd" sketch:type="MSPage">
        <path d="M9.25925926,0 L1.48352602,0 C0.664197222,0 1.77635684e-15,0.665435793 1.77635684e-15,1.48691107 L1.77635684e-15,18.513089 C1.77635684e-15,19.3342873 0.659944733,20 1.47957179,20 L12.5945023,20 C13.4116473,20 14.0740741,19.3346575 14.0740741,18.525337 L14.0740741,5.55555556 L14.0740741,5.18518519 L9.62962963,0 L9.25925926,0 L9.25925926,0 Z M8.88888889,0.740740741 L1.47820556,0.740740741 C1.07091499,0.740740741 0.740740741,1.0779725 0.740740741,1.47811632 L0.740740741,18.5218837 C0.740740741,18.929125 1.07756217,19.2592593 1.481452,19.2592593 L12.5926221,19.2592593 C13.0017056,19.2592593 13.3333333,18.9296694 13.3333333,18.5234091 L13.3333333,5.92592593 L10.3688245,5.92592593 C9.55147867,5.92592593 8.88888889,5.26921867 8.88888889,4.44005996 L8.88888889,0.740740741 L8.88888889,0.740740741 Z M9.62962963,1.11111111 L9.62962963,4.43793721 C9.62962963,4.85063087 9.96344526,5.18518519 10.3679547,5.18518519 L13.111075,5.18518519 L9.62962963,1.11111111 L9.62962963,1.11111111 Z M2.22222222,6.96296296 L2.22222222,7.7037037 L7.40740741,7.7037037 L7.40740741,6.96296296 L2.22222222,6.96296296 L2.22222222,6.96296296 Z M2.22222222,10.4074074 L2.22222222,11.1481481 L11.8518519,11.1481481 L11.8518519,10.4074074 L2.22222222,10.4074074 L2.22222222,10.4074074 Z M2.22222222,13.2962963 L2.22222222,14.037037 L11.8518519,14.037037 L11.8518519,13.2962963 L2.22222222,13.2962963 L2.22222222,13.2962963 Z" id="document-text" fill="#FFFFFF" sketch:type="MSShapeGroup"></path>
    </g>
</svg>