<svg width="15" height="20" xmlns="http://www.w3.org/2000/svg"><path d="M9.26 0H1.483C.664 0 0 .665 0 1.487v17.026C0 19.333.66 20 1.48 20h11.115a1.48 1.48 0 0 0 1.48-1.475V5.185L9.63 0h-.37zm-.37.74H1.477a.742.742 0 0 0-.737.738v17.044c0 .407.338.737.74.737h11.113c.41 0 .74-.33.74-.737V5.926H10.37c-.82 0-1.48-.657-1.48-1.486V.74zm.74.37V4.44c0 .413.333.747.738.747h2.743L9.63 1.11zM2.222 6.964v.74h5.185v-.74H2.222zm0 3.444v.74h9.63v-.74h-9.63zm0 2.89v.74h9.63v-.74h-9.63z" fill="#FFF" fill-rule="evenodd"/></svg>