<svg width="21" height="24" xmlns="http://www.w3.org/2000/svg"><path d="M18.227 13.8c-.32-.316-1.028-.483-2.106-.497-.73-.008-1.607.056-2.53.186-.415-.24-.84-.5-1.176-.813-.9-.84-1.652-2.007-2.12-3.29.03-.12.056-.226.08-.333 0 0 .508-2.88.373-3.855a1.125 1.125 0 0 0-.065-.277l-.045-.113c-.137-.318-.408-.655-.832-.637l-.25-.008H9.55c-.473 0-.86.242-.96.603-.307 1.134.01 2.83.585 5.027l-.147.358c-.412 1.003-.928 2.014-1.383 2.906l-.06.115a48.129 48.129 0 0 1-1.307 2.407l-.407.215c-.028.015-.725.384-.89.483-1.386.828-2.305 1.768-2.457 2.515-.05.238-.013.542.234.683l.393.198c.17.086.35.13.535.13.988 0 2.135-1.232 3.715-3.99a37.003 37.003 0 0 1 5.72-1.36c1.39.782 3.095 1.325 4.17 1.325.193 0 .357-.017.49-.053a.833.833 0 0 0 .488-.332c.21-.314.25-.748.195-1.19-.017-.133-.122-.295-.236-.406zM3.47 19.054c.18-.492.894-1.466 1.95-2.33.065-.054.228-.207.378-.35-1.103 1.76-1.84 2.46-2.327 2.68zm6.246-14.38c.318 0 .498.8.513 1.55.014.75-.16 1.277-.38 1.667-.18-.577-.266-1.486-.266-2.08 0 0-.014-1.138.132-1.138zM7.853 14.922c.22-.396.452-.814.687-1.257a23.93 23.93 0 0 0 1.205-2.63 8.69 8.69 0 0 0 1.99 2.47c.097.083.2.166.31.25-1.597.315-2.977.7-4.192 1.167zm10.067-.09c-.097.06-.376.096-.555.096-.578 0-1.294-.266-2.297-.696.386-.028.74-.043 1.056-.043.58 0 .752 0 1.32.143.566.145.573.44.476.5zm1.745-10.165L16.32 1.324C15.592.596 14.154 0 13.124 0H1.888C.858 0 .015.843.015 1.873v20.224c0 1.03.843 1.873 1.873 1.873h17.228c1.03 0 1.873-.843 1.873-1.873V7.865c0-1.03-.597-2.468-1.325-3.197zm-1.06 1.06c.074.073.147.163.218.264h-3.827V2.166c.102.07.192.144.265.218l3.345 3.344zm.886 16.37a.38.38 0 0 1-.374.374H1.888a.38.38 0 0 1-.375-.375V1.873a.38.38 0 0 1 .375-.375h11.236c.113 0 .24.014.374.04V7.49h5.953c.026.135.04.262.04.375v14.232z" fill="#0A4B82" fill-rule="evenodd"/></svg>