<svg width="670" height="357" xmlns="http://www.w3.org/2000/svg"><g fill="none" fill-rule="evenodd"><path d="M379.8 32.352c-1.18 1.008-1.768 2.766-1.768 5.273 0 1.703.39 3.08 1.168 4.133.78 1.053 2.103 1.578 3.974 1.578 1.78 0 3.193-.492 4.24-1.478 1.046-.985 1.57-2.42 1.57-4.3V30.84h-4.876c-1.69 0-3.127.504-4.307 1.512zM237.382 178.317h22.474v-85.97l-22.474-7.813v93.783zm92.802 86.515l39.4-49.186.034-134.782h-39.434v183.968zm-55.11-221.496c1.78 0 3.193-.492 4.24-1.478 1.046-.985 1.57-2.42 1.57-4.3V30.84h-4.876c-1.692 0-3.128.504-4.308 1.512-1.18 1.008-1.77 2.766-1.77 5.273 0 1.703.39 3.08 1.17 4.133.78 1.053 2.103 1.578 3.974 1.578zm-37.692 273.63l22.474 28.056V220.075h-22.474v96.89zm244.93-276.318c.31-.537.52-1.142.63-1.813.112-.67.19-1.388.235-2.15l-.066-9.607c0-1.344-.043-2.62-.13-3.83-.09-1.21-.356-2.25-.8-3.124-.444-.873-1.11-1.567-1.996-2.083-.887-.512-2.13-.747-3.725-.703V43.81c1.42-.09 2.63-.415 3.624-.976 1-.56 1.74-1.288 2.23-2.185zm98.59 2.688c1.78 0 3.193-.492 4.24-1.478 1.047-.986 1.57-2.42 1.57-4.3V30.84h-4.875c-1.693 0-3.13.504-4.31 1.512-1.18 1.008-1.767 2.766-1.767 5.273 0 1.703.39 3.08 1.168 4.133.78 1.053 2.103 1.578 3.974 1.578zM465.71 37.088c.044.762.122 1.444.235 2.05.11.604.28 1.108.504 1.51a5.165 5.165 0 0 0 2.146 2.185c.94.516 2.195.84 3.764.975V17.335c-2.015.134-3.583.684-4.702 1.646-1.12.966-1.725 2.365-1.814 4.2a78.61 78.61 0 0 0-.168 4.3 325.36 325.36 0 0 0-.033 4.77c0 .765.01 1.57.033 2.42.02.85.033 1.658.033 2.42zm64.436-16.268c-.357-1.252-.914-2.134-1.672-2.647-.756-.514-1.758-.77-3.004-.77-1.736 0-3.094.568-4.072 1.708-.98 1.14-1.47 2.627-1.47 4.458v13.336c0 1.786.435 3.295 1.302 4.523.87 1.23 2.238 1.843 4.107 1.843 2.582 0 4.207-1.274 4.873-3.82.223-.94.367-2.268.434-3.987.068-1.72.102-3.585.102-5.597 0-2.1-.033-3.908-.102-5.428-.066-1.518-.232-2.724-.498-3.618zm-23.016 4.155a27.585 27.585 0 0 0-.167-2.547c-.09-.76-.2-1.34-.336-1.743-.36-1.16-.986-2.043-1.88-2.646-.897-.605-1.95-.907-3.16-.907-1.03 0-1.993.224-2.888.67-.898.448-1.594 1.253-2.086 2.414-.312.804-.516 2.033-.604 3.686a110.66 110.66 0 0 0-.134 5.896v2.145c0 1.83.02 3.462.066 4.892.045 1.43.2 2.524.47 3.284.673 2.28 2.397 3.42 5.175 3.42 1.3 0 2.406-.38 3.326-1.14.916-.76 1.533-1.787 1.848-3.084.135-.804.246-1.987.338-3.552.088-1.562.133-3.193.133-4.892 0-.938-.01-1.92-.032-2.95l-.066-2.948z"/><path d="M255.52 42.067a4.41 4.41 0 0 1-1.746 1.036c-.65.2-1.31.3-1.982.3-1.568 0-2.833-.392-3.796-1.176-.964-.783-1.49-2.07-1.58-3.863l-4.03.604c.135 1.48.46 2.736.975 3.77.517 1.036 1.19 1.884 2.017 2.546a7.872 7.872 0 0 0 2.848 1.437c1.07.297 2.207.446 3.412.446 1.248 0 2.452-.168 3.61-.504a8.495 8.495 0 0 0 3.11-1.645c.915-.76 1.64-1.77 2.175-3.023.536-1.253.804-2.8.804-4.636 0-1.79-.19-3.393-.57-4.804-.382-1.41-1.334-2.385-2.856-2.923v-.134c1.434-.582 2.362-1.567 2.788-2.957.426-1.39.64-2.82.64-4.3 0-1.568-.225-2.91-.67-4.03-.447-1.12-1.083-2.027-1.908-2.723-.826-.694-1.808-1.21-2.946-1.545-1.138-.335-2.398-.503-3.782-.503-2.5 0-4.597.65-6.292 1.947-1.697 1.3-2.656 3.27-2.88 5.912.09.044.325.1.706.167.38.067.783.157 1.21.27.425.11.828.2 1.21.268.38.067.638.124.77.168.136-1.7.662-2.955 1.58-3.76.918-.808 2.16-1.21 3.73-1.21 1.566 0 2.82.447 3.76 1.343.942.896 1.412 2.195 1.412 3.897 0 1.88-.348 3.236-1.04 4.064-.696.83-1.67 1.243-2.924 1.243h-3.494v3.628h3.293c2.777 0 4.166 1.96 4.166 5.88 0 1.158-.158 2.127-.47 2.906-.317.782-.73 1.418-1.246 1.907zm12.026 2.243a6.91 6.91 0 0 0 2.352 2.117c.963.538 2.16.807 3.595.807 1.388 0 2.698-.213 3.93-.64 1.232-.424 2.34-1.33 3.327-2.72h.066v2.956h4.166V22.307c0-3.314-.796-5.632-2.385-6.954-1.59-1.32-3.842-1.98-6.753-1.98-2.42 0-4.412.55-5.98 1.65-1.567 1.1-2.643 2.61-3.224 4.53l3.896 1.21c.312-1.3.996-2.23 2.05-2.79 1.052-.56 2.07-.84 3.057-.84 2.06 0 3.448.474 4.165 1.42.716.948 1.075 2.21 1.075 3.79v4.868h-5.845c-1.838 0-3.338.328-4.502.977-1.165.65-2.105 1.48-2.822 2.486a9.058 9.058 0 0 0-1.478 3.393 17.906 17.906 0 0 0-.403 3.763c0 1.21.135 2.373.403 3.492.27 1.12.706 2.118 1.31 2.99zm4.155-11.958c1.18-1.008 2.617-1.512 4.31-1.512h4.875v6.72c0 1.88-.523 3.313-1.57 4.3-1.046.984-2.46 1.477-4.24 1.477-1.87 0-3.193-.525-3.973-1.578-.777-1.055-1.167-2.43-1.167-4.135 0-2.51.588-4.267 1.768-5.274zm49.965-18.578h-4.1v29.16h-9.27v-29.16h-4.1v29.16h-9.137v-29.16h-4.098V46.83h29.226v7.727h3.695V42.934h-2.214v-29.16zm22.977 7.592h.067V46.83h4.096V13.84h-4.098a730.778 730.778 0 0 0-5.947 12.666 958.91 958.91 0 0 1-5.945 12.732h-.067V13.84h-4.1v32.99h3.966l12.026-25.464zM359.29 46.83h4.097V17.536h7.39v-3.762h-18.812v3.762h7.324V46.83zm31.408-31.477c-1.59-1.32-3.842-1.98-6.753-1.98-2.42 0-4.412.55-5.98 1.65-1.567 1.1-2.643 2.61-3.224 4.53l3.898 1.21c.312-1.3.996-2.23 2.05-2.79 1.052-.56 2.07-.84 3.057-.84 2.06 0 3.448.474 4.165 1.42.715.948 1.074 2.21 1.074 3.79v4.868h-5.845c-1.84 0-3.34.328-4.504.977-1.165.65-2.105 1.48-2.822 2.486a9.058 9.058 0 0 0-1.478 3.393 17.906 17.906 0 0 0-.403 3.763c0 1.21.135 2.373.403 3.492.27 1.12.705 2.118 1.31 2.99A6.91 6.91 0 0 0 378 46.428c.962.538 2.16.807 3.594.807 1.388 0 2.698-.213 3.93-.64 1.232-.424 2.34-1.33 3.327-2.72h.068v2.956h4.166V22.308c0-3.315-.796-5.632-2.385-6.954zm-1.714 22.206c0 1.88-.523 3.312-1.57 4.3-1.046.983-2.46 1.476-4.24 1.476-1.87 0-3.193-.525-3.973-1.578-.776-1.054-1.166-2.43-1.166-4.134 0-2.508.59-4.266 1.77-5.273 1.18-1.006 2.614-1.51 4.307-1.51h4.876v6.72zm38.162-16.194h.066V46.83h4.098V13.84h-4.098a730.775 730.775 0 0 0-5.945 12.666 971.756 971.756 0 0 1-5.947 12.732h-.066V13.84h-4.1v32.99h3.965l12.025-25.464zm14.377 10.347h10.547V46.83h4.3V13.774h-4.3v14.31h-10.547v-14.31h-4.1V46.83h4.1V31.713zm20.49 7.827a9.27 9.27 0 0 0 1.01 2.923c.895 1.747 2.104 2.945 3.63 3.595 1.52.65 3.447 1.108 5.775 1.377v12.497h4.03c0-2.105.013-4.188.034-6.248.023-2.062.035-4.144.035-6.25 3.914-.402 6.652-1.544 8.21-3.426a8.196 8.196 0 0 0 1.67-2.89c.356-1.074.58-2.283.667-3.627.09-1.297.135-2.652.135-4.063v-4.2c0-1.477-.025-2.91-.068-4.3a26.305 26.305 0 0 0-.4-3.895c-.4-2.283-1.436-4.108-3.105-5.475-1.67-1.367-4.04-2.116-7.11-2.25 0-2.15-.01-4.278-.034-6.384-.02-2.103-.033-4.23-.033-6.382h-4.097v12.767c-2.51.09-4.535.628-6.08 1.612-1.547.985-2.7 2.283-3.46 3.895-.226.494-.415 1.154-.57 1.982-.16.83-.282 1.747-.372 2.755a70.065 70.065 0 0 0-.266 6.08v3.963c0 .94.022 1.792.067 2.554.044 1.21.155 2.34.335 3.392zm14.446-22.205c1.594-.044 2.836.19 3.723.705.887.516 1.553 1.21 1.996 2.083.442.873.71 1.915.8 3.124.086 1.21.13 2.486.13 3.83l.067 9.607a20.6 20.6 0 0 1-.234 2.15 5.32 5.32 0 0 1-.63 1.813c-.49.896-1.23 1.624-2.23 2.184-.996.563-2.205.888-3.625.977v-26.47zM465.674 27.48c.02-1.567.078-3 .168-4.3.09-1.837.693-3.236 1.814-4.2 1.12-.962 2.688-1.512 4.703-1.646v26.472c-1.567-.135-2.82-.46-3.763-.975a5.17 5.17 0 0 1-2.148-2.182c-.227-.402-.395-.906-.506-1.512a16.527 16.527 0 0 1-.236-2.05c0-.76-.013-1.566-.034-2.418a89.437 89.437 0 0 1-.033-2.42c0-1.61.01-3.198.034-4.767zm44.712-8.936c-.54-1.478-1.496-2.71-2.867-3.695-1.37-.986-3.314-1.48-5.832-1.48-2.426 0-4.37.493-5.83 1.48-1.463.984-2.484 2.282-3.068 3.895-.225.537-.395 1.242-.506 2.116a65.703 65.703 0 0 0-.303 2.924 50.935 50.935 0 0 0-.166 3.393 182.2 182.2 0 0 0-.035 3.527v2.822c0 .985.022 1.96.067 2.922.043.963.11 1.858.2 2.687.09.83.204 1.512.34 2.05.448 1.702 1.347 3.147 2.696 4.333 1.348 1.188 3.393 1.78 6.135 1.78 1.035 0 2.09-.123 3.17-.37a9.124 9.124 0 0 0 3-1.275c.922-.604 1.707-1.444 2.36-2.52.65-1.076 1.065-2.44 1.247-4.1.135-1.343.223-2.607.268-3.795.045-1.187.068-2.385.068-3.595V28.35c0-1.79-.056-3.582-.17-5.374-.11-1.79-.37-3.268-.772-4.434zm-3.29 17.22c-.09 1.564-.202 2.748-.335 3.552-.314 1.297-.932 2.324-1.848 3.083-.92.76-2.027 1.14-3.326 1.14-2.777 0-4.502-1.14-5.174-3.42-.27-.76-.426-1.854-.47-3.284-.046-1.43-.067-3.06-.067-4.892V29.8c0-2.278.043-4.244.135-5.897.088-1.652.29-2.882.604-3.686.492-1.16 1.188-1.966 2.084-2.413a6.374 6.374 0 0 1 2.89-.67c1.208 0 2.26.302 3.157.904.895.604 1.52 1.485 1.88 2.646.136.403.247.983.337 1.743.09.76.145 1.608.168 2.547l.066 2.948c.023 1.028.033 2.01.033 2.95 0 1.698-.043 3.33-.13 4.892zm26.383-18.53c-.6-1.052-1.278-1.858-2.032-2.42a6.552 6.552 0 0 0-2.43-1.142c-.865-.2-1.654-.302-2.363-.302-1.775 0-3.13.296-4.06.888-.933.592-1.778 1.412-2.532 2.46h-.133V13.84h-4.1v45.956h4.1V44.008h.133c.488.852 1.254 1.603 2.297 2.25 1.045.65 2.342.976 3.896.976 2.22 0 3.895-.47 5.027-1.41 1.13-.94 1.963-2.15 2.496-3.63.53-1.478.84-3.258.93-5.34.09-2.084.133-4.356.133-6.82v-4.468c0-1.41-.066-2.81-.2-4.2-.18-1.702-.568-3.08-1.165-4.132zm-2.835 18.23c-.066 1.72-.21 3.048-.434 3.985-.664 2.545-2.29 3.82-4.87 3.82-1.87 0-3.24-.616-4.108-1.845-.866-1.23-1.3-2.737-1.3-4.523V23.567c0-1.83.488-3.316 1.47-4.456.978-1.14 2.335-1.707 4.07-1.707 1.247 0 2.25.257 3.005.77.758.515 1.314 1.397 1.672 2.648.265.895.43 2.1.497 3.62.068 1.52.102 3.327.102 5.427 0 2.012-.035 3.877-.103 5.597zm13.94-12.217l.07-.067c.177.36.46.92.84 1.68.384.763.776 1.57 1.18 2.42.405.85.788 1.657 1.147 2.418.36.763.63 1.32.81 1.68l3.845 7.794h2.225c.63-1.3 1.28-2.61 1.955-3.93a129.59 129.59 0 0 0 1.957-4l3.98-8.53h.202v24.12h4.098V13.84h-3.83l-5.19 10.615-4.183 8.936h-.064c-.36-.76-.89-1.847-1.586-3.26a138.756 138.756 0 0 1-2.19-4.667c-.54-1.12-1.07-2.25-1.586-3.394a749.825 749.825 0 0 0-2.798-6.114 81.524 81.524 0 0 0-1.012-2.116h-3.963v32.99h4.1V23.247h-.003zm28.79 21.063a6.91 6.91 0 0 0 2.352 2.117c.963.538 2.162.807 3.596.807a11.95 11.95 0 0 0 3.93-.64c1.232-.424 2.34-1.33 3.326-2.72h.064v2.956h4.166V22.307c0-3.314-.794-5.632-2.384-6.954-1.59-1.32-3.842-1.98-6.752-1.98-2.42 0-4.412.55-5.98 1.65-1.568 1.1-2.643 2.61-3.225 4.53l3.894 1.21c.312-1.3.996-2.23 2.05-2.79 1.052-.56 2.07-.84 3.058-.84 2.06 0 3.447.474 4.164 1.42.717.948 1.076 2.21 1.076 3.79v4.868h-5.846c-1.838 0-3.338.328-4.502.977-1.164.65-2.105 1.48-2.822 2.486a9.04 9.04 0 0 0-1.477 3.393 17.842 17.842 0 0 0-.404 3.763c0 1.21.136 2.373.405 3.492.268 1.12.705 2.118 1.31 2.99zm4.154-11.958c1.18-1.008 2.613-1.512 4.307-1.512h4.875v6.72c0 1.88-.523 3.313-1.57 4.3-1.047.985-2.46 1.477-4.24 1.477-1.87 0-3.193-.525-3.973-1.578-.78-1.055-1.17-2.43-1.17-4.135 0-2.51.59-4.267 1.768-5.274zm36.458 22.944h3.83V42.934h-2.216v-29.16h-4.233v29.16h-10.55v-29.16h-4.098V46.83h17.265v8.466zm23.72-33.93h.065V46.83h4.098V13.84h-4.096a730.775 730.775 0 0 0-5.945 12.666 971.756 971.756 0 0 1-5.948 12.732h-.065V13.84h-4.1v32.99h3.965l12.027-25.464zm26.067 0h.066V46.83h4.1V13.84h-4.1a730.775 730.775 0 0 0-5.943 12.666 971.756 971.756 0 0 1-5.947 12.732h-.067V13.84h-4.1v32.99h3.965l12.027-25.464z" fill="#0A2E4F"/><path d="M198.625 74.864H153.19a3 3 0 0 0-3 3l.037 138.837a3 3 0 0 0 .658 1.877l45.397 56.676a3 3 0 0 0 5.342-1.876V77.864a3 3 0 0 0-3-3zm92.8 139.21H262.91c-.01 0-.018.004-.026.004-.01 0-.018-.003-.027-.003h-28.474a3 3 0 0 0-3 3v100.943c0 .682.232 1.344.658 1.876l28.476 35.548c.06.072.13.126.194.192.034.038.072.073.11.11.08.074.157.153.244.22.245.19.52.346.824.457a2.94 2.94 0 0 0 1.02.183 3.038 3.038 0 0 0 2.387-1.16l28.474-35.548a3.002 3.002 0 0 0 .656-1.876V217.074a3 3 0 0 0-3-3zm-31.57 130.948l-22.473-28.058v-96.89h22.474v124.948zM372.62 74.864h-45.436a3 3 0 0 0-3 3v195.512a3.003 3.003 0 0 0 3 3 3 3 0 0 0 2.342-1.124l45.398-56.676a3 3 0 0 0 .658-1.875l.036-138.834a2.998 2.998 0 0 0-3-3zm-3.037 140.782l-39.398 49.186V80.864h39.434l-.038 134.782zM293.165 77.87a3.003 3.003 0 0 0-2.724-.39l-27.534 9.572-27.537-9.57a3 3 0 0 0-3.987 2.833v101.002a3 3 0 0 0 3 3h28.474c.01 0 .018-.003.027-.003.01 0 .018.003.026.003h28.516a3 3 0 0 0 3-3V80.315a3 3 0 0 0-1.26-2.445zm-33.31 100.447h-22.473V84.534l22.474 7.812v85.97zM65.148 72.217C29.388 72.217.895 101.27.895 136.47v148.062c0 35.2 28.494 64.255 64.253 64.255 35.2 0 64.253-29.055 64.253-64.255V263.86c0-5.028-3.91-8.94-8.936-8.94h-17.88c-5.028 0-8.94 3.912-8.94 8.94v20.672c0 15.645-12.85 28.496-28.494 28.496-15.647 0-28.496-12.852-28.496-28.496V136.47c0-15.644 12.85-28.494 28.495-28.494 15.643 0 28.493 12.85 28.493 28.494v18.996c0 5.028 3.91 8.94 8.938 8.94h17.88c5.03 0 8.94-3.912 8.94-8.94V136.47c0-35.2-29.054-64.253-64.253-64.253zm425.325 0H404.43c-5.03 0-8.94 3.91-8.94 8.94v17.878c0 5.028 3.91 8.94 8.94 8.94h25.14v231.872c0 4.47 3.91 8.94 8.94 8.94h17.88c5.028 0 8.938-4.472 8.938-8.94v-231.87h25.145c5.027 0 8.94-3.913 8.94-8.94v-17.88c0-5.03-3.913-8.94-8.94-8.94zm178.787 8.94c0-5.03-3.91-8.94-8.94-8.94h-17.878c-5.027 0-8.94 3.91-8.94 8.94v82.133c0 16.202-12.85 29.053-29.054 29.053h-28.494V81.156c0-5.028-3.912-8.94-8.94-8.94h-17.878c-5.03 0-8.94 3.912-8.94 8.94v258.692c0 4.47 3.91 8.94 8.94 8.94h17.88c5.026 0 8.938-4.472 8.938-8.94V228.102h28.494c16.203 0 29.055 12.852 29.055 28.494v83.252c0 4.47 3.912 8.94 8.94 8.94h17.878c5.03 0 8.94-4.472 8.94-8.94v-83.252c0-18.437-7.82-34.64-20.112-46.373 12.29-11.733 20.113-28.496 20.113-46.933V81.156z" fill="#0A417C"/></g></svg>