<svg width="23" height="34" xmlns="http://www.w3.org/2000/svg"><g fill="none" fill-rule="evenodd"><path d="M11.457.662C5.682.662 1 5.344 1 11.12c0 1.857.5 3.594 1.348 5.105.14.25.29.498.45.736l8.66 15.074 8.66-15.073c.132-.196.247-.406.366-.612l.082-.123a10.397 10.397 0 0 0 1.348-5.106C21.914 5.343 17.232.66 11.457.66zm0 5.23a5.23 5.23 0 1 1 0 10.456 5.23 5.23 0 0 1 0-10.457z" stroke="#FFF" fill="#5790B1"/><path d="M11.457 4.584a6.536 6.536 0 1 0 0 13.07 6.536 6.536 0 0 0 0-13.07zm0 2.614a3.92 3.92 0 1 1 0 7.843 3.92 3.92 0 0 1 0-7.842z" fill="#E3E9EB"/></g></svg>