<svg width="962" height="502" xmlns="http://www.w3.org/2000/svg"><g fill="none" fill-rule="evenodd"><path d="M26.932 301.44l-7.708-10.135 4.54-12.916-3.92-3.24-2.852 1.997-11.308-7.73-1.84 2.946.417 8.952L0 285.862l1.275 7.027 7.55-.437 8.053 10.13 6.026 3.557.33-.382 3.698-4.318zm327.455-134.024l-.555.14-4.416 1.104-.37.093-.067.377-.737 4.23-.037.212.113.188 2.76 4.6.19.32.37-.04 3.495-.366.504-.053.02-.507.183-4.783.003-.092-.02-.082-1.44-5.34zm-14.605-25.53l.168 4.846-3.134 3.133-.285.287.17.367 2.574 5.703.135.3.33.04 2.46.308.15 2.096.03.434.43.098 3.24.72 2.143 1.07.755.377.09-.84 1.467-13.954 1.065-5.145 4.383-4.735 5.378-1.794.188-.06.11-.156 2.377-3.37-.093-.28-.768-2.303 2.66 1.693.17.108.2-.02 3.678-.368.38-.037.893-2.685 1.94.148.588.047.04-.59.13-1.976 2.21.828.642.242.137-.675.324-1.632 1.43 1.546.474.517.423-.563 1.743-2.323.024-.14.398-2.39 2.366 1.67.384.27.35-.316 1.797-1.634 3.94.856.336.076 3.556-4.114 26.6-.55h.142l.127-.07 6.437-3.496.255-.14.045-.285.737-4.783.036-.257-.17-.205-2.757-3.31-.237-.284-.358.092-6.44 1.655-.27.07-.12.254-.93 2.017-10.443-.87-4.64-3.924-.31-.262-.356.2-3.976 2.248-3.963-1.723-.292-.128-.263.172-5.187 3.398h-4.45l-.165.14-1.786 1.486-2.566-2.728-.753-.798-.242 1.07-1.375 6.01-2.87.16-.48.025-.07.475-.313 2.21-7.717 2.4-2.745-1.2-.4-.175L359.96 119l-.34.41 2.342 2.342-2.597 2.453-4.985-2.062-.668-.276-.132.714-.643 3.543-3.35-.16-.58-.027-.2 3.373-4.82 2.492-3.077-1.025-.29-.096-.244.184-3.68 2.76-.22.165-.013.276-.184 4.046-.015.26.182.183 3.334 3.332zm79.91-94.02l-.246-.588-.564.292-3.296 1.71-.548.282 2.39 4.074.372.637.534-.508 2.44-2.32.295-.28-.156-.37-1.223-2.93zm-116.39 112.06l.17.224.28.007 6.377.17.44.012.133-.427.732-2.374.036-.118-.01-.12-.396-3.563-.022-.19-.13-.14-3.385-3.678-.263-.282-.362.128-4.853 1.695-.29.1-.08.295-1.186 4.184-.08.28.176.232 2.71 3.563zM58.904 149.43l.258.557.545-.284 6.618-3.453.3-.156.014-.334.575-12.662.007-.186-.1-.158-3.166-4.892-.734-1.132-1.567 6.276-2.31-1.47-2.522-7.287-.24-.7-.625.395-3.003 1.912-4.128-.274-.986-.066 11.06 23.916zM405.4 35.778l.047.197.158.124 2.2 1.71.176.136.228-.016 2.944-.228 1.772 1.44.435.355-2.46.32-.084.012-.073.03-1.516.65-3.22-.92-.677-.19-.066.697-.27 2.84.194.194 2.31 2.31 2.834 3.58.424-.774.732-1.343.106-.193-.534-2.452 2.452-.567 3.873 1.29.345.117.253-.255 2.565-2.563.385-.384-.357-.415-2.318-2.684-.1-.112-.14-.055-1.953-.734-.305-.112-.254.196-1.953 1.493-.165.022.36-.434 1.22-1.46.36-.435-.418-.374-2.442-2.2-.245-.217-.316.094-1.936.593-4.412-2.845-1.245-.803 1.094 4.366zm-69.49 111.045l.074 1.06.856-.625 2.023-1.47.24-.178v-4.075l-.454-.105-2.393-.552-.77-.176.055.786.367 5.335zM440.492 40.676l.05.092.073.065 1.22 1.1.362.326.388-.3 1.588-1.22.54-.42-.494-.47-2.32-2.2-.373-.35-.398.32-1.22.98-.385.305.236.43.73 1.34zm-19.738-1.035l.403.56.485-.486 1.9-1.9-.457-.416-2.444-2.197-.613-.55-.317.763-.61 1.465-.126.3.192.266 1.588 2.198zm7.845 10.666l.103.12.148.05 4.64 1.59.65.22.73-4.22.052-.316-.24-.217-4.642-4.153-.345-.308-.38.265-3.66 2.564-.533.375.424.49 3.053 3.54zm5.605-6.495l.047.24.207.135 2.443 1.588.485.316.32-.48 1.466-2.198.186-.283-.154-.307-1.34-2.684-.264-.523-.52.26-2.933 1.467-.4.2.087.437.368 1.834zm-2.627 20.145l.24-.314-.198-.34-1.656-2.814-.53.672-1.344 1.71-.266.34.246.354 1.342 1.955.455.663.49-.638 1.22-1.586zm-8.95-17.714l-.562.94-.732 1.22-.123.205.055.23.488 2.075.203.858.712-.517 1.343-.975.394-.285-.207-.44-1.1-2.32-.47-.99zM960.37 189.817l-2.08-.488-.173-.042-.166.063-5.142 1.96-.848.32.64.64 2.448 2.45.376.374.41-.337 4.778-3.917.913-.752-1.154-.273zM422.948 54.046l-.126.183-1.627 2.367.365.342 2.34 2.192.4-.345 1.99-1.72-.52.68-.34.443.432.362 1.466 1.22.296.25.346-.182 2.564-1.342.237-.125.06-.26.867-3.613-.56-.14-1.956-.488-.37-.095-.235.306-1.372 1.79-.124-.18-1.344-1.954-.23-.336-.392.1-1.954.486-.213.056zm5.473 109.294l-.36.116-1.787.567-.54.172.155.546.65 2.274.108.38.39.042 2.192.244.494.054.135-.48.405-1.463.085-.307-.214-.24-1.46-1.62-.253-.282zm512.458 229.004l.013-.02 1.675-2.61.136-.21-.06-.24-.73-3.03-.103-.427-.44-.02-2.3-.105-.666-.03.057.666.185 2.106-1.337 1.162-.023.017-.018.02-2.82 2.92-.17.177.007.25.21 6.995v.047l.004.026.835 5.64.044.298.273.14 1.043.52.738.368.105-.82.416-3.225.63-4.286.002-.05.2-3.282 2.095-3zm-8.042 17.427l-.273-.172-.292.137-2.307 1.09-.06.03-.05.038-1.268.998-.322.25.126.388 1.092 3.47-.394 4.513-.01.124.04.12 1.087 3.085.21.596.58-.254 1.13-.497.327-.146.02-.36.445-7.966 1.273-1.484.112-.133.024-.177.27-2.13.047-.368-.31-.196-1.494-.955zm9.674 4.05l-.027-.124-.07-.098-1.267-1.77-.397-.55-.49.47-1.266 1.223-.172.17-.007.244-.044 2.042-.002.125.05.12.768 1.767.216.5.515-.178 2.31-.82.48-.17-.102-.497-.498-2.452zm5.578-42.54l-.012-.14-.074-.12-1.882-3.027-.39-.63-.522.52-2.195 2.194-.175.177.008.25.104 4.597.105 4.807v.016l.105 2.195.023.555h3.274l.135-.394 1.883-5.434.04-.118-.01-.116-.417-5.33zm-346.115 55.61l-2.167 2.015-.067.06-.047.084-.72 1.293-.123.22.076.237.734 2.353-.87 2.172-2.214.556-.42.107-.17 3.034-2.955 4.826-4.456 1.385-.19.058-.112.156-2.897 3.968-3.267-.283-.532-.05-1 5.648-2.47 2.78-8.173 3.615-.072.034h-5.21l-.935-2.005 2.134-1.28 3.247-.462.135-.02.115-.08 6.642-4.59.094-.063.064-.1 2.36-3.614 4.893-4.418.115-.106.047-.145 1.09-3.27 2.88-4.954 3.51-5.423.034-.058.024-.066 3.04-8.317.004-.01.003-.007.28-.768h-.02l1.8-5.288.49-1.453.336-.982.013-.04.007-.055 1.273-7.956 1.967-3.478 2.32.27.44 2.783-1.273 7.154-.01.064.003.076.48 7.004.004.058.017.07 1.088 3.723-1.385 3.54zM194.44 162.44l-2.693 2.604-.033.033-4.69 5.288-.09.1-.036.13-1.347 4.816-.023.024-2 1.915-4.11-.188-1.56-1.635 1.317.03.212.006.165-.134 2.157-1.728.143.188.154-.427.16-.13-.078-.098.13-.352.584-1.617.044-.122-.01-.123-.383-4.814 1.726-3.357 6.284-6.78 3.467.82 1.076 1.977-.563 3.572zm-25.235-11.466l-1.64 1.914-.15.178.012.23.19 3.82-.473 3.226-2.413 1.86-.13.1-.75 1.975-4.785.092-2.075-3.07h-4.864l-1.047-1.294 8.03-9.714-.24-5.093.082-.018 3.727-.74 4.767.67 1.848 2.593-.09 3.266zm772.523 138.432l-.1-1.206-1.255-15.734-.004-.036-.015-.055-1.73-7.24-.04-.164-.115-.112-5.007-5.007.44-7.192 2.943-2.422-.393-.452-8.823-10.217.15-6.79 3.625-3.93.21-.228-.067-.3-.946-4.093-.078-.334-.33-.097-7.323-2.135-7.323-13.01.964-.64 2.03 2.84.32.447.465-.288 3.78-2.363.64-.4-.55-.52-5.823-5.507-.312-.295-.367.205-2.844 1.563-4.73-3.072-.1-.06-.054-.133-2.308-5.562-.153-.36h-6.074l-.083.486-.538 3.086-2.443-.235-10.482-20.96.576-6.176 3.834-.85.59-.13-.147-.584-2.73-10.923 5.42 4.287.934.738.01-1.19.157-14.873 5.02-5.17 7.784-.15.85-.02-.32-.786-4.527-11.09-2.174-23.983-.05-.515-.007-.078-1.57-17.344-.263-.15-3.912-2.215 10.405-7.18.352-.24-.126-.41-1.69-5.575-.396-.032-20.77-1.73-.318-.026-.193.257-2.362 3.097-5.405.45-.465.038-.067.463-.552 3.867-3.473-.24v-5.17l4.79-1.597.238-.077.105-.222 2.044-4.25.073-.147-.014-.163-1.104-11.17-.035-.36-.34-.132-2.044-.786-.273-.107-.243.154-1.662 1.04-.12-3.08-.032-.822-.762.297-4.496 1.74-2.844-3.25.995-4.862 3.703 3.275.382-.307 1.933-1.546 3.096 3.374.61.663.356-.826 2.047-4.722.057-.137-.01-.142-.448-5.364 3.352-2.796 6.367.606.227.022.182-.135 11.014-8.34.494-.374-.4-.472-1.676-1.97 3.978.57.687.097-.2-6.725-.666.123-5.536 1.018-1.54-3.36-.126-.273-.29-.06-7.08-1.387 2.542-3.178.382-.478-.492-.36-3.435-2.51 3.11-2.207.5-.35-.374-.484L883.29.15l-.445.263-13.376 7.867-.25.15-.035.286-.766 6.292-3.99 5.204.715.29 7.7 3.104-3.437 1.55-14.278-3.877-.254-.07-.222.146-16.823 11.165-25.147 13.67-.135.077-.085.134-6.765 11.016-.117.193.04.22.53 2.775-4.044 1.115-.134.037-.1.092-6.452 5.82-.41.37.345.43 4.564 5.666.25.31.38-.117 3.85-1.185 5.582 3.147-.54 5.29-5.196.574-.125.016-.105.06-3.474 2.026-8.62-5.41v10.995l-7.95 5.96-.108.082-.062.118-3.11 6.03-.23.448-.04.078-.046.088-1.526 2.955-8.125 4.58-5.98-5.68-.147-.137-.204-.02-6.295-.63-.203-.02-.173.113-8.97 5.82-.075.05-.06.073-6.214 7.65-.032.11-2.117 7.408-3.56 1.094-4.825-2.41-.152-.076-.166.014-4.878.473-.255.025-.155.2-2.144 2.814-1.73-1.485-.427-.368-.384.41-1.645 1.774-1.647-1.542 4.096-4.098-1.278-.095-8.497-.63-.245-.018-.18.16-4.88 4.248-.28.245.104.363 2.575 8.788-3.63 3.513v-6.286h-4.114l-.17.154-2.555 2.31-.5-2.302 4.625-4.178 1.238-1.118-1.663.1-5.19.315-.127.008-.11.054-15.417 7.865-.654.334.468.563 2.644 3.2-4.016 3.87-.32.313.212.393 1.73 3.147.274.492.5-.255 2.365-1.18.252 3.688.013.195.126.147 3.16 3.682-4.896 1.19-.21.05-1.855 2.534-.198.268.13.303 1.285 3.097-3.856.642-6.164-1.85-.576-.173-.158.586-1.747 6.557-10.175-1.793-.683-.12v15.742l-6.707-1.118-10.97-9.935 3.65-2.57.467-.328-.318-.477-7.086-10.544-.088-.133-.14-.07-4.565-2.2-.216-.104-.227.076-6.724 2.292-7.51-2.912-.72-.28-.07.772-1.072 11.61-13.39 5.717-4.736-3.203.674-2.427.203-.73-.765-.01-14.318-.158-.296-.002-.175.237-3.78 5.034-.066.09-.028.103-.27.945-.48-2.47-.04-.195-.148-.133-2.675-2.36-.423-.374-.39.41-3.077 3.23-3.955 1.977-.055.027-.26.13-.298.15-.315.157-4.15 2.076-.054.027-.043.03-4.634 3.554-6.346 1.86-.23.065-.115.203-1.366 2.39.09-3.746 12.903-13.37.055-.053.038-.067 7.238-13.06.035-.062.016-.065 3.304-11.643.088-.304-.21-.24L564.93 127.2l-.166-.19-.254-.007-9.443-.316-.315-.01-.182.26-3.163 4.518-2.556.426 2.504-7.087.244-.69-.725-.087-6.744-.827 1.96-2.82.31-.44-.416-.346-4.72-3.932-.262-.217-.314.115-4.25 1.575-.176.066-.108.16-6.766 10.07-.147.22.068.255 1.393 5.29-6.53.428-.596.037.05.592.158 1.89.013.15.088.13 1.86 2.73-3.772-.8-.297-.06-.224.21-2.46 2.313-5.334-.982-.686-2.33-.125-.428-.446.008-8.496.158-.596.013.02.592.14 4.35-9.706 1.346-.16.02-.125.1-6.772 5.39-5.15.15-.217.008-.156.136-3.935 3.463-.137.12-.043.182-1.787 7.303.11.198 2.938 5.315-4.182 1.045-13.253-2.184-.036-.006-.045-.003-7.71-.157-.353-.007-.173.31-2.36 4.247-.07.123v.146l-.317 11.013-.008.255.185.18 4.793 4.64 1.964 4.58h-5.528l-5.656-10.547-.18-.33-.37.02-4.27.253h-.02l-.28.018-.303.02-3.15.187-.42.024-1.43 5.15-4.49-4.08-.693-.63-.263.9-1.414 4.88-.095.316.224.244 5.367 5.828.218 3.566-8.83-7.863-.287-5.19 4.105-5.02.116-.143.015-.183.63-8.34.07-.987-.897.408-1.73.788-.225.102-2.08 5.758-2.938 2.645-3.174.905-.21.06-.117.18-3.147 4.722-.098.146.158 12.444-7.617 11.97-.104.163.012.186.47 7.396.037.55h8.142l6.138 7.334v6.974l-4.428 5.344-.24.294.17.343 1.257 2.517.08.157.156.09 2.312 1.307-4.752 1.104-1.68-6.3 4.915-8.604.13-.225-.083-.25-2.202-6.61-.116-.343-.357-.052-7.71-1.1-.284-.04-.207.197-4.248 4.092-.166.157-.013.232-.463 9.062-6.834 6.985-6.323 2.314-.133.05-.096.1-4.08 4.374-14.1-8.704v-3.165l9.08 4.18.227.104.23-.09 5.194-2.047.054-.022.05-.03 8.34-5.35.135-.086.07-.146 5.665-11.33.086-.17-.027-.18-.918-5.978 9.533-22.66.018-.044.007-.026 1.102-3.932.04-.14-.033-.14-1.03-4.874 6.055-5.755.146-.137.03-.2 1.26-8.34.036-.24-.15-.2-4.27-5.648 4.01-.524.577-.075-.068-.573-.738-6.07-.06-.482-.482-.034-4.967-.367-.576-.045-.05.58-.367 4.415-.012.137.05.127.56 1.415-1.883-.756-.31-.124-.264.204-4.72 3.62-.056.04-.05.064-5.637 7.2-4.26 4.112-6.458 1.538-.15.035-.118.11-3.46 3.306-.38.36.317.414 3.23 4.258-3.477 6.23-4.968 1.504-.388.116-.026.404-.157 2.36-.016.258.18.187 4.308 4.46-1.45 4.064-.06.17.048.185.788 2.83.025.094.058.082 1.442 2.098-4.932 4.533-1.458-2.313-1.553-6.667-.024-.098-.05-.084-6.146-9.86-.152-.245-.13-.237-2.996-5.52-.035-.06-.05-.056-7.87-8.497-.177-.19h-6.697l-.104.457-.79 3.463-.01.052-.002.06-.147 4.868-3.78 2.24-2.14-.43-.384-.075-1.44 2.16-1.95-1.538 2.952-2.684.192-.176V183.5l-.58-.006-10.983-.156-5.355-3.98-.18-.132-.22.02-8.17.756-2.187-2.992 4.01-.375.32-.03.146-.284 2.675-5.19.345-.67-.736-.17-6.767-1.574-.347-.08-.23.278-2.603 3.12-1.16-2.086-.124-.224-.248-.06-17.31-4.25-.32-.08-2.034 2.037-2.104-1.97-.32-.3-.378.222-8.742 5.126-4.132-3.997 1.293-3.74.066-.19-.066-.19-1.225-3.53 4.823-1.61 5.464 3.807 2.842-4.62.087-.144-.16-7.572-.005-.22-.147-.16-6.925-7.555-.713-.777-2.268 8.2-9.256 6.015-.215.14-.044.255-.754 4.52-4.093 3.695-.266.242-.03.027-.214.194-.265.24-4.182 3.777-1.474-2.736 2.37-.475.774-.154-.37-.697-3.933-7.397-.195-.366-.41.064-5.836.924-5.85-2-.132-.046-.138.02-7.397 1.1-.333.05-.124.313-3.84 9.6-2.236-1.293-4.114-9.598.675-8.28-.705.08-6.925.787-.392.045-.107.378-1.887 6.61-.085.295.198.238 2.697 3.265-2.25 3-3.865-2.132-.745-5.023-.057-.39-.03-.214-.37-2.48.45-2.1.055-.253-.152-.21-1.83-2.535 1.686-3.09 5.68-7.064 4.712-1.52.215-.07.114-.194 2.833-4.877.057-.1.017-.108 1.065-7.073.03-.203-.003-.005 1.193-7.35.93 1.316-.756 5.434-.024.17.073.16 2.312 4.932.623 8.237.01.15.082.126 3.235 4.93.767 5.064.04.275.237.142 12.273 7.393.192.116.22-.04 7.55-1.417.228-.045.137-.185 5.666-7.71.077-.108.027-.128 1.597-8.308-.033-.13-2.5-9.68.315-14.083.003-.09-.026-.09-1.575-5.194-.024-.08-.04-.06-3.865-6.19-.568-4.38.95-.605 2.038 2.853.332.462.47-.314 2.36-1.573.438-.29-.24-.467-2.205-4.248-.067-.13-.125-.086-8.337-5.664-.126-.085-.15-.014-11.958-1.1-.223-.02-.178.13-2.334 1.71-5.955 3.446-.302.176.166 4.896-3.833 6.184-7.706.153-.276.005-.17.214-2.58 3.243-.188.24-.186.232-.097.12-6.518 8.204-3.166-.143-.193-.01-.16.11-4.24 2.88-2.956-.146-.416-.022-.155.386-1.247 3.12-1.342 2.535-2.81 2.108.233.44 1.213 2.294-1.217 1.214-5.524-.895-.514-.082-.145.5-1.573 5.507-.007.03-.007.055-1.056 8.002-3.003 1.23-15.27-2.027-.05-.006-.046.004-6.96.256-.296.012-.29.01-5.2.194-.095.003-.084.03-6.452 2.36-.36.13-.025.385-.315 5.19-.004.097.023.09.534 2-.978.814-1.12-2.862-.137-.35-.375-.023-2.303-.14-3.78-3.63-.333-.32-.39.25-4.76 3.073-3.123.355-.618.07-3.05.347-.164.018-.126.1-4.88 3.777-.064.05-.052.07-2.645 3.673-5.19-.296-.352-.022-.183.305-3.156 5.26-3.65.44-.496.06-.02.5-.145 3.944-5.568 3.61-.288.185.02.34.315 5.505.007.185.118.146 2.07 2.623-2.562 3.166.066.276.63 2.675.08.35.35.087 3.414.854.668 3.36-1.082 1.935-.11.192-.187.338-.12.21-.52.93-5.048 2.908-.13.074-.075.122-2.675 4.248-.02.03-.013.027-2.834 5.824-.05.102-.006.115-.315 4.72-.007.098.027.097.706 2.543-1.853 2.283-.12.147-.012.185-.11 1.695-4.09-.338-2.782-2.646.282-2.546.058-.526-.522-.11-2.988-.63-.478-.1-.185.455-1.68 4.115-6.18 5.254-.247.208.046.317.47 3.464.072.53.535-.025 3.08-.148 2.18 1.773.9 4.204.115.52.527-.06 2.746-.304 2.74.522v1.526l-3.985 5.245-.248.327-.107-.004-.134-.005-.118.053-2.603 1.12-.195.086-.096.194-1.142 2.274-1.626.408-.422.105-.022.435-.175 3.5.308.178 2.346 1.382-.61 5.504-.02.184-.077.094-2.273 2.822-.014.017-.02.037-1.103 1.73-.13.2.047.23.53 2.647.27.127 1.987.928-.28 3.214-.032.352.306.192 5.714 3.608.15 6.61.006.138.06.122 4.696 8.92.087.165.2.38 1.238 2.355-.206 5.356-.024.624v.027l-.014.283-.037 1-4.3-.14-.327-.01-.18.267-1.74 2.61-2.25.28-.295.038-.143.26-2.887 5.164-4.402 1.65-3.36-4.968-.146-.216-.267-.04-8.496-1.1-.292-.037-.205.21-4.445 4.626.636.377 7.71 4.567-1.452 1-4.08-2.48-.35-.213-2.753 2.165-.048-.1-.05-.1-.078-.07-5.76-5.235-.857-.78-.118 1.152-.7 6.715-2.392-1.196-.14-.07-.152.01-5.977.315-.27.014-.163.21-1.677 2.157-3.968-6.66-.366-.615-.53.483-3.46 3.146-.21.185.017.276.303 5.276-1.582 1.868-.21.25.103.313.846 2.534.146.11 2.27 1.7-.146 3.63v.08l.015.07 1.396 6.207-.466 5.735-1.127 9.81.134.18 1.26 1.73.276.383.432-.19 2.045-.893 1.392 2.33.243.404.063.106 3.778 6.335v3.997l.15.165 3.82 4.216h-.003l.427.47 3.167 3.498.15 4.82.005.164.087.135 1 1.554.077.113.008.195.237 5.4.015.35.32.154 5.98 2.837.03.57.01.16.01.224.023.383h.002l.064 1.148.013.274.22.165 1.66 1.233.125.09.043.112 1.105 2.983.455 2.25-.05.05-1.674 1.682-.187.185.016.264.314 4.723.01.16.097.135 4.29 6.13-.303 6.35-.773 3.094-.068.28.18.225 3.934 4.88.276.34.405-.17 1.888-.783.184-.073.098-.174.818-1.403 1.862.997.054.028.046.012 2.518.79.255.082 3.22-2.038.273-.172v-8.617l2.005-11.557 7.415-7.104.158-.156.02-.22.63-7.553.007-.092-.02-.09-.697-2.932 3.354-2.526.082-.063.11.004 4.91.102.135.004.12-.054 4.693-2.164.1-.047.04.055.173.064 4.934 1.794.102.037.112-.002 13.22-.315.704-.018-.145-.686-.98-4.61 2.716-.518.4-.075.07-.4 2.52-14.16.04-.247-.147-.2-2.204-2.99-.13-.177-.208-.05-2.767-.658.34-1.936 3.945-3.645.38-.35-3.55-4.934 1.146-.598 2.29-1.01.24-.104.26-.085 5.316-1.76.327-.108.065-.34.735-3.818 4.264-2.354 4.795-1.238.025-.007 1.72-.524.053.05 2.8 2.663-.28 2.794-.77 2.467-.077.24.12.217 1.733 3.15.263.473.49-.224 3.465-1.575.19-.083 1.783-3.568 1.77-1.907 4.56.88.27.053.212-.176 2.53-2.086 1.48-.12 1.237.958.175.135.22-.014 4.88-.315.052-.003.06-.014 3.615-.944 2.102-.464-.158 3.33-.006.13.05.122 1.887 4.564.19.45.474-.102 2.202-.47.153-.035.117-.105 1.28-1.153 2.594 1.235-.122 1.697-.898 1.95-.16.342.25.288 1.102 1.26.102.115.146.05 2.86 1.002 1.174 4.11 1.213 5.303-1.346 3.29-.1.243 1.82 3.637.543-.33 3.395-2.066 1.074.323.956 2.05.773 4.024.044.228.187.135 2.36 1.73.33.245.34-.228 2.67-1.78 2.377.138 4.56 1.998-.13 1.95-.01.18.09.152 1.1 1.89.135.23.264.05 2.517.47.32.06 1.85-1.99 1.775 1.77.043.045.067.04 2.503 1.53-.575 4.027-.016.113.026.11.63 2.52.035.14.1.106 2.83 3.15.103.11.15.05 2.36.787.254.085.23-.135 2.132-1.28 1.402.467 1.306 2.617.11.22.236.075 5.82 1.888.287.092.24-.18 2.52-1.89.08-.06.05-.072 2.52-3.62.187-.273-.138-.305-4.45-9.744-.07-.15-.037-.025.02-.024 1.635-2.154 5.72-.45.482-.037.054-.486.438-3.945 2.42-1.346 2.64.14 3.472 2.717.393.31.368-.343 2.202-2.045.348-.322-2.88-4.742-1.147-4.016 2.65-2.79 2.18-.64 3.842 4.14.16.174.233.013 8.486.53.243.017.25.058 8.766 2.03 4.955 3.1.346.217.325-.257 2.69-2.123 4.07 2.18.08.045.082.016L303 370.647l.18.034.174-.076 5.377-2.456.188-.09h.17l4.076-.072 3.446 5.843.14.236.275.044 2.92.46.303.048.25.07 1.87.545.132 3.43-1.258 1.397-.228.255.946 2.837-2.928 3.37-.198.224.07.292.63 2.675.082.355.355.082 6.35 1.476.324 3.708.514.025 3.24.155 2.29.572 1.994 2.242-3.15 2.603-.212.175v3.583l.756-.23 3.38-1.03 2.934 1.616.192.106.216-.05 2.833-.627.146-.035.11-.095 2.24-1.942 6.62-1.202.286-.05.258.005 6.814.153-2.39 2.506-.308.32.23.383 6.82 11.27.1.167.042.204 7.6 36.484.115.546.546-.086 4.093-.626.25-.04.143-.207 2.564-3.705 1.946.8.73 3.934.05.273.245.135 8.656 4.72.235.13.25-.096 6.545-2.434 3.205 1.39 2.493 5.155.09.19.02.182.55 5.413.03.305.267.15 4.746 2.67.146 5.014.014.46.448.1 4.836 1.056 1.914 2.36.304.373.422-.223 5.025-2.655.905 3.238.03.094.048.075 3.62 5.35.153.224.27.03 5.666.63.42.043.177-.384 1.58-3.45 7.194-.3.182-.006.142-.11 5.01-3.724.2-.15.208-.078 20.165-7.584 6.814-.443 1.07 1.605.13.2.235.048 10.467 2.28.725 4.48.047.297.27.13 4.088 2.05.096.047.104.01 11.488 1.26 4.36.6 2.227 2.077.257.24.334-.115 3.62-1.26.105-.038.083-.07 3.304-2.83.11-.095.053-.132 2.492-6.145-.224-.272-3.783-4.54.43-6.606 2.134-.666.39-.12.15-3.184 2.776-.13.43-.022.974-3.74 13.143 5.295.042.016.045.01 11.927 2.753 2.428 9.41.064.253.23.117 8.97 4.723.13.072.152-.008 6.297-.156.152-.002.132-.077 8.744-5.217 6.674 2.122.105.035.108-.007 6.873-.448 1.707 2.986.16.283.327.012 4.16.178.468.02.13.006 2.298.097 2.52 4.74.145.277.318.03 20.617 1.886.193.02.163-.097 13.72-8.266 4.25-.153.415-.01 1.492-4.814 6.498-6.043 8.98-.45 2.65 2.505.395.375.404-.367 3.724-3.43 16.4 2.63.475.078.17-.457 2.292-6.273 5.515-3.83.385-.266-2.478-6.11 2.46-15.38 4.117-4.117.268-.263-.137-.353-2.83-7.553-.128-.342-.358-.036-5.11-.54 3.765-6.974 7.38-5.122.207-.142.235-.12 10.5-5.4 7.946 2.753.14.048.14-.023 9.62-1.526 14.267 14.11 18.206 18.843.364-.146 6.846-2.74 4.178 1.94.25.12.253-.13 2.938-1.466 5.756 1.82.118.036.134-.014 3.24-.42.01-.004 4.675 7.395.047.07.065.058 5.037 4.407.29.256.35-.168 10.696-5.194.227-.107.08-.24 1.376-4.288 7.86-8.786 4.136-1.9 3.998 6.532-1.492 4.783-.057.184.062.182 2.563 7.33.06.175-.003.193-.606 18.372-.002.166.08.145 2.84 4.867-11.977 1.022-.34.028-.143.313-4.25 9.285-.165.365 12.087 12.405.297 4.348.088 1.246.9-.86 6.44-6.132 11.088.156h.214l.163-.13 8.183-6.608.098-.08.058-.116 4.876-9.755.053-.106.01-.106 2.356-26.712 3.294-13.962.023-.098-.016-.112-2.197-16.386-.034-.25.02-.244 1.428-18.562.01-.117-.04-.117-2.044-5.82-.01-.032-.017-.03-9.13-18.567-.033-.072-.04-.047-2.9-3.507-2.642-12.917-.015-.065-.017-.044-1.402-3.34 7.63 4.136 2.91 7.663.03.08.06.075 4.537 5.788 5.494 8.793 3.936 6.447.054.092.092.07 4.42 3.352 1.358 3.924v.005l1.26 3.62.08.23.22.104 5.38 2.54.743 5.35.024.16.098.12 5.82 7.4.934 1.186.11-1.507.47-6.454.01-.062-.016-.07-.682-4.246 3.925-.272.105-.006.094-.046 1.476-.67 3.995 2.073 1.55.805-4.217-8.817-.16-.334h-5.282l-5.182-2.285-5.94-4.266-3.866-9.9-2.045-5.98 4.178-2.37 8.675-.463 1.747-.092-1.45-.98-19.795-13.352-13.898-12.493-6.404-12.024-.067-.13-.11-.077-8.743-6.09-4.036-5.12-.28-.357-.415.184-2.83 1.26-.278.12-.062.296-.63 2.99-.077.375.318.225 5.1 3.555 2.54 3.808-1.085 1.41-2.145-.54-.586-.144-.13.588-.785 3.62-.082.366.305.226 4.91 3.684 4.39 10.018-5.762-2.38-2.024-2.427 1.876-3.753.284-.565-.586-.238-5.038-2.048-.047-.02-.067-.01-10.543-1.89-.196-.035-.176.092-8.18 4.244-.244.126-.06.266-2.56 11.235-2.703-3.443-.46-.586-.46.588-3.27 4.186-3.19-9.27-.622.383-6.74 4.137-5.087-.825.28-4.886 7.52-18.795.026-.073.01-.084 1.886-18.845 2.19-9.083.034-.145-1.878-7.517 2.454-6.59.055-.147-.02-.146-1.057-6.944 15.46-15.154 4.736.887.54.1.133-.534.473-1.887.06-.247-.138-.213-1.105-1.716 1.737-1.144.145-.096.347-.227 4.21-2.778.03-.02.024-.02 2.727-2.275 3.8-.91.525-.128-.08-.53-1.182-7.53 6.444-2.053.12-.04.093-.08 5.19-4.58 3.502-.113-2.953 4.238-.3.43 3.86 3.336.437.377.383-.43 5.034-5.665.12-.132.022-.176 1.21-8.627 4.237-1.607.16-.06.1-.134 3.62-4.72.358-.47-.473-.354-3.774-2.834-.455-.338-.355.44-2.9 3.595-2.84-2.707-.93-15.975-.003-.076-.022-.068-2.95-9.477.907-6.81 5.576-7.986 3.018-.142.4-.02.128-.38 1.215-3.644 6.1 8.367.212.295.355-.06 4.72-.787.447-.074.355-3.912.003-.073-.01-.07-1.1-7.08-.01-.046-1.195-4.988-.015-.056 2.93-2.73.406-.38-.356-.426-7.824-9.356 1.713-5.708 5.778-2.005-3.124 4.69-.135.2.048.238.944 4.72.047.23.196.137 6.138 4.25.136.094.162.01 2.262.125-.14 3.83-.016.48.47.11 2.12.5-2.407 12.033-.044.22.118.196 2.76 4.597.935 14.493.002.054.01.043 2.205 9.442.01.04 2.888 9.12-3.23 3.528-.227.245.098.318 1.016 3.337-1.71 2.28-.285.377.31.357 4.753 5.52.768 8.783.017.188.132.15 6.694 7.558.366.415.02.024 7.553 8.525.05.056.06.043 43.43 29.113 1.01.673zm9.876 62.92l-.1-.28-.286-.085-2.51-.73-.34-.1-.245.26-1.88 1.984-.25.265.127.34 1.462 3.97.182.5.512-.137 4.387-1.15.62-.16-.217-.602-1.462-4.072zm-16.32-59.66l-.508.326-2.6 1.682-.334.22.08.393.384 1.834.05.24.207.134 2.368 1.53.603.386.264-.664 1.147-2.91.105-.266-.153-.248-1.3-2.143-.31-.515zm16.158-97.31l-.146-.255-.29-.033-5.144-.612-.098-.013-.1.022-4.776 1.1-.816.192.457.7 1.832 2.815.144.218.26.042 6.978 1.102.19.03.17-.09 2.815-1.47.545-.283-.307-.53-1.718-2.936zm-53.95-19.982l-.09-.012-2.326-.37-.487-.076-.16.472-1.834 5.51-.108.32 8.105 9.103 1.1-12.617.033-.414-.38-.17-3.794-1.714-.063-.03zM569.55 164.33l-.393-.013-2.522-.104-.33-.012-.185.28-1.41 2.172-.05.08-.025.092-.354 1.365-.07.28.18.228 1.16 1.468.322.407 4.477-2.747.412-.252-1.076-2.878-.135-.365zM222.36 140.37l-.17-.126-1.25-.94-.473-.354-.352.476-.976 1.332-.093.125-.02.154-.156 1.292-.03.264 1.39 1.53.34.373.42-.28 1.64-1.098.34-.227-.562-2.317-.048-.2zm720.32 170.716l-.708-.316-.11.77-.38 2.677-.026.17.072.155 1.47 3.21.528-.24 3.364-1.532.254-.113.533-2.032.124-.48-.45-.204-4.67-2.067zm1.143-5.532l-.582-7.82-.17-.16-2.065-1.914-.105-.097-.138-.036-2.218-.612-.683-.187-.056.705-.612 7.27-.02.222.142.18 2.832 3.674.287.372.428-.2 2.6-1.225.366-.168zm4.926 27.265l-.14-.262-.295-.04-1.462-.21-.406-.058-.193.37-1.253 2.4-.165.315.202.288 2.27 3.28.493-.47 2.3-2.194.326-.308-.214-.393-1.463-2.718zm-7.3-42.603l-.397-.35-.387.36-1.07.996-.138.125-.038.18-.382 1.76-.11.49.47.18 2.605.996.373.144.27-.298 1.378-1.53.396-.44-2.97-2.61zm6.354 53.072l-.204.422-1.146 2.4-.135.286.16.266 1.253 2.094.247.41.448-.16 1.777-.627.343-.12.044-.36.42-3.345.064-.525-.52-.116-2.298-.52-.453-.103zM410.452 49.05l-.654 2.3-.125.428.387.23 1.832 1.102.834.5.052-.972.12-2.32.024-.443-.425-.143-1.465-.487-.58-.194zm134.468 60.72l.077.368.37.084 4.317.98.805.185-.096-.82-.196-1.67-.035-.282-.245-.15-4.32-2.65-.646-.397-.216.73-.295.98-.044.14.03.148.492 2.354zm-20.76-.39l.064.23 1.276 4.613.237.86.692-.56 5.35-4.297 5.606-.383.222-.014 3.197-3.198.155-.16.014-.224.393-7.067.01-.22-.136-.173-3.235-4.122-.41-.518-.468.465-2.32 2.322-.888-.948.182-3.974.05-1.033-.913.49-4.71 2.552-.283.154-.024.32-.676 8.703-3.276 5.973-.114.21zm48.79 46.235l-.173.43-1.412 3.54-.16.402.34.27 3.633 2.88.508.406.352-.55 1.662-2.63.05-.08.025-.085.556-2.174.107-.41-.366-.228-2.02-1.263-.106-.07-.114-.016-2.423-.354-.456-.067zM443.16 51.585l-.41-.383-1.833-1.708-.463-.433-.394.5-1.83 2.32-.448.563.643.32 2.198 1.1.408.205.3-.346 1.466-1.708.364-.427zm64.248 15.065l.954.176-.29-.925-1.372-4.415-.132-.42-.44.01-4.124.1-.508.01-.06.505-.392 3.235-.067.546.543.103 5.888 1.078zm136.31 47.844l.035.146.094.108 3.176 3.708.275.317.39-.155 1.986-.795.61-.244-.314-.58-2.385-4.37-.077-.143-.14-.08-3.574-2.12-1.16-.688.293 1.32.792 3.573zm-133.114 13.87l-.374.75-1.063 2.127.272.297 1.077 1.18.4.433.43-.4 1.374-1.275.43-.403-.403-.43-1.568-1.668-.577-.61zm3.842-1.036l.332-.196 1.67-.982.463-.27-.232-.485-1.176-2.455-.286-.597-.557.357-2.75 1.767-.714.46.682.503 2.257 1.67.312.228zm134.826-16.072l.017.162.102.134 2.438 3.08.9 3.458.083.325.325.092 5.164 1.456.1.03.106-.01 4.767-.397.582-.048-.047-.582-.342-4.322 2.735.317.374.044.19-.323 2.437-4.014 2.772.58.332.068.226-.253 2.12-2.383.366-.412-.39-.392-2.118-2.118-.11-.107-.145-.042-4.465-1.276-2.987-3.525 1.734-.453 2.55 3.886.133.203.24.05 5.164 1.06.686.14.015-.7.134-6.127-.08-.14-1.725-2.913-.156-.27-.312-.02-6.09-.397-.2-.01-.17.118-2.985 2.114-4.665-.756-.603-.1-.07.61-.43 3.58.193.2 2.546 2.664-.87 1.016-4.192-3.473-.186-.153-.24.02-5.563.532-.49.046-.038.484-.4 4.503-.004.056.008.062.532 4.634zm29.84-13.19l.156.332.37.003 11.918.135.352.003 3.61-6.666.138-.253-.123-.268-2.25-4.898-.37-.806-.596.657L690 88.868l-4.616-.376-.365-.028-.19.317-1.15 1.96h-2.82l-.075.505-.322 2.127-2.65-.11-.963-.04.41.873 1.853 3.972zm83.095 5.668l.3.202.32-.186 2.25-1.324.393-.23-.124-.435-.797-2.78-.15-.52-.53.106-2.646.53-.33.066-.903 2.567-.152.43.38.252 1.987 1.324zM803.11 32.93l.41.49.453-.454 1.48-1.484.128-.127.036-.172 1.838-9.208 2.18-4.25.167-.32-.217-.293-2.468-3.34-.196-.262-.323.026-6.172.495-.284.025-.16.237-3.702 5.57-.098.148v4.717l.14.164 6.79 8.04zm-127.893 91.674v6.51l.707-.152 6.223-1.325.074-.015.078-.04 5.826-3.045.487-.255-.22-.5-2.12-4.8-.323-.045-3.813-.524-2.89-.657-.393-.09-.223.334-2.1 3.148-1.31 1.456zm-3.42-6.264l-.38.38-1.59 1.588-.223.227.066.312 1.06 4.9.1.462h3.505l.066-.52.53-4.37.037-.31-.244-.205-2.515-2.12-.41-.346zM501.353 85.06l.052.213.183.127 4.123 2.845.3.207.315-.175 2.846-1.57.21-.115.07-.23.885-2.945.13-.434.084.074.345-.156 8.048-3.63.346-.155V76.04l2.93-1.6.49-.266-.24-.5-1.163-2.42-1.954-5.568-.05-.146-.113-.1-3.533-3.14-.414-.367-.39.39-3.1 3.1-3.086 2.025-.336.22.084.39.733 3.57-3.08 4.107-.12.158v3l4.317 3.905.02.018-.304-.113-6.183-2.358-.25-.094-.237.13-2.354 1.275-.403.218.113.44.687 2.75zm173.265-7.063l.5.112.176-.484.928-2.515.204-.55-.552-.2-2.516-.93-.596-.22-.17.618-.795 2.913-.16.59.6.136 2.38.53zm-13.764 53.065l-.468-.06-6.09-.796-1.015-.133.405.942 1.19 2.78.072.17.16.1 2.783 1.72.216.134.243-.07 2.38-.66.47-.13-.04-.486-.262-3.045-.046-.47zM522.44 82.487l-.245 1.88-1.02.306-1.22-4.615-.182-.692-.644.317-7.558 3.728-.2.1-.084.208-2.75 6.772-.035.09-.005.102-.1 2.162-.018.395.365.16 2.768 1.24 4.94 4.263.028.024.025.018 5.595 3.826.29.2.314-.166 2.747-1.472.26-.14.046-.29.59-3.827.04-.26-.173-.205-1.885-2.227 2.328-3.76.078-.126.01-.143.312-4.685-.194-.19-3.435-3.337-.84-.814-.15 1.156zm-73.936-33.854l.19.595.58-.226 2.198-.855.505-.196-.156-.517-.853-2.807-.224-.744-.653.423-2.076 1.343-.375.24.133.427.73 2.32zm16.988 109.95l-.336-.088-1.867-.488-.44-.115-.22.398-1.22 2.192-.22.4.336.312 2.192 2.028.414.384 1.857-1.857.234-.24-.08-.32-.567-2.273-.086-.336zm-.424-75.25l.165.168.24.007 2.673.058.626.014-.03-.626-.12-2.382-.01-.182-.106-.143-1.842-2.44-.28-.374-.425.193-2.263 1.01-.28.127-.056.3-.354 1.844-.06.303.22.222 1.9 1.904zm-2.78 60.032l.057.063.06.044 1.543 1.056.31.21.323-.196 2.274-1.38.49-.295-.282-.495-1.415-2.476-.23-.068-1.948-.568-.306-.09-.24.21-1.867 1.623-.437.378.372.44 1.298 1.546zm-19.412-88.273l-.205.448-.61 1.343-.08.178.043.194.61 2.686.106.467.48-.01 5.127-.124.32-.007.166-.275 2.075-3.415.184-.305-.183-.304-2.178-3.578-.513.74-1.967 2.84-2.898-.752-.476-.124zm-4.293 118.685l-.643.355-3.247 1.786-.154.083-.083.16-.895 1.706-.306.586.622.235 2.596.973.148.055.158-.026 2.678-.49.64-.115-1.517-5.306zm3.016-115.99l-.16-.48-.98-2.93-.084-.254-.248-.104-3.54-1.465-.33-.138-.27.228-3.05 2.565-.197.164-.012.252-.123 2.075-.016.28.21.19 2.563 2.32.297.266.36-.178 5.126-2.563.453-.228zm5.77 112.832l-.275-.147-1.866-.974-.47-.244-.29.436-2.11 3.167-.234.347.256.332 2.678 3.49.28.363.42-.183 1.868-.81.398-.173-.05-.43-.57-4.87-.034-.308zm2.763-21.676l-.07.34-.323 1.624-.052.26.166.21 1.38 1.788.418.54 1.93-2.037.225-.238-.083-.315-.65-2.435-.155-.586-.58.176-1.87.568-.337.105zm25.104-84.08l.03.394.382.117 2.494.774.158.05.162-.04 2.733-.717.67-.175-.28-.63-1.605-3.573-.062-.133-.11-.087-2.02-1.607-.4-.32-.37.355-1.427 1.37-.146.142-.025.205-.3 2.263-.006.067.002.053.12 1.49zm16.48 56.922l.036.3.266.147 2.846 1.57.787.436.077-.9.198-2.258.023-.242-.16-.19-1.867-2.16-.38-.44-1.817 1.557-.236.205.034.307.195 1.666zm-19.71 32.603l.058.16.137.104 1.38 1.056.485.373.35-.503 1.3-1.867.326-.47-.463-.336-2.108-1.543-.342-.25-.343.244-1.135.812-.366.26.154.418.57 1.542zm-3.723 6.39l-.698-.78-.948 3.197-.118.39 1.55 1.138.547.403 1.13-2.145.186-.36-.27-.3-1.38-1.544zm1.578-5.155l-.08 1.785-.016.333.275.182 1.217.812.54.36.304-.577.73-1.38.25-.47-.447-.292-1.868-1.218-.857-.558-.047 1.024zm-2.632-21.21l-.165.394-.57 1.38-.12.3.187.26 1.217 1.705.413.582.488-.52 1.3-1.38.146-.155.013-.216.08-1.542.03-.568-.57-.047-2.028-.164-.422-.032z" fill="#E3E9EB"/><g fill="#0A4B82"><path d="M761.312 99.7l-.796 2.253 1.988 1.323 2.247-1.323-.79-2.78-2.647.528m-189.43 60.127l3.63 2.882 1.667-2.63.555-2.174-2.018-1.264-2.422-.354-1.41 3.537m-7.063 8.547l1.158 1.464 4.035-2.477-.908-2.427-2.522-.102-1.41 2.175-.353 1.366m89.372-37.552l6.09.793.265 3.048-2.385.662-2.78-1.724-1.192-2.778m16.022-10.064l1.06 4.898h2.516l.53-4.37-2.515-2.117-1.59 1.59m5.56 4.102v5.563l6.223-1.324 5.827-3.046-1.984-4.503-3.84-.53-2.913-.66-2.12 3.178-1.19 1.322m1.986-30.98l1.855 3.97 11.914.13 3.444-6.353-2.253-4.9-2.515 2.783-4.9-.398-1.322 2.25h-2.648l-.396 2.646-3.18-.13m-4.634-19.862l-.794 2.913 2.385.53.92-2.516-2.513-.925M666.772 99.7l2.784 4.238 5.163 1.06.13-5.96-1.723-2.913-6.09-.395-3.177 2.25-4.897-.795-.398 3.31 2.91 3.047-1.585 1.854-4.637-3.84-5.562.53-.393 4.5.53 4.635 2.512 3.18.93 3.574 5.16 1.456 4.768-.398-.396-5.03 3.445.396 2.648-4.37 3.175.662 2.12-2.382-2.12-2.12-4.632-1.323-3.707-4.37 3.043-.794m-23.305 11.123l.796 3.575 3.176 3.707 1.987-.793-2.383-4.37-3.576-2.12m137.394-7.875l-1.605 3.113-8.658 4.877-6.29-5.98-6.296-.628-8.973 5.82-6.133 7.554-2.205 7.71-4.09 1.258-5.037-2.517-4.877.47-2.52 3.307-2.203-1.89-2.045 2.206-2.515-2.363 3.615-3.62-8.495-.63-4.88 4.25 2.676 9.127-4.877 4.72v-7.08h-3.305l-3.304 2.99-.786-3.62 4.88-4.407-5.196.316-15.42 7.868 2.99 3.62-4.406 4.248 1.73 3.147 3.15-1.575.313 4.566 3.776 4.406-5.824 1.415-1.73 2.362 1.575 3.773-4.72.788-6.295-1.888-1.888 7.08-10.703-1.887v15.735l-7.55-1.257-11.646-10.543 4.25-2.99-7.08-10.544-4.565-2.202-6.924 2.36-7.71-2.99-1.103 11.96-14.003 5.98-5.35-3.62.786-2.83-14.318-.16-3.778 5.036-.945 3.305-.942-4.88-2.677-2.36-3.145 3.306-4.362 2.18-.24 3 2.037 2.716.04.056.014.066.924 4.847 6.744 9.54.054.077v6.302l3.44 4.126.194.228-.234.19-7.858 6.238-.454 3.622-.01.07-.038.057-1.84 2.763-1.39 6.723-.056.264-.264-.032-3.853-.453-6.22 5.065-.024.02-.028.014-2.09 1.077 4.934 7.543.04.062.008.074 1.675 21.08.01.12-.084.097-4.337 4.795 2.86 2.202.146.11-1.206 5.782 2.536 2.767.073.083v4.03l2.99 2.07.186.13-.08.216-1.44 3.828-.015.05-.032.038-4.495 5.44-.434 3.897h7.437l.083.066 3.186 2.5 3.415-2.275.225-.148.17.21 1.916 2.392.152.196-.012.014 2.51 3.8.16.25-.25.16-2.844 1.81v3.364l3.148.244 2.625-1.84.275-.188.152.294 3.253 6.238.036.066v.08l-.265 7.41 4.182 2.354.193.107-.052.215-1.876 7.764 2.347 5.21 5.294 1.587.31.095-.128.3-4.045 9.448-.802 11.752 4.067 4.324 4.403-3.365.07-.053.096-.003 6.612-.263 2.36-4.2.19-.333.274.27 3.572 3.572 4.648-5.42 7.303-15.69.064-.14.15-.026 4.884-.814.083-.014.074.03 9.49 3.796.126.05.044.13 2.065 6.2 5.67-2.58.15-.07.14.095 3.524 2.442.065.045.036.076 6.385 14.48 8.3 15.38 5.22-3.414.024-.017.027-.01 5.425-2.17.157-.066.137.108 4.142 3.37 2.252-2.006.2-.174.194.178 3.32 3.065 3.054-3.053.088-.092.128.004 7.59.273.098.004.076.06 4.75 3.694 9.337-3.467.16-.057.13.106 3.11 2.594 12.85-5.888.086-.044.094.02 3.71.796 4.034-1.51-.5-3.016-.04-.21.19-.1 9.94-5.168-2.485-7.01-.06-.164.12-.13 3.34-3.578-1.383-3.454-6.357-4.158-.22-.145.122-.232 3.344-6.456-6.223-4.305-.268-.187.213-.245 2.9-3.385v-14.44l.188-.072 12.203-4.637.476-5.51.024-.25.25-.017 7.235-.48 1.646-4.47-.243-4.64-.01-.198 3.667-1.71-2.627-9.313-4.86-3.406-.173-.118.056-.2 3.19-11.294-4.418-11.792-.058-.153.098-.127 2.474-3.218.13-.168.196.07 8.59 2.942 5.48-1.19 1.917-3.355.07-.123.143-.02 6.493-.964 1.158-4.165-10.806-22.42-.04-.09.016-.093 1.096-5.48.025-.115.095-.068 7.245-5.114-2.732-5.254-.102-.197.164-.152 7.014-6.576.072-.068.098-.01 6.247-.646 3.586-4.008.636-6.993-4.054-3.63-.09-.082-.008-.122-.214-4.52-2.59-3.88-.135-.208.182-.17 3.085-2.88-3.328-3.953-.184-.213.206-.19 8.112-7.453.037-.037.052-.018 3.647-1.502 2.705-3.955-5.11-10.642h-6.455l-.056-.024-5.043-2.19-.11-.052-.044-.113-2.632-6.796-.064-.162.117-.13 10.23-11.977v-5.883l-13.385-10.043m15.882-78.412l6.788 8.042 1.484-1.484 1.852-9.278 2.22-4.33-2.467-3.34-6.173.494-3.703 5.567v4.33"/><path d="M901.492 105.473l-1.543-17.038-4.723-2.674 11.172-7.71-1.574-5.19-20.772-1.734-2.516 3.306-5.668.472-.626 4.406-4.564-.314V72.86l5.19-1.733 2.048-4.247-1.104-11.172-2.045-.786-2.52 1.572-.155-4.09-4.878 1.886-3.305-3.776 1.26-6.137 4.09 3.62 2.36-1.89 3.463 3.778 2.045-4.72-.47-5.666 3.775-3.148 6.61.63 11.013-8.34-2.673-3.148 5.508.787-.156-5.35-5.98 1.1-1.733-3.774L885 16.68l3.15-3.933-4.095-2.99 3.778-2.675L883.11.944l-13.374 7.868-.788 6.452-3.62 4.72 8.972 3.62-4.877 2.204-14.48-3.934-16.836 11.172-25.176 13.69-6.766 11.015.63 3.305-4.565 1.26-6.45 5.823 4.564 5.665 4.09-1.26 6.138 3.463-.63 6.138-5.662.628-3.78 2.203-8.023-5.035v10.228l-8.185 6.14-3.158 6.116 13.584 10.187.12.088v6.39l-.073.084-10.19 11.927 2.525 6.517 4.873 2.12h6.7l.082.167 2.563 5.338 4.23.637.143.02.07.125 2.715 4.804 5.674-2.73.104-.05.113.032 5.322 1.703 4.04-3.614.074-.07.1-.006 6.247-.43 4.64-4.852-.85-4.676-.047-.252.246-.08 4.672-1.486 1.272-4.453.054-.19.196-.02 3.98-.42 1.255-3.768.05-.155.157-.037 7.33-1.725 1.91-3.394.08-.14.158-.01 10.962-.658.217-.012.076.205 2.535 6.974 7.627-2.33.045-.015h.047l8.336.215 6.728-19.31.11-.32.302.156 4.06 2.138 5.194-1.574m51.496 86.412l2.45 2.45 4.773-3.918-2.08-.49-5.144 1.958m-20.523 103.312l.384 1.838 2.375 1.53 1.148-2.908-1.3-2.143-2.605 1.683m7.5-3.518l-.383 1.76 2.6.992 1.378-1.53-2.526-2.218-1.07.996m-1.607 3.826l-.61 7.268 2.83 3.675 2.6-1.228-.535-7.19-2.065-1.914-2.22-.614m4.054 16.144l-.382 2.68 1.226 2.678 3.366-1.53.46-1.76-4.67-2.068m4.33 21.27l-1.25 2.4 1.88 2.715 2.297-2.19-1.46-2.72-1.464-.205m.21 13.476l1.252 2.09 1.774-.627.42-3.346-2.3-.52-1.147 2.405m1.565 5.43l-1.88 1.982 1.463 3.973 4.388-1.152-1.46-4.073-2.51-.73m-2.926 16.505l-2.19 2.193.207 9.402.107 2.195h2.3l1.877-5.434-.416-5.326-1.883-3.03m-6.58 17.967l2.296.105.734 3.027-1.67 2.612-2.193 3.133-.21 3.445-.627 4.284-.415 3.24-1.047-.52-.834-5.64-.208-7.003 2.82-2.923 1.568-1.357-.21-2.403m-8.288 37.378l1.134-.5.45-8.162 1.405-1.633.27-2.132-1.492-.95-2.31 1.085-1.266.998 1.13 3.585-.407 4.628 1.084 3.083m8.6-8.21l.77 1.766 2.31-.815-.5-2.448-1.266-1.77-1.264 1.223-.047 2.042m-44.37-239.86l-1.837 5.51 6.98 7.832.98-11.262-3.796-1.714-2.327-.365m46.033 20.565l1.835 2.817 6.978 1.102 2.816-1.47-1.713-2.94-5.143-.61-4.775 1.1"/><path d="M814.225 258.17l4.212-2.778 2.833-2.362 3.934-.944-1.26-8.024 6.925-2.203 5.35-4.723 4.876-.158-3.618 5.193 3.462 2.99 5.033-5.666 1.26-8.97 4.56-1.73 3.62-4.72-3.774-2.834-3.305 4.093-3.46-3.305-.945-16.21-2.988-9.596.94-7.082 5.824-8.34 3.305-.156 1.576-4.72 6.764 9.285 4.722-.79.315-3.46-1.103-7.08-1.195-4.987-4.546-2.563-.122-.067-.023-.132-.87-4.543-2.925-2.717-4.728.428-.22.02-.08-.207-2.815-7.36-4.04-.85-.115-.024-6.544-9.508-4.573 4.78-.083.085-.11.008-6.257.43-4.09 3.66-.126.113-.16-.052-5.368-1.717-5.813 2.8-.247.12-.137-.24-2.78-4.916-3.7-.556 2.393 4.984.073.153-.095.14-2.85 4.165-.05.072-.08.034-3.68 1.515-7.867 7.23 3.51 4.164-.204.19-3.11 2.9 2.495 3.738.045.065.003.084.215 4.484 4.072 3.644.11.097-.01.146-.662 7.234-.007.098-.062.072-3.728 4.165-.075.085-.112.012-6.26.648-6.78 6.357 2.744 5.283.12.228-.21.148-7.36 5.194-1.052 5.272 10.662 22.125 4.92-3.277.118-.08.135.048 11.14 3.714.162.054.033.165 1.237 6.188.02.104-.05.094-2.65 4.818 2.003 4.005 4.424-3.26.077-.055h5.958l.08.147 2.81 4.906m8.592 190.806l-.602 18.368 3.305 5.664-12.904 1.104-4.25 9.284 11.96 12.273.314 4.564 6.61-6.292 11.328.156 8.183-6.61 4.88-9.754 2.36-26.755 3.306-14.003-2.198-16.387-3.233-.917-.177-.047-.033-.175-.786-3.92-5.377-3.843-6.023 4.517 3.574 3.873 5.695.478.31.025-.044.307-1.294 8.873-.035.244-.243.006-4.042.153.612 5.655.017.178-.144.098-5.81 3.875-.064.04-.078.008-9.547.635-2.395 3.14 1.855 3.706.17.336-.365.082-4.836 1.066"/><path d="M817.55 429.187l4.19 6.85-1.57 5.04 2.56 7.325 4.428-.976-1.768-3.533-.08-.166.11-.143 2.58-3.39.083-.108.13-.006 9.603-.64 5.596-3.73-.66-6.106.316-.013 4.11-.15 1.212-8.323-5.498-.46-.112-.01-.078-.082-3.873-4.194-.223-.24.262-.193 6.45-4.84.175-.13.172.125 5.647 4.033.095.068.023.117.77 3.856 2.883.816 1.432-18.562-2.046-5.82-9.128-18.566-2.99-3.62-2.673-13.062-1.822-4.345-.64-.704-6.822-2.82-2.363-2.83 2.048-4.093-5.033-2.045-10.545-1.89-8.183 4.25-2.835 12.433-3.46-4.41-3.934 5.04-3.304-9.6-6.924 4.247-5.824-.943.315-5.51 7.554-18.88 1.89-18.883 2.2-9.13-1.886-7.554 2.517-6.764-1.1-7.238 15.893-15.58 5.034.943.474-1.887-1.414-2.202 2.217-1.463-2.737-4.79h-5.427l-4.626 3.407-.278.205-.155-.31-2.228-4.457-.074-.136.075-.135 2.673-4.856-1.187-5.92-10.837-3.612-4.99 3.326-1.208 4.35-.054.184-.185.03-6.542.967-1.91 3.342-.062.113-.13.025-5.694 1.24-.078.015-.077-.025-8.466-2.9-2.248 2.918 4.398 11.73.034.09-.024.09-3.162 11.19 4.777 3.344.087.062.03.097 2.72 9.657.07.237-.224.105-3.536 1.647.236 4.506.004.062-.02.054-1.733 4.702-.065.18-.19.013-7.175.478-.473 5.446-.017.18-.174.066-12.183 4.63v14.262l-.072.082-2.76 3.22 6.17 4.27.212.148-3.463 6.676 6.213 4.064.078.05 1.52 3.8.068.173-.125.136-3.345 3.58 2.402 6.766 9.868-5.133.197-.104.155.164 3.254 3.525.132.143-.085.18-4.844 10.503.534 5.073.018.19-.163.093-3.64 2.08.245 4.15h8.284l.09.13 3.703 5.556 4.067-.254 6.633-6.105 1.067-4.523.05-.227h5.204l1.548-3.092.095-.19.21.033 3.523.542.18.025.054.177 3.254 10.032.058.17-.13.123-2.167 2.17-.068.065-.095.017-8.022 1.293 2.005 4.257.083.178-.133.146-3.195 3.46-.8 4.526-.014.08-.05.06-4.722 5.512 2.018 2.523.14.176-.136.18-3.193 4.26v5.145l8.514 4.258.067.033.04.06 6.853 9.49 4.285-4.067.09-.082.117.005 9.196.158.1.003.08.062 4.07 3.287 12.27-4.144.507-.17-.13.52-1.286 5.202"/><path d="M782.733 437.727l4.707 7.438 5.035 4.406 10.7-5.19 1.413-4.407 8.028-8.97 4.378-2.008 1.148-4.63-11.92 4.02-.154.056-.122-.1-4.117-3.325-8.98-.16-4.416 4.192-5.702 8.68m-85.642-27.963l10.724-5.512 8.184 2.83 9.913-1.57 14.48 14.318 17.937 18.567 7.082-2.83 4.406 2.045 3.147-1.575 5.98 1.89 3.236-.423 5.675-8.64-6.887-9.542-8.614-4.302-.162-.086v-5.698l.06-.08 3.116-4.155-2.028-2.535-.15-.19.156-.182 4.828-5.63.8-4.53.018-.088.056-.062 3.12-3.382-2.084-4.427-.168-.352.385-.06 8.308-1.34 1.98-1.978-3.143-9.686-3.136-.484-1.53 3.06-.08.166h-5.1l-1.035 4.382-.02.088-.067.06-6.778 6.237-.08.067-.1.007-4.34.274-.167.01-.095-.142-3.707-5.563h-8.524l-.016-.278-.273-4.608-.01-.184.156-.087 3.634-2.075-.525-4.96-.007-.08.034-.072 4.796-10.398-2.97-3.216-19.948 10.373.506 3.043.04.238-.227.084-4.337 1.625-.082.03-.08-.017-3.704-.792-12.923 5.922-.17.078-.14-.118-3.123-2.605-9.33 3.468-.158.06-.125-.103-4.81-3.737-7.366-.26-3.167 3.162-.196.198-.206-.193-3.33-3.07-2.24 1.99-.188.166-.193-.158-4.207-3.413-5.233 2.09-5.093 3.337 6.437 4.29.25.167-.173.247-1.92 2.686 2.97 2.97 5.373-2.987.254-.142.146.256 2.57 4.55 4.12-.978.332-.08.027.344.606 8.09 4.2 2.4.277.16-.182.263-2.36 3.343 6.686 10.028m140.77-53.76l-.223-.535 9.283 5.04 2.99 7.865 4.564 5.822 5.506 8.814 3.933 6.45 4.564 3.464 1.416 4.09 1.26 3.62 5.663 2.675.79 5.663 5.82 7.398.474-6.452-.79-4.88 4.564-.313 1.73-.786 4.25 2.202-3.46-7.238h-5.04l-5.348-2.36-6.135-4.408-3.933-10.068-2.204-6.454 4.72-2.675 8.813-.47-19.825-13.378-14.004-12.588-6.453-12.118-8.814-6.135-4.09-5.194-2.83 1.26-.63 2.99 5.19 3.62 2.834 4.248-1.574 2.044-2.52-.63-.785 3.62 5.034 3.776 5.036 11.488-.416-.17.64.705M85.098 286.412l1.314 2.498-.225 5.797 4.005 2.14.02.01 2.896 1.862 2.68-1.857.083-.058.1.007 4.065.214 4.263-2.606.465-3.245.04-.283.286.036 4.766.636 2.516-.788.238-.07.11.22 1.88 3.76 4.237 1.51.94-.835.286-4.725-2.72-2.048-.11-.082-.01-.135-.196-3.05-1.73-1.637-2.64-1.933-.13-.095.01-.16.296-4.645-5.275-4.086-.092-.074-.018-.116-.485-3.112-2-.954-.168-.08v-2.15l-.8-1.427-2.995-.18-.53 1.24-.062.148-.16.025-1.222.205-.168.03-.107-.135-.83-1.012h-1.276l-1.955 1.774v3.436l-.058.077-1.156 1.605.992.746.11.08.007.136.105 1.633.018.324-.325-.01-2.167-.095-.872 1.485.62 3.105-.107.11-6.752 6.837"/><path d="M74.838 254.615l-2.272 2.822-1.1 1.732.47 2.357 2.36 1.102-.314 3.62 5.98 3.776.156 6.922 4.695 8.92 6.51-6.596-.582-2.908-.02-.108.06-.098 1.017-1.737.09-.15.175.01 2.018.09-.072-1.177-1.115-.836-.227-.173.168-.233 1.268-1.76v-3.26l-4.335-4.44-4.293-.9-.055-.014-.05-.03-3.055-2.04-.087-.06-.03-.102-.763-2.58-1.55-.26-1.54.87-.178.1-.157-.134-3.167-2.725"/><path d="M78.947 239.32l-2.604 1.123-1.26 2.517-1.89.474-.157 3.145 2.677 1.574-.652 5.88 3.17 2.727 1.45-.817.09-.05.104.017 1.833.307.18.03.054.178.787 2.653 2.92 1.95 4.323.906.085.02.063.064 4.286 4.39 1.93-1.75.085-.075h1.774l.09.107.81.992.894-.15.484-1.13-1.937-2.62-.053-.067-.007-.086-.187-2.56-2.05-.655-.126-.038-.054-.117-.61-1.324-.028-.062v-2.208l-.958-1.248-.06-.08v-4.696l-6.885-8.997-8.573-.324m9.753-21.022l-4.33-.357-3.146-2.987.316-2.833-2.99-.63-1.732 4.248-6.293 5.348.474 3.464 3.303-.157 2.517 2.045.945 4.406 2.832-.315 3.305.627v2.203l-4.108 5.406 7.79.297 9.7-7.1-.767-1.257-.044-.072v-1.77l.086-.085 1.154-1.158.026-.023.033-.02 1.647-.973-.188-1.306-1.96-.14-1.07.84-.158.12-.17-.096-1.732-.99-.074-.043-.04-.075-1.074-2.063-.03-.054v-.068l-.085-1.897-.002-.082.043-.074 1.003-1.737-4.644-.3-.086-.006-.07-.05-.383-.282"/><path d="M102.383 191.66l-.706 1.26-5.194 2.99-2.675 4.25-2.83 5.82-.315 4.72.786 2.835-2.048 2.517-.127 1.946.08.06 4.96.318 1.997-.878.057-.026h.065l3.925.082 2.144-1.982.09-.085.123.007 2.887.165.208.01.056.2 1.217 4.175 1.08-.634.088-.052.1.013 2.148.33.125.02.07.105 1.06 1.51 5.616-.554 3.356-2.16 3.72-5.335.145-1.29-2.56-3.12-.053-.065-.012-.082-.384-2.84-6.304-1.118-.066-.012-.058-.04-3.05-2.23-.058-.04-.03-.057-4.043-7.59-.006-.013-.004-.012-1.28-3.037-1.212-.642-2.446.633-.06.016-.057-.01-.522-.078m-14.3 47.76l6.846 8.95.06.08v4.693l.955 1.25.06.08v2.28l.534 1.153 2.075.66 3.176.156.985-1.74.03-.05.04-.034 6.016-4.876.626-4.932-2.61-2.374-.043-.04-.027-.054-1.32-2.89-.03-.062.004-.066.16-5.016-7.928-4.202-9.608 7.033"/><path d="M109.097 252.58l-5.838 4.733-1.05 1.848-.087.16-.18-.01-3.06-.15.172 2.346 1.906 2.576 3.226.198.16.008.078.14.915 1.632.04.07v1.93l1.97.942.14.065.023.155.492 3.15 5.164 4.007 2.506-1.16.666-1.554-.393-2.51-.727-1.533-.065-.137.074-.132 1.073-1.9.048-.08.084-.04 4.413-2.044 2.6-2.363.076-2.876-.62-1.93-2.324-1.84-.062-.053-.03-.076-.76-2.056-2.213-.22-3.475 1.618-.072.032-.08-.007-2.476-.25-.12-.01-.078-.094-2.123-2.58"/><path d="M124.043 262.615l-.013.455-.002.124-.092.083-2.722 2.476-.033.03-.04.02-4.37 2.022-.95 1.68.677 1.434.017.033.007.046.415 2.64.012.08-.033.08-.74 1.73-.046.104-.102.047-2.61 1.207-.286 4.463 2.52 1.846.007.006.02.017 1.832 1.735.082.08.007.113.195 3.03 2.642 1.984 3.87-.67 7.734-3.992.978-1.35.08-6.43v-.022l.003-.02.745-4.375.014-.077.05-.06 3.384-4.015-2.717-3.01-1.607 1.024-.034.022-.038.012-1.403.414-.12.032-.11-.06-2.144-1.24-.07-.04-.04-.073-1.9-3.484-3.066-.153m-17.838-26.03l-.158 4.97 1.266 2.766 2.68 2.434.112.104-.02.15-.643 5.07 2.154 2.617 2.275.228 3.474-1.618.07-.032.083.007 2.2.22.202-1.293.012-.074.04-.057 1.568-2.146.01-.012.012-.013 3.14-3.382v-2.235l.086-.085 1.88-1.883-.382-3.843-2.27-1.41-.074-.044-.037-.076-.986-2.054-4.795.233-1.152 1.386-.163.194-.216-.13-4.172-2.538-1.168-.365-5.028 2.907"/><path d="M125.112 246.928l-3.125 3.364-1.518 2.08-.226 1.416.77 2.082 2.33 1.846.07.055.026.087.662 2.062.014.05v.046l-.055 2.014 3.24.162.167.007.077.143 1.94 3.56 1.967 1.132 1.244-.367 1.78-1.133.21-.133.165.184 3.002 3.328 2.02.698 1.82-.074 6.028-5.377.01-.01.017-.01 3.197-2.26-.746-2.02-1.228-3.355-6.176-10.403-3.767-.153-1.313 1.16-.17.15-.186-.126-1.486-.99-.005-.006-1.467-1.028-.737.603-.05.04-.064.017-2.64.66-.1.024-.092-.042-1.474-.662-1.01.94-.08.073-.105.005-2.934.158m-2.18-12.616l.894-1.12 1.43-2.065v-4.854l-2.24-1.233-.062-.035-.043-.063-1.733-2.724-.033-.055-.01-.06-.428-2.77-3.085 1.984-.058.037-.07.01-5.86.576-.17.016-.098-.14-1.084-1.545-1.923-.296-1.31.77-.322.193-.107-.362-1.26-4.337-2.56-.146-2.137 1.977-.087.08-.118-.002-3.975-.08-1.917.844-1.146 1.986.075 1.748 1.004 1.93 1.487.85 1-.787.088-.07.116.01 2.308.164.238.017.032.236.247 1.73.03.195-.17.102-1.78 1.052-1.045 1.044v1.363l.82 1.345 8.04 4.26 5.14-2.97.11-.067.122.04 1.32.41.03.01.034.022 3.993 2.427 1.078-1.293.083-.1.13-.004 4.983-.242"/><path d="M121.242 218.91l.468 3.043 1.657 2.604 2.328 1.286.153.082v5.38l-.053.076-1.484 2.147-.012.016-.875 1.093.957 1.984 2.32 1.44.12.076.015.145.413 4.128.013.14-.094.095-1.895 1.896v1.796l2.64-.144 1.076-.997.144-.135.175.08 1.557.702 2.476-.62.86-.7.17-.142.182.127 1.644 1.15 1.3.868 1.234-1.09.087-.078.118.004 3.875.158 1.46-2.225.996-2.834-.93-.86-.022-.02-.013-.016-1.735-2.227-.03-.04-.018-.05-1.4-4.29-.03-.092.03-.09.988-3.05.02-.06.037-.044 3.218-3.712.016-.014.01-.01 1.99-1.832.448-2.243-2.54-3.005-6.05.08-.088.002-.074-.047-6.683-4.29-.146-.094.01-.17.153-2.53-.792-.397-.676.676-.07.068-.1.014-5.713.793-.058.516-.01.075-.04.06-3.73 5.35"/><path d="M147.416 224.83l-1.605 1.477-3.164 3.652-.942 2.902 1.357 4.15 1.69 2.172 1.053.97.14.132-.063.183-1.072 3.05-.013.037-.02.027-1.467 2.24 6.026 10.153 4.203-2.514.066-.038.076-.003 5.33-.178 5.86-3.534-1.226-3.43-5.737-7.35-2.838-1.242-.06-.026-.04-.044-2.18-2.362-.165-.178.146-.196 1.6-2.13.673-2.69-1.333-1.33-2.88 2.373-.21.175-.188-.2-2.726-2.906-.072-.076-.007-.105-.21-3.162"/><path d="M155.188 229.378l.388.387.117.116-.04.164-.726 2.906-.017.055-.035.05-1.488 1.984 1.974 2.135 2.85 1.247.07.03.044.06 5.813 7.444.03.04.015.044 1.236 3.462 1.892-.378 1.374-1.977.08-.116.14-.007 3.517-.27.126-.01.094.09 1.375 1.292 2.202-1.26.64-7.645-3.464-1.906-.144-.08-.01-.162-.175-3.148-1.602-1.44-2.563.854-.117.04-.11-.06-8.46-4.498-5.025.558"/><path d="M163.79 230.058l5.048 2.685 2.603-.868.165-.055.126.114 1.817 1.634.09.08.007.123.172 3.108 3.492 1.92.166.092-.015.187-.645 7.676 10.412.088 1.28-.85.076-.052.093.002 3.425.09.203.006.07.188.948 2.677 2.767 1.213.054.022.04.04 2.36 2.403 3.846-3.918.09-.09h.124l9.34.178.17-5.886.005-.11.072-.08 1.81-1.974-2.046-2.046-4.924 1.23-.114.03-.103-.06-7.45-4.36-.07-.042-.04-.07-4.502-8.285-6.772-4.1-10.363-.537-3.55 2.486-.068.05-.085.004-4.028.174-1.19 1.87-.036.056-.06.036-4.806 2.924m-15.55-8.69l4.453-2.014-.614-2.087-.02-.065.01-.067 1.37-7.54.05-.258.26.017 3.843.267 4.874-4.74-.637-5.628-4.76.03-.033.308-.426-.38-5.25-4.675-3.14.19-.116.007-.086-.072-3.76-3.073-.075-.06-.024-.1-.668-2.765-2.798-1.992-1.027.79-.474 2.565-.046.263-.264-.023-6.924-.595-.097-.007-.073-.065-2.322-2.034-6.757-1.766-.053-.015-.045-.032-3.562-2.576-.016-.01-.02-.02-1.88-1.887-1.825 1.825-1.07 4.457-.01.05-.028.04-2 3.09-.068.104-.12.024-4.694.906 1.177 2.792 4.004 7.517 2.94 2.146 6.453 1.143.212.037.028.212.4 2.97 2.588 3.153.08.097-.012.12-.04.368 5.467-.76.756-.755.15-.15.19.095 1.153.58.174.085-.01.192-.157 2.554 6.466 4.15 6.098-.08.14-.004.088.106 2.58 3.048"/><path d="M177.068 222.128l-3.803-3.633-.125-.12.047-.17 1.465-5.338-2.825-3.468-2.457.13-.095.002-.078-.05-6.384-4.124-4.903 4.772-.095.092-.13-.01-3.714-.257-1.31 7.21.667 2.267.072.244-.234.104-4.746 2.148-.46 2.292.246 3.63 2.464 2.628 2.88-2.37.204-.168.186.187.718.72 5.583-.622.093-.01.077.042 2.78 1.477 5.045-3.067 1.236-1.94.085-.13.15-.007 4.094-.177 3.27-2.288m-7.09 112.622l-.167 3.572 1.887 4.562 2.204-.47 1.573-1.42 3.306 1.574-.158 2.205-.944 2.046 1.104 1.258 3.146 1.1 1.257 4.407 1.26 5.51-1.416 3.462 1.417 2.83 3.62-2.2 1.573.47 1.1 2.36.787 4.094 2.36 1.73 2.835-1.89 2.675.16 5.034 2.2-.156 2.36 1.102 1.89 2.518.475 2.045-2.204 2.202 2.205 2.834 1.73-.63 4.406.63 2.518 2.832 3.145 2.36.787 2.36-1.418 1.89.63 1.417 2.833 5.82 1.89 2.518-1.89 2.52-3.62-4.453-9.743-.4-.27-.077-.058-.034-.095-1.04-3.114.164-.127 2.418-1.89.585-1.752-1.195-2.59-6.238-1.91-2.903.768-1.504 3.543-.085.195-.213-.02-3.766-.364-.104-.01-.073-.076-3.432-3.43-6.342-1.45-.133-.03-.062-.12-1.377-2.666-.094-.183.14-.146 2.474-2.644-1.553-1.64-.09-.092.007-.124.092-1.653.01-.204.2-.058 2.282-.677.244-3.876-3.264.162-1.587 1.06-.398.264-.057-.475-.55-4.59-.027-.228.212-.08 1.477-.577.166-2.722-1.48-1.652-.077-.088.004-.116.182-6.42-1.783-2.49-.054-.08v-8.658l-1.72-3.8-.04-.092.024-.094.792-3.433-2.27-2.557-.096.4-.003.017-1.172 3.877-.007.027-.012.025-.902 1.71-.04.077-.078.045-6.687 3.745-1.67 3.08-.058.105-.113.035-4.6 1.442-.022.006-.02.005-2.353.35-4.712 4.088-.072.064-.096.007-6.81.532-.18.24m-33.074-2.75l3.004 2.86-.316 3.147-.784 2.52 1.728 3.148 3.464-1.572 1.73-3.465 2.047-2.2 4.878.944 2.677-2.203 1.887-.16 1.417 1.105 4.88-.316 3.62-.945 2.43-.54.148-.195.084-2.136-.257-1.804-2.392-3.456-.06-.09.007-.104.354-4.212-2.72-3.423-.04-.05-.018-.06-.99-3.876-.007-.024v-.028l-.17-2.24-2.247-.75-.03-.01-.018-.01-6.67-3.606-.152-.08-.003-.17-.085-3.636-6.525-1.13-.052-.012-.046-.023-6.943-4.06-.146-.084v-2.432l-.97-1.694-3.364-.348-.142-.014-.075-.117-4.94-7.777-6.568 3.388-.04.022-.042.006-3.807.66-.292 4.77-.006.122-.092.08-1.05.94.303 3.795 1.975 2.583 2.953.62.083.017.06.06 5.317 5.154.09.083v4.096l-.077.086-2.347 2.66-.14 2.51 1.896.134 2.19-.938.39-.17.016.43.16 4.26 1.332 1.926 3.104.62.23.047.005.232.17 7.134"/><path d="M164.093 312.595l.162 2.2.97 3.79 2.755 3.464.073.095-.01.11-.35 4.226 2.374 3.43.04.06.008.065.27 1.894.004.022-.005.03-.075 1.924 6.52-.51 4.705-4.08.064-.06.082-.013 2.41-.356 4.466-1.4 1.654-3.05.04-.076.073-.04 6.687-3.744.847-1.608 1.16-3.844.42-1.76-3.332-4.818-1.424-1.27-1.527 1.043-.05.034-.057.013-1.353.268-.187.04-.11-.16-2.712-3.896-.82.61-3.408 3.59-.028.03-.036.02-1.982 1.173-.104.06-.118-.03-2.523-.63-.068-.015-.054-.05-3.863-3.412-2.608-1.913-2.41.258-4.015.525-1.592 2.262-.07.987 1.268.633.195.095-.04.214-.448 2.616-.027.155-.147.065-1.7.73"/><path d="M154.884 304.234l.082 3.58 6.504 3.514 2.3.765 1.646-.704.387-2.248-1.248-.622-.175-.087.015-.194.09-1.264.004-.082.046-.068 1.713-2.434.074-.104.128-.018 4.145-.54.008-.003 2.524-.268.11-.013.094.066 2.703 1.985.007.004.013.014 3.822 3.374 2.34.587 1.846-1.09 3.398-3.576.015-.017.02-.017.84-.63-2.515-3.1-.154-.19.16-.184 1.09-1.26-.236-2.69-5.07-.347-.138-.007-.08-.116-2.894-4.12-3.643-.174-.187-.008-.072-.174-1.335-3.292-3.98-4.744-.54.663-.707 3.535-.013.058-.033.047-.9 1.35-.124.192-.216-.077-6.102-2.12v6.464l-.074.08-1.31 1.474 1.17 2.257.06.11-.043.122-.54 1.534-.024.06-.054.05-4.953 4.69"/><path d="M141.603 270.128l-1.763.075-.055.002-.05-.02-1.957-.677-3.367 3.994-.725 4.272-.08 6.495-.002.09-.054.076-1.074 1.484-.04.06-.062.033-.747.382 4.833 7.615 3.372.345.15.016.076.13 1.082 1.893.04.07v2.253l6.75 3.945 6.566 1.143 4.887-4.63.477-1.346-1.204-2.323-.09-.18.133-.15 1.366-1.54v-6.378l-2.344-.16-.17-.013-.077-.155-1.645-3.56-3.77-.67-1.247 1.08-.264.228-.18-.298-2.345-3.877-.036-.057-.006-.067-.34-4.33h-4.17l-.07-.196-1.802-5.052"/><path d="M151.263 262.372l-3.164 2.237-5.95 5.304 1.734 4.873h4.303l.02.272.357 4.525 2.127 3.522 1.093-.944.106-.093.134.025 4.055.72.152.03.064.137 1.64 3.542 2.13.146v-.1l.386.136 6.277 2.18.745-1.117.71-3.55.013-.07.046-.058.8-.978 1.303-2.17.075-1.548-1.737-.997-.123-.07-.022-.143-.25-1.838-1.07-.604-.573.932-.083.13-.155.006-4.23.174-.557 1.394-.235-.038-2.162-.36-.144-.025-.066-.125-2.254-4.24-.027-.047-.005-.062-.62-6.208-4.85-4.908m19.752 17.016l-.086 1.734-.038.06-1.246 2.077 4.104 4.89.03.036.018.043.576 1.422 3.038-.873.015-.006.03-.006 4.012-.512.42-3.112.02-.143.128-.07 2.073-1.173.037-.02.037-.012 4.13-1.03.423-3.454-1.132-6.095-7.863-2.534-4.5 1.272-.433 4.67-.01.132-.11.077-3.67 2.625"/><path d="M149.59 256.506l1.156 3.154.803 2.168 5.05 5.115.072.073.01.104.626 6.25 2.16 4.063 1.786.298.454-1.132.07-.176.19-.007 4.26-.176.64-1.04.148-.24.247.14 1.44.812.127.07.022.147.25 1.836 1.606.918 3.525-2.52.44-4.732.018-.203.194-.055 4.57-1.292.223-7.1.27-.01 4.13-.18 2.22-1.777.163-.13.176.11 4.447 2.79 3.513-4.916.17-.24.24.175 4.18 3.02 2.907-1.283 1.272-1.51-2.477-3.226-5.092-5.18-2.83-1.238-.12-.052-.04-.12-.925-2.604-3.13-.082-1.276.85-.072.05-.093-.004-10.74-.086-2.456 1.403-.188.107-.16-.148-1.436-1.353-3.25.25-1.362 1.955-.066.1-.12.022-2.202.44-6.086 3.67-.065.04-.078.003-5.334.177-4.182 2.5"/><path d="M190.906 264.362l-4.403-2.762-2.134 1.706-.077.06-.095.005-3.953.17-.205 6.554 7.904 2.547.165.054.034.173 1.17 6.31.01.044-.005.046-.393 3.205 2.13-.842.03-.013.037-.004 6.61-.916.067-.01.06.02 4.686 1.47.106.034.058.095 1.467 2.444 2.394-2.234-.175-5.232-1.062-2.564-3.207-3.56-8.257-1.453-.073-.012-.06-.05-1.93-1.56-.077-.064-.023-.1-.8-3.553"/><path d="M206.58 283.304l-2.27 2.116-.264.247-.185-.31-1.593-2.66-4.515-1.414-6.508.904-2.393.947-.004.028-.197.047-4.293 1.07-1.91 1.08-.43 3.193-.03.22-.222.03-4.21.54-2.962.85.482 1.196 3.6.166.143.007.084.12 2.894 4.12 5.18.352.25.017.025.25.27 3.07.01.116-.08.094-1.015 1.168 2.374 2.93.017-.015.173.247 2.773 3.99 1.108-.22 1.663-1.138.19-.13.172.153 1.622 1.442.023.02.022.03 3.425 4.96.075.107-.03.126-.19.8 2.642 2.972.102.112-.036.148-.802 3.484 1.624 3.595h.724l1.024-2.306 1.285-2.848.082-.18.198.007 2.204.09.074.003.066.04 2.888 1.787.692-.966-.517-3.183-2.047-2.044-.103-.106.02-.145.46-3.215.04-.283.285.034 5.356.636 4.356-1.394.57-3.572-1.545-.23-.11-.017-.07-.084-1.012-1.194-.203-.24.255-.185 2.29-1.672.116-.775-1.99-.238-.21-.027-.042-.204-.276-1.286-.023-.11.054-.094 1.162-2.072-.747-.562-3.876 2.116-.094.05-.104-.02-4.592-.916-.123-.028-.067-.11-1.93-3.12-.02-.035-.01-.03-1.193-3.765-.013-.04-.002-.05-.085-8.604"/><path d="M207.866 293.8l.556 1.753 1.84 2.98 4.364.873 3.946-2.153.164-.088.15.112 1.102.826.205.152-.124.224-1.233 2.2.207.97 2.087.25.304.038-.047.297-.182 1.194-.02.12-.097.07-2.137 1.56.738.87 1.703.256h2.717l2.758-2.498.09-6.304.005-.31.306.023 2.52.172 2.623-2.886 1.634-4.263.02-.053.04-.04 2.53-2.716 2.93-7.545-1.48-1.152-.018-.016-.022-.023-1.728-1.99-2.313.432-.145.026-.108-.103-3.044-2.865-4.74-.17-.08 1.64v.023l-.276 2.296-.014.112-.09.076-3.396 2.847-.144.12-.17-.084-2.7-1.26-2.1-.16-2.138 7.755-.05.184-.188.027-4.61.71-2.148 5.483"/><path d="M227.274 304.227l-2.857 2.59-.085.075h-2.71l-.602 3.795-.028.176-.172.055-4.59 1.47-.062.018-.062-.004-5.135-.61-.396 2.786 2.01 2.007.067.065.016.098.55 3.395.02.12-.07.097-.917 1.284-.16.223-.233-.142-3.057-1.89-1.93-.08-1.206 2.667-1.102 2.476-.077.175h-1v8.244l1.784 2.496.056.078-.004.1-.182 6.406 1.486 1.655.08.094-.007.12-.184 3.03-.012.187-.176.07-1.44.56.467 3.89 1.256-.835.067-.044.08-.002 3.673-.187.328-.012-.297 4.732-.01.202-.197.06-2.28.677-.075 1.32 1.658 1.744.19.197-.19.205-2.52 2.694 1.22 2.36 6.295 1.44.085.014.057.062 3.416 3.416 3.445.334 1.476-3.476.06-.128.14-.037 2.934-.78.428-2.647.368-2.756.03-.202.195-.045 3.75-.874.432-3.014.008-.054.03-.05 3.12-5.326.044-.067.065-.04 5.235-2.94.136-.075.14.07 2.6 1.344h1.27l.95-3.365.043-.157.15-.047 2.61-.81 1.447-1.14-2.018-2.1-1.18.553-1.924 1.01-.11.056-.12-.04-8.353-2.754-.048-.017-.044-.036-1.926-1.562-.054-.04-.028-.067-2.205-4.96-.046-.104.038-.107 1.01-2.94.034-.1.093-.054 3.948-2.388.083-.05.094.01 2.203.183.13.01.08.106 1.745 2.295.056.077.004.096.086 3.81 1.59 1.272 2.04-.935.073-.033.077.006 1.928.184.08.006.062.048 1.287.917.015.014.02.018 2.968 2.877 1.38-.77.98-1.963-1.817-2.426-.043-.06-.012-.075-.275-1.927-.012-.094.042-.086 1.905-3.533.41-2.875-1.548-.23-.04-.008-.034-.012-5.42-2.392-.03-.013-.034-.023-2.295-1.84-.07-.053-.026-.087-.836-2.582-2.21.575-.193.048-.116-.16-1.01-1.377-.045-.057-.01-.07-.368-2.388h.002l-.325-1.455-2.487-.6-.206-.05-.017-.21-.256-3.234-5.8-.263-.283-.01v-4.57l-2.528.08m17.858-49.803l-3.874 1.77-.112.05-.114-.042-11.02-4.248-3.72 4.17-.185.207-.217-.175-1.75-1.4-.112-.09v-6.74l-.91-2.16-.07-.17.122-.14 8.826-9.867-.37-4.264-2.56-3.106-3.47.55-5.007 3.273-.08.052-.093-.005-4.463-.186-.63 1.57 3.165 2.975.216.203-.21.214-3.885 4.016-.004.007-1.92 2.093-.177 6.066-.007.292-.288-.008-9.503-.178-3.767 3.835 2.368 2.41.008.007.015.02 2.637 3.43.142.186-.15.18-1.47 1.744-.048.05-.06.03-3.122 1.377-.152.067-.136-.098-4.078-2.95-3.424 4.796.775 3.445 1.788 1.45 8.283 1.454.1.017.068.078 3.304 3.672.034.035.018.047 1.103 2.666.02.047.003.054.183 5.416.002.132-.004.003.09 9.097.335 1.052 1.947-4.968.062-.158.167-.025 4.587-.705 2.153-7.808.066-.233.237.02 2.39.183.05.004.052.025 2.585 1.208 3.164-2.655.262-2.17.09-1.914.015-.29.29.01 5.145.185.108.003.08.075 3.014 2.836 2.335-.434.162-.03.11.128 1.816 2.087 1.417 1.103 2.418-2.72 1.88-2.548-2.14-1.872-.098-.088v-3.402l.18-.076 8.15-3.43-.274-4.39-4.862-6.433m181.933-87.546l2.192.242.405-1.46-1.462-1.625-1.784.57.65 2.275m6.98 11.28l2.598.977 2.68-.488-1.137-3.977-3.25 1.785-.89 1.704"/><path d="M440.175 180.146l-3.17.187-1.575 5.665-5.192-4.72-1.417 4.876 5.51 5.98.317 5.192-10.072-8.97-.314-5.664 4.248-5.192.63-8.34-1.732.787-2.045 5.665-3.146 2.832-3.304.945-3.15 4.72.158 12.43-7.71 12.115.472 7.396h7.87l6.45 7.71v7.397l-4.565 5.508 1.26 2.518 3.62 2.045-6.765 1.573-1.89-7.08 5.035-8.81-2.2-6.61-7.713-1.1-4.25 4.09-.47 9.284-7.083 7.238-6.453 2.36-4.406 4.722-14.79-9.128v-4.406l9.913 4.564 5.194-2.044 8.34-5.35 5.664-11.33-.943-6.137 9.6-22.818 1.1-3.933-1.1-5.193 6.294-5.98 1.26-8.34-4.88-6.453 5.01-.655-.732-6.07-4.97-.37-.368 4.416 1.06 2.678-3.148-1.26-4.72 3.62-5.666 7.24-4.406 4.246-6.608 1.576-3.464 3.303 3.464 4.564-3.776 6.766-5.193 1.575-.158 2.36 4.564 4.72-1.575 4.406.79 2.834 1.73 2.518-5.824 5.35-1.887-2.99-1.574-6.766-6.146-9.86-3.52 2.93 2.07 3.675.078.145-.08.144-4.31 7.663 1.66 5.465.043.13-.074.112-2.727 4.214-.098.034-4.293 1.43-2.862 3.34-.082.095-.127.006-10.826.483-5.512 4.552-.076.064h-.104l-3.547.056-.317 9.208-.002.088-.052.074-4.24 5.966 2.748 5.796 10.434.788.087.008.072.054 4.982 3.856.108.085.005.14.155 5.016 1.76 1.613 11.948.636.133.008.08.103 3.696 4.66.06.074.002.098.317 7.62 2.033 2.656.064.084-.003.103-.153 5h8.01l.08.08 7.2 6.553 9.915 4.32.087.04.048.076 3.66 6.047 6.47 3.944 6.57.628 5.372-3.953.194-.145.18.166 4.89 4.577L426.4 305l.158-.007.09.135 3.776 5.505 1.95.15.11.01 3.7 3.7 7.492-9.52.47-6.138.007-.086.047-.066 4.96-6.85-.917-5.51-5.8-4.352.03-.176 1.416-8.02-3.76-5.172-.068-.09.012-.11 1.186-11.144-4.716-6.132-.096-.124.048-.146 1.882-5.644-1.872-4.45-.13-.31.323-.088 6.083-1.638 2.575-6.54-1.35-7.71-6.363-1.59-.1-.026-.062-.082-5.848-7.72-.085-.108.034-.138 1.17-4.678.034-.137.133-.06 8.754-3.92.88-3.5-3.7-7.858-.04-.083.018-.094.933-5.147.04-.203.202-.034 3.828-.638-3.578-7.602-.022-.044-.005-.055-.058-.62M309.064 367.51l4.417-.08 3.62 6.137 2.92.462.09-.1.96-2.568.028-.067.048-.045 5.17-4.847.8-3.676.017-.076.052-.056 3.112-3.435.11-.127.162.034 3.896.78 1.01-1.59.625-2.81-1.07-2.904-3.313-1.263-.137-.055-.04-.143-.493-1.8-.04-.146.097-.118 1.58-1.898.483-4.82.01-.105.078-.074 5.564-5.4.206-.202.203.203 3.11 3.113.173.172-.142.204-1.7 2.41 2.17.406.064.01.052.037 5.634 4.026 4.304-.64.097-.015.09.05 4.03 2.256 3.926.16 5.31-3.644-9.492-7.12-.057-.043-.03-.058-4.584-9.003-.006-.012-3.38-7.56-2.64-.624-.017-.004-.026-.008-5.565-2.293-.05-.02-.043-.04-2.79-2.642-.827 2.208-.074.196-.21-.006-4.442-.158-1.055 1.206-.038.04-.047.026-2.782 1.473-.094.048-.105-.02-2.158-.462-1.367 1.062-.078.06h-2.942l-.058-.022-3.514-1.53-1.51 2.87-.066.125-.14.028-4.98.976-3.206 5.536-.085.15-.176-.007-8.876-.29-2.418 5.115.146 4.988.007.227-.222.064-2.357.656-.81 3.95 2.018 4.674.006.016.008.027.824 3.085 3.734 1.142.065.02.047.044 3.46 3.136.094.084.004.123.102 3.226 5.097 4.455.085.074.013.114.324 2.92.004.02v.005"/><path d="M267.008 362.07l8.863 2.054 5.036 3.15 2.99-2.36 4.407 2.36 14.792 2.833 5.376-2.454.008-.126-.312-2.786-5.104-4.465-.093-.083-.006-.125-.103-3.23-3.32-3.006-3.83-1.172-.154-.048-.043-.156-.86-3.22-2.045-4.74-.037-.085.02-.093.82-3.992-4.21-2-3.114 1.557-.212.104-.15-.19-2.54-3.28-5.45-1.89-6.198 1.897.33 1.744.004.027-.003.034-.107 5.62-.002.145-.116.084-8.43 6.3-.2 3.037 6.335 3.798.244.15-.137.246-2.444 4.36"/><path d="M232.217 377.504l1.796-2.363 5.982-.47.47-4.25 2.832-1.57 2.992.155 3.617 2.833 2.2-2.044-2.673-4.41-1.258-4.404 2.988-3.15 2.675-.785 4.09 4.404 8.488.533v-.022l.008-.054.028-.048 2.346-4.19-6.242-3.743-.155-.092.012-.176.217-3.352.01-.135.107-.082 8.43-6.294.103-5.447-.735-3.88-2.256-2.158-1.215.744-.105.064-.12-.026-2.162-.542-.066-.016-.053-.044-8.964-7.686-1.56.393-.434 3.02-.006.05-1.908 3.54.252 1.762 1.884 2.51.108.143-.083.163-1.103 2.203-.04.08-.078.044-1.654.917-.19.106-.154-.153-3.107-3.012-1.207-.86-1.77-.17-2.133.98-.164.075-.14-.113-1.835-1.47-.108-.088v-.136l-.09-3.854-1.61-2.112-1.98-.165-3.775 2.28-.94 2.734 2.13 4.785 1.83 1.483 8.19 2.7 1.817-.953.01-.003 1.38-.644.187-.088.147.15 2.386 2.478.224.233-.255.2-1.745 1.38-.042.033-.053.018-2.51.78-1.026 3.64H242.6l-.064-.03-2.523-1.31-5.03 2.826-3.05 5.204-.45 3.16-.03.2-.195.043-3.752.873-.34 2.554-.002.005-.416 2.597 6.2 1.896.126.04.054.12 1.297 2.81.05.104-.037.11-.648 1.945-.028.085-.07.054-2.324 1.823.844 2.53"/><path d="M295.016 263.483l-1.535 2.632-1.1 2.522-.017.033-.02.027-5.054 6.69-.013.017-.017.02-7.584 7.433-.04.037-.046.02-6.38 2.902-.136 2.865 2.046 3.945.09.177-.13.15-2.764 3.203-.435 4.22-.01.086-.052.068-1.786 2.23-.08.102-.132.006-6.023.288-.87 3.914-.1.064-2.53 1.636-.208.135-.168-.185-2.42-2.686-3.36 5.322-.077.123-.14.013-5.534.583-4.74 5.61.84 2.61 2.193 1.753 5.35 2.358 1.74.26 1.84-.464.147-.037.112.097 9.03 7.74 1.975.494 1.302-.802.19-.114.163.155 2.487 2.376.07.067.018.09.316 1.68 6.23-1.905.09-.028.088.032 5.625 1.945.083.028.052.07 2.45 3.16 3.027-1.514.127-.064.128.06 4.442 2.117 2.206-.618-.142-4.83v-.07l.03-.06 2.527-5.353.082-.173.193.004 8.894.29 3.093-5.337-2.277-3.42-.057-.084.01-.102.296-3.274v-.013l.866-5.913-6.085-3.914-.08-.05-.036-.09-1.04-2.677-.062-.158.108-.133 3.48-4.205-.718-3.583v-.002l-1.187-6.395-.024-.123.073-.1 2.916-4.085-.143-4.754-3.362-8.04-5.717-3.373-.106-.063-.027-.127-.875-3.93-1.584-1.614"/><path d="M334.197 229.097l-3.41.054-4.91 4.35-.076.068-.1.006-4.437.233-.17.01-.09-.144-1.452-2.28-7.152 6.37-1.144 4.12-.024.085-.064.057-7.556 6.74-8.288 14.195 1.756 1.784.057.06.02.082.862 3.892 5.692 3.356.082.05.04.09 3.42 8.18.018.047.003.058.15 4.907v.098l-.056.08-2.9 4.063 1.166 6.27.744 3.716.026.14-.09.104-3.46 4.18.945 2.43 6.167 3.964.157.1-.025.187-.892 6.098-.288 3.15 2.215 3.32 4.783-.934 1.57-2.986.127-.24 3.955 1.72h2.623l1.395-1.085.107-.085.134.028 2.187.47 2.64-1.398 1.113-1.27.09-.105.14.005 4.372.157.907-2.422.156-.412.32.305 3.07 2.91 5.49 2.257 2.764.65.14.033.06.132 3.433 7.68 4.554 8.944 9.61 7.207 5.285-3.027.617-3.24.025-.122.105-.07 3.215-2.09.09-.058.103.015 3.777.453 3.3-10.533.026-.09.078-.055 4.66-3.535.12-.092.14.04 4.98 1.45.05.01.03.023 6.68 4.453 10.193.16h.096l.075.055 7.076 5.19 8.51-4.886.164-.095.157.108 4.404 3.148 4.99-.62 5.473-2.347.99-2.544-6.21-3.573-.148-.084v-7.92l-3.695-3.693-1.978-.152-.14-.01-.082-.118-3.766-5.492-4.98.157-.12.002-.09-.08-4.804-4.497-5.268 3.877-.088.065-.112-.01-6.748-.643-.067-.01-.058-.035-6.59-4.02-.063-.035-.035-.06-3.646-6.027-9.877-4.3-.045-.02-.036-.03-7.145-6.51h-8.384l.01-.302.157-5.2-2.028-2.65-.054-.072-.005-.094-.315-7.616-3.555-4.48-11.92-.637-.104-.004-.078-.07-1.928-1.77-.093-.084-.003-.122-.157-5.003-4.803-3.718-10.517-.797-.17-.013-.07-.153-2.895-6.107-.072-.156.1-.137 4.286-6.035.312-9.09M129.06 162.35l-1.42 1.138-.86 2.233.18 7.393.007.217-.208.066-5.46 1.76-.337 2.54-.03.233-.234.02-1.796.164-.492 1.8-.02.08-.055.05-.792.795 1.864 1.87 3.5 2.53 6.77 1.77.066.017.052.047 2.3 2.016 6.564.565.445-2.413.02-.11.09-.07 1.285-.99.172-.134.176.127 3.066 2.18.087.063.028.11.67 2.774 3.59 2.94 3.15-.193.125-.008.088.08 4.915 4.377.233-2.245-.853-2.755-2.23-2.428-.154-.167.123-.19 2.123-3.283-.38-3.61-1.955-3.817-.048-.093.02-.098.53-2.668-1.864-.255-.197-.024-.047-.193-.44-1.767-3.34-.092-.168-.005-.08-.147-.99-1.785-.076-.14.073-.137.85-1.607-.176-2.103-2.582-.865-.764 1.02-.1.135-.167-.018-1.78-.2-.092-.01-.07-.06-1.78-1.597-2.832.38-.195.024-.097-.173-1.636-2.892-1.866-.89-3.23 1.62-.31.154-.1-.33-.863-2.73"/><path d="M163.052 204.817l6.382 4.12 2.51-.13.147-.008.097.115 3.015 3.7.096.117-.04.144-1.46 5.315 3.856 3.684 10.427.54.075.003.06.037 6.902 4.18.07.038.037.072 4.503 8.284 7.273 4.255 4.97-1.242.162-.037.116.114 2.15 2.152 3.48-3.596-3.094-2.91-.145-.137.072-.186.78-1.945.077-.192.206.008 4.575.193 4.85-3.172v-3.36l-3.34-1.67-.235-.115 1.153-3.076-3.105-1.037-2.038.927-.282.127-.112-.29-2.46-6.24-6.033-.19-.13-.004-.083-.096-3.864-4.443-3.66-2.312-.025-.017-.02-.018-3.504-3.31-.006-.004-.01-.013-10.315-11.68-.09-.1.017-.13.778-5.84.012-.086 3.856-4.407-2.5-.834-.204-.068v-4.195l-3.1.037-2.093 2-.09.088-.124-.004-4.352-.197-.116-.007-.083-.086-2.04-2.14-1.953-.048-2.876.96-4.65 3.495-3.034 6.38-.088.183-.2-.016-5.06-.39-2.824 1.508-2.01 3.118 2.12 2.31.043.05.023.063.89 2.874.016.056-.008.06-.262 2.55 4.96-.032h.263l.03.26.67 5.894m-34.88-56.93l-3.047.347-4.878 3.78-2.833 3.933-5.507-.315-3.304 5.508-3.93.473-.16 4.246-5.82 3.776.314 5.51 2.36 2.99-2.675 3.305.63 2.675 3.773.944.787 3.933-1.19 2.123.246.037 2.498-.643.11-.028.098.05 1.31.695 4.826-.93 1.903-2.943 1.08-4.49.02-.085.057-.056 3.033-3.034.524-1.92.054-.196.202-.02 1.765-.16.333-2.493.023-.184.178-.057 5.425-1.75-.178-7.227v-.06l.02-.053.91-2.364.026-.074.063-.05 1.747-1.4 1.748-5.416-2.29-3.7-.04-.065-.004-.078-.204-4.538"/><path d="M158.02 140.17l-5.2.194-6.454 2.36-.313 5.193.627 2.36-1.887 1.574-1.418-3.62-2.517-.155-3.933-3.778-4.877 3.15-3.296.373.204 4.5 2.32 3.752.073.116-.045.127-1.788 5.542.858 2.72 3.056-1.53.13-.063.128.062 2.076.99.082.038.045.083 1.586 2.802 2.773-.375.132-.015.1.09 1.81 1.622 1.52.17.916-1.224.2.066 2.967.992.185.06.015.193.198 2.377.007.084-.04.076-.817 1.547.832 1.498 3.394.097.223.004.053.218.447 1.79 1.977.268.31.043-.63 3.18 1.927 3.774.026.05.005.052.35 3.334 2.585-1.38.076-.042.082.007 4.943.38 2.98-6.26.03-.062.058-.044 4.748-3.57.04-.03.044-.015 2.965-.99.05-.016h.047l4.15.096 2.166-1.736-4.01-5.232-2.562-.476-.173-.033-.053-.173-1.217-4.033-1.6.154-.27 2.438-.037.327-.318-.072-1.287-.297-.124-.03-.06-.11-.974-1.684-1.265.374-.182 2.868-.023.34-.333-.074-1.78-.396-.14-.032-.06-.13-1.01-2.108-4.953.095-.16.003-.09-.132-1.99-2.943h-4.83l-.087-.107-1.286-1.588-.15-.185.15-.185 8.04-9.726-.467-9.955m69.33-19.593l1.314-8.066 1.89 2.677-.788 5.666 2.36 5.035.63 8.34 3.304 5.035.785 5.192 12.276 7.397 7.554-1.415 5.666-7.71 1.57-8.184-2.516-9.755.315-14.162-1.574-5.192-3.935-6.295-.63-4.88 1.73-1.1 2.363 3.304 2.36-1.573-2.203-4.246-8.34-5.667-11.958-1.1-2.36 1.73-5.98 3.463.156 4.72-4.09 6.608-8.025.158-2.674 3.362 5.95 7.934-.028.127-.927 4.645 4.858 2.432.078.037.045.075.825 1.41"/><path d="M212.682 153.33l-.383-2.58.47-2.203-2.047-2.833 1.89-3.462 5.82-7.238 4.88-1.574 2.832-4.88 1.064-7.072-1.145-1.952-4.984-2.49-.2-.102.045-.22.948-4.737-5.7-7.6-6.708 8.44-3.46-.158-4.408 2.987-3.145-.158-1.26 3.147-1.415 2.675-2.518 1.89 1.414 2.674-1.73 1.73-5.824-.944-1.57 5.507-1.104 8.34-3.462 1.416-15.42-2.046-6.96.26.21 4.49 3.77-.747.048-.01.05.008 4.945.696.125.018.072.102 1.98 2.775.055.08-.004.098-.1 3.47v.103l-.07.08-1.705 1.993.193 3.85.004.03-.005.024-.494 3.37-.017.118-.096.07-2.506 1.933-.716 1.886.973 2.04 1.307.29.175-2.73.013-.205.198-.058 1.68-.496.22-.062.115.197 1.025 1.774.84.195.262-2.35.026-.237.24-.024 2.076-.2.24-.02.067.23 1.236 4.09 2.493.463.11.02.07.09 3.925 5.126.588-1.618-.393-4.893-.004-.08.04-.078 1.78-3.468.018-.035.027-.03 6.43-6.938.118-.128.165.04 3.758.892.13.03.06.116 1.19 2.18.046.088-.017.097-.594 3.765-.017.1-.068.066-2.766 2.672-4.69 5.29-1.263 4.514 3.123-.036.297-.005v4.37l2.538.844 1.818-2 .088-.097h2.422l.924-4.244.016-.08.058-.06 4.32-4.51-1.052-1.755-.003-.003-1.362-2.336-.06-.105.03-.117.975-3.503.022-.076.052-.055 4.215-4.217.375-2.24.054-.318.31.082 2.9.774 1.788.357 2.223-2.408.04-.04.052-.026.352-.166m66.266 31.873l-5.803 7.492 2.025 3.13.094.147-.08.152-1.31 2.43.947 3.98.05.21-.188.11-3.696 2.143-.158.09-.148-.098-4.79-3.064-4.58.19-.242.01-.055-.24-.752-3.396-11.542-8.892-1.28 1.922 3.212 5.29.06.1-.996 4.587-.02.087-2.82 2.82 1.247 2.14.035.06.005.064.194 2.336.028.304-.31.014-4.53.188-3.56 4.685-.177 2.818 4.28 1.783 1.806-2.17.055-.063.08-.027 4.088-1.362.24-.08.113.227 2.636 5.272-.184.148-9.432 7.507-.19 4.148-.005.137-.11.082-3.307 2.532-.133.1-.155-.065-4.12-1.686-2.963 2.405-8.775 9.81.862 2.047.025.057v6.57l1.42 1.143 3.67-4.116.135-.15.19.072 11.095 4.276 3.87-1.766 2.176-5.38.083-.205.215.02 7.356.703.115.01.078.086 5.45 6.15 5.977 3.102 8.377.918 3.307-1.824.173-.096 9.198 7.546 5.563.78 10.06-17.23.024-.04.035-.03 7.526-6.716 1.144-4.122.023-.083.062-.058 7.475-6.656.258-.23.184.29 1.54 2.426 4.166-.22 4.915-4.35.08-.074.108-.002 7.547-.118 5.506-4.552.077-.06.098-.005 10.802-.48 2.832-3.304.053-.06.077-.026 4.272-1.425 2.54-3.928-1.66-5.457-.036-.122.06-.106 1.985-3.527-2.076-.38-1.35 2.028-.09.13h-2.71l-3.32 3.08-.11.105-.154-.035-3.956-.93-3.04 3.507-.08.093-.12.008-8.984.73-.106.01-.087-.064-38.98-27.843-3.75 1.17-.055.02-.06-.008-16.844-1.81m-59.518-42.78l1.212 1.333 1.64-1.097-.467-1.92-1.252-.94-.976 1.333-.158 1.292m117.037 4.39l2.026-1.473v-3.31l-2.393-.553.367 5.334"/><path d="M368.878 194.035l-3-5.52-7.867-8.498h-5.977l-.785 3.46-.158 5.196-4.252 2.517-2.36-.472-1.572 2.36-2.99-2.36 3.46-3.147v-3.46l-11.17-.157-5.508-4.092-8.498.788-2.99-4.09 5.037-.474 2.675-5.192-6.768-1.573-3.146 3.777-1.574-2.834-17.308-4.247-2.204 2.203-2.518-2.36-9.126 5.35-4.722-4.566 1.417-4.09-1.417-4.09 5.665-1.89 5.195 3.62 2.518-4.09-.158-7.397-6.924-7.552-2.043 7.397-9.443 6.135-.785 4.72-4.513 4.075 1.77 9.437 4.953 7.427 4.535.567.133.016.074.11 2.452 3.586 16.812 1.806 3.827-1.197.138-.043.12.085 39.014 27.866 8.76-.71 3.078-3.55.12-.136.17.04 3.977.936 3.284-3.05.086-.08h2.628l1.37-2.053.105-.16.19.033 2.467.45 2.005-3.56-2.106-3.744-.12-.21.186-.16 3.785-3.15"/><path d="M355.05 177.722l-3.497.367-2.758-4.6.735-4.23 4.415-1.106 1.287 4.783-.183 4.784m-54.02-21.68l2.71 3.564 6.376.17.735-2.376-.394-3.562-3.387-3.676-4.853 1.697-1.186 4.183m47.396 4.756l1.473-13.98 1.1-5.337 4.6-4.97 5.52-1.84 2.206-3.127-1.287-3.863 4.046 2.578 3.68-.37.92-2.758 2.392.183.18-2.76 2.946 1.105.552-2.76 2.207 2.392 1.657-2.207.55-3.313 3.13 2.21 2.022-1.84 4.232.92 3.496-4.048 26.86-.553 6.44-3.496.733-4.785-2.758-3.31-6.44 1.653-1.104 2.393-11.037-.92-4.782-4.048-4.232 2.39-4.23-1.84-5.335 3.497h-4.416l-2.207 1.84-2.945-3.13-1.474 6.44-3.31.186-.367 2.575-8.277 2.576-2.946-1.286-1.84 2.207 2.392 2.39-3.312 3.13-5.336-2.207-.735 4.047-3.864-.183-.183 3.126-5.336 2.76-3.31-1.105-3.68 2.76-.183 4.048 3.494 3.496.184 5.334-3.31 3.313 2.575 5.702 2.943.37.184 2.574 3.312.736 2.206 1.103m-83.864 3.143l-4.737 4.278-2.202-4.093 3.148-.628-3.935-7.395-5.977.942-5.98-2.044-7.395 1.102-4.092 10.228-2.99-1.73-4.25-9.916.633-7.71-6.926.788-1.89 6.608 2.99 3.62-2.832 3.775-4.56-2.517-.788-5.312-.14.066-2.296 2.49-.112.12-.162-.032-1.947-.39-.016-.003-2.61-.698-.336 2.018-.014.094-.066.065-4.23 4.228-.918 3.308 1.3 2.23 1.167 1.944.113.19-.154.162-4.42 4.61-.953 4.396-.053.232h-2.638l-1.86 2.043-.01.014-4.015 4.588-.747 5.618 10.21 11.562 3.48 3.284 3.672 2.32.037.024.026.033 3.81 4.38 6.098.19.194.007.072.178 2.415 6.134 1.86-.846.106-.047.108.037 3.505 1.167.286.097-1.182 3.15 3.268 1.636.162.08v3.537l3.36-.53.165-.025.105.13 2.723 3.306.06.074.01.09.338 3.924 2.686-2.18.133-.11.16.066 4.127 1.688 3.067-2.345.187-4.143.007-.134.103-.083 9.35-7.443-2.31-4.622-3.768 1.257-1.893 2.27-.138.167-.2-.082-4.67-1.948-.194-.08.014-.207.194-3.114.006-.087.054-.073 3.697-4.866.086-.11.136-.007 4.366-.18-.166-1.968-1.327-2.276-.115-.197.16-.158 2.86-2.86.928-4.278-3.246-5.35-.096-.16.102-.154 1.557-2.333.175-.263.248.19 11.87 9.148.086.066.022.106.725 3.263 4.43-.185.09-.004.077.05 4.716 3.02 3.353-1.944-.924-3.876-.026-.11.053-.097 1.28-2.377-2.045-3.164-.115-.174.127-.163 5.903-7.617-2.335-3.41-4.54-.57-.134-.017-.073-.11-5.092-7.637-.013-.062-1.712-9.14M421.93 56.542l1.956 1.833 2.686-2.32-1.34-1.953-1.956.49-1.345 1.95m4.276 1.59l1.464 1.22 2.566-1.342.733-3.052-1.96-.487-2.805 3.664m6.96-.368l2.564 2.32 5.125-2.565-.976-2.927-3.54-1.465-3.054 2.563-.122 2.077m5.494-5.497l2.198 1.1 1.466-1.71-1.832-1.71-1.832 2.32m9.646-6.102l.734 2.32 2.198-.856-.856-2.807-2.076 1.343m-7.326-5.738l1.223 1.098 1.587-1.222-2.318-2.197-1.22.975.73 1.343m-6.594 1.466l.366 1.83 2.443 1.59 1.463-2.2-1.342-2.685-2.93 1.463m-4.763 1.954L434.265 48l-.613 3.538-4.64-1.588-3.05-3.538 3.66-2.565m12.945 13.31l.61 2.685 5.127-.122 2.076-3.42-1.71-2.808-2.197 3.176-3.296-.854-.61 1.342m-14.042 6.104l1.343 1.953 1.223-1.587-1.22-2.074-1.344 1.707m-12.698-13.43l2.075 3.54 2.443-2.32-1.224-2.93-3.294 1.71m5.982-1.098l.49 2.074 1.34-.976-1.098-2.32-.733 1.222m-2.197-11.6l1.587 2.198 1.465-1.465-2.442-2.197-.61 1.465m-14.407-4.396l.73 2.93 2.2 1.71 3.174-.244 1.955 1.587 1.22-1.466-2.443-2.198-2.197.672-4.64-2.99m.61 7.447l-.243 2.564 2.32 2.317 2.32 2.93.73-1.343-.61-2.808 3.176-.732 4.03 1.343 2.564-2.564-2.322-2.687-1.952-.732-2.076 1.587-2.81.368-1.706.732-3.42-.977m5.006 9.647l-.49 1.708 1.833 1.1.122-2.32-1.465-.488m-362.06 76.363l10.648 23.02 6.62-3.452.575-12.66-3.165-4.89-1.44 5.754-3.166-2.016-2.587-7.48-3.168 2.014-4.32-.287m37.4 169.162l-.063 1.577-4.876-.155-1.89 2.83-2.516.314-2.987 5.348-5.036 1.89-3.62-5.35-8.497-1.104-3.933 4.093 8.495 5.037-2.517 1.727-4.406-2.675-2.524 1.987 1.508 2.98h3.235l.09.108 3.717 4.588.122.152-2.843 5.464 3.595 4.44.12.144-.085.17-.848 1.696-.208 3.54 2.112 2.595 2.092-2.405.19.072 3.268 1.226 1.187-1.977.13-.216.23.1 2.626 1.09.18.073v4.163l3.108 1.453.17.078v4.036l1.61 2.614 3.816-.4 1.236-2.272.085-.152h6.38l3.765-4.178-.186-2.042-3.48-.41-.244-.026-.015-.244-.21-2.976-3.233-4.523-.08-.11.037-.137 1.712-6.21-2.11-3.168-.175-.26 4.864-2.78.194-.108.16.156 1.654 1.655 3.198-.2 1.853-3.705-.646-6.255-.02-.178.15-.097 4.877-3.18-.826-7.66-3.806-.202-2.758 1.91-.16.113-.164-.104-3.057-1.967-3.74-1.994"/><path d="M119.02 341.964l5.317-1.756.786-4.09 4.565-2.52 4.877-1.258 1.756-.536-.156-6.69-2.992-.6-.114-.022-.067-.1-1.45-2.092-.05-.07v-.084l-.146-3.922-1.864.8-.067.026-.07-.007-2.254-.16-.29-.02.02-.287.16-2.898.002-.102.07-.077 2.338-2.653v-3.634l-5.16-5.006-2.976-.627-.107-.022-.066-.086-2.09-2.74-.053-.066-.008-.084-.308-3.838-4.33-1.546-.11-.04-.053-.106-1.82-3.64-2.34.732-.06.016-.065-.006-4.544-.605-.44 3.09-.02.136-.117.072-4.303 2.627.852 7.9.02.18-.152.1-4.876 3.18.638 6.16.008.085-.04.075-1.966 3.934-.073.152-.17.01-3.496.22-.13.007-.095-.096-1.59-1.587-4.123 2.356 2.01 3.017.076.11-.035.13-1.712 6.204 3.12 4.37 7.73.837.795-2.19.077-.21.223.018 2.622.22.217.018.043.217.83 3.947 2.97.395 2.633-1.662.1-.065.115.027 9.34 1.93.132.027.065.116 2.44 4.356"/><path d="M96.108 377.907l4.94 1.8 13.218-.316-1.102-5.193 3.304-.63 2.52-14.16-2.205-2.99-3.306-.786.474-2.674 4.094-3.78-3.646-5.064 1.758-.913 2.312-1.02-2.335-4.17-9.09-1.88-2.42 1.53 1.662 4.367.03.077-.02.084-1.725 8.202 2.13 3.838.066.116-.042.12-2.16 6.264.857 3.85.09.4-.407-.044-3.856-.43-2.036.89-.223.098-.135-.202-1.393-2.094-1.246 1.497 2.025 4.828.08.2-.167.14-2.738 2.257-.024.02-.022.01-2.444 1.292 3.185 4.47"/><path d="M85.753 379.915l4.91.105 4.692-2.164-3.102-4.35-.193-.27.296-.16 2.712-1.435 2.545-2.094-2.01-4.79-.068-.164.114-.134 1.607-1.933.25-.3.22.323 1.475 2.21 1.88-.82.074-.032.075.01 3.53.393-.785-3.54-.02-.082.026-.073 2.145-6.217-2.12-3.82-.053-.098.023-.105 1.728-8.22-1.655-4.347-3.105-.417-.207-.025-.043-.203-.83-3.937-2.18-.18-.798 2.19-.08.218-.227-.023-7.74-.835.178 2.467 3.474.408.235.028.022.236.218 2.404.01.126-.084.094-3.933 4.375-.087.096h-6.295l-1.23 2.25-.073.135-.152.017-4.155.435-.183.022-.096-.16-1.75-2.84-.043-.073v-3.832l-3.11-1.45-.167-.076v-4.147l-2.21-.92-1.18 1.97-.126.207-.23-.083-3.307-1.24-1.89 2.173 2.14 2.625 2.235-.407.183-.033.11.156 1.47 2.1 2.96.846.142.04.052.14 1.302 3.47 3.103 5.32-.02.104-.86 5.143 3.23 5.813.023.037.007.038 1.094 4.59.01.04-.002.04-.213 4.68 4.935 4.936.04.043.025.06 1.108 2.92"/><path d="M55.358 396.28l-1.675 1.678.316 4.72 4.404 6.294-.315 6.608-.79 3.15 3.934 4.88 1.89-.79 1.1-1.886 2.36 1.256 2.52.79 2.99-1.89v-8.34l2.045-11.802 7.552-7.24.63-7.553-.788-3.304 3.66-2.754-1.074-2.83-4.802-4.8-1.762 1.37-.084.064-.108-.005-5.137-.213-2.787 2.19.985 1.972.118.24-.225.14-2.48 1.538 3.15 4.504 3.38.633.185.033.047.178 1.093 4.155.065.248-.235.097-2.626 1.093-.062.027-.07-.004-2.65-.203-3.408 6.602-.166.324-.28-.238-2.624-2.218-1.558 1.754-.097.108-.147-.014-6.474-.565"/><path d="M53.983 390.38l1.117 3.014.467 2.312 6.17.542 1.65-1.856.19-.217.22.187 2.56 2.168 3.33-6.45.086-.173.194.016 2.772.214 2.32-.968-.98-3.73-3.315-.623-.117-.02-.072-.098-4.506-6.44-3.506-.208-1.68.746 1.91 7.186.064.238-.223.105-8.654 4.05"/><path d="M51.88 387.364l.072 1.31 1.662 1.233 8.554-4.006-1.822-6.86-1.537.68-1.48 4.68-.027.086-.073.055-2.184 1.75-.04.03-.05.02-3.076 1.025"/><path d="M45.262 377.454l.238 5.397 6.295 2.99.05.92 2.877-.96 2.073-1.658 1.493-4.72.04-.123.123-.055 3.508-1.558-2.748-2.218-1.033 1.78-.11.19-.212-.055-7.132-1.728-5.34 1.71-.12.088"/><path d="M40.615 366.605l3.313 3.658.156 5.034 1.005 1.557.02-.015.045-.02 5.466-1.747.078-.028.08.02 7 1.697 2.23-3.85-.99-3.17h-3.394l-.084-.077-6.48-5.83-4.598-.208-3.85 2.977"/><path d="M32.512 351.516l3.86 6.473v3.933l3.85 4.248 3.972-3.073.085-.065.104.004 4.49.204-.205-4.706-.008-.166.136-.09 2.403-1.603-3.434-6.476-1.165 2.33-.09.183-.2-.02-4.154-.437-.13-.017-.078-.1-2.275-3.107-7.163 2.482"/><path d="M31.11 344.785l-.218-3.714-.018-.28-.014-.28.28-.027.28-.027 3.842-.386v-2.608l.12-.088.118-.088 4.335-3.203-2.765-1.73h-.003l-.037-.024-.036-.026-.03-.033-.032-.036v-.004l-3.498-4.15-.083-.098-.083-.1.018-.127.017-.13.438-3.275.05-.363.046-.356.34.12.34.12 3.06 1.095.095.035.095.033.055.088.054.086 2.45 3.88h3.945l.015.278.015.274.205 3.463 2.427 2.023.11.095.115.09-.007.148-.006.142-.22 4.81-.008.183-.054.07-.057.076-3.498 4.592-.434.57-.433.57-.092-.712-.09-.712-.494-3.98-5.482 6.048-.148.164-.146.16-.193-.093-.197-.09-4.152-1.967-.157-.076-.16-.073-.01-.173-.01-.175zm-5.91-34.633l.316 5.51-1.73 2.044.786 2.36 2.517 1.89-.16 3.933 1.418 6.293-.472 5.82-1.104 9.6 1.26 1.73 2.517-1.102 1.654 2.774 7.482-2.593.203-.07.127.172 2.327 3.175 3.823.403 2.802-5.6 3.045-1.22-1.113-1.667-.097-.145 1.724-3.23-1.797-1.596-.233-.206.223-.22 2.115-2.115.206-1.86.017-.167.155-.067 2.404-1.095.24-.11.133.234 1.577 2.76 2.037-1.666.21-3.59.004-.056.03-.057.79-1.58-3.6-4.444-.12-.15.09-.17 2.753-5.293-3.508-4.33h-3.32l-.08-.163-1.91-3.772-5.758-5.237-.787 7.554-3.147-1.575-5.982.314-2.2 2.834-4.407-7.395-3.462 3.144z"/><path d="M59.85 334.672l-2.177 1.784-.27.216-.17-.297-1.618-2.83-2.008.913-.21 1.907-.075.07-1.966 1.965 1.736 1.543.17.153-.107.202-1.668 3.126 1.216 1.822.2.3-.334.133-3.18 1.27-1.302 2.605 3.753 7.083.126.232-.22.146-2.485 1.655.206 4.74 6.382 5.744h3.6l.065.206 1.093 3.497.037.12-.064.113-1.076 1.86 3.12 2.514 3.623.214.14.01.082.116 1.03 1.476 2.28-1.415-.973-1.947-.106-.213.19-.15 3.06-2.402.082-.07.11.008 5.14.215 1.775-1.382.208-4.63-1.074-4.514-3.256-5.865-.048-.09.014-.1.858-5.143-3.006-5.156-.01-.017-.01-.028-1.26-3.355-2.918-.837-.1-.025-.06-.088-1.423-2.032-2.22.407-.167.03-.11-.135-4.622-5.675m-28.373 6.364l.22 3.714 4.153 1.968 5.908-6.52.43-.473.655 5.246 3.496-4.59.217-4.806-2.524-2.103-.1-.083-.006-.127-.21-3.588H40l-.084-.136-2.538-4.02-3.06-1.09-.437 3.278 3.498 4.15v.005l3.132 1.954.364.228-.343.253-4.68 3.46-.002.004v2.84l-.264.027-4.106.408M522.8 456.152l13.34 5.377 12.274 2.832 2.515 9.757 8.967 4.72 6.294-.16 8.974-5.35 6.923 2.204 7.236-.473 1.89 3.304 4.163.18 1.364-5.048.036-.125.115-.06 3.995-2.09-4.28-4.67-.21-.23.24-.195 4.174-3.38-1.585-4.76-.13-.385h8.346l4.867-4.054.1-.082.128.017 4.367.597 8.15-10.797.078-.105.132-.01 5.214-.4 1.57-2.556.05-.08.094-.038 4.466-1.827 3.4-4.203.39-4.482-3.567-2.38-.13-.088v-4.63l.115-.09 7.777-5.934 2.65-6.118.052-.12.12-.04 6.8-2.4-.385-5.437-4.183-3.782-4.658-.81-.175-.03-.058-.167-3.892-11.684-2.42-2.22-.19-.173.148-.208 2.412-3.42-.335-3.35-2.855 3.213-.107.12-.157-.024-2.42-.375-1.38 5.313-.04.166-.165.044-12.994 3.504-.192.055-.118-.162-2.18-2.972h-3.02l-.07-.038-2.81-1.5-1.526 3.627-.05.122-.125.04-6.19 2.062-.096.033-.094-.034-3.193-1.128-.754 3.592-.045.208-.206.023-6.294.788.548 3.098 3.836 3.23.223.19-.19.223-3.24 3.85-.602 5.816 2.09 4.916.334-.98 1.28-8.008.007-.05.027-.048 2.09-3.695.1-.17.19.02 2.73.324.22.027.034.22.486 3.055.005.05-.006.044-1.28 7.194.475 7.008 1.113 3.824.03.095-.037.09-1.47 3.76-2.264 2.102-.72 1.298.77 2.45.03.098-.042.1-.966 2.41-.054.14-.145.036-2.36.588-.15 2.68-.006.07-.037.064-3.054 4.98-.058.095-.104.035-4.567 1.414-2.996 4.1-.097.135-.162-.014-3.43-.3-.915 5.2-.016.08-.054.064-2.57 2.894-.045.047-.057.024-8.23 3.64-1.086 3.726-.044.146-.146.052-5.302 1.767-.3.098-.076-.304-.758-3.033-5.6-1.09-.213-.04-.023-.215-.475-4.096-3.877-4.964h-5.26l-.082-.065-10.764-8.514-.034-.027-.02-.03-3.366-4.586-5.39 3.845-.077.057-.096-.003-3.08-.07.157.68.037.155-.113.115-1.652 1.653.603 2.406.04.15-.102.115-2.28 2.58 2.042 3.953"/><path d="M446.653 478.9l20.25-7.614 7.238-.47 1.26 1.885 10.858 2.363.787 4.878 4.092 2.046 11.486 1.26 4.564.63 2.36 2.204 3.62-1.26 3.304-2.835 2.36-5.82-3.93-4.72.47-7.24 2.517-.787.158-3.305 3.305-.155.923-3.548-2.126-4.118-.092-.18.13-.148 2.31-2.617-.605-2.422-.04-.162.117-.114 1.654-1.658-.387-1.687-4.736.305-.1.008-.084-.06-11.852-8.265-.71 3.267-.046.213-.214.017-14.416 1.27-.913 3.808-.04.173-.17.047-2.807.737.293 2.642.02.178-.153.1-3.89 2.49-.152 2.584-.01.217-.215.05-2.666.627-4.766 3.972-.1.084-.127-.016-11.086-1.445-.07-.01-.06-.04-6.81-4.796-3.13-.24-2.03 5.337-.07.175-.19.015-7.877.508.494 5.44 4.72 8.386.13.235-.22.152-3.278 2.272.754 5.162"/><path d="M436.97 449.513l3.49-1.25 2.57-1.284 4.323-4.325-.99-2.724-.03-.085.02-.088.772-3.094-1.035-4.15-.037-.14.087-.112 2.874-3.65 1.476-4.427-4.215-1.49-.14-.047-.043-.142-.792-2.64-.042-.144.09-.117 3.327-4.35-1.818-4.42.02-.087.793-3.43.03-.138.13-.062 4.437-2.09 2.19-2.185-4.65-9.042-.05-.094.023-.103.672-3.14-5.02 2.154-.116.05-.117-.05-6.52-2.868-7.46 1.028-2.83 3.343-.085.105h-.138l-7.67-.037-.16 20.652 2.783-.36.29-.035.038.294.516 4.124 3.892 4.15.042.05.02.052 1.288 3.61 3.618 2.583.258.185-.204.243-2.737 3.236 2.205 2.45.104.112-.038.15-1.053 4.22-.03.113-.1.063-2.775 1.768-.235 4.946 6.405.193.127.003.085.096 2.133 2.43zm-34.032 13.37l.55 5.413 5.034 2.834.158 5.35 5.037 1.1 2.044 2.52 5.668-2.99 1.1 3.933 3.62 5.35 5.667.63 1.73-3.778 7.553-.315 5.008-3.724-.815-5.564-.024-.18.15-.104 3.21-2.222-4.617-8.21-.03-.053-.008-.064-.48-5.278-4.062 3.108-.233.177-.177-.23-3.694-4.746-.084-.11.03-.132 1.288-5.668-2.076-2.367-6.292-.187-.002.085-.225.046-3.957.792-.132.026-.107-.084-3.267-2.568-.217 2.625-.007.075-.04.063-3.168 4.748-.097.146-.174-.02-5.744-.52-4.6 1.532-1.853 2.55 2.857 1.43.123.06.03.132.792 3.43.072.317-.325.043-5.214.6z"/><path d="M363.157 416.076l7.6 36.484 4.09-.63 2.834-4.09 2.677 1.1.788 4.25 8.653 4.723 6.766-2.52 3.62 1.574 2.59 5.348 4.988-.577-.687-2.975-3.04-1.524-.31-.155.2-.28 2.113-2.902.055-.075.09-.03 4.75-1.582.057-.02.062.006 5.626.51 3.03-4.54.258-3.09.044-.545.427.337 3.588 2.817 3.602-.72.26-5.46.128-.08 2.803-1.787.988-3.958-2.27-2.522-.17-.19.165-.192 2.697-3.19-3.434-2.45-.078-.055-.03-.087-1.297-3.636-3.917-4.174-.065-.07-.012-.095-.49-3.928-2.73.348-3.532 3.213-.095.084-.13-.012-6.76-.645-2.036 1.57-.18.137-.18-.138-2.09-1.642-5.873 5.712-.203.2-.203-.2-4.58-4.42-.066-.06-.018-.08-.807-3.38-3.76-5.018-15.513 5.333-.108.036-.103-.044-3.29-1.413-1.503 1.052-.16.11-.162-.1-2.47-1.543-3.193 1.876"/><path d="M351.286 400.605l8.143.184-3.308 3.46 6.82 11.27 3.267-1.918.153-.088.15.092 2.453 1.537 1.478-1.036.135-.095.147.064 3.333 1.43 15.608-5.363.2-.072.13.174 3.927 5.238.04.05.013.058.796 3.353 4.317 4.165 5.858-5.695.182-.18.2.16 2.112 1.658 1.947-1.494.09-.072.115.01 6.744.643 3.41-3.1.16-20.853h-2.71l-3.845 3.204-.234.195-.183-.24-1.637-2.13-.068-.087.007-.11.47-7.88-11.32-.32-.166-.007-.08-.145-2.043-3.772-5.876.16-.23.006-.06-.225-1.133-4.198-3.683-4.807-19.815-9.432v6.578l-.144.086-3.74 2.18 1.092 4.206.104.393-.405-.026-4.844-.32-3.77 1.57-2.203 3.93.487 11.376.006.06-.026.065-2.574 6.11"/><path d="M320.645 374.166l2.277.66.156 4.09-1.416 1.575.944 2.837-3.146 3.617.63 2.675 6.766 1.57.314 3.62 3.305.16 2.517.63 2.517 2.83-3.62 2.99v2.52l3.62-1.1 3.146 1.73 2.83-.63 2.363-2.046 6.78-1.233 2.664-6.33-.487-11.398-.005-.08 2.33-4.163.052-.09.093-.04 3.928-1.637.065-.027.068.006 4.507.3-1.044-4.025-.055-.213.193-.112 3.78-2.208v-15.92l-2.702-2.86-.176-.19.162-.196 2.867-3.51-.256-2.175-5.33 3.657-.08.054-.096-.002-4.095-.167h-.07l-.062-.035-4.002-2.24-4.323.64-.114.016-.097-.068-5.675-4.055-2.556-.478-.447-.085.263-.373 1.82-2.58-2.732-2.732-5.282 5.126-.478 4.805-.01.09-.058.065-1.54 1.85.415 1.51 3.297 1.255.125.047.046.127 1.148 3.11.027.077-.018.086-.655 2.945-.01.05-.03.044-1.145 1.8-.108.17-.197-.04-3.93-.785-2.945 3.254-.8 3.69-.02.09-.065.064-5.19 4.863-.95 2.533"/><path d="M430.49 332.628l-4.26-3.048-8.516 4.89-.164.094-.153-.11-7.158-5.25-10.19-.16-.09-.003-.07-.042-6.714-4.48-4.793-1.39-4.468 3.39-3.346 10.677-.075.234-.24-.03-3.913-.47-3.018 1.96-.62 3.25-.025.138-.12.067-5.4 3.09.306 2.59.013.124-.08.096-2.784 3.4 2.608 2.76.078.085v9.26l20.13 9.58.064.03.042.056 3.764 4.91.036.046.016.055 1.085 4.034 5.827-.157.178-.003.085.155 2.05 3.782 11.45.32.304.008-.503 8.38 1.386 1.797 3.695-3.077.085-.07h3.507v.003l7.535.036 2.813-3.325.073-.09.11-.013 7.653-1.056.08-.01.077.035 6.48 2.85 5.253-2.254.255-5.356.01-.135.105-.083 5.463-4.165.69-2.532-4.743-1.495-.07-.023-.05-.05-3.5-3.503-.013-.103-.528-4.486-.017-.15.117-.103 5.976-5.197.232-3.03-3.942-.494-.158-.02-.07-.142-4.418-9.098-15.148-2.35-.25-.037v-4.577l.065-.08 2.016-2.52-2.105-7.416m19.536 74.103l-1.818.857-.737 3.2 1.813 4.397.062.156-.1.133-3.34 4.368.706 2.355 4.345 1.532.27.095-1.673 5.022-.014.05-.03.04-2.814 3.58 1.02 4.08.018.072-.018.07-.77 3.082 1.023 2.817.067.175-4.618 4.615-.03.035-.045.02-2.64 1.32-.022.01-.01.004-3.542 1.267-1.252 5.51 3.43 4.41 4.254-3.254.422-.323.02.245 7.706-.495 2.043-5.367.076-.202.218.017 3.228.248 2.29-4.828.05-.11.112-.04 4.107-1.54 1.243-2.737v-3.277l.155-.08 3.787-2.023-.247-3.205-1.57-4.714-.008-.028-.004-.012-.78-4.43-3.397-5.222-.09-.135.07-.147 1.475-3.2-2.596-1.65-4.386.514-.02.003h-4.97l-.068-.2-2.4-7.076m-7.206-233.515l2.68 3.49 1.867-.81-.57-4.872-1.866-.973-2.11 3.165m7.47-22.16l1.38 1.786 1.46-1.54-.65-2.436-1.866.57-.324 1.62m51.307-86.03l5.89 1.08-1.374-4.413-4.12.098-.396 3.238m4.91 11.09l3.237-4.317-.786-3.83 3.14-2.06 3.14-3.14 3.534 3.14 1.963 5.592 1.18 2.455-3.24 1.765v3.043l-8.047 3.63-4.122-3.73v-2.55m-2.946 4.81l6.184 2.356-.883 2.945-2.845 1.57-4.12-2.845-.69-2.748 2.357-1.277m5.495 9.815l2.747-6.774 7.558-3.728 1.373 5.203 1.963-.59.294-2.254 3.435 3.335-.294 4.417-2.55 4.122 2.157 2.55-.588 3.828-2.747 1.473-5.594-3.827-5.005-4.318-2.846-1.277.1-2.157m19.723 3.827l-.686 8.832-3.338 6.083 1.276 4.612 5.495-4.416 5.79-.394 3.042-3.04.393-7.068-3.24-4.123-2.746 2.75-1.475-1.572.198-4.22-4.71 2.552m16.19 12.76l.49 2.355 4.32.98-.194-1.667-4.323-2.65-.294.983m-32.777 17.664l2.258 1.67 1.67-.983-1.178-2.453-2.75 1.766m-19.92-3.238l2.844 1.57.197-2.257-1.863-2.16-1.374 1.177.195 1.67m17.567 9.42l1.08 1.18 1.373-1.278-1.568-1.666-.885 1.766m-47.945 29.62l2.192 2.03 1.46-1.46-.57-2.274-1.866-.487-1.218 2.192m5.278 2.598l1.218.893.808-1.542-1.38-1.54-.646 2.19m3.166-5.926l1.217.81.73-1.38-1.867-1.216-.08 1.786m2.19-3.248l1.382 1.056 1.298-1.867-2.11-1.544-1.138.81.57 1.544m-9.824-11.2l1.544 1.055 2.272-1.382-1.298-2.272-1.95-.565-1.866 1.62 1.298 1.545m4.872-7.957l-.57 1.38 1.22 1.705 1.296-1.38.082-1.543-2.03-.162M463.91 79.2l-.355 1.844 1.9 1.907 2.675.06-.12-2.38-1.84-2.44-2.26 1.01m11.886-14.35l2.494.772 2.735-.712-1.605-3.573-2.022-1.61-1.425 1.37-.297 2.264.12 1.49m73.33 375.84l-.553-2.9-.047-.256.247-.078 2.806-.886-1.213-4.24-.075-.257.254-.095 3.355-1.26.248-.094.12.236 2.612 5.23 6.517-3.882.23-.135.155.217 2.252 3.15.002.005 1.93 1.767 2.52-.944.053-.02h3.69l.09.138 1.727 2.743.113.17-.13.163-6.77 8.616-.17.22-.226-.16-4.114-2.894-5.04.474-.1.01-.083-.054-2.956-1.865-.016-.01-3.53-2.57-3.638-.303-.222-.017-.043-.22zm28.456-144.95l-1.902 2.112-.065.07-.094.02-4.52.952-4.1 1.823.228 4.547 1.18 3.068.046.114-.052.11-2.327 5.128 2.312 3.7.038.062.006.067.477 5.508.007.086-.037.076-3.595 6.95-.038.072-.066.04-5.983 3.685 2.247 3.822.1.166-.117.155-2.546 3.48 1.35 4.502 5.118 1.628.163.05.038.167.72 3.355.03.15-.103.11-3.762 3.995-.212 2.774 2.4.654.15.04.05.15 1.2 3.596.058.17-.13.128-2.82 2.82-1.178 4.234-.102.37-.33-.193-5.267-3.116-.076-.047-.04-.085-2.513-5.48-4.86 2.207-.695 4.63-.01.092-.06.063L537.2 380.16l.47 5.38.017.212-.2.082-2.873 1.2-.26.107-.117-.252-4.11-8.9-2.817 3.682-.085.11-.137.004-11.092.475-4.39 8.083 4.94 7.76.065.1-.026.12-.958 4.31-.044.2-.2.027-4.88.698-2.777 5.32-.954 14.314-.02.3-.3-.03-4.71-.47-3.353 1.56v2.8l8.064 7.222 12.11 8.447 4.88-.316.25-.012.056.245.19.818 3.128.075 5.546-3.96.234-.17.172.234 3.512 4.79 10.65 8.426h5.348l.086.112 4.02 5.144.05.065.007.083.46 3.96 5.572 1.085.182.038.045.18.727 2.907 4.858-1.62.97-3.332h-5.257l-.082-.17-1.124-2.41-.112-.237.227-.135 2.41-1.45.05-.03.06-.007 3.306-.472 6.643-4.588 2.375-3.648.02-.03.03-.028 4.925-4.445 1.1-3.303.01-.03.016-.024 2.89-4.984.01-.01 3.517-5.435 3.038-8.323 2.27-6.68-2.375-5.586-.028-.07.008-.076.62-5.98.007-.09.06-.07 3.11-3.695-3.696-3.11-.08-.07-.02-.102-.62-3.51-.052-.305.31-.036 6.392-.8.78-3.713.068-.33.316.11 3.412 1.206L610 387.12l1.6-3.798.125-.295.282.152 3.03 1.61h3.17l.086.122 2.15 2.932 12.64-3.41 1.398-5.403.07-.256.26.04 2.526.387 3.193-3.592.444-.5.455 4.565 7.703 1.185 4.53-3.152.195-5.882-4.82-3.416-.12-.08-.005-.142-.413-7.425-.008-.152.122-.094 2.68-2.063.077-.056.095-.004 6.578-.192-6.182-14.017-3.32-2.3-5.814 2.645-.294.137-.1-.313-2.127-6.374-9.292-3.715-4.646.773-7.255 15.588-.017.035-.027.03-4.878 5.695-.208.24-.227-.22-3.52-3.522-2.25 3.997-.08.143-.166.007-6.684.268-4.536 3.47-.21.16-.18-.195-4.34-4.607-.088-.093.01-.126.812-11.93.004-.047.02-.048 3.937-9.188-5.11-1.53-.127-.04-.055-.123-2.438-5.42-.04-.093.02-.096 1.848-7.648-4.148-2.33-.155-.088.007-.18.27-7.515-3.063-5.87-2.442 1.705-.085.06-.1-.006-3.526-.27-.273-.02v-4.23l.14-.084 2.732-1.74-2.264-3.427z"/><path d="M549.2 437.937l.46 2.424 3.413.286.08.006.083.01.067.05.065.046 3.53 2.567 2.86 1.805 4.94-.465.11-.008.11-.01.086.063.088.06 3.884 2.733 6.47-8.236-1.533-2.428h-3.27l-2.47.924-.17.062-.165.064-.133-.122-.13-.118-1.927-1.768h-.004l-.023-.023-.022-.02-.017-.028-.016-.024-2.095-2.936-6.29 3.74-.27.164-.27.16-.14-.282-.142-.28-2.495-4.992-2.858 1.07 1.138 3.982.082.274.077.275-.274.083-.27.087-2.556.807m82.34 22.22l1.444-3.713.064-.162.065-.167.176-.02.175-.02 8.14-.995 2.336-4.866.17-.355.17-.356.29.268.29.266 1.867 1.707 1.943-4.598.06-.146.06-.143.154-.03.152-.03 4.124-.827v.003l.112-.022.114-.025.098.06.098.065v-.004l4.95 3.096.173.108.17.105-.075.392-.62 3.3-.033.188-.037.19-.187.045-.182.043-2.43.57 4.135 3.79h.004l.312.29.32.294-.39.185-.385.19-17.123 8.248-.146.07-.144.072-.135-.084-10.037-6.274-.205-.13-.206-.13.085-.228.088-.223zm-35.566 18.408l2.635.113 2.677 5.04 20.612 1.885 13.847-8.34 4.408-.155 1.416-4.564 6.765-6.294 9.443-.474 2.83 2.675 3.934-3.62 16.683 2.68 2.36-6.455 5.665-3.934-2.36-5.82 2.518-15.737 4.25-4.25-2.835-7.554-5.978-.63 4.25-7.866 7.495-5.202-6.893-10.34.114-.162 2.29-3.243-4.05-2.316-.134-.08-.014-.154-.593-7.906-4 .952-.213.05-.11-.193-2.534-4.493-5.318 2.955-.194.106-.153-.154-3.298-3.298-.177-.174.142-.204 1.89-2.642-6.555-4.372-.062-.037-.034-.07-8.372-15.517-6.738.2-2.48 1.91.395 7.13 4.83 3.426.13.09-.004.157-.212 6.335-.12.084-4.743 3.302-.1.063-.11-.016-7.87-1.208-2.22 3.148 2.286 2.092.055.05.025.076 3.867 11.588 4.57.796.082.014.063.058 4.333 3.917.086.08.01.117.413 5.775.012.223-.21.074-6.894 2.43-2.63 6.072-.03.07-.058.048-7.723 5.89v4.033l3.583 2.387.142.096-.014.173-.413 4.747-.006.087-.057.07-3.508 4.33-.045.06-.07.027-4.45 1.82-1.6 2.602-.08.126-.148.01-5.23.404-8.17 10.827-.105.136-.17-.025-4.41-.6-4.85 4.038-.084.072h-7.74l1.52 4.563.064.193-.155.128-4.094 3.31 4.33 4.723.254.28-.335.18-4.218 2.207-1.3 4.796z"/><path d="M633.53 456.66l-1.44 3.71 9.898 6.19 17.123-8.25h-.002.004l-4.543-4.165-.41-.373.54-.13 2.965-.697.62-3.3-4.95-3.095-4.123.826-2.108 4.98-.163.383-.305-.283-2.17-1.986-2.404 5.01-.07.147-.16.02-8.3 1.013m-61.26-161.154l-.177.12-3.44-2.704h-7.89l.513-4.638.01-.088.054-.067 4.525-5.473 1.336-3.573-2.922-2.024-.125-.087v-4.115l-2.56-2.79-.102-.11.03-.147 1.16-5.565-3.22-2.476.216-.238 4.466-4.934-1.662-20.88-5.222-8.034 2.615-1.35 6.292-5.125.098-.08.12.013 3.713.437 1.347-6.52.01-.058.03-.046 1.837-2.75.457-3.67.016-.118.09-.076 7.72-6.13-3.316-3.98-.07-.08v-6.328l-6.726-9.514-.036-.05-.012-.063-.923-4.845-2.066-2.75-.067-.09.01-.11.22-2.754-4.15 2.075-4.72 3.62-6.453 1.888-2.516 4.407.155-6.294 13.06-13.532 7.24-13.06 3.305-11.644-10.072-11.488-9.44-.314-3.304 4.72-3.78.63 2.834-8.026-7.71-.944 2.517-3.62-4.72-3.932-4.248 1.575-6.767 10.07 1.574 5.98-7.238.472.156 1.887 2.674 3.934-5.19-1.1-2.677 2.516-5.98-1.1-.784-2.676-8.498.156.158 4.878-10.23 1.416-6.923 5.506-5.35.16-3.934 3.462-1.73 7.08 3.303 5.98-5.036 1.26-13.375-2.205-7.71-.156-2.36 4.248-.316 11.015 4.877 4.722 2.363 5.506h-6.767l-5.823-10.858-4.27.25.05.55 3.722 7.906.163.35-.38.064-4.006.667-.885 4.85 3.703 7.868.044.095-.025.1-.935 3.743-.037.138-.13.06-8.755 3.917-1.1 4.404 5.698 7.525 6.45 1.612.184.045.035.19 1.41 8.07-.412 1.043v-.007l-2.278 5.78-.054.14-.145.04-5.9 1.59 1.783 4.24.042.102-.033.104-1.87 5.603L441.8 257l.07.09-.012.118-1.187 11.146 3.767 5.18.073.1-.02.124-1.408 7.966 5.607 4.206.09.065.02.12.956 5.744.023.12-.074.102-4.982 6.876-.473 6.145-.006.088-.054.07-7.688 9.773v7.605l6.278 3.608.22.126-.092.233-1.125 2.89-.045.117-.114.05-5.623 2.412-.035.013-.04.005-4.802.6 2.078 7.336.04.144-.093.118-2.046 2.556v3.87l15.053 2.337.153.023.067.14 4.414 9.087 4.064.508.28.034-.022.278-.264 3.43-.01.122-.09.078-5.95 5.176.497 4.23 3.31 3.307 4.943 1.56.266.085-.074.272-.792 2.9-.026.1-.078.057-5.434 4.14-.257 5.404-.01.182-.03.01-.737 3.446 4.7 9.14.1.19-.152.152-2.375 2.372-.032.04-.047.018-2.006.945 2.353 6.94h4.528l4.466-.525.102-.014.088.06 2.9 1.844.22.138-.11.232-1.515 3.282 3.343 5.14.033.05.01.06.79 4.468 1.573 4.723.01.038v.035l.267 3.43.016.19-.17.09-3.802 2.024v3.055l-.024.054-1.32 2.903-.05.11-.114.046-4.108 1.54-2.218 4.683 6.613 4.655 10.89 1.424 4.72-3.938.054-.044.066-.018 2.52-.592.146-2.512.008-.15.127-.08 3.864-2.47-.33-2.963.246-.065 2.885-.758.92-3.846.05-.207.21-.02 14.407-1.264.72-3.318-8.043-7.205-.1-.092v-3.425l.17-.08 3.59-1.678.076-.033.077.007 4.49.45.938-14.07.007-.06.027-.056 2.875-5.508.07-.136.15-.02 4.83-.69.884-3.996-4.964-7.8-.09-.147.08-.153 4.552-8.382.08-.146.166-.007 11.118-.475 3.032-3.96.296-.388.202.44 4.193 9.085 2.414-1.006-.46-5.295-.01-.13.088-.092 10.715-11.672.698-4.652-.03-.15 5.742-2.64.122.267 2.596 5.66 4.86 2.877 1.098-3.943.02-.077.052-.054 2.748-2.745-1.09-3.27-2.485-.68-.234-.062.017-.242.24-3.113.01-.102.07-.077 3.73-3.957-.654-3.04-5.107-1.626-.15-.048-.044-.147-1.44-4.79-.04-.14.088-.118 2.52-3.437-2.297-3.906-.144-.247.243-.152 6.16-3.79 3.513-6.793-.464-5.36-2.36-3.773-.08-.132.063-.143 2.346-5.16-1.156-3-.017-.043-.004-.048-.24-4.787-.007-.2.184-.082 4.31-1.916.03-.013.032-.007 4.455-.938 1.927-2.14-1.593-1.99-3.37 2.243m368.75-7.223l-1.26-15.736-1.73-7.24-5.194-5.19.472-7.712 2.673-2.204-8.965-10.385.16-7.238 3.774-4.092-.946-4.09-7.553-2.204-7.71-13.69 1.89-1.26 2.36 3.303 3.775-2.36-5.82-5.507-3.15 1.73-5.023-3.26-.084.094-2.6-6.117h-5.193l-.63 3.62-3.305-.315-10.7-21.4.63-6.767 4.25-.942-3.148-12.588 6.768 5.35.155-15.11 5.35-5.505 8.024-.157-4.56-11.174-2.18-24.067-5.197 1.575-.113.034-.105-.056-3.866-2.034-6.685 19.192-.072.202-.212-.007-8.5-.217-7.85 2.398-.263.082-.096-.263-2.554-7.03-10.584.636-1.897 3.366-.064.112-.126.03-7.295 1.716-1.264 3.792-.058.178-.19.02-3.968.418-1.26 4.413-.044.15-.148.048-4.58 1.457.82 4.508 6.578 9.562 4.084.858.156.033.058.15 2.792 7.305 4.64-.424.128-.01.094.09 3.095 2.872.07.065.018.095.86 4.504 4.268 2.41 2.956-2.757-8.024-9.6 1.885-6.295 7.713-2.675-4.094 6.14.945 4.72 6.135 4.25 2.832.156-.157 4.405 2.676.633-2.518 12.588 2.834 4.72.944 14.636 2.205 9.44 2.99 9.443-3.463 3.776 1.1 3.62-1.885 2.517 4.876 5.664.788 8.97 6.695 7.56v-.002l7.94 8.965 43.43 29.11m-653.677-22.832l-.08-.01-.064-.053-8.96-7.347-3.21 1.773-.082.048-.093-.01-8.823-1.004.01-.06-5.886-3.056-.048-.024-.036-.042-5.412-6.102-7.024-.67-2.076 5.134 4.96 6.558.052.07.005.09.293 4.684.014.206-.193.08-8.163 3.438v2.75l2.24 1.96.205.175-2.564 3.43-.005-.022-2.23 2.506-3.01 7.75-.02.056-.04.04-2.533 2.712-1.63 4.264-.02.05-.037.043-2.755 3.025-.094.107-.143-.008-2.354-.16-.083 5.807 2.635-.08.302-.01v4.613l5.778.262.26.013.02.257.26 3.276 2.453.594.18.043.038.177.367 1.655.006.018.357 2.316.848 1.16 2.198-.57 4.863-5.754.072-.092.12-.01 5.508-.578 3.492-5.533.21-.328.257.288 2.508 2.79 2.217-1.436.867-3.898.05-.22.22-.01 6.116-.29 1.648-2.06.438-4.23.01-.09.06-.07 2.695-3.12-1.99-3.84-.036-.07.004-.08.15-3.12.01-.18.16-.073 6.5-2.952 7.527-7.385 5.025-6.652.94-2.154-5.454-.766M22.776 305.366l3.382-3.947-7.61-10.01 4.51-12.824-3.242-2.677-2.818 1.972-11.136-7.612-1.41 2.256.424 9.02-4.227 4.51 1.125 6.203 7.33-.425 8.173 10.29 5.496 3.24m113.922-72.838l-2.458-1.306-2.47 1.286.483-2.74-1.984-1.953 2.755-.388 1.245-2.49 1.22 2.5 2.753.413-2 1.934.46 2.747"/></g></g></svg>