<svg height="32" width="26" xmlns="http://www.w3.org/2000/svg"><path fill="#1b1b1b" fill-rule="evenodd" d="M12.96 2.03s2.82 2.8 5.59 3.48c1.69.42 3.42.49 4.47.49.62 0 .99-.02.99-.02v5c0 17.03-11.05 18.99-11.05 18.99S2 28.01 2 10.98v-5s.37.02.99.02c1.04 0 2.81-.07 4.5-.49 2.77-.68 5.47-3.48 5.47-3.48m0-2c-.39 0-.77.11-1.11.34-.08.05-2.48 2.62-4.84 3.2-1.54.38-3.19.43-4.02.43-.51 0-.83-.02-.86-.02H2c-.51 0-1 .19-1.37.54-.4.37-.63.9-.63 1.46v5c0 18.49 12.09 20.87 12.61 20.96a1.983 1.983 0 0 0 .7 0c.52-.09 12.7-2.47 12.7-20.96v-5c0-.56-.23-1.09-.63-1.47-.37-.34-.86-.53-1.37-.53h-.13c-.03 0-.35.02-.86.02-.83 0-2.45-.05-3.99-.43-1.99-.49-4.29-2.76-4.96-3.2-.33-.23-.72-.34-1.11-.34zm4.28 10.79c.39.39.39 1.02 0 1.41l-7.07 7.07c-.39.4-1.02.4-1.41 0a.996.996 0 0 1 0-1.41l7.07-7.07a.996.996 0 0 1 1.41 0zm-8.48 0a.996.996 0 0 0 0 1.41l7.07 7.07c.39.4 1.02.4 1.41 0a.996.996 0 0 0 0-1.41l-7.07-7.07a.996.996 0 0 0-1.41 0z"/></svg>