<?xml version="1.0" standalone="no"?>
<!DOCTYPE svg PUBLIC "-//W3C//DTD SVG 20010904//EN"
 "http://www.w3.org/TR/2001/REC-SVG-20010904/DTD/svg10.dtd">
<svg version="1.0" xmlns="http://www.w3.org/2000/svg"
 width="564.000000pt" height="564.000000pt" viewBox="0 0 564.000000 564.000000"
 preserveAspectRatio="xMidYMid meet">
<metadata>
Created by potrace 1.11, written by Peter Selinger 2001-2013
</metadata>
<g transform="translate(0.000000,564.000000) scale(0.100000,-0.100000)"
fill="#000000" stroke="none">
<path d="M580 5620 c-20 -20 -20 -21 -18 -1433 l3 -1412 313 -390 c172 -214
318 -397 325 -405 7 -8 77 -95 155 -192 152 -190 168 -202 212 -158 20 20 20
33 20 1993 0 1688 -2 1976 -14 1993 -14 18 -32 19 -495 22 -473 3 -481 2 -501
-18z"/>
<path d="M4060 5620 c-20 -20 -20 -33 -20 -1995 0 -1962 0 -1975 20 -1995 21
-21 37 -24 64 -14 9 3 174 205 368 448 194 242 355 443 358 446 3 3 21 25 40
50 19 25 41 52 49 60 8 8 41 50 73 93 l57 78 1 1403 c0 1400 0 1402 -20 1424
l-21 22 -474 0 c-462 0 -476 -1 -495 -20z m890 -1447 l-1 -1347 -107 -134
c-147 -184 -300 -375 -311 -388 -5 -7 -58 -72 -116 -145 -59 -74 -115 -144
-125 -155 -10 -12 -41 -51 -70 -88 -28 -36 -54 -66 -56 -66 -2 0 -4 826 -4
1835 l0 1835 395 0 395 0 0 -1347z"/>
<path d="M2200 5580 c-20 -20 -20 -33 -20 -1050 0 -1017 0 -1030 20 -1050 20
-20 33 -20 609 -20 546 0 590 1 610 18 l22 17 0 1035 0 1035 -22 18 c-13 11
-32 16 -48 13 -22 -3 -147 -46 -514 -174 -45 -16 -49 -16 -110 5 -283 100
-500 173 -512 173 -8 0 -24 -9 -35 -20z m241 -174 c154 -54 144 -50 204 -71
28 -9 62 -21 78 -27 l27 -10 0 -859 0 -859 -225 0 -225 0 0 935 c0 514 4 935
8 935 5 0 65 -20 133 -44z"/>
<path d="M2200 2840 c-20 -20 -20 -33 -20 -1049 l0 -1030 246 -308 c135 -169
260 -326 277 -348 99 -124 115 -124 214 0 37 46 203 253 249 311 103 127 249
312 261 331 12 18 14 176 14 1043 0 912 -2 1025 -16 1046 l-15 24 -595 0
c-582 0 -595 0 -615 -20z m550 -1347 c0 -1081 -2 -1245 -14 -1233 -8 8 -109
134 -225 279 l-211 263 0 969 0 969 225 0 225 0 0 -1247z"/>
</g>
</svg>
