<?xml version="1.0" standalone="no"?>
<!DOCTYPE svg PUBLIC "-//W3C//DTD SVG 1.1//EN" "http://www.w3.org/Graphics/SVG/1.1/DTD/svg11.dtd" >
<svg xmlns="http://www.w3.org/2000/svg">
<metadata></metadata>
<defs>
<font id="pf_din_text_cond_prolight" horiz-adv-x="3909" >
<font-face units-per-em="2048" ascent="1536" descent="-512" />
<missing-glyph horiz-adv-x="437" />
<glyph unicode="fj" horiz-adv-x="885" d="M39 950v110h121v215q0 77 23.5 133.5t65 91.5t96.5 52.5t119 17.5q187 0 291 -112l-86 -93q-41 43 -93.5 60.5t-111.5 17.5q-86 0 -126.5 -43t-40.5 -120v-220h454v-1224q0 -118 -63.5 -193.5t-195.5 -75.5h-49v123h19.5t19.5 2q76 2 105.5 41t29.5 115v1102h-320v-950 h-137v950h-121z" />
<glyph unicode="ffj" horiz-adv-x="1344" d="M41 950v113h121v191q0 77 23.5 132t65.5 90.5t97.5 51.5t117.5 16q127 0 213 -52q43 49 104.5 69.5t134.5 20.5q187 0 291 -111l-87 -92q-43 41 -94.5 58.5t-109.5 17.5q-84 0 -125.5 -42.5t-41.5 -119.5v-230h453v-1227q0 -118 -63.5 -193.5t-194.5 -75.5h-49v123 q2 0 19 -1t20 1q75 4 104 46t29 124v1090h-318v-950h-136v950h-318v-950h-135v950h-121zM297 1063h318v230q0 21 2.5 42.5t8.5 41.5q-37 24 -79 32.5t-83 8.5q-84 0 -125.5 -43.5t-41.5 -122.5v-189z" />
<glyph unicode="&#xfb00;" horiz-adv-x="977" d="M41 950v113h121v195q0 78 23.5 132.5t65.5 90t96.5 53t118.5 17.5q115 0 201 -47q32 43 81.5 63t109.5 20h99v-124h-79q-76 0 -103.5 -44.5t-27.5 -102.5v-253h203v-113h-203v-950h-134v950h-316v-950h-135v950h-121zM297 1063h316v262q0 28 7 60q-37 24 -78 31.5 t-78 7.5q-168 0 -167 -164v-197z" />
<glyph unicode="&#xfb01;" horiz-adv-x="885" d="M41 950v113h121v219q0 78 23.5 133.5t65.5 89.5t97.5 50.5t117.5 16.5q183 0 289 -114l-84 -93q-43 43 -94.5 60.5t-112.5 17.5q-166 0 -165 -163v-217h452v-1063h-134v950h-318v-950h-137v950h-121z" />
<glyph unicode="&#xfb02;" horiz-adv-x="941" d="M41 950v113h121v217q0 144 83.5 221t218.5 77q43 0 117.5 -9.5t171.5 -43.5v-1269q0 -69 26.5 -105.5t100.5 -36.5h29v-120h-43q-120 0 -184.5 51.5t-64.5 190.5v1192q-49 15 -83.5 19t-71.5 4q-88 0 -126.5 -46t-38.5 -135v-207h210v-113h-210v-950h-135v950h-121z" />
<glyph unicode="&#xfb03;" horiz-adv-x="1344" d="M41 950v113h121v191q0 77 23.5 133t65.5 91.5t97.5 52t117.5 16.5q123 0 215 -55q43 49 103.5 69.5t133.5 20.5q189 0 293 -111l-89 -92q-40 43 -91.5 59.5t-112.5 16.5q-84 0 -125.5 -42.5t-41.5 -119.5v-230h453v-1063h-135v950h-318v-950h-136v950h-316v-950h-137v950 h-121zM299 1063h316v230q0 47 9 81q-37 25 -79 34.5t-79 9.5q-88 0 -127.5 -43.5t-39.5 -122.5v-189z" />
<glyph unicode="&#xfb04;" horiz-adv-x="1395" d="M41 950v113h121v191q0 77 24.5 133t66.5 90.5t96.5 50.5t116.5 16q56 0 112 -13t103 -39q43 49 103 70.5t134 21.5q43 0 117.5 -10.5t168.5 -44.5v-1273q0 -69 28 -105.5t102 -36.5h29v-120h-45q-119 0 -184 51.5t-65 190.5v1198q-47 15 -82 19.5t-71 4.5q-89 0 -128 -45 t-39 -133v-217h212v-113h-212v-950h-134v950h-316v-950h-137v950h-121zM299 1063h316v221q0 54 9 90q-39 25 -80 33t-78 8q-168 0 -167 -163v-189z" />
<glyph unicode="ft" horiz-adv-x="973" d="M41 950v113h121v244q0 131 69.5 193.5t176.5 62.5h95v-125h-75q-75 0 -102 -44t-27 -101v-230h318v279h134v-279h165v-113h-165v-677q0 -71 28.5 -110.5t102.5 -39.5h51v-123h-81q-115 0 -175 64.5t-60 171.5v714h-318v-950h-137v950h-121z" />
<glyph horiz-adv-x="0" />
<glyph horiz-adv-x="682" />
<glyph unicode=" "  horiz-adv-x="437" />
<glyph unicode="&#x09;" horiz-adv-x="437" />
<glyph unicode="&#xa0;" horiz-adv-x="437" />
<glyph unicode="!" horiz-adv-x="474" d="M166 0v152h146v-152h-146zM170 1496h133l-15 -1120h-103z" />
<glyph unicode="&#x22;" horiz-adv-x="534" d="M107 1092v404h106v-404h-106zM327 1092v404h103v-404h-103z" />
<glyph unicode="#" horiz-adv-x="913" d="M19 476v94h181l60 366h-166v94h181q0 6 6.5 42t15.5 85t17 107.5t17 108t14.5 84.5t5.5 41h96l-75 -468h248q0 6 5 42t13.5 85t18.5 107.5t18.5 108t14 84.5t5.5 41h99l-78 -468h174v-94h-189l-61 -366h173v-94h-187q0 -7 -5.5 -42.5t-14.5 -86t-17 -108.5t-16.5 -108.5 t-15.5 -87.5t-7 -43h-98l75 476h-246l-76 -476h-98l78 476h-166zM297 570h247q0 9 10 63.5t20.5 119t19 119.5t10.5 64h-247z" />
<glyph unicode="$" horiz-adv-x="913" d="M45 232l109 67q37 -71 101.5 -123.5t163.5 -61.5v592q-88 32 -153.5 68.5t-108.5 82.5t-64.5 105.5t-21.5 138.5q0 82 23 152t68 122.5t109 83.5t148 37v179h78v-179q135 -8 219 -69.5t121 -138.5l-113 -73q-32 64 -86.5 105t-140.5 50v-549q195 -49 278 -148t83 -275 q0 -179 -90.5 -289.5t-270.5 -121.5v-219h-78v219q-142 9 -233.5 75.5t-140.5 169.5zM207 1101q2 -100 55.5 -154.5t156.5 -97.5v523q-103 -10 -157.5 -85.5t-54.5 -185.5zM497 114q120 11 171.5 88t51.5 194q0 66 -15 111t-44 76.5t-70 54t-94 41.5v-565z" />
<glyph unicode="%" horiz-adv-x="1332" d="M74 811v473q0 103 68.5 161.5t167.5 58.5q98 0 166 -58.5t68 -161.5v-473q0 -52 -18.5 -93t-50.5 -68.5t-75 -43t-90 -15.5q-97 0 -166.5 58.5t-69.5 161.5zM181 813q0 -56 35.5 -90.5t93.5 -34.5q55 0 90 34.5t35 90.5v469q0 54 -35 88t-90 34q-58 0 -93.5 -34 t-35.5 -88v-469zM213 -37l793 1572h102l-796 -1572h-99zM782 207v483q0 51 19.5 90t52 67.5t75.5 42t91 13.5q47 0 89 -13.5t74 -42t51.5 -67t19.5 -90.5v-483q0 -52 -19.5 -91.5t-51.5 -68t-74 -42t-89 -13.5q-48 0 -91 13.5t-75.5 42t-52 67.5t-19.5 92zM890 207 q0 -56 35.5 -86.5t94.5 -30.5q55 0 89.5 30t34.5 87v481q0 53 -34.5 84.5t-89.5 31.5q-58 0 -94 -31t-36 -85v-481z" />
<glyph unicode="&#x26;" horiz-adv-x="1169" d="M123 353q0 139 68.5 251t204.5 215q-33 51 -61.5 96.5t-49 90.5t-34 90t-13.5 96q0 64 20.5 123t61.5 102.5t101 69t138 25.5q96 0 170.5 -30.5t130.5 -100.5l-48 -42t-49 -40q-47 49 -94 68.5t-113 19.5q-47 0 -82 -18.5t-57.5 -46t-34.5 -62.5t-12 -66 q0 -45 23.5 -106.5t63.5 -131.5t90 -146.5t103.5 -151.5t104.5 -147t94 -135q33 62 49 130t25 134q30 -4 62 -5t62 -3q-11 -92 -38.5 -189t-77.5 -183q43 -64 90.5 -131t92.5 -129h-162q-26 39 -54 76.5t-53 77.5q-84 -94 -174 -130.5t-189 -36.5q-164 0 -261.5 99 t-97.5 267zM254 361q0 -111 65.5 -182.5t179.5 -71.5q75 0 149 41.5t126 105.5q-78 117 -155 231.5t-157 230.5q-101 -80 -154.5 -167t-53.5 -188z" />
<glyph unicode="'" horiz-adv-x="398" d="M146 1092v404h106v-404h-106z" />
<glyph unicode="(" horiz-adv-x="526" d="M109 652q0 129 25.5 253.5t68 238.5t101.5 217.5t129 189.5l66 -39q-117 -183 -184 -406.5t-67 -445.5q0 -236 69.5 -462t181.5 -405l-60 -43q-66 84 -126.5 186.5t-105.5 217.5t-71.5 240t-26.5 258z" />
<glyph unicode=")" horiz-adv-x="526" d="M71 1510l69 37q66 -86 125 -188.5t102.5 -217.5t68 -239t24.5 -255t-26 -255.5t-71 -239.5t-104 -216.5t-124 -185.5q-30 19 -61 43q111 177 180.5 402.5t69.5 462.5q0 110 -17 222.5t-50 222.5t-80.5 213.5t-105.5 193.5z" />
<glyph unicode="*" horiz-adv-x="743" d="M58 1225q2 7 6.5 22t11 33.5t10.5 34.5t6 23l237 -101q0 10 -2.5 49t-5.5 81.5t-6 81.5t-3 49h114l-20 -261q9 4 44.5 17.5t75.5 30t75 31.5t46 22q2 -7 6.5 -24t11 -34.5t10.5 -32t6 -22.5l-246 -68l167 -203l-95 -68l-137 226q-7 -8 -27.5 -42t-43 -71.5t-42 -72 t-25.5 -42.5q-4 4 -18 13.5t-29 21.5t-29 20.5t-18 12.5l165 205q-10 2 -45.5 12.5t-76.5 21.5t-76.5 21.5t-46.5 12.5z" />
<glyph unicode="+" horiz-adv-x="913" d="M43 570v107h363v379h103v-379h361v-107h-361v-381h-103v381h-363z" />
<glyph unicode="," horiz-adv-x="406" d="M105 -230l57 226h-43v176h162v-172l-94 -230h-82z" />
<glyph unicode="-" horiz-adv-x="769" d="M109 505v121h562v-121h-562z" />
<glyph unicode="." horiz-adv-x="396" d="M119 0v174h162v-174h-162z" />
<glyph unicode="/" horiz-adv-x="737" d="M33 -82l533 1637h107l-533 -1637h-107z" />
<glyph unicode="0" horiz-adv-x="913" d="M109 329v837q0 84 28.5 147.5t76.5 107.5t112 66.5t132 22.5q69 0 131.5 -22.5t111 -66.5t77 -107.5t28.5 -147.5v-837q0 -84 -28.5 -147t-77 -106t-111 -66t-131.5 -23q-70 0 -133 23t-111 66t-76.5 106t-28.5 147zM240 333q0 -103 60.5 -161t157.5 -58q96 0 155.5 58 t59.5 161v830q0 101 -59.5 159.5t-155.5 58.5q-97 0 -157.5 -58.5t-60.5 -159.5v-830z" />
<glyph unicode="1" horiz-adv-x="913" d="M215 1198l2 144l211 154h136v-1496h-134v1352z" />
<glyph unicode="2" horiz-adv-x="913" d="M80 0v127l501 789q34 55 52.5 121.5t18.5 119.5q0 43 -12 83t-36.5 71t-65.5 50.5t-99 19.5q-90 0 -146.5 -61.5t-73.5 -175.5l-135 22q19 154 111.5 248t247.5 94q168 0 261.5 -92.5t93.5 -254.5q0 -82 -28 -161t-75 -155l-459 -718h538v-127h-694z" />
<glyph unicode="3" horiz-adv-x="913" d="M62 286l131 28q15 -88 60.5 -145.5t148.5 -57.5q64 0 108 23.5t71.5 62.5t39 95.5t11.5 122.5q0 154 -51.5 229.5t-167.5 75.5h-84v119h71q117 0 170.5 62.5t53.5 197.5q0 56 -11 107.5t-36 90.5t-67 62.5t-104 23.5q-51 0 -88 -17.5t-59.5 -46.5t-36 -65.5t-19.5 -77.5 l-132 24q11 66 35.5 122.5t66.5 98.5t100 65.5t133 23.5q105 0 173 -32.5t108 -87t56 -129.5t16 -157q0 -44 -7.5 -92t-26.5 -92t-54 -81t-88 -57q64 -14 100.5 -49.5t55 -84t24 -105.5t5.5 -117q0 -94 -18.5 -174t-61.5 -139t-115 -92.5t-177 -33.5q-60 0 -117 17 t-102.5 55t-75.5 94t-39 133z" />
<glyph unicode="4" horiz-adv-x="913" d="M56 238v132l420 1126h141l-424 -1131h416v435h133v-435h120v-127h-120v-238h-133v238h-553z" />
<glyph unicode="5" horiz-adv-x="913" d="M103 290l133 26q13 -94 63 -151.5t153 -57.5q75 0 119 31.5t66.5 85t29 125.5t6.5 154q0 78 -7.5 143.5t-31 112.5t-65.5 73t-109 26q-62 0 -116 -32t-84 -82h-122v752h656v-124h-536l4 -484q52 50 112.5 70.5t120.5 20.5q98 0 159.5 -36t96 -99.5t46 -148t11.5 -184.5 q0 -127 -16 -224.5t-55.5 -164t-110 -101t-177.5 -34.5q-301 0 -346 303z" />
<glyph unicode="6" horiz-adv-x="913" d="M107 402q0 97 17.5 193.5t72.5 223.5l308 677h142l-305 -681l4 -2q31 19 69.5 29t79.5 10q81 0 141.5 -32t99 -88.5t57 -132.5t18.5 -164q0 -209 -87.5 -328.5t-269.5 -119.5q-347 0 -347 415zM240 408q0 -139 47.5 -219t168.5 -80q107 0 163 73.5t56 234.5 q0 69 -10.5 127t-35.5 100t-66 65.5t-103 23.5q-66 0 -108 -27t-67 -72t-35 -104t-10 -122z" />
<glyph unicode="7" horiz-adv-x="913" d="M105 1163v333h708v-124l-462 -1372h-140l462 1372h-443v-209h-125z" />
<glyph unicode="8" horiz-adv-x="913" d="M97 413q0 154 47 241.5t131 123.5q-90 47 -127 124t-37 210q0 103 28.5 178t75.5 124t111 72.5t134 23.5q73 0 138 -22.5t112 -71t74 -124t27 -180.5q0 -131 -42 -210t-120 -124q90 -39 132 -126t42 -241q0 -117 -30 -198.5t-79 -130.5t-116 -72t-138 -23q-74 0 -139 23 t-116 72t-79.5 131t-28.5 200zM230 421q0 -170 64.5 -241t165.5 -71q116 0 171 76.5t55 235.5q0 166 -60.5 233.5t-165.5 67.5q-101 0 -165.5 -68.5t-64.5 -232.5zM243 1104q0 -138 57 -203.5t160 -65.5t159 66.5t56 208.5q0 273 -215 273q-217 0 -217 -279z" />
<glyph unicode="9" horiz-adv-x="913" d="M103 1060q0 209 87 328.5t270 119.5q348 0 348 -416q0 -97 -18 -193.5t-74 -223.5l-308 -677h-141l305 681l-4 2q-30 -18 -69 -28t-80 -10q-82 0 -142 32.5t-98.5 88t-57 132t-18.5 164.5zM238 1077q0 -69 11 -127t36 -100t66 -65.5t103 -23.5q66 0 108 25t67 68 t34.5 103t9.5 129q0 139 -47 219t-168 80q-107 0 -163.5 -73t-56.5 -235z" />
<glyph unicode=":" horiz-adv-x="398" d="M117 0v174h160v-174h-160zM117 647v176h160v-176h-160z" />
<glyph unicode=";" horiz-adv-x="398" d="M105 -230l55 226h-41v176h162v-172l-94 -230h-82zM119 647v174h162v-174h-162z" />
<glyph unicode="&#x3c;" horiz-adv-x="913" d="M56 574v101l796 400v-116l-678 -333q11 -4 62.5 -29t124 -60.5t153.5 -76.5t153.5 -76t124 -61t62.5 -30v-117z" />
<glyph unicode="=" horiz-adv-x="913" d="M43 383v112h827v-112h-827zM43 744v108h827v-108h-827z" />
<glyph unicode="&#x3e;" horiz-adv-x="913" d="M58 176v117q10 4 62 30t123 61t153 76l153 76.5t122 60.5t62 29l-675 333v116l798 -400v-101z" />
<glyph unicode="?" horiz-adv-x="889" d="M76 1155q28 179 134 266t250 87q92 0 161 -28.5t115 -78t68.5 -118t22.5 -150.5q0 -58 -10.5 -102t-27.5 -82t-39.5 -72t-48.5 -69q-24 -32 -51.5 -66t-52.5 -72t-42 -79t-17 -86v-140h-136v123q0 136 76 236q39 54 75 100t65 90.5t47.5 90.5t18.5 99q0 51 -9.5 100.5 t-35.5 88t-71 62.5t-116 24q-52 0 -95 -20.5t-74 -55.5t-49.5 -79t-22.5 -91q-35 6 -67.5 12t-67.5 10zM396 0v154h146v-154h-146z" />
<glyph unicode="@" horiz-adv-x="1664" d="M105 722q0 173 53 317.5t150.5 250t236.5 165t313 59.5q157 0 286 -50.5t221.5 -140.5t142 -217t49.5 -279q0 -146 -30.5 -244.5t-79.5 -161t-115 -89t-136 -26.5q-17 0 -46.5 6t-58 21.5t-54.5 41t-35 62.5q-2 0 -4 -2q-35 -58 -105 -86.5t-136 -28.5q-114 0 -179 64.5 t-65 174.5q0 47 14.5 91.5t44.5 79.5t77.5 56.5t113.5 21.5h209v113q0 64 -38.5 101.5t-127.5 37.5q-51 0 -96 -22.5t-72 -63.5l-88 50q41 62 106.5 99.5t147.5 37.5q58 0 109 -12t88 -39.5t57.5 -74t20.5 -114.5v-373q0 -66 32.5 -103t88.5 -37q50 0 94 19.5t77 68 t52.5 129.5t19.5 202q0 140 -47.5 249.5t-125.5 184.5t-182.5 113.5t-221.5 38.5q-154 0 -274.5 -53t-203 -145.5t-127 -219.5t-44.5 -273q0 -161 45.5 -291t130.5 -221t206 -142t277 -51q114 0 208 20.5t191 69.5l39 -99q-99 -38 -205.5 -65t-222.5 -27q-174 0 -318.5 54 t-247.5 157t-159 252.5t-56 342.5zM617 564q0 -69 45.5 -106t125.5 -37q77 0 130.5 39t53.5 116v140h-182q-76 0 -124.5 -35t-48.5 -117z" />
<glyph unicode="A" horiz-adv-x="1051" d="M21 0l437 1496h135l437 -1496h-144l-101 359h-520l-101 -359h-143zM295 484h458l-131 462l-93 349h-8q-4 -17 -17.5 -67t-28.5 -107.5t-28.5 -108.5t-18.5 -66q-6 -26 -25.5 -91t-40 -140t-40 -140.5t-27.5 -90.5z" />
<glyph unicode="B" horiz-adv-x="1079" d="M140 0v1496h430q205 0 301.5 -105t96.5 -279q0 -103 -41 -189t-159 -138v-7q59 -15 102.5 -50.5t71.5 -83t39.5 -104.5t11.5 -117q0 -211 -108.5 -317t-287.5 -106h-457zM277 133h302q77 0 129.5 24t84.5 64.5t46.5 95.5t14.5 118q0 123 -65 202t-206 79h-306v-583z M277 839h285q137 0 203 73t66 196q0 120 -68 192t-211 72h-275v-533z" />
<glyph unicode="C" horiz-adv-x="995" d="M107 423v650q0 95 29.5 174.5t85 137.5t135.5 90.5t181 32.5q148 0 258.5 -74.5t147.5 -212.5l-133 -49q-21 96 -92.5 150.5t-180.5 54.5q-70 0 -124.5 -24t-92 -65t-57 -96t-19.5 -117v-656q0 -62 20.5 -118t58 -96.5t91 -64t123.5 -23.5q105 0 178.5 53.5t96.5 156.5 l131 -48q-35 -144 -146.5 -218t-259.5 -74q-99 0 -179 32t-135.5 89.5t-86 138t-30.5 176.5z" />
<glyph unicode="D" horiz-adv-x="1104" d="M138 0v1496h418q308 0 403 -236q26 -74 31 -183t5 -252v-246q0 -103 -5 -186t-29 -143q-29 -74 -72.5 -121t-100.5 -76t-125 -41t-140 -12h-385zM277 127h259q234 0 297 183q12 34 18.5 79.5t6.5 88.5v509q0 49 -4.5 101.5t-18.5 95.5q-29 91 -105 138.5t-194 47.5h-259 v-1243z" />
<glyph unicode="E" horiz-adv-x="964" d="M140 0v1496h778v-128h-641v-545h550v-124h-550v-566h641v-133h-778z" />
<glyph unicode="F" horiz-adv-x="941" d="M140 0v1496h778v-128h-639v-549h548v-124h-548v-695h-139z" />
<glyph unicode="G" horiz-adv-x="1069" d="M105 423v650q0 95 30.5 174.5t86 137.5t135.5 90.5t181 32.5q148 0 258.5 -73.5t147.5 -215.5l-22 -7q-21 -8 -44.5 -15t-45.5 -14l-21 -7q-25 94 -95.5 147.5t-177.5 53.5q-70 0 -124.5 -24t-92 -65t-58 -96t-20.5 -117v-660q0 -62 20.5 -117t58 -96.5t92 -66 t124.5 -24.5q64 0 118 23.5t93 63.5t60.5 93t21.5 115v254h-255v125h394v-368q0 -97 -32.5 -177t-89 -136.5t-136.5 -87.5t-174 -31q-101 0 -181 32t-135.5 90.5t-86 139t-30.5 176.5z" />
<glyph unicode="H" horiz-adv-x="1130" d="M140 0v1496h137v-673h572v673h142v-1496h-142v699h-572v-699h-137z" />
<glyph unicode="I" horiz-adv-x="442" d="M150 0v1496h140v-1496h-140z" />
<glyph unicode="J" horiz-adv-x="851" d="M10 109l99 94q37 -37 88 -60.5t102 -23.5q54 0 102 13.5t85 45t57.5 83t20.5 129.5v1106h142v-1118q0 -103 -31.5 -177t-86.5 -121t-128 -70t-157 -23q-86 0 -164.5 31t-128.5 91z" />
<glyph unicode="K" horiz-adv-x="1094" d="M138 0v1496h139v-860h4q142 220 285.5 432t285.5 428h152q-97 -148 -193.5 -290.5t-193.5 -289.5l450 -916h-153l-383 788q-14 -19 -51 -73.5t-77 -114.5t-76.5 -112.5t-49.5 -72.5v-415h-139z" />
<glyph unicode="L" horiz-adv-x="938" d="M140 0v1496h137v-1363h626v-133h-763z" />
<glyph unicode="M" horiz-adv-x="1391" d="M140 0v1496h139q9 -24 28.5 -67.5t43 -99.5t50.5 -115t51 -115t42.5 -100.5t30.5 -67.5l174 -418h5l178 423l243 560h137v-1496h-137v1157l-7 -2l-170 -408l-199 -454h-100q-11 28 -38.5 92t-59.5 136t-60.5 136.5t-41.5 93.5l-165 402l-9 -2v-1151h-135z" />
<glyph unicode="N" horiz-adv-x="1192" d="M138 0v1496h135q17 -32 50.5 -94t75.5 -140t87 -162.5t86 -161t74 -139t53 -93.5l212 -403l10 3v1190h137v-1496h-135l-431 800q-16 31 -45.5 85.5t-60.5 112.5t-60 113t-45 85h-4v-1196h-139z" />
<glyph unicode="O" horiz-adv-x="1055" d="M94 445v630q0 82 26 159t79 138.5t134.5 98.5t195.5 37q105 0 185 -36t134.5 -95t82.5 -137.5t28 -164.5v-647q0 -98 -31 -179t-88.5 -139.5t-135.5 -90.5t-175 -32q-111 0 -193 35.5t-136 98t-80 146.5t-26 178zM232 443q0 -71 18.5 -131t56 -104t93.5 -69t131 -25 q60 0 113 23t91.5 63t60 96.5t21.5 120.5v656q0 49 -16 103t-50.5 98t-89 73.5t-132.5 29.5q-77 0 -133 -27t-92.5 -70t-54 -98t-17.5 -109v-630z" />
<glyph unicode="P" horiz-adv-x="1026" d="M140 0v1496h422q207 0 317 -108t110 -330q0 -86 -22.5 -165.5t-73 -140t-130 -96.5t-193.5 -36h-291v-620h-139zM279 751h280q81 0 137.5 24.5t89.5 66.5t48 99.5t15 118.5q0 144 -70.5 226t-222.5 82h-277v-617z" />
<glyph unicode="Q" horiz-adv-x="1075" d="M109 445v630q0 82 26.5 159t79 138.5t134 98.5t193.5 37q105 0 185.5 -36t135.5 -95t83 -137.5t28 -164.5v-647q0 -71 -16 -131.5t-42 -109.5l159 -127l-73 -93q-4 5 -28 23t-50.5 39.5t-50.5 41t-30 23.5q-55 -53 -133 -80t-168 -27q-112 0 -193.5 35.5t-134 98 t-79 146.5t-26.5 178zM245 1073l3 -630q0 -71 18 -131t55.5 -104t93.5 -69t131 -25q111 0 187 69l-181 144l78 88l172 -140q31 64 31 142v656q0 49 -16.5 103t-52 98t-90 73.5t-132.5 29.5t-133.5 -27t-92.5 -70t-54 -98t-17 -109z" />
<glyph unicode="R" horiz-adv-x="1072" d="M140 0v1496h451q191 0 294.5 -106t103.5 -300q0 -148 -68.5 -251.5t-208.5 -146.5l297 -692h-153l-280 675l-299 -2v-673h-137zM277 794h289q138 0 210.5 76t72.5 220q0 140 -71.5 210t-211.5 70h-289v-576z" />
<glyph unicode="S" horiz-adv-x="1012" d="M56 236l122 72q46 -80 125.5 -134.5t201.5 -54.5q150 0 219.5 78t69.5 203q0 69 -20.5 116.5t-58.5 80.5t-91.5 56.5t-120.5 45.5q-109 33 -187 69t-127 83.5t-72 110t-23 146.5q0 88 29 162t83 126.5t131.5 83t175.5 30.5q164 0 257.5 -54t147.5 -142l-120 -81 q-43 75 -112 110.5t-179 35.5q-133 0 -202 -79t-69 -192q0 -62 25 -106.5t70 -75.5t106.5 -56t136.5 -49q97 -30 165.5 -66.5t113 -85.5t66 -115t21.5 -154q0 -189 -113 -302t-324 -113q-170 0 -281 68t-166 183z" />
<glyph unicode="T" horiz-adv-x="862" d="M6 1370v126h848v-126h-353v-1370h-138v1370h-357z" />
<glyph unicode="U" horiz-adv-x="1096" d="M119 419v1077h135v-1077q0 -64 21.5 -119t61 -94.5t93.5 -63t118 -23.5q125 0 209 78t84 220v1079h140v-1079q0 -101 -33.5 -180t-91.5 -135.5t-137 -85.5t-171 -29q-96 0 -174.5 31t-135.5 87.5t-88 136.5t-31 177z" />
<glyph unicode="V" horiz-adv-x="991" d="M28 1496h142q21 -82 44.5 -178.5t52 -205t57.5 -225.5t59 -235l107 -424h5q24 99 46.5 195t43.5 194l232 879h142l-400 -1496h-133q-100 376 -199.5 748t-198.5 748z" />
<glyph unicode="W" horiz-adv-x="1502" d="M37 1496h141l130 -673l98 -548h7l112 495l167 726h119l172 -739l107 -482h6l94 510l130 711h145l-304 -1496h-129l-168 722q-30 123 -56 247.5t-55 247.5h-6q-29 -119 -53.5 -231.5t-50.5 -234.5l-45 -195t-47.5 -205t-44 -193t-35.5 -158h-131q-75 376 -150.5 748 t-152.5 748z" />
<glyph unicode="X" horiz-adv-x="938" d="M13 0l383 772l-359 724h150l284 -597l280 597h152l-361 -724l385 -772h-153l-303 636l-305 -636h-153z" />
<glyph unicode="Y" horiz-adv-x="919" d="M15 1496h145q43 -107 87.5 -211.5t87.5 -209.5q30 -71 59 -147t60 -148l146 345l155 371h142l-374 -872v-624h-133v624z" />
<glyph unicode="Z" horiz-adv-x="870" d="M54 0v127l615 1243h-585v126h733v-119l-614 -1246h608v-131h-757z" />
<glyph unicode="[" horiz-adv-x="485" d="M146 -226v1728h303v-94h-180v-1543h180v-91h-303z" />
<glyph unicode="\" horiz-adv-x="556" d="M8 1541h106l428 -1605h-107z" />
<glyph unicode="]" horiz-adv-x="485" d="M62 -135h178v1543h-178v94h299v-1730h-299v93z" />
<glyph unicode="^" horiz-adv-x="913" d="M47 737l366 755h98l365 -755h-115l-301 631q-4 -8 -25.5 -56t-53.5 -115.5t-68 -144t-68 -143t-54.5 -114.5t-26.5 -58h-117z" />
<glyph unicode="_" horiz-adv-x="1072" d="M0 -154h1073v-108h-1073v108z" />
<glyph unicode="`" horiz-adv-x="898" d="M365 1533l136 45l153 -348l-82 -34z" />
<glyph unicode="a" horiz-adv-x="898" d="M74 293q0 66 20 126.5t63 103.5t109.5 68.5t159.5 25.5h237v146q0 86 -53.5 135.5t-160.5 49.5q-73 0 -133 -24.5t-92 -80.5q-24 13 -52 32.5t-51 33.5q45 78 128.5 122t199.5 44q74 0 138.5 -15t112 -51.5t74 -96.5t26.5 -151v-761h-137v88l-7 2q-43 -57 -116.5 -80 t-156.5 -23q-152 0 -230.5 87.5t-78.5 218.5zM200 301q0 -84 56 -137t165 -53q47 0 90 11t77 33.5t54.5 60.5t20.5 94v189h-242q-97 0 -159 -47.5t-62 -150.5z" />
<glyph unicode="b" horiz-adv-x="902" d="M99 0v1559h133v-634h4q43 66 107.5 107t155.5 41q111 0 177 -45t99 -120t41.5 -171.5t8.5 -196.5q0 -107 -10.5 -207.5t-45 -176.5t-98.5 -122.5t-174 -46.5q-78 0 -144.5 30t-116.5 106q-2 0 -2 -1t-2 -1v-121h-133zM230 546q0 -66 3 -142.5t24.5 -141.5t68 -108 t134.5 -43q73 0 119.5 31.5t70 87.5t32 132.5t8.5 166.5q0 88 -7.5 163.5t-31 131.5t-68.5 87t-123 31t-122.5 -39t-68.5 -96.5t-31.5 -127.5t-7.5 -133z" />
<glyph unicode="c" horiz-adv-x="814" d="M69 546q0 111 20 208.5t67 168t122 111.5t184 41q117 0 195 -50.5t119 -140.5l-113 -67q-25 60 -76 95.5t-123 35.5q-84 0 -135.5 -33t-78 -89t-36 -129t-9.5 -153t8.5 -157t36 -138.5t78 -99.5t132.5 -38q73 0 124.5 36t75.5 89q29 -17 56.5 -31t57.5 -29 q-39 -90 -120.5 -139.5t-195.5 -49.5q-121 0 -196 42t-118 116t-59 177.5t-16 223.5z" />
<glyph unicode="d" horiz-adv-x="902" d="M76 525q0 101 10.5 199.5t47 176.5t104.5 125t181 47q82 0 141.5 -32t104.5 -93h4v611h133v-1559h-133v121q-2 0 -4 2q-50 -76 -116.5 -106t-144.5 -30q-109 0 -173.5 44.5t-99 118.5t-45 171.5t-10.5 203.5zM211 527q0 -84 8.5 -160.5t32 -132.5t68.5 -89.5t121 -33.5 q86 0 132.5 44.5t68 110t24.5 142t3 138.5q0 71 -6.5 141t-29 126.5t-67.5 92.5t-121 36q-80 0 -126 -36t-70.5 -93.5t-31 -131.5t-6.5 -154z" />
<glyph unicode="e" horiz-adv-x="893" d="M80 538q0 100 14.5 197.5t56.5 172.5t114.5 121t186.5 46q96 0 166 -33t114 -92.5t64.5 -141t20.5 -178.5v-133h-604q0 -89 10.5 -159.5t40 -122t78 -80t124.5 -28.5q70 0 125.5 39t81.5 94l115 -57q-41 -93 -125 -144.5t-189 -51.5q-115 0 -190 33.5t-120 102t-64.5 172 t-19.5 243.5zM217 607h464v4q0 74 -9 135.5t-34 107t-69 70t-115 24.5q-70 0 -114.5 -25.5t-72 -72t-38 -109t-12.5 -134.5z" />
<glyph unicode="f" horiz-adv-x="526" d="M41 950v113h121v244q0 131 65.5 193.5t174.5 62.5h101v-125h-88q-37 0 -59.5 -11.5t-35 -32t-17 -47.5t-4.5 -54v-230h202v-113h-202v-950h-137v950h-121z" />
<glyph unicode="g" horiz-adv-x="932" d="M84 521q0 103 11.5 202.5t47 178.5t100.5 126t172 47q77 0 144 -31t116 -106l4 2v120h134v-1084q0 -195 -92.5 -309t-285.5 -114q-101 0 -181 47t-121 138l112 65q24 -50 73.5 -87.5t120.5 -37.5q127 0 183.5 75t56.5 202v183h-4q-43 -70 -107.5 -109t-154.5 -39 q-112 0 -177.5 45t-99 119t-43 169.5t-9.5 197.5zM222 531q0 -86 6 -161t29.5 -131t68 -88t121.5 -32q76 0 121 36t70 93.5t33 127t8 137.5q0 67 -6 143.5t-28.5 141t-68 107.5t-124.5 43q-78 0 -123 -33t-70 -90t-31 -132.5t-6 -161.5z" />
<glyph unicode="h" horiz-adv-x="936" d="M107 0v1561h136v-625h5q45 73 117 106t154 33q141 0 224.5 -87t83.5 -237v-751h-135v706q0 109 -52.5 172.5t-161.5 63.5q-103 0 -170.5 -69t-67.5 -181v-692h-133z" />
<glyph unicode="i" horiz-adv-x="401" d="M131 1336v141h140v-141h-140zM133 0v1063h136v-1063h-136z" />
<glyph unicode="j" horiz-adv-x="423" d="M-21 -318h42q69 2 97 48t28 122v1211h138v-1239q0 -115 -60 -190t-183 -75h-62v123zM146 1336v139h140v-139h-140z" />
<glyph unicode="k" horiz-adv-x="917" d="M121 0v1559h133v-1069h2q31 39 89.5 118.5t124.5 166.5t125 168t89 120h155l-299 -400q14 -29 43.5 -80.5t65 -116t74 -134.5t74.5 -134.5t64.5 -117t43.5 -80.5h-148l-303 554q-15 -18 -42 -55t-58.5 -78t-58 -78t-41.5 -57v-286h-133z" />
<glyph unicode="l" horiz-adv-x="453" d="M127 230v1329h135v-1303q0 -69 25 -104t91 -35h39v-123h-45q-56 0 -102 10.5t-78 37.5t-48.5 73.5t-16.5 114.5z" />
<glyph unicode="m" horiz-adv-x="1521" d="M119 0v1058h131v-129h4q45 74 113 108t146 34q103 0 173.5 -43t105.5 -114h2q55 77 128 117t170 40q142 0 226 -88t84 -234v-749h-136v665q0 125 -49 200t-166 75q-114 0 -170 -80t-56 -206v-654h-133v665q0 123 -49.5 199t-168.5 76q-115 0 -169.5 -82t-54.5 -209v-649 h-131z" />
<glyph unicode="n" horiz-adv-x="930" d="M103 0v1063h135v-132h7q45 74 116.5 109t151.5 35q142 0 227 -88t85 -236v-751h-135v706q0 109 -57 171.5t-167 62.5q-103 0 -165.5 -69t-62.5 -179v-692h-135z" />
<glyph unicode="o" horiz-adv-x="921" d="M86 525q0 103 8.5 192t32.5 149q41 101 127.5 155t211.5 54q107 0 179.5 -42t115.5 -108q41 -56 56.5 -163.5t15.5 -232.5q0 -39 -3 -85t-8 -92t-12.5 -87t-15.5 -70q-41 -116 -134.5 -163t-210.5 -47q-109 0 -179 40.5t-108 105.5q-43 58 -59.5 160.5t-16.5 233.5z M219 509q0 -109 10.5 -183t41.5 -117q58 -101 187 -102q71 0 129 35.5t84 111.5q17 43 21.5 119t4.5 167q0 96 -8 168t-24 111q-27 66 -79.5 99.5t-123.5 33.5q-69 0 -122.5 -31t-83.5 -94q-24 -43 -30.5 -125t-6.5 -193z" />
<glyph unicode="p" horiz-adv-x="917" d="M97 -433v1493h133v-120q2 0 4 -2q50 75 116.5 106t144.5 31q109 0 174.5 -45t99 -119t44 -172.5t10.5 -202.5q0 -101 -11.5 -199.5t-48 -175.5t-104.5 -124t-179 -47q-82 0 -140.5 32t-105.5 92h-4v-547h-133zM230 533q0 -64 4 -137.5t27 -134.5t67 -101.5t126 -40.5 q79 0 125.5 34t70 92t31 132.5t7.5 153.5q0 84 -7.5 160.5t-31 133.5t-68.5 90t-123 33q-84 0 -130.5 -40t-68 -100.5t-25.5 -134t-4 -140.5z" />
<glyph unicode="q" horiz-adv-x="930" d="M86 521q0 103 10.5 201.5t46 177.5t101.5 126t175 47q82 0 146.5 -30t113.5 -105q2 0 2 1t3 1v120h133v-1495h-133v573h-5q-43 -70 -107.5 -109t-154.5 -39q-111 0 -177 45t-100.5 119t-44 169.5t-9.5 197.5zM226 531q0 -79 5 -153.5t29 -132.5t69 -92t127 -34 q75 0 120.5 38t70 96.5t32 128.5t7.5 131q0 67 -3.5 144.5t-25 142t-68.5 107.5t-133 43q-76 0 -121 -33t-68.5 -90t-32 -133.5t-8.5 -162.5z" />
<glyph unicode="r" horiz-adv-x="642" d="M131 0v1063h134v-147h6q45 92 114 125.5t157 33.5q28 0 54 -5t44 -14l-29 -145q-24 11 -51 16.5t-51 5.5q-109 0 -176.5 -68.5t-67.5 -201.5v-663h-134z" />
<glyph unicode="s" horiz-adv-x="855" d="M58 195l112 63q74 -150 258 -151q97 0 158 45t61 143q0 47 -16 78t-46.5 51.5t-70.5 35t-91 26.5q-78 19 -139.5 42.5t-106 57.5t-68 81t-23.5 113q0 136 90.5 215.5t249.5 79.5q136 0 219.5 -51.5t119.5 -143.5l-116 -59q-31 66 -88.5 98.5t-137.5 32.5 q-105 0 -154.5 -50t-49.5 -122q0 -43 20.5 -69.5t56 -46t81.5 -32t101 -28.5q75 -17 132 -40.5t95.5 -60.5t57.5 -87.5t19 -122.5q0 -138 -91 -223t-270 -85q-265 0 -363 210z" />
<glyph unicode="t" horiz-adv-x="523" d="M37 950v113h127v279h135v-279h163v-113h-163v-677q0 -71 25 -111.5t99 -40.5h59v-121h-88q-117 0 -173.5 64.5t-56.5 173.5v712h-127z" />
<glyph unicode="u" horiz-adv-x="946" d="M107 310v753h136v-708q0 -109 59 -173.5t164 -64.5q103 0 166 70.5t63 182.5v693h132v-1063h-132v129h-7q-45 -75 -117 -108.5t-152 -33.5q-142 0 -227 87.5t-85 235.5z" />
<glyph unicode="v" horiz-adv-x="825" d="M15 1063h147q12 -43 31.5 -110t40 -138t40 -137.5t32.5 -109.5q2 -8 18 -64.5t34 -122t34 -121t21 -65.5h6q8 31 22.5 81.5t29.5 105.5t28.5 105.5t23.5 80.5q13 43 31 109.5t37.5 137.5t38.5 138t33 110h145q-18 -60 -45.5 -145t-57.5 -184.5t-61 -203.5t-60.5 -203 t-56 -184t-45.5 -143h-138q-18 58 -45.5 143t-57.5 184t-61.5 203t-61.5 203.5t-56.5 184t-46.5 145.5z" />
<glyph unicode="w" horiz-adv-x="1344" d="M17 1060h143l141 -555q25 -90 42.5 -167.5t28.5 -122.5h8l74 275q12 48 32.5 124t43 160t43 161.5t34.5 124.5h130q78 -281 149 -561q17 -74 36.5 -146t38.5 -144h7l73 283q4 17 15 61t24.5 101.5t30 121t30.5 121t24.5 101t14.5 62.5h143l-291 -1060h-131l-148 536 q-6 20 -17.5 61t-23 86.5t-23.5 86.5t-18 65h-2l-86 -318l-142 -517h-133z" />
<glyph unicode="x" horiz-adv-x="818" d="M28 0l305 546l-290 517h152l216 -420l213 420h152l-292 -519l308 -544h-152l-229 441l-233 -441h-150z" />
<glyph unicode="y" horiz-adv-x="806" d="M6 1060h144q35 -114 69.5 -225t68.5 -222q8 -32 24.5 -87t34.5 -114t33.5 -114t25.5 -87h5q12 45 31.5 112t43 146t48.5 164t49 165t44 147.5t33 114.5h140l-394 -1286q-64 -211 -254 -211h-49v117h43q62 0 95.5 42t55.5 118l52 173q-89 262 -172 522.5t-171 524.5z" />
<glyph unicode="z" horiz-adv-x="775" d="M58 0v119l510 823h-476v118h628v-114l-509 -821h505v-125h-658z" />
<glyph unicode="{" horiz-adv-x="505" d="M47 591v86q45 9 73 38t45.5 70.5t23.5 91.5t6 99v276q0 109 47.5 177.5t137.5 68.5h100v-92h-59q-33 0 -54 -18t-32 -47.5t-15 -62.5t-4 -65v-280q0 -66 -14 -117t-35.5 -87.5t-45.5 -59t-43 -31.5v-4q48 -17 93 -92.5t45 -212.5v-273q0 -33 4 -66t16.5 -61t33 -46 t51.5 -18h59v-91h-100q-82 0 -133.5 61.5t-51.5 164.5v297q0 127 -30 202t-118 92z" />
<glyph unicode="|" horiz-adv-x="410" d="M154 -349v1888h111v-1888h-111z" />
<glyph unicode="}" horiz-adv-x="505" d="M43 -135h60q32 0 52.5 18t32.5 46t16.5 61.5t4.5 65.5v295q0 64 12.5 113t33 85t44 57.5t45.5 29.5v4q-18 9 -42.5 30.5t-45 58t-34 87t-13.5 117.5v280q0 32 -4.5 65t-15.5 62.5t-31 47.5t-55 18h-60v88h90q91 0 142.5 -60t51.5 -164v-294q0 -51 6.5 -101t22.5 -90.5 t45 -69.5t75 -38v-86q-89 -17 -119 -92.5t-30 -201.5v-297q0 -109 -55 -167.5t-137 -58.5h-92v91z" />
<glyph unicode="~" horiz-adv-x="913" d="M51 529q43 69 102.5 108.5t132.5 39.5q47 0 93.5 -17t90 -37.5t85.5 -37.5t81 -17q43 0 73.5 24.5t68.5 74.5l86 -60q-45 -76 -99.5 -119t-130.5 -43q-41 0 -84 18.5t-88 39t-90 38.5t-88 18q-48 0 -79 -23t-70 -68z" />
<glyph unicode="&#xa1;" horiz-adv-x="474" d="M166 1192v154h146v-154h-146zM170 -148q2 116 3 261t3 297t4.5 297l4.5 261h103q2 -116 3.5 -261t3.5 -297t4 -297.5t4 -260.5h-133z" />
<glyph unicode="&#xa2;" horiz-adv-x="913" d="M103 546q0 103 17.5 194t56 160.5t101 113.5t155.5 57v215h80v-211q108 -4 183.5 -54.5t111.5 -136.5q-28 -17 -56 -33t-55 -34q-24 56 -71 91.5t-113 39.5v-837q62 5 110 40.5t69 84.5q30 -17 58 -31l58 -29q-38 -86 -114.5 -135t-180.5 -54v-232h-80v237 q-101 10 -164.5 55t-100.5 118t-51 170.5t-14 210.5zM236 544q0 -72 7 -142.5t28.5 -128.5t60 -100t101.5 -54v823q-62 -13 -101 -50.5t-59.5 -91t-28.5 -119.5t-8 -137z" />
<glyph unicode="&#xa3;" horiz-adv-x="913" d="M64 0v111q69 109 114.5 230t45.5 270q0 11 -1 22.5t-1 22.5h-158v109h141q-11 56 -27 107t-30.5 98t-25.5 93.5t-11 95.5q0 74 24.5 137t68.5 110t108 74.5t148 27.5q133 0 235.5 -63.5t147.5 -205.5l-125 -47q-43 109 -106.5 149t-149.5 40q-39 0 -76 -14.5t-66.5 -42 t-46.5 -69.5t-17 -98q0 -45 9.5 -89t25 -90.5t29 -99.5t24.5 -113h276v-109h-265q0 -159 -30 -283.5t-101 -249.5h597v-123h-757z" />
<glyph unicode="&#xa4;" horiz-adv-x="1149" d="M117 314l137 133q-43 54 -62.5 116.5t-19.5 126.5q0 127 82 246l-135 135l81 82l138 -136q115 82 245 82q127 0 242 -79l134 133l13 -13t28 -28.5t28 -28.5l13 -14l-134 -133q84 -121 84 -246q0 -131 -82 -245l134 -131l-13 -14q-13 -14 -28 -29l-28 -28l-13 -13 l-134 133q-114 -84 -244 -84q-131 0 -248 86l-138 -135l-12 13q-13 13 -28 29t-28 29zM295 690q0 -60 22.5 -112.5t62 -91.5t91.5 -61.5t110 -22.5q59 0 112.5 22.5t92.5 61.5t61.5 91.5t22.5 112.5t-22.5 113t-60.5 91.5t-91 61.5t-113 23q-58 0 -111 -23t-92.5 -61.5 t-62 -91.5t-22.5 -113z" />
<glyph unicode="&#xa5;" horiz-adv-x="913" d="M41 1496h135q21 -55 59 -154t80 -205.5t80 -205t59 -155.5h6q19 56 57.5 155t79.5 205.5t79 205.5t57 154h140l-305 -767h257v-91h-289l-13 -43v-127h302v-90h-302v-378h-129v378h-295v90h295v125q0 7 -4.5 24t-6.5 21h-284v91h250z" />
<glyph unicode="&#xa6;" horiz-adv-x="410" d="M154 -349v895h108v-895h-108zM154 645v894h108v-894h-108z" />
<glyph unicode="&#xa7;" horiz-adv-x="941" d="M105 -30q21 21 39 42t39 39q62 -55 126.5 -77.5t135.5 -22.5q115 0 181 50t66 147q0 84 -70 144.5t-201 118.5q-78 34 -136.5 67t-97.5 72t-58.5 86.5t-19.5 110.5q0 73 38 136t101 108q-50 43 -75 94.5t-25 116.5q0 66 24.5 123.5t70 98.5t107 63.5t134.5 22.5 q191 0 327 -119l-80 -92q-62 55 -123.5 75.5t-125.5 20.5q-97 0 -151 -53.5t-54 -128.5q0 -70 50.5 -113.5t134.5 -88.5q64 -35 135.5 -68.5t129.5 -76.5t95.5 -102.5t37.5 -146.5q0 -73 -33 -136.5t-94 -112.5q88 -101 88 -216q0 -142 -100.5 -229t-277.5 -87 q-94 0 -184.5 38t-153.5 96zM234 755q0 -64 47.5 -111t112 -83t132 -63t110.5 -53q48 29 74.5 74t26.5 94v4q0 58 -28 96t-79 69t-123 62.5t-158 76.5q-50 -24 -82.5 -67t-32.5 -99z" />
<glyph unicode="&#xa8;" horiz-adv-x="902" d="M203 1280v146h139v-146h-139zM564 1280v146h135v-146h-135z" />
<glyph unicode="&#xa9;" horiz-adv-x="1607" d="M111 733q0 162 50 300.5t141.5 239.5t219 158t286.5 57q158 0 286.5 -57t220 -158t141.5 -239.5t50 -300.5t-50 -298t-141.5 -237t-220 -158t-286.5 -57q-159 0 -287.5 57t-219 158t-140.5 237.5t-50 297.5zM217 733q0 -138 43 -257t120.5 -208.5t186 -139.5t241.5 -50 q136 0 245.5 50t186 139.5t118.5 208.5t42 257q0 140 -42 260.5t-119.5 208.5t-187 138.5t-243.5 50.5q-135 0 -244.5 -51.5t-187 -139.5t-118.5 -209t-41 -258zM538 540v365q0 119 73 197t202 78q92 0 162 -49t94 -140l-97 -39q-14 56 -55 91.5t-104 35.5q-84 0 -127 -51.5 t-43 -118.5v-373q0 -70 43 -122.5t127 -52.5q60 0 102 36t55 93l101 -36q-24 -91 -95 -141.5t-163 -50.5q-129 0 -202 77.5t-73 200.5z" />
<glyph unicode="&#xaa;" horiz-adv-x="618" d="M43 798q0 41 11.5 80.5t40 68.5t70.5 47.5t104 18.5h178v83q0 52 -31 82.5t-110 30.5q-97 0 -146 -74l-89 51q33 56 94 89.5t143 33.5q53 0 99.5 -9.5t81 -34t52.5 -65.5t18 -104v-496h-112v69q-34 -39 -82.5 -58.5t-104.5 -19.5q-109 0 -163 58.5t-54 148.5zM150 802 q0 -51 34.5 -81.5t103.5 -30.5q62 0 110.5 28.5t48.5 94.5v105h-154q-62 0 -102.5 -27t-40.5 -89z" />
<glyph unicode="&#xab;" horiz-adv-x="880" d="M101 492l245 392h134l-244 -392l244 -393h-134zM419 492l248 392h131l-242 -392l242 -393h-133z" />
<glyph unicode="&#xac;" horiz-adv-x="913" d="M43 570v107h827l-2 -488h-105v381h-720z" />
<glyph unicode="&#xad;" horiz-adv-x="769" d="M109 505v121h562v-121h-562z" />
<glyph unicode="&#xae;" horiz-adv-x="1117" d="M131 1056q0 99 30 184t87.5 146t135.5 96.5t175 35.5q96 0 174 -35.5t134 -96.5t86 -146t30 -184q0 -98 -30 -182t-86 -145.5t-135 -96.5t-173 -35q-97 0 -175 35t-135.5 96.5t-87.5 145t-30 182.5zM207 1058q0 -86 24.5 -158.5t71 -125t112 -81t144.5 -28.5 q81 0 147 29.5t111 84t68.5 125t23.5 154.5t-24.5 156t-70.5 124.5t-111 83.5t-144 31q-82 0 -147.5 -31t-110.5 -83.5t-69.5 -125t-24.5 -155.5zM404 780v547h160q78 0 125.5 -37.5t47.5 -119.5q0 -50 -23.5 -89.5t-70.5 -58.5q28 -58 54.5 -119.5t53.5 -122.5h-84l-99 233 h-88v-233h-76zM480 1077h86q43 0 70 21.5t27 71.5q0 51 -31.5 69.5t-85.5 18.5h-66v-181z" />
<glyph unicode="&#xaf;" horiz-adv-x="898" d="M217 1264v127h514v-127h-514z" />
<glyph unicode="&#xb0;" horiz-adv-x="704" d="M114 1262q0 49 19 93.5t51.5 77t77 52t95.5 19.5t95.5 -19.5t77 -52t51.5 -77t19 -93.5q0 -51 -19 -95.5t-51.5 -76.5t-77 -51t-95.5 -19t-95.5 19t-77 51t-51.5 76.5t-19 95.5zM203 1262q0 -66 46 -111t108 -45q64 0 108 45t44 111q0 64 -44 110t-108 46 q-62 0 -108 -45.5t-46 -110.5z" />
<glyph unicode="&#xb1;" horiz-adv-x="913" d="M51 21v108h819v-108h-819zM51 593v106h357v368h103v-368h359v-106h-359v-367h-103v367h-357z" />
<glyph unicode="&#xb2;" horiz-adv-x="579" d="M49 798v90l323 458q26 35 35.5 67t9.5 69q0 47 -28 82.5t-96 35.5q-51 0 -88 -35.5t-43 -103.5l-111 14q11 103 75.5 163.5t168.5 60.5q115 0 175.5 -57.5t60.5 -157.5q0 -48 -16 -97t-49 -94l-283 -394h340v-101h-474z" />
<glyph unicode="&#xb3;" horiz-adv-x="579" d="M49 987l111 13q4 -56 35 -88t86 -32q80 0 108 51.5t28 124.5q0 72 -31 113.5t-100 41.5h-64v94h59q70 0 100 39t30 105q0 64 -28 105.5t-97 41.5q-50 0 -84 -32.5t-44 -88.5l-109 17q13 88 75.5 145.5t163.5 57.5q129 0 182 -69t53 -165q0 -52 -16.5 -108t-78.5 -91 q67 -35 83 -90.5t16 -124.5q0 -115 -58 -188.5t-190 -73.5q-96 0 -157.5 48.5t-72.5 153.5z" />
<glyph unicode="&#xb4;" horiz-adv-x="898" d="M365 1230l156 348l133 -45l-207 -337z" />
<glyph unicode="&#xb6;" horiz-adv-x="1005" d="M78 1125q0 66 15.5 139.5t56.5 133.5t113 98.5t184 38.5h478v-113h-98v-1596h-113v1596h-166v-1596h-111v907q-86 4 -153 36.5t-113 86t-69.5 122.5t-23.5 147z" />
<glyph unicode="&#xb7;" horiz-adv-x="396" d="M119 490v177h160v-177h-160z" />
<glyph unicode="&#xb8;" horiz-adv-x="917" d="M273 -400l26 67q39 -17 75.5 -22.5t64.5 -5.5q39 0 71 21.5t32 66.5q0 43 -35.5 69t-91.5 26h-15l-37 30l58 191q19 -2 38 -3t38 -1l-45 -146q55 -2 92 -19.5t58.5 -42t29.5 -53t8 -51.5q0 -26 -10 -54t-33 -51.5t-58.5 -39t-86.5 -15.5q-25 0 -76.5 5t-102.5 28z" />
<glyph unicode="&#xb9;" horiz-adv-x="482" d="M94 1486v112l144 97h104v-897h-108v778z" />
<glyph unicode="&#xba;" horiz-adv-x="636" d="M54 946q0 69 7.5 127t32.5 103q35 62 86.5 97.5t141.5 35.5q86 0 140.5 -33t83.5 -84q37 -66 37 -240q0 -79 -7.5 -133t-25.5 -97q-30 -69 -94 -101t-140 -32q-90 0 -144.5 33.5t-83.5 89.5q-21 43 -27.5 105.5t-6.5 128.5zM164 936q0 -62 7 -104t20 -69 q17 -36 47.5 -55.5t79.5 -19.5q95 0 134 82q12 26 17 73t5 111q0 62 -6 103.5t-14 64.5q-31 87 -134 87q-36 0 -68.5 -14.5t-51.5 -43.5q-17 -24 -26.5 -81t-9.5 -134z" />
<glyph unicode="&#xbb;" horiz-adv-x="880" d="M101 99l241 393l-241 392h133l248 -392l-248 -393h-133zM421 99l244 393l-244 392h131l248 -392l-248 -393h-131z" />
<glyph unicode="&#xbc;" horiz-adv-x="1332" d="M114 1288v112l144 96h103v-896h-107v779zM160 -37l792 1572h102l-796 -1572h-98zM679 138v92l271 667h117l-271 -661h236v254h109v-254h78v-98h-78v-138h-109v138h-353z" />
<glyph unicode="&#xbd;" horiz-adv-x="1332" d="M97 1288v112l143 96h104v-896h-108v779zM140 -37l793 1572h101l-796 -1572h-98zM753 0v90l322 458q26 37 35.5 69t9.5 69q0 45 -27.5 81.5t-97.5 36.5q-51 0 -88 -36.5t-43 -104.5l-109 16q10 101 75 161.5t168 60.5q114 0 175.5 -56.5t61.5 -158.5q0 -99 -65 -191 l-284 -394h339v-101h-472z" />
<glyph unicode="&#xbe;" horiz-adv-x="1332" d="M58 794l110 12q4 -55 35 -87.5t87 -32.5q80 0 108 52t28 124q0 71 -31.5 113t-99.5 42h-65v95h60q69 0 99 39t30 105q0 64 -28 105t-96 41q-49 0 -84 -32t-45 -88l-108 17q12 88 75 145.5t164 57.5q129 0 181.5 -69.5t52.5 -166.5q0 -51 -16 -106.5t-78 -90.5 q66 -35 82.5 -90.5t16.5 -124.5q0 -115 -58.5 -189t-189.5 -74q-97 0 -158 48.5t-72 154.5zM243 -37l793 1572h101l-795 -1572h-99zM735 138v92l271 667h116l-270 -661h236v254h110v-254h77v-98h-77v-138h-110v138h-353z" />
<glyph unicode="&#xbf;" horiz-adv-x="889" d="M123 -86q2 99 33 166.5t80 138.5q26 39 57 79t58 80.5t44.5 82.5t17.5 87v140h135v-124q0 -121 -68 -226q-37 -56 -74.5 -105.5t-68.5 -97t-51.5 -93.5t-20.5 -96q0 -45 9.5 -93t35 -87t71 -63.5t118.5 -24.5q53 0 96 21.5t74.5 56.5t49.5 79t21 91l138 -18 q-13 -91 -47.5 -157.5t-86.5 -111.5t-116 -68t-138 -23q-182 0 -274.5 102t-92.5 264zM408 899v155h146v-155h-146z" />
<glyph unicode="&#xc0;" horiz-adv-x="1051" d="M21 0l437 1496h135l437 -1496h-144l-101 359h-520l-101 -359h-143zM187 1791l101 105l303 -246l-62 -70zM295 484h458l-131 462l-93 349h-8q-4 -17 -17.5 -67t-28.5 -107.5t-28.5 -108.5t-18.5 -66q-6 -26 -25.5 -91t-40 -140t-40 -140.5t-27.5 -90.5z" />
<glyph unicode="&#xc1;" horiz-adv-x="1051" d="M21 0l437 1496h135l437 -1496h-144l-101 359h-520l-101 -359h-143zM295 484h458l-131 462l-93 349h-8q-4 -17 -17.5 -67t-28.5 -107.5t-28.5 -108.5t-18.5 -66q-6 -26 -25.5 -91t-40 -140t-40 -140.5t-27.5 -90.5zM464 1630l299 241l95 -104l-335 -204z" />
<glyph unicode="&#xc2;" horiz-adv-x="1051" d="M21 0l437 1496h135l437 -1496h-144l-101 359h-520l-101 -359h-143zM203 1632l283 245h90l271 -243l-53 -58l-269 172l-269 -172zM295 484h458l-131 462l-93 349h-8q-4 -17 -17.5 -67t-28.5 -107.5t-28.5 -108.5t-18.5 -66q-6 -26 -25.5 -91t-40 -140t-40 -140.5 t-27.5 -90.5z" />
<glyph unicode="&#xc3;" horiz-adv-x="1051" d="M21 0l437 1496h135l437 -1496h-144l-101 359h-520l-101 -359h-143zM193 1671q37 69 89 112t108 43q34 0 67 -14t65 -30.5t65 -30t62 -13.5q58 0 119 88l77 -47q-39 -82 -88 -120t-103 -38q-34 0 -68 13t-67 29t-65.5 30t-59.5 14q-60 0 -123 -79zM295 484h458l-131 462 l-93 349h-8q-4 -17 -17.5 -67t-28.5 -107.5t-28.5 -108.5t-18.5 -66q-6 -26 -25.5 -91t-40 -140t-40 -140.5t-27.5 -90.5z" />
<glyph unicode="&#xc4;" horiz-adv-x="1051" d="M21 0l437 1496h135l437 -1496h-144l-101 359h-520l-101 -359h-143zM275 1609v143h140v-143h-140zM295 484h458l-131 462l-93 349h-8q-4 -17 -17.5 -67t-28.5 -107.5t-28.5 -108.5t-18.5 -66q-6 -26 -25.5 -91t-40 -140t-40 -140.5t-27.5 -90.5zM630 1609v143h138v-143 h-138z" />
<glyph unicode="&#xc5;" horiz-adv-x="1051" d="M21 0l437 1496h135l437 -1496h-144l-101 359h-520l-101 -359h-143zM295 484h458l-131 462l-93 349h-8q-4 -17 -17.5 -67t-28.5 -107.5t-28.5 -108.5t-18.5 -66q-6 -26 -25.5 -91t-40 -140t-40 -140.5t-27.5 -90.5zM338 1727q0 39 13.5 72t39.5 58t59.5 40t72.5 15 q37 0 69 -15t56.5 -40t38.5 -58.5t14 -71.5q0 -73 -52.5 -125.5t-125.5 -52.5q-78 0 -131.5 52.5t-53.5 125.5zM411 1727q0 -43 32.5 -73.5t79.5 -30.5q43 0 75 30.5t32 73.5q0 47 -32 78t-75 31q-47 0 -79.5 -31t-32.5 -78z" />
<glyph unicode="&#xc6;" horiz-adv-x="1691" d="M10 0q192 376 383.5 748t384.5 748h845v-128h-638v-545h550v-124h-550v-568h638v-131h-776v408h-482l-211 -408h-144zM428 533h419v811l-8 2q-103 -205 -205.5 -407t-205.5 -406z" />
<glyph unicode="&#xc7;" horiz-adv-x="995" d="M107 423v650q0 95 29.5 174.5t85 137.5t135.5 90.5t181 32.5q148 0 258.5 -74.5t147.5 -212.5l-133 -49q-21 96 -92.5 150.5t-180.5 54.5q-70 0 -124.5 -24t-92 -65t-57 -96t-19.5 -117v-656q0 -62 20.5 -118t58 -96.5t91 -64t123.5 -23.5q105 0 178.5 53.5t96.5 156.5 l131 -48q-33 -137 -135.5 -210t-244.5 -79l-28 -97q55 -2 92 -19.5t58.5 -42t29.5 -53t8 -51.5q0 -26 -10 -54t-33 -51.5t-58.5 -39t-86.5 -15.5q-25 0 -76.5 5t-102.5 28l26 67q39 -17 75.5 -22.5t64.5 -5.5q39 0 71 21.5t32 66.5q0 43 -36 69t-91 26h-15l-37 30l41 138 q-178 14 -279.5 132t-101.5 301z" />
<glyph unicode="&#xc8;" horiz-adv-x="964" d="M140 0v1496h778v-128h-641v-545h550v-124h-550v-566h641v-133h-778zM213 1791l101 105l303 -246l-63 -70z" />
<glyph unicode="&#xc9;" horiz-adv-x="964" d="M140 0v1496h778v-128h-641v-545h550v-124h-550v-566h641v-133h-778zM380 1630l299 241l95 -104l-335 -204z" />
<glyph unicode="&#xca;" horiz-adv-x="964" d="M140 0v1496h778v-128h-641v-545h550v-124h-550v-566h641v-133h-778zM203 1632l283 245h90l271 -243l-53 -58l-269 172l-269 -172z" />
<glyph unicode="&#xcb;" horiz-adv-x="964" d="M140 0v1496h778v-128h-641v-545h550v-124h-550v-566h641v-133h-778zM281 1645v146h140v-146h-140zM643 1645v146h135v-146h-135z" />
<glyph unicode="&#xcc;" horiz-adv-x="442" d="M-107 1791l101 105l303 -246l-63 -70zM150 0v1496h140v-1496h-140z" />
<glyph unicode="&#xcd;" horiz-adv-x="442" d="M150 0v1496h140v-1496h-140zM162 1630l298 241l94 -104l-335 -204z" />
<glyph unicode="&#xce;" horiz-adv-x="442" d="M-107 1632l283 245h91l271 -243l-54 -58l-269 172l-269 -172zM150 0v1496h140v-1496h-140z" />
<glyph unicode="&#xcf;" horiz-adv-x="442" d="M-30 1645v146h139v-146h-139zM150 0v1496h140v-1496h-140zM331 1645v146h135v-146h-135z" />
<glyph unicode="&#xd0;" horiz-adv-x="1104" d="M15 724v107h123v665h418q308 0 403 -236q26 -74 31 -183t5 -252v-246q0 -103 -5 -186t-29 -143q-29 -74 -72.5 -121t-100.5 -76t-125 -41t-140 -12h-385v724h-123zM277 127h259q234 0 297 183q12 34 18.5 79.5t6.5 88.5v509q0 49 -4.5 101.5t-18.5 95.5 q-29 91 -105 138.5t-194 47.5h-259v-539h282v-107h-282v-597z" />
<glyph unicode="&#xd1;" horiz-adv-x="1192" d="M138 0v1496h135q17 -32 50.5 -94t75.5 -140t87 -162.5t86 -161t74 -139t53 -93.5l212 -403l10 3v1190h137v-1496h-135l-431 800q-16 31 -45.5 85.5t-60.5 112.5t-60 113t-45 85h-4v-1196h-139zM269 1656q37 69 88 111.5t107 42.5q35 0 68.5 -13.5t65.5 -30t64.5 -30.5 t61.5 -14q58 0 119 88l78 -47q-39 -82 -89 -119.5t-103 -37.5q-35 0 -68 13t-66 29t-65.5 30.5t-61.5 14.5q-60 0 -122 -80z" />
<glyph unicode="&#xd2;" horiz-adv-x="1055" d="M94 445v630q0 82 26 159t79 138.5t134.5 98.5t195.5 37q105 0 185 -36t134.5 -95t82.5 -137.5t28 -164.5v-647q0 -98 -31 -179t-88.5 -139.5t-135.5 -90.5t-175 -32q-111 0 -193 35.5t-136 98t-80 146.5t-26 178zM232 443q0 -71 18.5 -131t56 -104t93.5 -69t131 -25 q60 0 113 23t91.5 63t60 96.5t21.5 120.5v656q0 49 -16 103t-50.5 98t-89 73.5t-132.5 29.5q-77 0 -133 -27t-92.5 -70t-54 -98t-17.5 -109v-630zM238 1791l102 105l303 -246l-62 -70z" />
<glyph unicode="&#xd3;" horiz-adv-x="1055" d="M94 445v630q0 82 26 159t79 138.5t134.5 98.5t195.5 37q105 0 185 -36t134.5 -95t82.5 -137.5t28 -164.5v-647q0 -98 -31 -179t-88.5 -139.5t-135.5 -90.5t-175 -32q-111 0 -193 35.5t-136 98t-80 146.5t-26 178zM232 443q0 -71 18.5 -131t56 -104t93.5 -69t131 -25 q60 0 113 23t91.5 63t60 96.5t21.5 120.5v656q0 49 -16 103t-50.5 98t-89 73.5t-132.5 29.5q-77 0 -133 -27t-92.5 -70t-54 -98t-17.5 -109v-630zM439 1630l298 241l96 -104l-336 -204z" />
<glyph unicode="&#xd4;" horiz-adv-x="1055" d="M94 445v630q0 82 26 159t79 138.5t134.5 98.5t195.5 37q105 0 185 -36t134.5 -95t82.5 -137.5t28 -164.5v-647q0 -98 -31 -179t-88.5 -139.5t-135.5 -90.5t-175 -32q-111 0 -193 35.5t-136 98t-80 146.5t-26 178zM203 1632l283 245h90l271 -243l-53 -58l-269 172 l-269 -172zM232 443q0 -71 18.5 -131t56 -104t93.5 -69t131 -25q60 0 113 23t91.5 63t60 96.5t21.5 120.5v656q0 49 -16 103t-50.5 98t-89 73.5t-132.5 29.5q-77 0 -133 -27t-92.5 -70t-54 -98t-17.5 -109v-630z" />
<glyph unicode="&#xd5;" horiz-adv-x="1055" d="M94 445v630q0 82 26 159t79 138.5t134.5 98.5t195.5 37q105 0 185 -36t134.5 -95t82.5 -137.5t28 -164.5v-647q0 -98 -31 -179t-88.5 -139.5t-135.5 -90.5t-175 -32q-111 0 -193 35.5t-136 98t-80 146.5t-26 178zM197 1671q37 69 89 112t108 43q34 0 67.5 -14t65.5 -30.5 t64.5 -30t62.5 -13.5q58 0 118 88l77 -47q-38 -82 -87.5 -120t-103.5 -38q-34 0 -68 13t-67 29t-65 30t-60 14q-60 0 -123 -79zM232 443q0 -71 18.5 -131t56 -104t93.5 -69t131 -25q60 0 113 23t91.5 63t60 96.5t21.5 120.5v656q0 49 -16 103t-50.5 98t-89 73.5t-132.5 29.5 q-77 0 -133 -27t-92.5 -70t-54 -98t-17.5 -109v-630z" />
<glyph unicode="&#xd6;" horiz-adv-x="1055" d="M94 445v630q0 82 26 159t79 138.5t134.5 98.5t195.5 37q105 0 185 -36t134.5 -95t82.5 -137.5t28 -164.5v-647q0 -98 -31 -179t-88.5 -139.5t-135.5 -90.5t-175 -32q-111 0 -193 35.5t-136 98t-80 146.5t-26 178zM232 443q0 -71 18.5 -131t56 -104t93.5 -69t131 -25 q60 0 113 23t91.5 63t60 96.5t21.5 120.5v656q0 49 -16 103t-50.5 98t-89 73.5t-132.5 29.5q-77 0 -133 -27t-92.5 -70t-54 -98t-17.5 -109v-630zM271 1609v143h140v-143h-140zM626 1609v143h137v-143h-137z" />
<glyph unicode="&#xd7;" horiz-adv-x="991" d="M114 290l321 321l-308 307l73 75l307 -307l316 318l76 -75l-318 -318l311 -310l-75 -75l-310 310l-320 -319z" />
<glyph unicode="&#xd8;" horiz-adv-x="1055" d="M84 30l80 142q-37 58 -53.5 127t-16.5 146v630q0 82 26 159t79 138.5t134.5 98.5t195.5 37q97 0 172 -30.5t130 -82.5l64 115l69 -41l-78 -140q74 -114 73 -254v-647q0 -98 -31 -179t-88.5 -139.5t-135.5 -90.5t-175 -32q-105 0 -183.5 31t-132.5 87l-65 -115 q-17 10 -33 19.5t-31 20.5zM232 443q0 -30 3.5 -60t12.5 -56q129 234 255.5 467.5t255.5 467.5q-35 49 -91.5 82t-138.5 33q-77 0 -133 -27t-92.5 -70t-54 -98t-17.5 -109v-630zM284 236q36 -55 97.5 -88.5t149.5 -33.5q60 0 113 23t91.5 63t60 96.5t21.5 120.5v656 q0 54 -15 101q-129 -236 -259 -469.5t-259 -468.5z" />
<glyph unicode="&#xd9;" horiz-adv-x="1096" d="M119 419v1077h135v-1077q0 -64 21.5 -119t61 -94.5t93.5 -63t118 -23.5q125 0 209 78t84 220v1079h140v-1079q0 -101 -33.5 -180t-91.5 -135.5t-137 -85.5t-171 -29q-96 0 -174.5 31t-135.5 87.5t-88 136.5t-31 177zM267 1791l101 105l303 -246l-62 -70z" />
<glyph unicode="&#xda;" horiz-adv-x="1096" d="M119 419v1077h135v-1077q0 -64 21.5 -119t61 -94.5t93.5 -63t118 -23.5q125 0 209 78t84 220v1079h140v-1079q0 -101 -33.5 -180t-91.5 -135.5t-137 -85.5t-171 -29q-96 0 -174.5 31t-135.5 87.5t-88 136.5t-31 177zM415 1630l299 241l94 -104l-334 -204z" />
<glyph unicode="&#xdb;" horiz-adv-x="1096" d="M119 419v1077h135v-1077q0 -64 21.5 -119t61 -94.5t93.5 -63t118 -23.5q125 0 209 78t84 220v1079h140v-1079q0 -101 -33.5 -180t-91.5 -135.5t-137 -85.5t-171 -29q-96 0 -174.5 31t-135.5 87.5t-88 136.5t-31 177zM228 1632l283 245h91l271 -243l-54 -58l-269 172 l-269 -172z" />
<glyph unicode="&#xdc;" horiz-adv-x="1096" d="M119 419v1077h135v-1077q0 -64 21.5 -119t61 -94.5t93.5 -63t118 -23.5q125 0 209 78t84 220v1079h140v-1079q0 -101 -33.5 -180t-91.5 -135.5t-137 -85.5t-171 -29q-96 0 -174.5 31t-135.5 87.5t-88 136.5t-31 177zM308 1609v143h139v-143h-139zM663 1609v143h137v-143 h-137z" />
<glyph unicode="&#xdd;" horiz-adv-x="919" d="M15 1496h145q43 -107 87.5 -211.5t87.5 -209.5q30 -71 59 -147t60 -148l146 345l155 371h142l-374 -872v-624h-133v624zM344 1630l299 241l94 -104l-335 -204z" />
<glyph unicode="&#xde;" horiz-adv-x="1026" d="M140 0v1539h139l-4 -333h284q204 0 316 -108.5t112 -329.5q0 -87 -22.5 -166t-73 -139.5t-131.5 -97t-194 -36.5h-291l4 -329h-139zM275 458h281q82 0 138.5 24.5t89.5 67.5t48 99.5t15 120.5q0 141 -70.5 223t-222.5 82h-279v-617z" />
<glyph unicode="&#xdf;" horiz-adv-x="946" d="M114 0v1155q0 185 86 295.5t266 110.5q168 0 254 -99t86 -253q0 -46 -7 -92t-24.5 -87t-46.5 -72t-72 -51v-2q64 -24 101 -65.5t56.5 -96.5t24.5 -119.5t5 -133.5q0 -92 -12 -181.5t-47 -160t-101 -113.5t-176 -43h-66v109h45q80 0 124 35.5t65.5 90t26 123.5t4.5 134 q0 74 -8 139t-33 113.5t-72 76.5t-125 28v116h20q54 0 88.5 21.5t56 55t30 75.5t8.5 85q0 105 -50.5 176t-160.5 71q-69 0 -110.5 -26t-64.5 -67t-30 -91.5t-7 -99.5v-1157h-134z" />
<glyph unicode="&#xe0;" horiz-adv-x="898" d="M74 293q0 66 20 126.5t63 103.5t109.5 68.5t159.5 25.5h237v146q0 86 -53.5 135.5t-160.5 49.5q-73 0 -133 -24.5t-92 -80.5q-24 13 -52 32.5t-51 33.5q45 78 128.5 122t199.5 44q74 0 138.5 -15t112 -51.5t74 -96.5t26.5 -151v-761h-137v88l-7 2q-43 -57 -116.5 -80 t-156.5 -23q-152 0 -230.5 87.5t-78.5 218.5zM200 301q0 -84 56 -137t165 -53q47 0 90 11t77 33.5t54.5 60.5t20.5 94v189h-242q-97 0 -159 -47.5t-62 -150.5zM258 1533l136 45l152 -348l-82 -34z" />
<glyph unicode="&#xe1;" horiz-adv-x="898" d="M74 293q0 66 20 126.5t63 103.5t109.5 68.5t159.5 25.5h237v146q0 86 -53.5 135.5t-160.5 49.5q-73 0 -133 -24.5t-92 -80.5q-24 13 -52 32.5t-51 33.5q45 78 128.5 122t199.5 44q74 0 138.5 -15t112 -51.5t74 -96.5t26.5 -151v-761h-137v88l-7 2q-43 -57 -116.5 -80 t-156.5 -23q-152 0 -230.5 87.5t-78.5 218.5zM200 301q0 -84 56 -137t165 -53q47 0 90 11t77 33.5t54.5 60.5t20.5 94v189h-242q-97 0 -159 -47.5t-62 -150.5zM435 1230l154 348l133 -45l-205 -337z" />
<glyph unicode="&#xe2;" horiz-adv-x="898" d="M74 293q0 66 20 126.5t63 103.5t109.5 68.5t159.5 25.5h237v146q0 86 -53.5 135.5t-160.5 49.5q-73 0 -133 -24.5t-92 -80.5q-24 13 -52 32.5t-51 33.5q45 78 128.5 122t199.5 44q74 0 138.5 -15t112 -51.5t74 -96.5t26.5 -151v-761h-137v88l-7 2q-43 -57 -116.5 -80 t-156.5 -23q-152 0 -230.5 87.5t-78.5 218.5zM135 1245l284 288h90l271 -283l-62 -58l-260 210l-261 -212zM200 301q0 -84 56 -137t165 -53q47 0 90 11t77 33.5t54.5 60.5t20.5 94v189h-242q-97 0 -159 -47.5t-62 -150.5z" />
<glyph unicode="&#xe3;" horiz-adv-x="898" d="M74 293q0 66 20 126.5t63 103.5t109.5 68.5t159.5 25.5h237v146q0 86 -53.5 135.5t-160.5 49.5q-73 0 -133 -24.5t-92 -80.5q-24 13 -52 32.5t-51 33.5q45 78 128.5 122t199.5 44q74 0 138.5 -15t112 -51.5t74 -96.5t26.5 -151v-761h-137v88l-7 2q-43 -57 -116.5 -80 t-156.5 -23q-152 0 -230.5 87.5t-78.5 218.5zM140 1305q36 69 87.5 112.5t107.5 43.5q35 0 68.5 -14.5t65.5 -30.5t64.5 -30t61.5 -14q58 0 119 89l78 -48q-39 -82 -88.5 -119.5t-103.5 -37.5q-35 0 -68 13t-66 29t-65.5 30t-60.5 14q-60 0 -123 -80zM200 301q0 -84 56 -137 t165 -53q47 0 90 11t77 33.5t54.5 60.5t20.5 94v189h-242q-97 0 -159 -47.5t-62 -150.5z" />
<glyph unicode="&#xe4;" horiz-adv-x="898" d="M74 293q0 66 20 126.5t63 103.5t109.5 68.5t159.5 25.5h237v146q0 86 -53.5 135.5t-160.5 49.5q-73 0 -133 -24.5t-92 -80.5q-24 13 -52 32.5t-51 33.5q45 78 128.5 122t199.5 44q74 0 138.5 -15t112 -51.5t74 -96.5t26.5 -151v-761h-137v88l-7 2q-43 -57 -116.5 -80 t-156.5 -23q-152 0 -230.5 87.5t-78.5 218.5zM200 301q0 -84 56 -137t165 -53q47 0 90 11t77 33.5t54.5 60.5t20.5 94v189h-242q-97 0 -159 -47.5t-62 -150.5zM209 1280v146h140v-146h-140zM570 1280v146h136v-146h-136z" />
<glyph unicode="&#xe5;" horiz-adv-x="898" d="M74 293q0 66 20 126.5t63 103.5t109.5 68.5t159.5 25.5h237v146q0 86 -53.5 135.5t-160.5 49.5q-73 0 -133 -24.5t-92 -80.5q-24 13 -52 32.5t-51 33.5q45 78 128.5 122t199.5 44q74 0 138.5 -15t112 -51.5t74 -96.5t26.5 -151v-761h-137v88l-7 2q-43 -57 -116.5 -80 t-156.5 -23q-152 0 -230.5 87.5t-78.5 218.5zM200 301q0 -84 56 -137t165 -53q47 0 90 11t77 33.5t54.5 60.5t20.5 94v189h-242q-97 0 -159 -47.5t-62 -150.5zM279 1365q0 39 14.5 72.5t40 58t59 40t71.5 15.5q37 0 69.5 -15.5t57 -40t38.5 -58t14 -72.5q0 -73 -52.5 -126 t-126.5 -53q-78 0 -131.5 53.5t-53.5 125.5zM353 1365q0 -43 32 -73t79 -30q43 0 75.5 30.5t32.5 72.5q0 47 -32.5 78.5t-75.5 31.5q-47 0 -79 -31t-32 -79z" />
<glyph unicode="&#xe6;" horiz-adv-x="1483" d="M71 290q0 150 89.5 238.5t272.5 88.5h230v146q0 86 -53.5 135.5t-162.5 49.5q-66 0 -127.5 -23.5t-95.5 -81.5q-27 17 -52.5 34.5t-50.5 33.5q49 82 135 123t189 41q105 0 188 -31t126 -113q43 74 114 109t165 35q97 0 167 -33t114 -92.5t64.5 -140t20.5 -177.5v-133 h-602q0 -76 8.5 -145.5t35.5 -125.5t76.5 -89.5t131.5 -33.5q70 0 123 34.5t83 88.5l108 -60q-43 -90 -124 -135.5t-184 -45.5q-114 0 -199 39.5t-130 135.5q-78 -99 -165.5 -137t-185.5 -38q-152 0 -230.5 87.5t-78.5 215.5zM200 299q0 -84 55 -136t166 -52t176.5 57.5 t65.5 158.5v172h-242q-43 0 -82.5 -9.5t-71 -33t-49.5 -61.5t-18 -96zM806 611h464q0 71 -11.5 132t-38 107.5t-70.5 72t-109 25.5q-70 0 -113.5 -25.5t-70 -72t-38 -108t-13.5 -131.5z" />
<glyph unicode="&#xe7;" horiz-adv-x="814" d="M69 546q0 111 20 208.5t67 168t122 111.5t184 41q117 0 195 -50.5t119 -140.5l-113 -67q-25 60 -76 95.5t-123 35.5q-84 0 -135.5 -33t-78 -89t-36 -129t-9.5 -153t8.5 -157t36 -138.5t78 -99.5t132.5 -38q73 0 124.5 36t75.5 89q29 -17 56.5 -31t57.5 -29 q-37 -86 -113 -135t-181 -54l-28 -94q55 -2 92 -19.5t58.5 -42t29.5 -53t8 -51.5q0 -26 -10 -54t-33 -51.5t-58.5 -39t-86.5 -15.5q-25 0 -76.5 5t-102.5 28l26 67q39 -17 75.5 -22.5t64.5 -5.5q39 0 71 21.5t32 66.5q0 43 -35.5 69t-91.5 26h-15l-37 30l41 140 q-103 8 -167.5 53t-102 118t-51.5 171.5t-14 211.5z" />
<glyph unicode="&#xe8;" horiz-adv-x="893" d="M80 538q0 100 14.5 197.5t56.5 172.5t114.5 121t186.5 46q96 0 166 -33t114 -92.5t64.5 -141t20.5 -178.5v-133h-604q0 -89 10.5 -159.5t40 -122t78 -80t124.5 -28.5q70 0 125.5 39t81.5 94l115 -57q-41 -93 -125 -144.5t-189 -51.5q-115 0 -190 33.5t-120 102t-64.5 172 t-19.5 243.5zM217 607h464v4q0 74 -9 135.5t-34 107t-69 70t-115 24.5q-70 0 -114.5 -25.5t-72 -72t-38 -109t-12.5 -134.5zM252 1533l135 45l153 -348l-82 -34z" />
<glyph unicode="&#xe9;" horiz-adv-x="893" d="M80 538q0 100 14.5 197.5t56.5 172.5t114.5 121t186.5 46q96 0 166 -33t114 -92.5t64.5 -141t20.5 -178.5v-133h-604q0 -89 10.5 -159.5t40 -122t78 -80t124.5 -28.5q70 0 125.5 39t81.5 94l115 -57q-41 -93 -125 -144.5t-189 -51.5q-115 0 -190 33.5t-120 102t-64.5 172 t-19.5 243.5zM217 607h464v4q0 74 -9 135.5t-34 107t-69 70t-115 24.5q-70 0 -114.5 -25.5t-72 -72t-38 -109t-12.5 -134.5zM376 1230l155 348l134 -45l-207 -337z" />
<glyph unicode="&#xea;" horiz-adv-x="893" d="M80 538q0 100 14.5 197.5t56.5 172.5t114.5 121t186.5 46q96 0 166 -33t114 -92.5t64.5 -141t20.5 -178.5v-133h-604q0 -89 10.5 -159.5t40 -122t78 -80t124.5 -28.5q70 0 125.5 39t81.5 94l115 -57q-41 -93 -125 -144.5t-189 -51.5q-115 0 -190 33.5t-120 102t-64.5 172 t-19.5 243.5zM138 1245l283 288h90l271 -283l-62 -58l-260 210l-260 -212zM217 607h464v4q0 74 -9 135.5t-34 107t-69 70t-115 24.5q-70 0 -114.5 -25.5t-72 -72t-38 -109t-12.5 -134.5z" />
<glyph unicode="&#xeb;" horiz-adv-x="893" d="M80 538q0 100 14.5 197.5t56.5 172.5t114.5 121t186.5 46q96 0 166 -33t114 -92.5t64.5 -141t20.5 -178.5v-133h-604q0 -89 10.5 -159.5t40 -122t78 -80t124.5 -28.5q70 0 125.5 39t81.5 94l115 -57q-41 -93 -125 -144.5t-189 -51.5q-115 0 -190 33.5t-120 102t-64.5 172 t-19.5 243.5zM205 1280v146h139v-146h-139zM217 607h464v4q0 74 -9 135.5t-34 107t-69 70t-115 24.5q-70 0 -114.5 -25.5t-72 -72t-38 -109t-12.5 -134.5zM566 1280v146h135v-146h-135z" />
<glyph unicode="&#xec;" horiz-adv-x="401" d="M-43 1533l135 45l153 -348l-81 -34zM133 0v1063h136v-1063h-136z" />
<glyph unicode="&#xed;" horiz-adv-x="401" d="M133 0v1063h136v-1063h-136zM138 1230l155 348l133 -45l-207 -337z" />
<glyph unicode="&#xee;" horiz-adv-x="558" d="M-43 1245l283 288h91l271 -283l-62 -58l-261 210l-260 -212zM209 0v1063h135v-1063h-135z" />
<glyph unicode="&#xef;" horiz-adv-x="431" d="M-33 1280v146h140v-146h-140zM148 0v1063h136v-1063h-136zM329 1280v146h135v-146h-135z" />
<glyph unicode="&#xf0;" horiz-adv-x="930" d="M78 484q0 97 11.5 181t31.5 133q37 99 121.5 157t202.5 58q31 0 66 -7.5t69.5 -23.5t65.5 -42t53 -62h7q0 45 -3.5 93.5t-12.5 95.5t-21.5 90t-32.5 76l-150 -108l-45 61l152 113q-43 55 -117 91t-168 51l19 120q86 -10 145 -30.5t101 -44t71 -52t53 -55.5l146 105 l49 -62l-150 -111q35 -64 53 -135.5t27 -151.5t11 -165t4 -178q0 -107 -5 -184.5t-12 -135.5t-18.5 -101t-29.5 -79q-43 -93 -122.5 -143.5t-210.5 -50.5q-136 0 -220 60q-77 58 -109 166.5t-32 270.5zM211 490q0 -141 21.5 -222t77.5 -124q53 -41 137 -41q70 0 122.5 29.5 t82.5 97.5q43 94 43 283q0 99 -12 159.5t-29 99.5q-59 120 -202 120q-58 0 -108.5 -23.5t-83.5 -83.5q-24 -45 -35.5 -114t-13.5 -181z" />
<glyph unicode="&#xf1;" horiz-adv-x="930" d="M103 0v1063h135v-132h7q45 74 116.5 109t151.5 35q142 0 227 -88t85 -236v-751h-135v706q0 109 -57 171.5t-167 62.5q-103 0 -165.5 -69t-62.5 -179v-692h-135zM117 1305q36 69 87.5 112.5t107.5 43.5q34 0 67.5 -14.5t66 -30.5t64.5 -30t62 -14q58 0 118 89l78 -48 q-39 -82 -88.5 -119.5t-103.5 -37.5q-34 0 -67 13t-67 29t-66 30t-60 14q-60 0 -123 -80z" />
<glyph unicode="&#xf2;" horiz-adv-x="921" d="M86 525q0 103 8.5 192t32.5 149q41 101 127.5 155t211.5 54q107 0 179.5 -42t115.5 -108q41 -56 56.5 -163.5t15.5 -232.5q0 -39 -3 -85t-8 -92t-12.5 -87t-15.5 -70q-41 -116 -134.5 -163t-210.5 -47q-109 0 -179 40.5t-108 105.5q-43 58 -59.5 160.5t-16.5 233.5z M219 509q0 -109 10.5 -183t41.5 -117q58 -101 187 -102q71 0 129 35.5t84 111.5q17 43 21.5 119t4.5 167q0 96 -8 168t-24 111q-27 66 -79.5 99.5t-123.5 33.5q-69 0 -122.5 -31t-83.5 -94q-24 -43 -30.5 -125t-6.5 -193zM232 1533l136 45l153 -348l-82 -34z" />
<glyph unicode="&#xf3;" horiz-adv-x="921" d="M86 525q0 103 8.5 192t32.5 149q41 101 127.5 155t211.5 54q107 0 179.5 -42t115.5 -108q41 -56 56.5 -163.5t15.5 -232.5q0 -39 -3 -85t-8 -92t-12.5 -87t-15.5 -70q-41 -116 -134.5 -163t-210.5 -47q-109 0 -179 40.5t-108 105.5q-43 58 -59.5 160.5t-16.5 233.5z M219 509q0 -109 10.5 -183t41.5 -117q58 -101 187 -102q71 0 129 35.5t84 111.5q17 43 21.5 119t4.5 167q0 96 -8 168t-24 111q-27 66 -79.5 99.5t-123.5 33.5q-69 0 -122.5 -31t-83.5 -94q-24 -43 -30.5 -125t-6.5 -193zM380 1230l156 348l133 -45l-207 -337z" />
<glyph unicode="&#xf4;" horiz-adv-x="921" d="M86 525q0 103 8.5 192t32.5 149q41 101 127.5 155t211.5 54q107 0 179.5 -42t115.5 -108q41 -56 56.5 -163.5t15.5 -232.5q0 -39 -3 -85t-8 -92t-12.5 -87t-15.5 -70q-41 -116 -134.5 -163t-210.5 -47q-109 0 -179 40.5t-108 105.5q-43 58 -59.5 160.5t-16.5 233.5z M138 1245l283 288h90l271 -283l-62 -58l-260 210l-260 -212zM219 509q0 -109 10.5 -183t41.5 -117q58 -101 187 -102q71 0 129 35.5t84 111.5q17 43 21.5 119t4.5 167q0 96 -8 168t-24 111q-27 66 -79.5 99.5t-123.5 33.5q-69 0 -122.5 -31t-83.5 -94q-24 -43 -30.5 -125 t-6.5 -193z" />
<glyph unicode="&#xf5;" horiz-adv-x="921" d="M86 525q0 103 8.5 192t32.5 149q41 101 127.5 155t211.5 54q107 0 179.5 -42t115.5 -108q41 -56 56.5 -163.5t15.5 -232.5q0 -39 -3 -85t-8 -92t-12.5 -87t-15.5 -70q-41 -116 -134.5 -163t-210.5 -47q-109 0 -179 40.5t-108 105.5q-43 58 -59.5 160.5t-16.5 233.5z M135 1305q37 69 88.5 112.5t107.5 43.5q34 0 68 -14.5t66 -30.5t64.5 -30t61.5 -14q58 0 119 89l78 -48q-39 -82 -89 -119.5t-104 -37.5q-34 0 -67 13t-66.5 29t-66 30t-60.5 14q-60 0 -122 -80zM219 509q0 -109 10.5 -183t41.5 -117q58 -101 187 -102q71 0 129 35.5 t84 111.5q17 43 21.5 119t4.5 167q0 96 -8 168t-24 111q-27 66 -79.5 99.5t-123.5 33.5q-69 0 -122.5 -31t-83.5 -94q-24 -43 -30.5 -125t-6.5 -193z" />
<glyph unicode="&#xf6;" horiz-adv-x="921" d="M86 525q0 103 8.5 192t32.5 149q41 101 127.5 155t211.5 54q107 0 179.5 -42t115.5 -108q41 -56 56.5 -163.5t15.5 -232.5q0 -39 -3 -85t-8 -92t-12.5 -87t-15.5 -70q-41 -116 -134.5 -163t-210.5 -47q-109 0 -179 40.5t-108 105.5q-43 58 -59.5 160.5t-16.5 233.5z M209 1280v146h140v-146h-140zM219 509q0 -109 10.5 -183t41.5 -117q58 -101 187 -102q71 0 129 35.5t84 111.5q17 43 21.5 119t4.5 167q0 96 -8 168t-24 111q-27 66 -79.5 99.5t-123.5 33.5q-69 0 -122.5 -31t-83.5 -94q-24 -43 -30.5 -125t-6.5 -193zM570 1280v146h136 v-146h-136z" />
<glyph unicode="&#xf7;" horiz-adv-x="913" d="M43 570v107h833v-107h-833zM363 269q0 43 29 71t70 28q39 0 69.5 -28t30.5 -71t-29.5 -71t-70.5 -28q-43 0 -71 28t-28 71zM363 976q0 41 29 69t70 28q39 0 69.5 -28t30.5 -69q0 -40 -29.5 -69t-70.5 -29q-43 0 -71 29t-28 69z" />
<glyph unicode="&#xf8;" horiz-adv-x="921" d="M86 45l66 99q-36 60 -51 158t-15 223q0 103 8.5 192t32.5 149q41 101 127.5 155t211.5 54q82 0 143.5 -25.5t104.5 -68.5l64 94l69 -47l-79 -117q36 -57 50.5 -160.5t14.5 -221.5q0 -39 -3 -85t-8 -92t-12.5 -87t-15.5 -70q-41 -116 -134.5 -163t-210.5 -47 q-84 0 -144 24t-102 67l-53 -78zM219 509q0 -150 21 -234l398 591q-62 86 -176 86q-69 0 -122.5 -31t-83.5 -94q-24 -43 -30.5 -125t-6.5 -193zM281 191q58 -84 177 -84q71 0 129 35.5t84 111.5q17 43 21.5 119t4.5 167q0 73 -4.5 133t-15.5 103z" />
<glyph unicode="&#xf9;" horiz-adv-x="946" d="M107 310v753h136v-708q0 -109 59 -173.5t164 -64.5q103 0 166 70.5t63 182.5v693h132v-1063h-132v129h-7q-45 -75 -117 -108.5t-152 -33.5q-142 0 -227 87.5t-85 235.5zM256 1533l136 45l152 -348l-82 -34z" />
<glyph unicode="&#xfa;" horiz-adv-x="946" d="M107 310v753h136v-708q0 -109 59 -173.5t164 -64.5q103 0 166 70.5t63 182.5v693h132v-1063h-132v129h-7q-45 -75 -117 -108.5t-152 -33.5q-142 0 -227 87.5t-85 235.5zM392 1230l154 348l133 -45l-205 -337z" />
<glyph unicode="&#xfb;" horiz-adv-x="946" d="M107 310v753h136v-708q0 -109 59 -173.5t164 -64.5q103 0 166 70.5t63 182.5v693h132v-1063h-132v129h-7q-45 -75 -117 -108.5t-152 -33.5q-142 0 -227 87.5t-85 235.5zM144 1245l284 288h91l271 -283l-63 -58l-261 210l-259 -212z" />
<glyph unicode="&#xfc;" horiz-adv-x="946" d="M107 310v753h136v-708q0 -109 59 -173.5t164 -64.5q103 0 166 70.5t63 182.5v693h132v-1063h-132v129h-7q-45 -75 -117 -108.5t-152 -33.5q-142 0 -227 87.5t-85 235.5zM209 1280v146h140v-146h-140zM570 1280v146h136v-146h-136z" />
<glyph unicode="&#xfd;" horiz-adv-x="806" d="M6 1060h144q35 -114 69.5 -225t68.5 -222q8 -32 24.5 -87t34.5 -114t33.5 -114t25.5 -87h5q12 45 31.5 112t43 146t48.5 164t49 165t44 147.5t33 114.5h140l-394 -1286q-64 -211 -254 -211h-49v117h43q62 0 95.5 42t55.5 118l52 173q-89 262 -172 522.5t-171 524.5z M346 1230l155 348l133 -45l-206 -337z" />
<glyph unicode="&#xfe;" horiz-adv-x="917" d="M97 -433v1937h133v-564q2 0 4 -2q50 75 116.5 106t144.5 31q109 0 174.5 -45t99 -119t44 -172.5t10.5 -202.5q0 -101 -11.5 -199.5t-48 -175.5t-104.5 -124t-179 -47q-82 0 -140.5 32t-105.5 92h-4v-547h-133zM230 533q0 -64 4 -137.5t27 -134.5t67 -101.5t126 -40.5 q79 0 125.5 34t70 92t31 132.5t7.5 153.5q0 84 -7.5 160.5t-31 133.5t-68.5 90t-123 33q-84 0 -130.5 -40t-68 -100.5t-25.5 -134t-4 -140.5z" />
<glyph unicode="&#xff;" horiz-adv-x="806" d="M6 1060h144q35 -114 69.5 -225t68.5 -222q8 -32 24.5 -87t34.5 -114t33.5 -114t25.5 -87h5q12 45 31.5 112t43 146t48.5 164t49 165t44 147.5t33 114.5h140l-394 -1286q-64 -211 -254 -211h-49v117h43q62 0 95.5 42t55.5 118l52 173q-89 262 -172 522.5t-171 524.5z M166 1280v146h140v-146h-140zM527 1280v146h136v-146h-136z" />
<glyph unicode="&#x100;" horiz-adv-x="1051" d="M21 0l437 1496h135l437 -1496h-144l-101 359h-520l-101 -359h-143zM269 1637v124h513v-124h-513zM295 484h458l-131 462l-93 349h-8q-4 -17 -17.5 -67t-28.5 -107.5t-28.5 -108.5t-18.5 -66q-6 -26 -25.5 -91t-40 -140t-40 -140.5t-27.5 -90.5z" />
<glyph unicode="&#x101;" horiz-adv-x="898" d="M74 293q0 66 20 126.5t63 103.5t109.5 68.5t159.5 25.5h237v146q0 86 -53.5 135.5t-160.5 49.5q-73 0 -133 -24.5t-92 -80.5q-24 13 -52 32.5t-51 33.5q45 78 128.5 122t199.5 44q74 0 138.5 -15t112 -51.5t74 -96.5t26.5 -151v-761h-137v88l-7 2q-43 -57 -116.5 -80 t-156.5 -23q-152 0 -230.5 87.5t-78.5 218.5zM200 301q0 -84 56 -137t165 -53q47 0 90 11t77 33.5t54.5 60.5t20.5 94v189h-242q-97 0 -159 -47.5t-62 -150.5zM217 1264v127h514v-127h-514z" />
<glyph unicode="&#x102;" horiz-adv-x="1051" d="M21 0l437 1496h135l437 -1496h-144l-101 359h-520l-101 -359h-143zM245 1853h116q7 -55 52 -101.5t114 -46.5q76 0 119.5 46.5t48.5 101.5h113q-4 -41 -21 -86t-50 -82.5t-85 -62t-125 -24.5q-75 0 -128 24.5t-86.5 62t-49 82.5t-18.5 86zM295 484h458l-131 462l-93 349 h-8q-4 -17 -17.5 -67t-28.5 -107.5t-28.5 -108.5t-18.5 -66q-6 -26 -25.5 -91t-40 -140t-40 -140.5t-27.5 -90.5z" />
<glyph unicode="&#x103;" horiz-adv-x="898" d="M74 293q0 66 20 126.5t63 103.5t109.5 68.5t159.5 25.5h237v146q0 86 -53.5 135.5t-160.5 49.5q-73 0 -133 -24.5t-92 -80.5q-24 13 -52 32.5t-51 33.5q45 78 128.5 122t199.5 44q74 0 138.5 -15t112 -51.5t74 -96.5t26.5 -151v-761h-137v88l-7 2q-43 -57 -116.5 -80 t-156.5 -23q-152 0 -230.5 87.5t-78.5 218.5zM191 1477h115q6 -55 52 -101.5t113 -46.5q35 0 65 12.5t52.5 33t36 47.5t15.5 55h113q-4 -41 -21.5 -86t-50 -83t-84 -62.5t-126.5 -24.5t-126.5 24.5t-85 62.5t-50 83t-18.5 86zM200 301q0 -84 56 -137t165 -53q47 0 90 11 t77 33.5t54.5 60.5t20.5 94v189h-242q-97 0 -159 -47.5t-62 -150.5z" />
<glyph unicode="&#x104;" horiz-adv-x="1051" d="M21 0l437 1496h135l437 -1496h-43q-71 -101 -71 -174q0 -52 28 -77.5t78 -25.5q24 0 53 7.5t64 24.5l37 -86q-37 -21 -84 -35t-97 -14q-86 0 -138.5 53.5t-52.5 129.5q0 43 18.5 93t61.5 106l-99 357h-520l-101 -359h-143zM295 484h458l-131 462l-93 349h-8 q-4 -17 -17.5 -67t-28.5 -107.5t-28.5 -108.5t-18.5 -66q-6 -26 -25.5 -91t-40 -140t-40 -140.5t-27.5 -90.5z" />
<glyph unicode="&#x105;" horiz-adv-x="898" d="M74 293q0 66 20 126.5t63 103.5t109.5 68.5t159.5 25.5h237v146q0 86 -53.5 135.5t-160.5 49.5q-73 0 -133 -24.5t-92 -80.5q-24 13 -52 32.5t-51 33.5q45 78 128.5 122t199.5 44q74 0 138.5 -15t112 -51.5t74 -96.5t26.5 -151v-761h-37q-71 -101 -71 -172 q0 -52 28.5 -77.5t77.5 -25.5q24 0 53 7.5t65 24.5l36 -86q-36 -21 -83.5 -35t-96.5 -14q-86 0 -138.5 53.5t-52.5 129.5q0 43 18 93.5t64 105.5v84l-7 2q-43 -57 -116.5 -80t-156.5 -23q-152 0 -230.5 87.5t-78.5 218.5zM200 301q0 -84 56 -137t165 -53q47 0 90 11t77 33.5 t54.5 60.5t20.5 94v189h-242q-97 0 -159 -47.5t-62 -150.5z" />
<glyph unicode="&#x106;" horiz-adv-x="995" d="M107 423v650q0 95 29.5 174.5t85 137.5t135.5 90.5t181 32.5q148 0 258.5 -74.5t147.5 -212.5l-133 -49q-21 96 -92.5 150.5t-180.5 54.5q-70 0 -124.5 -24t-92 -65t-57 -96t-19.5 -117v-656q0 -62 20.5 -118t58 -96.5t91 -64t123.5 -23.5q105 0 178.5 53.5t96.5 156.5 l131 -48q-35 -144 -146.5 -218t-259.5 -74q-99 0 -179 32t-135.5 89.5t-86 138t-30.5 176.5zM428 1630l299 241l94 -104l-335 -204z" />
<glyph unicode="&#x107;" horiz-adv-x="814" d="M69 546q0 111 20 208.5t67 168t122 111.5t184 41q117 0 195 -50.5t119 -140.5l-113 -67q-25 60 -76 95.5t-123 35.5q-84 0 -135.5 -33t-78 -89t-36 -129t-9.5 -153t8.5 -157t36 -138.5t78 -99.5t132.5 -38q73 0 124.5 36t75.5 89q29 -17 56.5 -31t57.5 -29 q-39 -90 -120.5 -139.5t-195.5 -49.5q-121 0 -196 42t-118 116t-59 177.5t-16 223.5zM365 1230l156 348l133 -45l-207 -337z" />
<glyph unicode="&#x108;" horiz-adv-x="995" d="M107 423v650q0 95 29.5 174.5t85 137.5t135.5 90.5t181 32.5q148 0 258.5 -74.5t147.5 -212.5l-133 -49q-21 96 -92.5 150.5t-180.5 54.5q-70 0 -124.5 -24t-92 -65t-57 -96t-19.5 -117v-656q0 -62 20.5 -118t58 -96.5t91 -64t123.5 -23.5q105 0 178.5 53.5t96.5 156.5 l131 -48q-35 -144 -146.5 -218t-259.5 -74q-99 0 -179 32t-135.5 89.5t-86 138t-30.5 176.5zM207 1632l283 245h91l271 -243l-54 -58l-269 172l-269 -172z" />
<glyph unicode="&#x109;" horiz-adv-x="814" d="M69 546q0 111 20 208.5t67 168t122 111.5t184 41q117 0 195 -50.5t119 -140.5l-113 -67q-25 60 -76 95.5t-123 35.5q-84 0 -135.5 -33t-78 -89t-36 -129t-9.5 -153t8.5 -157t36 -138.5t78 -99.5t132.5 -38q73 0 124.5 36t75.5 89q29 -17 56.5 -31t57.5 -29 q-39 -90 -120.5 -139.5t-195.5 -49.5q-121 0 -196 42t-118 116t-59 177.5t-16 223.5zM131 1245l284 288h90l271 -283l-62 -58l-260 210l-261 -212z" />
<glyph unicode="&#x10a;" horiz-adv-x="995" d="M107 423v650q0 95 29.5 174.5t85 137.5t135.5 90.5t181 32.5q148 0 258.5 -74.5t147.5 -212.5l-133 -49q-21 96 -92.5 150.5t-180.5 54.5q-70 0 -124.5 -24t-92 -65t-57 -96t-19.5 -117v-656q0 -62 20.5 -118t58 -96.5t91 -64t123.5 -23.5q105 0 178.5 53.5t96.5 156.5 l131 -48q-35 -144 -146.5 -218t-259.5 -74q-99 0 -179 32t-135.5 89.5t-86 138t-30.5 176.5zM466 1645v146h138v-146h-138z" />
<glyph unicode="&#x10b;" horiz-adv-x="814" d="M69 546q0 111 20 208.5t67 168t122 111.5t184 41q117 0 195 -50.5t119 -140.5l-113 -67q-25 60 -76 95.5t-123 35.5q-84 0 -135.5 -33t-78 -89t-36 -129t-9.5 -153t8.5 -157t36 -138.5t78 -99.5t132.5 -38q73 0 124.5 36t75.5 89q29 -17 56.5 -31t57.5 -29 q-39 -90 -120.5 -139.5t-195.5 -49.5q-121 0 -196 42t-118 116t-59 177.5t-16 223.5zM374 1284v146h137v-146h-137z" />
<glyph unicode="&#x10c;" horiz-adv-x="995" d="M107 423v650q0 95 29.5 174.5t85 137.5t135.5 90.5t181 32.5q148 0 258.5 -74.5t147.5 -212.5l-133 -49q-21 96 -92.5 150.5t-180.5 54.5q-70 0 -124.5 -24t-92 -65t-57 -96t-19.5 -117v-656q0 -62 20.5 -118t58 -96.5t91 -64t123.5 -23.5q105 0 178.5 53.5t96.5 156.5 l131 -48q-35 -144 -146.5 -218t-259.5 -74q-99 0 -179 32t-135.5 89.5t-86 138t-30.5 176.5zM222 1826l51 56l271 -175l267 173l55 -56l-271 -246h-90z" />
<glyph unicode="&#x10d;" horiz-adv-x="814" d="M69 546q0 111 20 208.5t67 168t122 111.5t184 41q117 0 195 -50.5t119 -140.5l-113 -67q-25 60 -76 95.5t-123 35.5q-84 0 -135.5 -33t-78 -89t-36 -129t-9.5 -153t8.5 -157t36 -138.5t78 -99.5t132.5 -38q73 0 124.5 36t75.5 89q29 -17 56.5 -31t57.5 -29 q-39 -90 -120.5 -139.5t-195.5 -49.5q-121 0 -196 42t-118 116t-59 177.5t-16 223.5zM129 1486l62 53l263 -210l260 210l60 -57l-269 -288h-90z" />
<glyph unicode="&#x10e;" horiz-adv-x="1104" d="M138 0v1496h418q308 0 403 -236q26 -74 31 -183t5 -252v-246q0 -103 -5 -186t-29 -143q-29 -74 -72.5 -121t-100.5 -76t-125 -41t-140 -12h-385zM193 1826l52 56l272 -175l265 173l57 -56l-271 -246h-90zM277 127h259q234 0 297 183q12 34 18.5 79.5t6.5 88.5v509 q0 49 -4.5 101.5t-18.5 95.5q-29 91 -105 138.5t-194 47.5h-259v-1243z" />
<glyph unicode="&#x10f;" horiz-adv-x="1042" d="M76 525q0 101 10.5 199.5t47 176.5t104.5 125t181 47q82 0 141.5 -32t104.5 -93h4v611h133v-1559h-133v121q-2 0 -4 2q-50 -76 -116.5 -106t-144.5 -30q-109 0 -173.5 44.5t-99 118.5t-45 171.5t-10.5 203.5zM211 527q0 -84 8.5 -160.5t32 -132.5t68.5 -89.5t121 -33.5 q86 0 132.5 44.5t68 110t24.5 142t3 138.5q0 71 -6.5 141t-29 126.5t-67.5 92.5t-121 36q-80 0 -126 -36t-70.5 -93.5t-31 -131.5t-6.5 -154zM892 1174l58 189h-47v176h164v-174l-95 -191h-80z" />
<glyph unicode="&#x110;" horiz-adv-x="1104" d="M24 731v106h114v659h418q308 0 403 -236q26 -74 31 -183t5 -252v-246q0 -103 -5 -186t-29 -143q-29 -74 -72.5 -121t-100.5 -76t-125 -41t-140 -12h-385v731h-114zM277 127h259q234 0 297 183q12 34 18.5 79.5t6.5 88.5v509q0 49 -4.5 101.5t-18.5 95.5 q-29 91 -105 138.5t-194 47.5h-259v-533h220v-106h-220v-604z" />
<glyph unicode="&#x111;" horiz-adv-x="902" d="M76 525q0 101 10.5 199.5t47 176.5t104.5 125t181 47q82 0 141.5 -32t104.5 -93h4v282h-310v99h310v230h133v-230h107v-99h-107v-1230h-133v121q-2 0 -4 2q-50 -76 -116.5 -106t-144.5 -30q-109 0 -173.5 44.5t-99 118.5t-45 171.5t-10.5 203.5zM211 527 q0 -84 8.5 -160.5t32 -132.5t68.5 -89.5t121 -33.5q86 0 132.5 44.5t68 110t24.5 142t3 138.5q0 71 -6.5 141t-29 126.5t-67.5 92.5t-121 36q-80 0 -126 -36t-70.5 -93.5t-31 -131.5t-6.5 -154z" />
<glyph unicode="&#x112;" horiz-adv-x="964" d="M140 0v1496h778v-128h-641v-545h550v-124h-550v-566h641v-133h-778zM262 1637v124h514v-124h-514z" />
<glyph unicode="&#x113;" horiz-adv-x="893" d="M80 538q0 100 14.5 197.5t56.5 172.5t114.5 121t186.5 46q96 0 166 -33t114 -92.5t64.5 -141t20.5 -178.5v-133h-604q0 -89 10.5 -159.5t40 -122t78 -80t124.5 -28.5q70 0 125.5 39t81.5 94l115 -57q-41 -93 -125 -144.5t-189 -51.5q-115 0 -190 33.5t-120 102t-64.5 172 t-19.5 243.5zM217 607h464v4q0 74 -9 135.5t-34 107t-69 70t-115 24.5q-70 0 -114.5 -25.5t-72 -72t-38 -109t-12.5 -134.5zM217 1264v127h514v-127h-514z" />
<glyph unicode="&#x114;" horiz-adv-x="964" d="M140 0v1496h778v-128h-641v-545h550v-124h-550v-566h641v-133h-778zM238 1853h117q6 -55 51.5 -101.5t114.5 -46.5q75 0 119 46.5t48 101.5h114q-4 -41 -21.5 -86t-50.5 -82.5t-85 -62t-124 -24.5q-76 0 -128.5 24.5t-86 62t-50 82.5t-18.5 86z" />
<glyph unicode="&#x115;" horiz-adv-x="893" d="M80 538q0 100 14.5 197.5t56.5 172.5t114.5 121t186.5 46q96 0 166 -33t114 -92.5t64.5 -141t20.5 -178.5v-133h-604q0 -89 10.5 -159.5t40 -122t78 -80t124.5 -28.5q70 0 125.5 39t81.5 94l115 -57q-41 -93 -125 -144.5t-189 -51.5q-115 0 -190 33.5t-120 102t-64.5 172 t-19.5 243.5zM178 1477h115q6 -55 52.5 -101.5t112.5 -46.5q34 0 64 12.5t52.5 33t37 47.5t16.5 55h112q-4 -41 -21.5 -86t-50 -83t-84 -62.5t-126.5 -24.5q-76 0 -127.5 24.5t-84.5 62.5t-49 83t-19 86zM217 607h464v4q0 74 -9 135.5t-34 107t-69 70t-115 24.5 q-70 0 -114.5 -25.5t-72 -72t-38 -109t-12.5 -134.5z" />
<glyph unicode="&#x116;" horiz-adv-x="964" d="M140 0v1496h778v-128h-641v-545h550v-124h-550v-566h641v-133h-778zM462 1645v146h138v-146h-138z" />
<glyph unicode="&#x117;" horiz-adv-x="893" d="M80 538q0 100 14.5 197.5t56.5 172.5t114.5 121t186.5 46q96 0 166 -33t114 -92.5t64.5 -141t20.5 -178.5v-133h-604q0 -89 10.5 -159.5t40 -122t78 -80t124.5 -28.5q70 0 125.5 39t81.5 94l115 -57q-41 -93 -125 -144.5t-189 -51.5q-115 0 -190 33.5t-120 102t-64.5 172 t-19.5 243.5zM217 607h464v4q0 74 -9 135.5t-34 107t-69 70t-115 24.5q-70 0 -114.5 -25.5t-72 -72t-38 -109t-12.5 -134.5zM378 1280v146h139v-146h-139z" />
<glyph unicode="&#x118;" horiz-adv-x="964" d="M140 0v1496h778v-128h-641v-545h550v-124h-550v-566h641v-133q-37 -49 -56 -93.5t-19 -80.5q0 -52 29 -77.5t76 -25.5q26 0 55 7.5t66 24.5l35 -86q-37 -21 -83.5 -35t-95.5 -14q-88 0 -141 53.5t-53 129.5q0 43 18.5 92t61.5 105h-671z" />
<glyph unicode="&#x119;" horiz-adv-x="893" d="M80 538q0 100 14.5 197.5t56.5 172.5t114.5 121t186.5 46q96 0 166 -33t114 -92.5t64.5 -141t20.5 -178.5v-133h-604q0 -89 10.5 -159.5t40 -122t78 -80t124.5 -28.5q70 0 125.5 39t81.5 94l115 -57q-27 -60 -72 -101q-41 -76 -41 -127q0 -52 28 -77.5t77 -25.5 q24 0 53 7.5t66 23.5l37 -86q-37 -21 -84.5 -35t-96.5 -14q-86 0 -138.5 53.5t-52.5 129.5q0 17 2 34.5t8 34.5q-49 -13 -100 -13q-115 0 -190 33.5t-120 102t-64.5 172t-19.5 243.5zM217 607h464v4q0 74 -9 135.5t-34 107t-69 70t-115 24.5q-70 0 -114.5 -25.5t-72 -72 t-38 -109t-12.5 -134.5z" />
<glyph unicode="&#x11a;" horiz-adv-x="964" d="M140 0v1496h778v-128h-641v-545h550v-124h-550v-566h641v-133h-778zM185 1826l51 56l271 -175l267 173l57 -56l-272 -246h-91z" />
<glyph unicode="&#x11b;" horiz-adv-x="893" d="M80 538q0 100 14.5 197.5t56.5 172.5t114.5 121t186.5 46q96 0 166 -33t114 -92.5t64.5 -141t20.5 -178.5v-133h-604q0 -89 10.5 -159.5t40 -122t78 -80t124.5 -28.5q70 0 125.5 39t81.5 94l115 -57q-41 -93 -125 -144.5t-189 -51.5q-115 0 -190 33.5t-120 102t-64.5 172 t-19.5 243.5zM135 1482l62 53l263 -210l260 210l60 -58l-269 -287h-90zM217 607h464v4q0 74 -9 135.5t-34 107t-69 70t-115 24.5q-70 0 -114.5 -25.5t-72 -72t-38 -109t-12.5 -134.5z" />
<glyph unicode="&#x11c;" horiz-adv-x="1069" d="M105 423v650q0 95 30.5 174.5t86 137.5t135.5 90.5t181 32.5q148 0 258.5 -73.5t147.5 -215.5l-22 -7q-21 -8 -44.5 -15t-45.5 -14l-21 -7q-25 94 -95.5 147.5t-177.5 53.5q-70 0 -124.5 -24t-92 -65t-58 -96t-20.5 -117v-660q0 -62 20.5 -117t58 -96.5t92 -66 t124.5 -24.5q64 0 118 23.5t93 63.5t60.5 93t21.5 115v254h-255v125h394v-368q0 -97 -32.5 -177t-89 -136.5t-136.5 -87.5t-174 -31q-101 0 -181 32t-135.5 90.5t-86 139t-30.5 176.5zM203 1632l283 245h90l271 -243l-53 -58l-269 172l-269 -172z" />
<glyph unicode="&#x11d;" horiz-adv-x="932" d="M84 521q0 103 11.5 202.5t47 178.5t100.5 126t172 47q77 0 144 -31t116 -106l4 2v120h134v-1084q0 -195 -92.5 -309t-285.5 -114q-101 0 -181 47t-121 138l112 65q24 -50 73.5 -87.5t120.5 -37.5q127 0 183.5 75t56.5 202v183h-4q-43 -70 -107.5 -109t-154.5 -39 q-112 0 -177.5 45t-99 119t-43 169.5t-9.5 197.5zM152 1245l285 288h90l271 -283l-63 -58l-259 210l-261 -212zM222 531q0 -86 6 -161t29.5 -131t68 -88t121.5 -32q76 0 121 36t70 93.5t33 127t8 137.5q0 67 -6 143.5t-28.5 141t-68 107.5t-124.5 43q-78 0 -123 -33t-70 -90 t-31 -132.5t-6 -161.5z" />
<glyph unicode="&#x11e;" horiz-adv-x="1069" d="M105 423v650q0 95 30.5 174.5t86 137.5t135.5 90.5t181 32.5q148 0 258.5 -73.5t147.5 -215.5l-22 -7q-21 -8 -44.5 -15t-45.5 -14l-21 -7q-25 94 -95.5 147.5t-177.5 53.5q-70 0 -124.5 -24t-92 -65t-58 -96t-20.5 -117v-660q0 -62 20.5 -117t58 -96.5t92 -66 t124.5 -24.5q64 0 118 23.5t93 63.5t60.5 93t21.5 115v254h-255v125h394v-368q0 -97 -32.5 -177t-89 -136.5t-136.5 -87.5t-174 -31q-101 0 -181 32t-135.5 90.5t-86 139t-30.5 176.5zM238 1853h117q6 -55 51.5 -101.5t114.5 -46.5q75 0 119 46.5t48 101.5h114 q-4 -41 -21.5 -86t-50.5 -82.5t-85 -62t-124 -24.5q-76 0 -128.5 24.5t-86 62t-50 82.5t-18.5 86z" />
<glyph unicode="&#x11f;" horiz-adv-x="932" d="M84 521q0 103 11.5 202.5t47 178.5t100.5 126t172 47q77 0 144 -31t116 -106l4 2v120h134v-1084q0 -195 -92.5 -309t-285.5 -114q-101 0 -181 47t-121 138l112 65q24 -50 73.5 -87.5t120.5 -37.5q127 0 183.5 75t56.5 202v183h-4q-43 -70 -107.5 -109t-154.5 -39 q-112 0 -177.5 45t-99 119t-43 169.5t-9.5 197.5zM185 1477h114q7 -55 53 -101.5t112 -46.5q35 0 65 12.5t52.5 33t36.5 47.5t16 55h113q-5 -41 -22 -86t-49.5 -83t-84 -62.5t-127.5 -24.5t-127 24.5t-84.5 62.5t-49.5 83t-18 86zM222 531q0 -86 6 -161t29.5 -131t68 -88 t121.5 -32q76 0 121 36t70 93.5t33 127t8 137.5q0 67 -6 143.5t-28.5 141t-68 107.5t-124.5 43q-78 0 -123 -33t-70 -90t-31 -132.5t-6 -161.5z" />
<glyph unicode="&#x120;" horiz-adv-x="1069" d="M105 423v650q0 95 30.5 174.5t86 137.5t135.5 90.5t181 32.5q148 0 258.5 -73.5t147.5 -215.5l-22 -7q-21 -8 -44.5 -15t-45.5 -14l-21 -7q-25 94 -95.5 147.5t-177.5 53.5q-70 0 -124.5 -24t-92 -65t-58 -96t-20.5 -117v-660q0 -62 20.5 -117t58 -96.5t92 -66 t124.5 -24.5q64 0 118 23.5t93 63.5t60.5 93t21.5 115v254h-255v125h394v-368q0 -97 -32.5 -177t-89 -136.5t-136.5 -87.5t-174 -31q-101 0 -181 32t-135.5 90.5t-86 139t-30.5 176.5zM464 1645v146h138v-146h-138z" />
<glyph unicode="&#x121;" horiz-adv-x="932" d="M84 521q0 103 11.5 202.5t47 178.5t100.5 126t172 47q77 0 144 -31t116 -106l4 2v120h134v-1084q0 -195 -92.5 -309t-285.5 -114q-101 0 -181 47t-121 138l112 65q24 -50 73.5 -87.5t120.5 -37.5q127 0 183.5 75t56.5 202v183h-4q-43 -70 -107.5 -109t-154.5 -39 q-112 0 -177.5 45t-99 119t-43 169.5t-9.5 197.5zM222 531q0 -86 6 -161t29.5 -131t68 -88t121.5 -32q76 0 121 36t70 93.5t33 127t8 137.5q0 67 -6 143.5t-28.5 141t-68 107.5t-124.5 43q-78 0 -123 -33t-70 -90t-31 -132.5t-6 -161.5zM363 1280v146h138v-146h-138z" />
<glyph unicode="&#x122;" horiz-adv-x="1069" d="M105 423v650q0 95 30.5 174.5t86 137.5t135.5 90.5t181 32.5q148 0 258.5 -73.5t147.5 -215.5l-22 -7q-21 -8 -44.5 -15t-45.5 -14l-21 -7q-25 94 -95.5 147.5t-177.5 53.5q-70 0 -124.5 -24t-92 -65t-58 -96t-20.5 -117v-660q0 -62 20.5 -117t58 -96.5t92 -66 t124.5 -24.5q64 0 118 23.5t93 63.5t60.5 93t21.5 115v254h-255v125h394v-368q0 -97 -32.5 -177t-89 -136.5t-136.5 -87.5t-174 -31q-101 0 -181 32t-135.5 90.5t-86 139t-30.5 176.5zM454 -507l57 189h-47v176h164v-174l-95 -191h-79z" />
<glyph unicode="&#x123;" horiz-adv-x="932" d="M84 521q0 103 11.5 202.5t47 178.5t100.5 126t172 47q77 0 144 -31t116 -106l4 2v120h134v-1084q0 -195 -92.5 -309t-285.5 -114q-101 0 -181 47t-121 138l112 65q24 -50 73.5 -87.5t120.5 -37.5q127 0 183.5 75t56.5 202v183h-4q-43 -70 -107.5 -109t-154.5 -39 q-112 0 -177.5 45t-99 119t-43 169.5t-9.5 197.5zM222 531q0 -86 6 -161t29.5 -131t68 -88t121.5 -32q76 0 121 36t70 93.5t33 127t8 137.5q0 67 -6 143.5t-28.5 141t-68 107.5t-124.5 43q-78 0 -123 -33t-70 -90t-31 -132.5t-6 -161.5zM363 1235v175q19 39 41 78t41 78h80 q-11 -37 -22 -77t-21 -79h43v-175h-162z" />
<glyph unicode="&#x124;" horiz-adv-x="1130" d="M140 0v1496h137v-673h572v673h142v-1496h-142v699h-572v-699h-137zM228 1632l283 245h91l271 -243l-54 -58l-269 172l-269 -172z" />
<glyph unicode="&#x125;" horiz-adv-x="936" d="M-144 1632l284 245h90l271 -243l-54 -58l-269 172l-268 -172zM107 0v1561h136v-625h5q45 73 117 106t154 33q141 0 224.5 -87t83.5 -237v-751h-135v706q0 109 -52.5 172.5t-161.5 63.5q-103 0 -170.5 -69t-67.5 -181v-692h-133z" />
<glyph unicode="&#x126;" horiz-adv-x="1130" d="M35 1178v102h105v216h137v-216h572v216h142v-216h105v-102h-105v-1178h-142v699h-572v-699h-137v1178h-105zM277 823h572v355h-572v-355z" />
<glyph unicode="&#x127;" horiz-adv-x="936" d="M0 1254v103h107v204h136v-204h404v-103h-404v-318h5q45 73 117 106t154 33q141 0 224.5 -87t83.5 -237v-751h-135v706q0 109 -52.5 172.5t-161.5 63.5q-103 0 -170.5 -69t-67.5 -181v-692h-133v1254h-107z" />
<glyph unicode="&#x128;" horiz-adv-x="442" d="M-99 1671q37 69 88.5 112t107.5 43q34 0 67 -14t65.5 -30.5t65 -30t62.5 -13.5q58 0 119 88l76 -47q-39 -82 -88 -120t-103 -38q-34 0 -67.5 13t-67 29t-65.5 30t-60 14q-60 0 -122 -79zM150 0v1496h140v-1496h-140z" />
<glyph unicode="&#x129;" horiz-adv-x="564" d="M-43 1305q37 69 88.5 112.5t106.5 43.5q35 0 68.5 -14.5t65.5 -30.5t64.5 -30t62.5 -14q57 0 118 89l78 -48q-39 -82 -88.5 -119.5t-103.5 -37.5q-35 0 -68 13t-66 29t-65.5 30t-59.5 14q-60 0 -123 -80zM217 0v1063h136v-1063h-136z" />
<glyph unicode="&#x12a;" horiz-adv-x="442" d="M-33 1637v124h515v-124h-515zM150 0v1496h140v-1496h-140z" />
<glyph unicode="&#x12b;" horiz-adv-x="427" d="M-43 1264v127h514v-127h-514zM146 0v1063h135v-1063h-135z" />
<glyph unicode="&#x12c;" horiz-adv-x="476" d="M-43 1865h117q6 -56 51 -102.5t113 -46.5q76 0 120 46t48 103h115q-4 -41 -21.5 -86t-51 -83t-85 -62.5t-125.5 -24.5q-75 0 -127.5 24.5t-85.5 62.5t-49.5 83t-18.5 86zM164 0v1496h139v-1496h-139z" />
<glyph unicode="&#x12d;" horiz-adv-x="474" d="M-43 1490h114q7 -56 53 -102t112 -46q35 0 65 13t52.5 33t36.5 47.5t16 54.5h113q-5 -41 -22 -86t-49.5 -82.5t-84 -62t-127.5 -24.5q-75 0 -126.5 24.5t-84.5 62t-49.5 82.5t-18.5 86zM176 0v1063h136v-1063h-136z" />
<glyph unicode="&#x12e;" horiz-adv-x="442" d="M86 -197q0 41 18.5 91t61.5 106h-16v1496h140v-1496h-21q-72 -101 -72 -174q0 -52 28.5 -77.5t77.5 -25.5q25 0 53.5 7.5t64.5 24.5l37 -86q-37 -21 -84 -35t-97 -14q-86 0 -138.5 53.5t-52.5 129.5z" />
<glyph unicode="&#x12f;" horiz-adv-x="401" d="M74 -195q0 41 16.5 90t59.5 105h-17v1063h136v-1063h-13q-71 -101 -71 -172q0 -52 27.5 -77.5t77.5 -25.5q24 0 53 7.5t65 24.5l37 -86q-37 -21 -84 -35t-96 -14q-87 0 -139 53.5t-52 129.5zM131 1336v141h140v-141h-140z" />
<glyph unicode="&#x130;" horiz-adv-x="442" d="M150 0v1496h140v-1496h-140zM152 1645v146h138v-146h-138z" />
<glyph unicode="&#x131;" horiz-adv-x="401" d="M133 0v1063h136v-1063h-136z" />
<glyph unicode="&#x132;" horiz-adv-x="1229" d="M150 0v1496h140v-1496h-140zM385 109l99 94q37 -37 87.5 -60.5t101.5 -23.5q54 0 102 13.5t85 45t57.5 83t20.5 129.5v1106h141v-1118q0 -103 -31 -177t-86 -121t-128 -70t-157 -23q-86 0 -164 31t-128 91z" />
<glyph unicode="&#x133;" horiz-adv-x="796" d="M131 1336v141h140v-141h-140zM133 0v1063h136v-1063h-136zM372 -318h43q69 2 97 48t28 122v1211h137v-1239q0 -115 -60.5 -190t-181.5 -75h-63v123zM540 1336v139h139v-139h-139z" />
<glyph unicode="&#x134;" horiz-adv-x="851" d="M10 111l99 94q37 -37 88 -60.5t102 -23.5q54 0 102 13.5t85 45t57.5 83t20.5 129.5v1106h142v-1118q0 -103 -31.5 -177t-86.5 -121t-128 -69.5t-157 -22.5q-86 0 -164.5 30.5t-128.5 90.5zM310 1637l283 245h91l270 -243l-53 -59l-269 172l-269 -172z" />
<glyph unicode="&#x135;" horiz-adv-x="558" d="M-43 1245l286 288h90l269 -283l-60 -58l-261 210l-262 -212zM47 -318h43q70 2 97.5 48t27.5 122v1211h138v-1239q0 -115 -60.5 -190t-183.5 -75h-62v123z" />
<glyph unicode="&#x136;" horiz-adv-x="1094" d="M138 0v1496h139v-860h4q142 220 285.5 432t285.5 428h152q-97 -148 -193.5 -290.5t-193.5 -289.5l450 -916h-153l-383 788q-14 -19 -51 -73.5t-77 -114.5t-76.5 -112.5t-49.5 -72.5v-415h-139zM474 -464l57 189h-47v176h163v-174l-95 -191h-78z" />
<glyph unicode="&#x137;" horiz-adv-x="917" d="M121 0v1559h133v-1069h2q31 39 89.5 118.5t124.5 166.5t125 168t89 120h155l-299 -400q14 -29 43.5 -80.5t65 -116t74 -134.5t74.5 -134.5t64.5 -117t43.5 -80.5h-148l-303 554q-15 -18 -42 -55t-58.5 -78t-58 -78t-41.5 -57v-286h-133zM408 -507l58 189h-47v176h164 v-174l-95 -191h-80z" />
<glyph unicode="&#x138;" horiz-adv-x="909" d="M121 0v1063h133v-573h2q31 39 89.5 118.5t124.5 166.5t125 168t89 120h155l-299 -400l361 -663h-148l-299 554q-15 -18 -42 -56t-58.5 -79t-58 -78.5t-41.5 -56.5v-284h-133z" />
<glyph unicode="&#x139;" horiz-adv-x="938" d="M140 0v1496h137v-1363h626v-133h-763zM158 1630l298 241l94 -104l-335 -204z" />
<glyph unicode="&#x13a;" horiz-adv-x="453" d="M127 230v1329h135v-1303q0 -69 25 -104t91 -35h39v-123h-45q-56 0 -102 10.5t-78 37.5t-48.5 73.5t-16.5 114.5zM131 1652l299 240l95 -103l-336 -205z" />
<glyph unicode="&#x13b;" horiz-adv-x="938" d="M140 0v1496h137v-1363h626v-133h-763zM408 -507l58 189h-47v176h164v-174l-95 -191h-80z" />
<glyph unicode="&#x13c;" horiz-adv-x="453" d="M127 230v1329h135v-1303q0 -69 25 -104t91 -35h39v-123h-45q-56 0 -102 10.5t-78 37.5t-48.5 73.5t-16.5 114.5zM150 -490l59 189h-47v176h162v-174l-94 -191h-80z" />
<glyph unicode="&#x13d;" horiz-adv-x="938" d="M140 0v1496h137v-1363h626v-133h-763zM570 1114l58 189h-47v176h163v-174l-95 -191h-79z" />
<glyph unicode="&#x13e;" horiz-adv-x="546" d="M127 230v1329h135v-1303q0 -69 25 -104t91 -35h39v-123h-45q-56 0 -102 10.5t-78 37.5t-48.5 73.5t-16.5 114.5zM361 1176l58 189h-47v176h164v-173l-95 -192h-80z" />
<glyph unicode="&#x13f;" horiz-adv-x="938" d="M140 0v1496h137v-1363h626v-133h-763zM593 665v146h138v-146h-138z" />
<glyph unicode="&#x140;" horiz-adv-x="532" d="M127 230v1329h135v-1303q0 -69 25 -104t91 -35h39v-123h-45q-56 0 -102 10.5t-78 37.5t-48.5 73.5t-16.5 114.5zM385 722v146h138v-146h-138z" />
<glyph unicode="&#x141;" horiz-adv-x="960" d="M0 556l164 93v847h137v-767l275 159l48 -86l-323 -187v-482h626v-133h-763v536l-115 -65z" />
<glyph unicode="&#x142;" horiz-adv-x="507" d="M4 638l166 97v824h136v-746l152 90l47 -88l-199 -116v-443q0 -69 24.5 -104t90.5 -35h39v-123h-45q-56 0 -102 10.5t-78 37.5t-48.5 73.5t-16.5 114.5v392l-116 -68z" />
<glyph unicode="&#x143;" horiz-adv-x="1192" d="M138 0v1496h135q17 -32 50.5 -94t75.5 -140t87 -162.5t86 -161t74 -139t53 -93.5l212 -403l10 3v1190h137v-1496h-135l-431 800q-16 31 -45.5 85.5t-60.5 112.5t-60 113t-45 85h-4v-1196h-139zM501 1628l297 241q24 -26 47 -51t47 -53l-336 -202z" />
<glyph unicode="&#x144;" horiz-adv-x="930" d="M103 0v1063h135v-132h7q45 74 116.5 109t151.5 35q142 0 227 -88t85 -236v-751h-135v706q0 109 -57 171.5t-167 62.5q-103 0 -165.5 -69t-62.5 -179v-692h-135zM344 1230l155 348l133 -45l-206 -337z" />
<glyph unicode="&#x145;" horiz-adv-x="1192" d="M138 0v1496h135q17 -32 50.5 -94t75.5 -140t87 -162.5t86 -161t74 -139t53 -93.5l212 -403l10 3v1190h137v-1496h-135l-431 800q-16 31 -45.5 85.5t-60.5 112.5t-60 113t-45 85h-4v-1196h-139zM495 -464l57 189h-47v176h164v-174l-95 -191h-79z" />
<glyph unicode="&#x146;" horiz-adv-x="930" d="M103 0v1063h135v-132h7q45 74 116.5 109t151.5 35q142 0 227 -88t85 -236v-751h-135v706q0 109 -57 171.5t-167 62.5q-103 0 -165.5 -69t-62.5 -179v-692h-135zM376 -507l59 189h-48v176h163v-174l-94 -191h-80z" />
<glyph unicode="&#x147;" horiz-adv-x="1192" d="M138 0v1496h135q17 -32 50.5 -94t75.5 -140t87 -162.5t86 -161t74 -139t53 -93.5l212 -403l10 3v1190h137v-1496h-135l-431 800q-16 31 -45.5 85.5t-60.5 112.5t-60 113t-45 85h-4v-1196h-139zM286 1826l52 56l271 -175l267 173l55 -56l-271 -246h-90z" />
<glyph unicode="&#x148;" horiz-adv-x="930" d="M103 0v1063h135v-132h7q45 74 116.5 109t151.5 35q142 0 227 -88t85 -236v-751h-135v706q0 109 -57 171.5t-167 62.5q-103 0 -165.5 -69t-62.5 -179v-692h-135zM107 1482l63 53l263 -210l259 210l61 -58l-269 -287h-90z" />
<glyph unicode="&#x149;" horiz-adv-x="981" d="M0 1056l58 189h-48v177h164v-175l-94 -191h-80zM154 0v1063h136v-132h7q45 74 116 109t153 35q142 0 227 -88t85 -236v-751h-136v706q0 109 -57 171.5t-166 62.5q-103 0 -166 -69t-63 -179v-692h-136z" />
<glyph unicode="&#x14a;" horiz-adv-x="1199" d="M138 0v1496h133q39 -69 90.5 -165t110.5 -206t122.5 -228.5t123.5 -229.5l193 -366h10v1195h135v-1634q0 -118 -56 -167.5t-138 -49.5q-73 0 -148 37l35 96q53 -21 90 -21q84 0 84 105v142l-443 813q-9 15 -38 70t-62.5 117.5t-62.5 116t-38 69.5h-4v-1190h-137z" />
<glyph unicode="&#x14b;" horiz-adv-x="930" d="M103 0v1063h135v-132h7q45 74 119.5 109t154.5 35q148 0 227 -88t79 -236v-886q0 -121 -54.5 -171.5t-138.5 -50.5q-76 0 -150 37l35 96q24 -8 47 -13.5t43 -5.5q84 0 83 108v841q0 109 -51.5 171.5t-167.5 62.5q-102 0 -167.5 -71t-65.5 -181v-688h-135z" />
<glyph unicode="&#x14c;" horiz-adv-x="1055" d="M94 445v630q0 82 26 159t79 138.5t134.5 98.5t195.5 37q105 0 185 -36t134.5 -95t82.5 -137.5t28 -164.5v-647q0 -98 -31 -179t-88.5 -139.5t-135.5 -90.5t-175 -32q-111 0 -193 35.5t-136 98t-80 146.5t-26 178zM232 443q0 -71 18.5 -131t56 -104t93.5 -69t131 -25 q60 0 113 23t91.5 63t60 96.5t21.5 120.5v656q0 49 -16 103t-50.5 98t-89 73.5t-132.5 29.5q-77 0 -133 -27t-92.5 -70t-54 -98t-17.5 -109v-630zM267 1637v124h513v-124h-513z" />
<glyph unicode="&#x14d;" horiz-adv-x="921" d="M86 525q0 103 8.5 192t32.5 149q41 101 127.5 155t211.5 54q107 0 179.5 -42t115.5 -108q41 -56 56.5 -163.5t15.5 -232.5q0 -39 -3 -85t-8 -92t-12.5 -87t-15.5 -70q-41 -116 -134.5 -163t-210.5 -47q-109 0 -179 40.5t-108 105.5q-43 58 -59.5 160.5t-16.5 233.5z M209 1264v127h513v-127h-513zM219 509q0 -109 10.5 -183t41.5 -117q58 -101 187 -102q71 0 129 35.5t84 111.5q17 43 21.5 119t4.5 167q0 96 -8 168t-24 111q-27 66 -79.5 99.5t-123.5 33.5q-69 0 -122.5 -31t-83.5 -94q-24 -43 -30.5 -125t-6.5 -193z" />
<glyph unicode="&#x14e;" horiz-adv-x="1055" d="M94 445v630q0 82 26 159t79 138.5t134.5 98.5t195.5 37q105 0 185 -36t134.5 -95t82.5 -137.5t28 -164.5v-647q0 -98 -31 -179t-88.5 -139.5t-135.5 -90.5t-175 -32q-111 0 -193 35.5t-136 98t-80 146.5t-26 178zM232 443q0 -71 18.5 -131t56 -104t93.5 -69t131 -25 q60 0 113 23t91.5 63t60 96.5t21.5 120.5v656q0 49 -16 103t-50.5 98t-89 73.5t-132.5 29.5q-77 0 -133 -27t-92.5 -70t-54 -98t-17.5 -109v-630zM250 1853h115q7 -55 52 -101.5t114 -46.5q76 0 120 46.5t48 101.5h114q-5 -41 -22 -86t-50 -82.5t-85 -62t-125 -24.5 q-75 0 -127.5 24.5t-86 62t-49.5 82.5t-18 86z" />
<glyph unicode="&#x14f;" horiz-adv-x="921" d="M86 525q0 103 8.5 192t32.5 149q41 101 127.5 155t211.5 54q107 0 179.5 -42t115.5 -108q41 -56 56.5 -163.5t15.5 -232.5q0 -39 -3 -85t-8 -92t-12.5 -87t-15.5 -70q-41 -116 -134.5 -163t-210.5 -47q-109 0 -179 40.5t-108 105.5q-43 58 -59.5 160.5t-16.5 233.5z M178 1477h115q6 -55 52.5 -101.5t112.5 -46.5q34 0 64 12.5t52.5 33t37 47.5t16.5 55h112q-4 -41 -21.5 -86t-50 -83t-84 -62.5t-126.5 -24.5q-76 0 -127.5 24.5t-84.5 62.5t-49 83t-19 86zM219 509q0 -109 10.5 -183t41.5 -117q58 -101 187 -102q71 0 129 35.5t84 111.5 q17 43 21.5 119t4.5 167q0 96 -8 168t-24 111q-27 66 -79.5 99.5t-123.5 33.5q-69 0 -122.5 -31t-83.5 -94q-24 -43 -30.5 -125t-6.5 -193z" />
<glyph unicode="&#x150;" horiz-adv-x="1055" d="M94 445v630q0 82 26 159t79 138.5t134.5 98.5t195.5 37q105 0 185 -36t134.5 -95t82.5 -137.5t28 -164.5v-647q0 -98 -31 -179t-88.5 -139.5t-135.5 -90.5t-175 -32q-111 0 -193 35.5t-136 98t-80 146.5t-26 178zM232 443q0 -71 18.5 -131t56 -104t93.5 -69t131 -25 q60 0 113 23t91.5 63t60 96.5t21.5 120.5v656q0 49 -16 103t-50.5 98t-89 73.5t-132.5 29.5q-77 0 -133 -27t-92.5 -70t-54 -98t-17.5 -109v-630zM252 1632l296 239l97 -104l-337 -201zM568 1632l296 239l95 -104l-337 -201z" />
<glyph unicode="&#x151;" horiz-adv-x="921" d="M86 525q0 103 8.5 192t32.5 149q41 101 127.5 155t211.5 54q107 0 179.5 -42t115.5 -108q41 -56 56.5 -163.5t15.5 -232.5q0 -39 -3 -85t-8 -92t-12.5 -87t-15.5 -70q-41 -116 -134.5 -163t-210.5 -47q-109 0 -179 40.5t-108 105.5q-43 58 -59.5 160.5t-16.5 233.5z M219 509q0 -109 10.5 -183t41.5 -117q58 -101 187 -102q71 0 129 35.5t84 111.5q17 43 21.5 119t4.5 167q0 96 -8 168t-24 111q-27 66 -79.5 99.5t-123.5 33.5q-69 0 -122.5 -31t-83.5 -94q-24 -43 -30.5 -125t-6.5 -193zM284 1230l153 348l133 -45l-207 -337zM523 1230 l154 348l131 -45l-206 -337z" />
<glyph unicode="&#x152;" horiz-adv-x="1510" d="M94 464v587q0 84 23 166t73 146.5t132 104.5t203 40q33 0 62.5 -3t59.5 -9h775v-128h-640v-547h549v-122h-549v-568h640v-131h-768q-58 -13 -129 -13q-125 0 -208 36.5t-132.5 101t-70 151.5t-20.5 188zM230 464q0 -78 16 -141t51.5 -110t91.5 -73t138 -26q66 0 118 21 v1222q-49 20 -118 20q-88 0 -146.5 -31.5t-91.5 -81t-46 -111t-13 -121.5v-568z" />
<glyph unicode="&#x153;" horiz-adv-x="1515" d="M86 525q0 103 7.5 192t31.5 147q41 103 129 156t210 53q78 0 139.5 -23.5t104.5 -62.5q43 -41 64 -95q36 82 108 131.5t193 49.5q97 0 165.5 -33.5t112.5 -92.5t64.5 -141t20.5 -178v-131h-601q0 -89 10.5 -160.5t38 -123t77.5 -80t127 -28.5q69 0 124.5 39t82.5 94 l111 -57q-41 -93 -125 -143.5t-189 -50.5q-129 0 -207.5 43.5t-119.5 133.5q-24 -41 -49 -67q-49 -58 -117 -84t-152 -26q-111 0 -192 43.5t-124 141.5q-26 62 -35.5 152.5t-9.5 200.5zM217 509q0 -77 5.5 -146.5t29.5 -126.5q54 -131 204 -131q73 0 130 39t85 114 q15 43 20.5 116t5.5 164q0 96 -8 169t-24 112q-27 66 -80.5 99.5t-124.5 33.5q-69 0 -122.5 -31t-83.5 -94q-21 -43 -29 -125t-8 -193zM837 604h466v3q0 60 -9.5 120.5t-35 109.5t-71.5 80t-114 31q-69 0 -113 -25.5t-71 -72t-38.5 -110t-13.5 -136.5z" />
<glyph unicode="&#x154;" horiz-adv-x="1072" d="M140 0v1496h451q191 0 294.5 -106t103.5 -300q0 -148 -68.5 -251.5t-208.5 -146.5l297 -692h-153l-280 675l-299 -2v-673h-137zM277 794h289q138 0 210.5 76t72.5 220q0 140 -71.5 210t-211.5 70h-289v-576zM370 1630l299 241l94 -104l-335 -204z" />
<glyph unicode="&#x155;" horiz-adv-x="642" d="M131 0v1063h134v-147h6q45 92 114 125.5t157 33.5q28 0 54 -5t44 -14l-29 -145q-24 11 -51 16.5t-51 5.5q-109 0 -176.5 -68.5t-67.5 -201.5v-663h-134zM267 1230l154 348l133 -45l-205 -337z" />
<glyph unicode="&#x156;" horiz-adv-x="1072" d="M140 0v1496h451q191 0 294.5 -106t103.5 -300q0 -148 -68.5 -251.5t-208.5 -146.5l297 -692h-153l-280 675l-299 -2v-673h-137zM277 794h289q138 0 210.5 76t72.5 220q0 140 -71.5 210t-211.5 70h-289v-576zM441 -464l58 189h-47v176h163v-174l-94 -191h-80z" />
<glyph unicode="&#x157;" horiz-adv-x="642" d="M103 -507l59 189h-48v176h163v-174l-94 -191h-80zM131 0v1063h134v-147h6q45 92 114 125.5t157 33.5q28 0 54 -5t44 -14l-29 -145q-24 11 -51 16.5t-51 5.5q-109 0 -176.5 -68.5t-67.5 -201.5v-663h-134z" />
<glyph unicode="&#x158;" horiz-adv-x="1072" d="M140 0v1496h451q191 0 294.5 -106t103.5 -300q0 -148 -68.5 -251.5t-208.5 -146.5l297 -692h-153l-280 675l-299 -2v-673h-137zM181 1826l51 56l271 -175l267 173l55 -56l-271 -246h-90zM277 794h289q138 0 210.5 76t72.5 220q0 140 -71.5 210t-211.5 70h-289v-576z" />
<glyph unicode="&#x159;" horiz-adv-x="642" d="M-13 1482l62 53l263 -210l260 210l60 -58l-269 -287h-90zM131 0v1063h134v-147h6q45 92 114 125.5t157 33.5q28 0 54 -5t44 -14l-29 -145q-24 11 -51 16.5t-51 5.5q-109 0 -176.5 -68.5t-67.5 -201.5v-663h-134z" />
<glyph unicode="&#x15a;" horiz-adv-x="1012" d="M56 236l122 72q46 -80 125.5 -134.5t201.5 -54.5q150 0 219.5 78t69.5 203q0 69 -20.5 116.5t-58.5 80.5t-91.5 56.5t-120.5 45.5q-109 33 -187 69t-127 83.5t-72 110t-23 146.5q0 88 29 162t83 126.5t131.5 83t175.5 30.5q164 0 257.5 -54t147.5 -142l-120 -81 q-43 75 -112 110.5t-179 35.5q-133 0 -202 -79t-69 -192q0 -62 25 -106.5t70 -75.5t106.5 -56t136.5 -49q97 -30 165.5 -66.5t113 -85.5t66 -115t21.5 -154q0 -189 -113 -302t-324 -113q-170 0 -281 68t-166 183zM402 1630l299 241l95 -104l-336 -204z" />
<glyph unicode="&#x15b;" horiz-adv-x="855" d="M58 195l112 63q74 -150 258 -151q97 0 158 45t61 143q0 47 -16 78t-46.5 51.5t-70.5 35t-91 26.5q-78 19 -139.5 42.5t-106 57.5t-68 81t-23.5 113q0 136 90.5 215.5t249.5 79.5q136 0 219.5 -51.5t119.5 -143.5l-116 -59q-31 66 -88.5 98.5t-137.5 32.5 q-105 0 -154.5 -50t-49.5 -122q0 -43 20.5 -69.5t56 -46t81.5 -32t101 -28.5q75 -17 132 -40.5t95.5 -60.5t57.5 -87.5t19 -122.5q0 -138 -91 -223t-270 -85q-265 0 -363 210zM333 1230l155 348l134 -45l-207 -337z" />
<glyph unicode="&#x15c;" horiz-adv-x="1012" d="M56 236l122 72q46 -80 125.5 -134.5t201.5 -54.5q150 0 219.5 78t69.5 203q0 69 -20.5 116.5t-58.5 80.5t-91.5 56.5t-120.5 45.5q-109 33 -187 69t-127 83.5t-72 110t-23 146.5q0 88 29 162t83 126.5t131.5 83t175.5 30.5q164 0 257.5 -54t147.5 -142l-120 -81 q-43 75 -112 110.5t-179 35.5q-133 0 -202 -79t-69 -192q0 -62 25 -106.5t70 -75.5t106.5 -56t136.5 -49q97 -30 165.5 -66.5t113 -85.5t66 -115t21.5 -154q0 -189 -113 -302t-324 -113q-170 0 -281 68t-166 183zM185 1632l283 245h91l272 -243l-55 -58l-269 172l-269 -172z " />
<glyph unicode="&#x15d;" horiz-adv-x="855" d="M58 195l112 63q74 -150 258 -151q97 0 158 45t61 143q0 47 -16 78t-46.5 51.5t-70.5 35t-91 26.5q-78 19 -139.5 42.5t-106 57.5t-68 81t-23.5 113q0 136 90.5 215.5t249.5 79.5q136 0 219.5 -51.5t119.5 -143.5l-116 -59q-31 66 -88.5 98.5t-137.5 32.5 q-105 0 -154.5 -50t-49.5 -122q0 -43 20.5 -69.5t56 -46t81.5 -32t101 -28.5q75 -17 132 -40.5t95.5 -60.5t57.5 -87.5t19 -122.5q0 -138 -91 -223t-270 -85q-265 0 -363 210zM107 1245l285 288h90l271 -283l-63 -58l-260 210l-260 -212z" />
<glyph unicode="&#x15e;" horiz-adv-x="1012" d="M56 236l122 72q46 -80 125.5 -134.5t201.5 -54.5q150 0 219.5 78t69.5 203q0 69 -20.5 116.5t-58.5 80.5t-91.5 56.5t-120.5 45.5q-109 33 -187 69t-127 83.5t-72 110t-23 146.5q0 88 29 162t83 126.5t131.5 83t175.5 30.5q164 0 257.5 -54t147.5 -142l-120 -81 q-43 75 -112 110.5t-179 35.5q-133 0 -202 -79t-69 -192q0 -62 25 -106.5t70 -75.5t106.5 -56t136.5 -49q97 -30 165.5 -66.5t113 -85.5t66 -115t21.5 -154q0 -183 -103.5 -292.5t-296.5 -120.5q-9 -24 -15 -47.5t-14 -46.5q56 -2 92.5 -19.5t58.5 -42t30.5 -53t8.5 -51.5 q0 -26 -11 -54t-33.5 -51.5t-57.5 -39t-88 -15.5q-24 0 -75 5t-103 28l26 67q39 -17 75.5 -22.5t64.5 -5.5q39 0 71 21.5t32 66.5q0 43 -35.5 69t-90.5 26h-16l-37 30q11 35 21 68t20 67q-154 9 -254.5 74.5t-153.5 174.5z" />
<glyph unicode="&#x15f;" horiz-adv-x="855" d="M58 195l112 63q74 -150 258 -151q97 0 158 45t61 143q0 47 -16 78t-46.5 51.5t-70.5 35t-91 26.5q-78 19 -139.5 42.5t-106 57.5t-68 81t-23.5 113q0 136 90.5 215.5t249.5 79.5q136 0 219.5 -51.5t119.5 -143.5l-116 -59q-31 66 -88.5 98.5t-137.5 32.5 q-105 0 -154.5 -50t-49.5 -122q0 -43 20.5 -69.5t56 -46t81.5 -32t101 -28.5q75 -17 132 -40.5t95.5 -60.5t57.5 -87.5t19 -122.5q0 -129 -79 -212t-235 -94l-27 -94q56 -2 92.5 -19.5t58 -42t30 -53t8.5 -51.5q0 -26 -10.5 -54t-33 -51.5t-58.5 -39t-87 -15.5 q-24 0 -75.5 5t-103.5 28l26 67q39 -17 75.5 -22.5t64.5 -5.5q39 0 71 21.5t32 66.5q0 43 -35.5 69t-91.5 26h-14l-37 30l39 133q-121 7 -204 57t-130 153z" />
<glyph unicode="&#x160;" horiz-adv-x="1012" d="M56 236l122 72q46 -80 125.5 -134.5t201.5 -54.5q150 0 219.5 78t69.5 203q0 69 -20.5 116.5t-58.5 80.5t-91.5 56.5t-120.5 45.5q-109 33 -187 69t-127 83.5t-72 110t-23 146.5q0 88 29 162t83 126.5t131.5 83t175.5 30.5q164 0 257.5 -54t147.5 -142l-120 -81 q-43 75 -112 110.5t-179 35.5q-133 0 -202 -79t-69 -192q0 -62 25 -106.5t70 -75.5t106.5 -56t136.5 -49q97 -30 165.5 -66.5t113 -85.5t66 -115t21.5 -154q0 -189 -113 -302t-324 -113q-170 0 -281 68t-166 183zM158 1826l51 56l271 -175l267 173l55 -56l-271 -246h-90z " />
<glyph unicode="&#x161;" horiz-adv-x="855" d="M58 195l112 63q74 -150 258 -151q97 0 158 45t61 143q0 47 -16 78t-46.5 51.5t-70.5 35t-91 26.5q-78 19 -139.5 42.5t-106 57.5t-68 81t-23.5 113q0 136 90.5 215.5t249.5 79.5q136 0 219.5 -51.5t119.5 -143.5l-116 -59q-31 66 -88.5 98.5t-137.5 32.5 q-105 0 -154.5 -50t-49.5 -122q0 -43 20.5 -69.5t56 -46t81.5 -32t101 -28.5q75 -17 132 -40.5t95.5 -60.5t57.5 -87.5t19 -122.5q0 -138 -91 -223t-270 -85q-265 0 -363 210zM78 1482l62 53l262 -210l261 210l59 -58l-268 -287h-91z" />
<glyph unicode="&#x162;" horiz-adv-x="862" d="M6 1370v126h848v-126h-353v-1370h-138v1370h-357zM344 -507l58 189h-47v176h164v-174l-96 -191h-79z" />
<glyph unicode="&#x163;" horiz-adv-x="523" d="M37 950v113h127v279h135v-279h163v-113h-163v-677q0 -71 25 -111.5t99 -40.5h59v-121h-88q-117 0 -173.5 64.5t-56.5 173.5v712h-127zM170 -507l58 189h-47v176h163v-174l-94 -191h-80z" />
<glyph unicode="&#x164;" horiz-adv-x="862" d="M6 1370v126h848v-126h-353v-1370h-138v1370h-357zM117 1826l51 56l271 -175l267 173l55 -56l-271 -246h-90z" />
<glyph unicode="&#x165;" horiz-adv-x="584" d="M37 950v113h127v279h135v-279h163v-113h-163v-677q0 -71 25 -111.5t99 -40.5h59v-121h-88q-117 0 -173.5 64.5t-56.5 173.5v712h-127zM430 1233l58 189h-47v176h163v-174l-95 -191h-79z" />
<glyph unicode="&#x166;" horiz-adv-x="862" d="M6 1370v126h848v-126h-353v-527h275v-114h-275v-729h-138v729h-269v114h269v527h-357z" />
<glyph unicode="&#x167;" horiz-adv-x="523" d="M37 950v113h127v279h135v-279h163v-113h-163v-210h155v-114h-155v-353q0 -71 25 -111.5t99 -40.5h59v-121h-88q-117 0 -173.5 64.5t-56.5 173.5v388h-123v114h123v210h-127z" />
<glyph unicode="&#x168;" horiz-adv-x="1096" d="M119 419v1077h135v-1077q0 -64 21.5 -119t61 -94.5t93.5 -63t118 -23.5q125 0 209 78t84 220v1079h140v-1079q0 -101 -33.5 -180t-91.5 -135.5t-137 -85.5t-171 -29q-96 0 -174.5 31t-135.5 87.5t-88 136.5t-31 177zM222 1671q36 69 87.5 112t107.5 43q35 0 68.5 -14 t65.5 -30.5t64 -30t62 -13.5q58 0 119 88l77 -47q-39 -82 -88.5 -120t-103.5 -38q-34 0 -67 13t-67 29t-66 30t-60 14q-60 0 -122 -79z" />
<glyph unicode="&#x169;" horiz-adv-x="946" d="M107 310v753h136v-708q0 -109 59 -173.5t164 -64.5q103 0 166 70.5t63 182.5v693h132v-1063h-132v129h-7q-45 -75 -117 -108.5t-152 -33.5q-142 0 -227 87.5t-85 235.5zM125 1305q37 69 88.5 112.5t106.5 43.5q35 0 68 -14.5t65.5 -30.5t64.5 -30t63 -14q57 0 118 89 l77 -48q-39 -82 -88.5 -119.5t-102.5 -37.5q-35 0 -68 13t-66.5 29t-65.5 30t-61 14q-59 0 -121 -80z" />
<glyph unicode="&#x16a;" horiz-adv-x="1096" d="M119 419v1077h135v-1077q0 -64 21.5 -119t61 -94.5t93.5 -63t118 -23.5q125 0 209 78t84 220v1079h140v-1079q0 -101 -33.5 -180t-91.5 -135.5t-137 -85.5t-171 -29q-96 0 -174.5 31t-135.5 87.5t-88 136.5t-31 177zM297 1637v124h514v-124h-514z" />
<glyph unicode="&#x16b;" horiz-adv-x="946" d="M107 310v753h136v-708q0 -109 59 -173.5t164 -64.5q103 0 166 70.5t63 182.5v693h132v-1063h-132v129h-7q-45 -75 -117 -108.5t-152 -33.5q-142 0 -227 87.5t-85 235.5zM211 1264v127h513v-127h-513z" />
<glyph unicode="&#x16c;" horiz-adv-x="1096" d="M119 419v1077h135v-1077q0 -64 21.5 -119t61 -94.5t93.5 -63t118 -23.5q125 0 209 78t84 220v1079h140v-1079q0 -101 -33.5 -180t-91.5 -135.5t-137 -85.5t-171 -29q-96 0 -174.5 31t-135.5 87.5t-88 136.5t-31 177zM273 1800h114q7 -56 53 -102t112 -46q35 0 65 12.5 t52.5 33t36.5 47.5t16 55h113q-4 -41 -21.5 -86.5t-50 -82.5t-84 -62t-127.5 -25q-75 0 -126.5 25t-84.5 62t-49.5 82.5t-18.5 86.5z" />
<glyph unicode="&#x16d;" horiz-adv-x="946" d="M107 310v753h136v-708q0 -109 59 -173.5t164 -64.5q103 0 166 70.5t63 182.5v693h132v-1063h-132v129h-7q-45 -75 -117 -108.5t-152 -33.5q-142 0 -227 87.5t-85 235.5zM200 1477h114q6 -55 52.5 -101.5t113.5 -46.5q34 0 64 12.5t53 33t36.5 47.5t15.5 55h112 q-4 -41 -21.5 -86t-49.5 -83t-84 -62.5t-126 -24.5q-76 0 -127.5 24.5t-85 62.5t-49 83t-18.5 86z" />
<glyph unicode="&#x16e;" horiz-adv-x="1096" d="M119 419v1077h135v-1077q0 -64 21.5 -119t61 -94.5t93.5 -63t118 -23.5q125 0 209 78t84 220v1079h140v-1079q0 -101 -33.5 -180t-91.5 -135.5t-137 -85.5t-171 -29q-96 0 -174.5 31t-135.5 87.5t-88 136.5t-31 177zM365 1714q0 38 14.5 72t40 58.5t58.5 39t72 14.5 q37 0 69.5 -14.5t57 -39t38.5 -58.5t14 -72q0 -74 -52.5 -126.5t-126.5 -52.5q-78 0 -131.5 53t-53.5 126zM439 1714q0 -43 32 -73t79 -30q43 0 75.5 30t32.5 73q0 47 -32.5 78.5t-75.5 31.5q-47 0 -79 -31.5t-32 -78.5z" />
<glyph unicode="&#x16f;" horiz-adv-x="946" d="M107 310v753h136v-708q0 -109 59 -173.5t164 -64.5q103 0 166 70.5t63 182.5v693h132v-1063h-132v129h-7q-45 -75 -117 -108.5t-152 -33.5q-142 0 -227 87.5t-85 235.5zM297 1365q0 39 13.5 72.5t39.5 58t59.5 40t72.5 15.5q37 0 69 -15.5t56.5 -40t38.5 -58t14 -72.5 q0 -73 -52.5 -126t-125.5 -53q-78 0 -131.5 53.5t-53.5 125.5zM370 1365q0 -43 32.5 -73t79.5 -30q43 0 75 30.5t32 72.5q0 47 -32 78.5t-75 31.5q-47 0 -79.5 -31t-32.5 -79z" />
<glyph unicode="&#x170;" horiz-adv-x="1096" d="M119 419v1077h135v-1077q0 -64 21.5 -119t61 -94.5t93.5 -63t118 -23.5q125 0 209 78t84 220v1079h140v-1079q0 -101 -33.5 -180t-91.5 -135.5t-137 -85.5t-171 -29q-96 0 -174.5 31t-135.5 87.5t-88 136.5t-31 177zM297 1632l296 239l97 -104l-337 -201zM613 1632 l296 239l95 -104l-337 -201z" />
<glyph unicode="&#x171;" horiz-adv-x="946" d="M107 310v753h136v-708q0 -109 59 -173.5t164 -64.5q103 0 166 70.5t63 182.5v693h132v-1063h-132v129h-7q-45 -75 -117 -108.5t-152 -33.5q-142 0 -227 87.5t-85 235.5zM284 1230l153 348l133 -45l-207 -337zM523 1230l154 348l131 -45l-206 -337z" />
<glyph unicode="&#x172;" horiz-adv-x="1096" d="M119 419v1077h135v-1077q0 -64 21.5 -119t61 -94.5t93.5 -63t118 -23.5q125 0 209 78t84 220v1079h140v-1079q0 -93 -28 -168t-78 -129t-118.5 -87t-147.5 -41q-62 -93 -63 -162q0 -52 28 -77.5t78 -25.5q24 0 52.5 7.5t65.5 25.5l36 -87q-36 -21 -83.5 -35t-96.5 -14 q-86 0 -138.5 53.5t-52.5 129.5q0 39 15.5 85t52.5 98q-174 14 -279 129t-105 300z" />
<glyph unicode="&#x173;" horiz-adv-x="946" d="M107 310v753h136v-708q0 -109 59 -173.5t164 -64.5q103 0 166 70.5t63 182.5v693h132v-1063h-33q-70 -94 -70 -170q0 -52 28 -77.5t79 -25.5q24 0 52 7.5t65 25.5l37 -87q-37 -21 -84 -35t-97 -14q-86 0 -138.5 53.5t-52.5 129.5q0 43 18 92.5t64 106.5v123h-7 q-45 -75 -117 -108.5t-152 -33.5q-142 0 -227 87.5t-85 235.5z" />
<glyph unicode="&#x174;" horiz-adv-x="1502" d="M37 1496h141l130 -673l98 -548h7l112 495l167 726h119l172 -739l107 -482h6l94 510l130 711h145l-304 -1496h-129l-168 722q-30 123 -56 247.5t-55 247.5h-6q-29 -119 -53.5 -231.5t-50.5 -234.5l-45 -195t-47.5 -205t-44 -193t-35.5 -158h-131q-75 376 -150.5 748 t-152.5 748zM426 1632l284 245h90l271 -243l-54 -58l-268 172l-269 -172z" />
<glyph unicode="&#x175;" horiz-adv-x="1344" d="M17 1060h143l141 -555q25 -90 42.5 -167.5t28.5 -122.5h8l74 275q12 48 32.5 124t43 160t43 161.5t34.5 124.5h130q78 -281 149 -561q17 -74 36.5 -146t38.5 -144h7l73 283q4 17 15 61t24.5 101.5t30 121t30.5 121t24.5 101t14.5 62.5h143l-291 -1060h-131l-148 536 q-6 20 -17.5 61t-23 86.5t-23.5 86.5t-18 65h-2l-86 -318l-142 -517h-133zM349 1245l283 288h90l271 -283l-62 -58l-260 210l-260 -212z" />
<glyph unicode="&#x176;" horiz-adv-x="919" d="M15 1496h145q43 -107 87.5 -211.5t87.5 -209.5q30 -71 59 -147t60 -148l146 345l155 371h142l-374 -872v-624h-133v624zM138 1632l283 245h90l271 -243l-53 -58l-269 172l-269 -172z" />
<glyph unicode="&#x177;" horiz-adv-x="806" d="M6 1060h144q35 -114 69.5 -225t68.5 -222q8 -32 24.5 -87t34.5 -114t33.5 -114t25.5 -87h5q12 45 31.5 112t43 146t48.5 164t49 165t44 147.5t33 114.5h140l-394 -1286q-64 -211 -254 -211h-49v117h43q62 0 95.5 42t55.5 118l52 173q-89 262 -172 522.5t-171 524.5z M84 1245l284 288h90l271 -283l-62 -58l-261 210l-260 -212z" />
<glyph unicode="&#x178;" horiz-adv-x="919" d="M15 1496h145q43 -107 87.5 -211.5t87.5 -209.5q30 -71 59 -147t60 -148l146 345l155 371h142l-374 -872v-624h-133v624zM217 1609v143h140v-143h-140zM572 1609v143h138v-143h-138z" />
<glyph unicode="&#x179;" horiz-adv-x="870" d="M54 0v127l615 1243h-585v126h733v-119l-614 -1246h608v-131h-757zM342 1630l298 241l95 -104l-335 -204z" />
<glyph unicode="&#x17a;" horiz-adv-x="775" d="M58 0v119l510 823h-476v118h628v-114l-509 -821h505v-125h-658zM338 1230l154 348l134 -45l-207 -337z" />
<glyph unicode="&#x17b;" horiz-adv-x="870" d="M54 0v127l615 1243h-585v126h733v-119l-614 -1246h608v-131h-757zM392 1645v146h137v-146h-137z" />
<glyph unicode="&#x17c;" horiz-adv-x="775" d="M58 0v119l510 823h-476v118h628v-114l-509 -821h505v-125h-658zM355 1280v146h137v-146h-137z" />
<glyph unicode="&#x17d;" horiz-adv-x="870" d="M54 0v127l615 1243h-585v126h733v-119l-614 -1246h608v-131h-757zM127 1826l51 56l271 -175l267 173l56 -56l-271 -246h-90z" />
<glyph unicode="&#x17e;" horiz-adv-x="775" d="M58 0v119l510 823h-476v118h628v-114l-509 -821h505v-125h-658zM71 1482l62 53l263 -210l260 210l60 -58l-269 -287h-90z" />
<glyph unicode="&#x192;" horiz-adv-x="913" d="M-13 -166l37 108q58 -19 109 -20q89 0 133 73.5t65 226.5q0 6 5.5 48t13 100t16 127t16.5 126.5t13 99.5t7 49h-172v116h189l28 216q11 77 32.5 150t60.5 127.5t98 88.5t147 34q37 0 74.5 -7t67.5 -18q-6 -30 -14 -58t-16 -62q-29 10 -60 15t-57 5q-90 0 -137.5 -70 t-63.5 -201q-3 -11 -6 -42.5t-8.5 -66.5t-10 -66.5t-6.5 -44.5h211v-116h-223q-5 -26 -16 -104.5t-21.5 -169t-21.5 -168.5t-15 -104q-24 -200 -94.5 -310.5t-221.5 -110.5q-37 0 -79.5 7t-79.5 22z" />
<glyph unicode="&#x1a0;" horiz-adv-x="1094" d="M94 445v630q0 82 26 159t79 138.5t134.5 98.5t195.5 37q101 0 178.5 -33.5t133.5 -89.5q69 6 98 52.5t29 149.5v75h124v-75q0 -130 -40.5 -207t-137.5 -100q45 -95 45 -205v-647q0 -98 -31 -179t-88.5 -139.5t-135.5 -90.5t-175 -32q-111 0 -193 35.5t-136 98t-80 146.5 t-26 178zM232 443q0 -71 18.5 -131t56 -104t93.5 -69t131 -25q60 0 113 23t91.5 63t60 96.5t21.5 120.5v656q0 49 -16 103t-50.5 98t-89 73.5t-132.5 29.5q-77 0 -133 -27t-92.5 -70t-54 -98t-17.5 -109v-630z" />
<glyph unicode="&#x1a1;" horiz-adv-x="986" d="M86 525q0 103 8.5 192t32.5 149q41 101 127.5 155t211.5 54q90 0 157 -31t110 -80q78 2 109 49t31 153v73h125v-78q0 -135 -46.5 -213t-155.5 -96q19 -62 28 -146t9 -177q0 -39 -3 -85t-8 -92t-12.5 -87t-15.5 -70q-41 -116 -134.5 -163t-210.5 -47q-109 0 -179 40.5 t-108 105.5q-43 58 -59.5 160.5t-16.5 233.5zM219 509q0 -109 10.5 -183t41.5 -117q58 -101 187 -102q71 0 129 35.5t84 111.5q17 43 21.5 119t4.5 167q0 96 -8 168t-24 111q-27 66 -79.5 99.5t-123.5 33.5q-69 0 -122.5 -31t-83.5 -94q-24 -43 -30.5 -125t-6.5 -193z" />
<glyph unicode="&#x1af;" horiz-adv-x="1184" d="M119 419v1077h135v-1077q0 -64 21.5 -119t61 -94.5t93.5 -63t118 -23.5q125 0 209 78t84 220v1079h140v-111q71 6 100 53.5t29 150.5v73h123v-80q0 -148 -57.5 -227.5t-194.5 -86.5v-851q0 -101 -33.5 -180t-91.5 -135.5t-137 -85.5t-171 -29q-96 0 -174.5 31 t-135.5 87.5t-88 136.5t-31 177z" />
<glyph unicode="&#x1b0;" horiz-adv-x="1059" d="M107 310v753h136v-708q0 -109 59 -173.5t164 -64.5q103 0 166 70.5t63 182.5v693h132v-99q72 4 101 51.5t29 150.5v73h125v-78q0 -148 -58 -228.5t-197 -87.5v-845h-132v129h-7q-45 -75 -117 -108.5t-152 -33.5q-142 0 -227 87.5t-85 235.5z" />
<glyph unicode="&#x1fc;" horiz-adv-x="1691" d="M10 0q192 376 383.5 748t384.5 748h845v-128h-638v-545h550v-124h-550v-568h638v-131h-776v408h-482l-211 -408h-144zM428 533h419v811l-8 2q-103 -205 -205.5 -407t-205.5 -406zM1020 1630l298 241l95 -104l-336 -204z" />
<glyph unicode="&#x1fd;" horiz-adv-x="1483" d="M71 290q0 150 89.5 238.5t272.5 88.5h230v146q0 86 -53.5 135.5t-162.5 49.5q-66 0 -127.5 -23.5t-95.5 -81.5q-27 17 -52.5 34.5t-50.5 33.5q49 82 135 123t189 41q105 0 188 -31t126 -113q43 74 114 109t165 35q97 0 167 -33t114 -92.5t64.5 -140t20.5 -177.5v-133 h-602q0 -76 8.5 -145.5t35.5 -125.5t76.5 -89.5t131.5 -33.5q70 0 123 34.5t83 88.5l108 -60q-43 -90 -124 -135.5t-184 -45.5q-114 0 -199 39.5t-130 135.5q-78 -99 -165.5 -137t-185.5 -38q-152 0 -230.5 87.5t-78.5 215.5zM200 299q0 -84 55 -136t166 -52t176.5 57.5 t65.5 158.5v172h-242q-43 0 -82.5 -9.5t-71 -33t-49.5 -61.5t-18 -96zM688 1230l155 348l133 -45l-206 -337zM806 611h464q0 71 -11.5 132t-38 107.5t-70.5 72t-109 25.5q-70 0 -113.5 -25.5t-70 -72t-38 -108t-13.5 -131.5z" />
<glyph unicode="&#x1fe;" horiz-adv-x="1055" d="M84 30l80 142q-37 58 -53.5 127t-16.5 146v630q0 82 26 159t79 138.5t134.5 98.5t195.5 37q97 0 172 -30.5t130 -82.5l64 115l69 -41l-78 -140q74 -114 73 -254v-647q0 -98 -31 -179t-88.5 -139.5t-135.5 -90.5t-175 -32q-105 0 -183.5 31t-132.5 87l-65 -115 q-17 10 -33 19.5t-31 20.5zM232 443q0 -30 3.5 -60t12.5 -56q129 234 255.5 467.5t255.5 467.5q-35 49 -91.5 82t-138.5 33q-77 0 -133 -27t-92.5 -70t-54 -98t-17.5 -109v-630zM284 236q36 -55 97.5 -88.5t149.5 -33.5q60 0 113 23t91.5 63t60 96.5t21.5 120.5v656 q0 54 -15 101q-129 -236 -259 -469.5t-259 -468.5zM380 1630l299 241l95 -104l-335 -204z" />
<glyph unicode="&#x1ff;" horiz-adv-x="921" d="M86 45l66 99q-36 60 -51 158t-15 223q0 103 8.5 192t32.5 149q41 101 127.5 155t211.5 54q82 0 143.5 -25.5t104.5 -68.5l64 94l69 -47l-79 -117q36 -57 50.5 -160.5t14.5 -221.5q0 -39 -3 -85t-8 -92t-12.5 -87t-15.5 -70q-41 -116 -134.5 -163t-210.5 -47 q-84 0 -144 24t-102 67l-53 -78zM219 509q0 -150 21 -234l398 591q-62 86 -176 86q-69 0 -122.5 -31t-83.5 -94q-24 -43 -30.5 -125t-6.5 -193zM281 191q58 -84 177 -84q71 0 129 35.5t84 111.5q17 43 21.5 119t4.5 167q0 73 -4.5 133t-15.5 103zM380 1230l156 348l133 -45 l-207 -337z" />
<glyph unicode="&#x218;" horiz-adv-x="1012" d="M56 236l122 72q46 -80 125.5 -134.5t201.5 -54.5q150 0 219.5 78t69.5 203q0 69 -20.5 116.5t-58.5 80.5t-91.5 56.5t-120.5 45.5q-109 33 -187 69t-127 83.5t-72 110t-23 146.5q0 88 29 162t83 126.5t131.5 83t175.5 30.5q164 0 257.5 -54t147.5 -142l-120 -81 q-43 75 -112 110.5t-179 35.5q-133 0 -202 -79t-69 -192q0 -62 25 -106.5t70 -75.5t106.5 -56t136.5 -49q97 -30 165.5 -66.5t113 -85.5t66 -115t21.5 -154q0 -189 -113 -302t-324 -113q-170 0 -281 68t-166 183zM400 -507l58 189h-47v176h163v-174l-94 -191h-80z" />
<glyph unicode="&#x219;" horiz-adv-x="855" d="M58 195l112 63q74 -150 258 -151q97 0 158 45t61 143q0 47 -16 78t-46.5 51.5t-70.5 35t-91 26.5q-78 19 -139.5 42.5t-106 57.5t-68 81t-23.5 113q0 136 90.5 215.5t249.5 79.5q136 0 219.5 -51.5t119.5 -143.5l-116 -59q-31 66 -88.5 98.5t-137.5 32.5 q-105 0 -154.5 -50t-49.5 -122q0 -43 20.5 -69.5t56 -46t81.5 -32t101 -28.5q75 -17 132 -40.5t95.5 -60.5t57.5 -87.5t19 -122.5q0 -138 -91 -223t-270 -85q-265 0 -363 210zM316 -507l58 189h-47v176h163v-174l-94 -191h-80z" />
<glyph unicode="&#x2c6;" horiz-adv-x="993" d="M181 1245l283 288h90l271 -283l-62 -58l-260 210l-260 -212z" />
<glyph unicode="&#x2c7;" horiz-adv-x="900" d="M135 1482l62 53l263 -210l260 210l60 -58l-269 -287h-90z" />
<glyph unicode="&#x2d8;" horiz-adv-x="960" d="M213 1477h114q6 -55 52.5 -101.5t112.5 -46.5q35 0 65 12.5t52.5 33t36.5 47.5t17 55h111q-4 -41 -21.5 -86t-49.5 -83t-83.5 -62.5t-127.5 -24.5q-75 0 -126.5 24.5t-84.5 62.5t-49.5 83t-18.5 86z" />
<glyph unicode="&#x2d9;" horiz-adv-x="898" d="M408 1280v146h138v-146h-138z" />
<glyph unicode="&#x2da;" horiz-adv-x="898" d="M297 1365q0 39 13.5 72.5t39.5 58t59.5 40t72.5 15.5q37 0 69 -15.5t56.5 -40t38.5 -58t14 -72.5q0 -73 -52.5 -126t-125.5 -53q-78 0 -131.5 53.5t-53.5 125.5zM370 1365q0 -43 32.5 -73t79.5 -30q43 0 75 30.5t32 72.5q0 47 -32 78.5t-75 31.5q-47 0 -79.5 -31 t-32.5 -79z" />
<glyph unicode="&#x2db;" horiz-adv-x="689" d="M222 -197q0 43 19 94.5t67 110.5l98 -2l2 -2q-36 -49 -55.5 -95.5t-19.5 -82.5q0 -52 28.5 -77.5t77.5 -25.5q24 0 53 7.5t64 24.5l37 -86q-37 -21 -84 -35t-96 -14q-86 0 -138.5 53.5t-52.5 129.5z" />
<glyph unicode="&#x2dc;" horiz-adv-x="913" d="M129 1305q37 69 88.5 112.5t106.5 43.5q35 0 68.5 -14.5t65.5 -30.5t64 -30t63 -14q58 0 119 89l76 -48q-39 -82 -88 -119.5t-103 -37.5q-35 0 -68 13t-66.5 29t-65.5 30t-60 14q-60 0 -122 -80z" />
<glyph unicode="&#x2dd;" horiz-adv-x="898" d="M269 1230l152 348l133 -45l-205 -337zM507 1230l156 348l131 -45l-207 -337z" />
<glyph unicode="&#x3a9;" horiz-adv-x="1055" d="M69 0v127h171v2q-88 56 -117 151.5t-29 220.5v568q0 97 32 177.5t88.5 138.5t136 90.5t176.5 32.5q90 0 168.5 -30.5t136.5 -87t91.5 -138.5t33.5 -183v-568q0 -123 -28 -217.5t-116 -156.5h170v-127h-349v152q88 31 136.5 111.5t48.5 185.5v618q0 139 -79.5 223 t-212.5 84q-140 0 -217.5 -87t-77.5 -220v-622q0 -103 48.5 -181.5t136.5 -113.5v-150h-348z" />
<glyph unicode="&#x3c0;" horiz-adv-x="969" d="M125 0v1063h720v-1063h-135v944h-450v-944h-135z" />
<glyph unicode="&#x401;" horiz-adv-x="964" d="M140 0v1496h778v-128h-641v-545h550v-124h-550v-566h641v-133h-778zM273 1609v143h140v-143h-140zM628 1609v143h137v-143h-137z" />
<glyph unicode="&#x402;" horiz-adv-x="1270" d="M10 1372v122h936v-122h-454v-486h5q75 60 159.5 93.5t162.5 33.5q189 0 274 -124t85 -390q0 -131 -24.5 -233t-77 -170t-137.5 -99.5t-206 -24.5v112q88 0 147.5 27t95 78t50.5 128t15 175q0 89 -9.5 160.5t-36.5 122t-76 79t-123 28.5q-92 0 -170 -39t-134 -96v-747 h-137v1372h-345z" />
<glyph unicode="&#x403;" horiz-adv-x="934" d="M140 0v1496h765v-128h-626v-1368h-139zM363 1630l297 243l97 -103l-338 -207z" />
<glyph unicode="&#x404;" horiz-adv-x="993" d="M107 428v643q0 95 28.5 174.5t83 137.5t135.5 91.5t184 33.5q148 0 256.5 -71.5t147.5 -206.5l-131 -52q-25 92 -95.5 145.5t-177.5 53.5q-72 0 -126.5 -24t-92.5 -66t-56 -98t-18 -118v-250h492v-129h-492v-271q0 -62 19.5 -116.5t56 -96.5t91 -66.5t126.5 -24.5 q102 0 176 52.5t99 150.5l131 -49q-39 -140 -148.5 -212t-257.5 -72q-205 0 -318 113t-113 328z" />
<glyph unicode="&#x405;" horiz-adv-x="1012" d="M56 236l122 72q46 -80 125.5 -134.5t201.5 -54.5q150 0 219.5 78t69.5 203q0 69 -20.5 116.5t-58.5 80.5t-91.5 56.5t-120.5 45.5q-109 33 -187 69t-127 83.5t-72 110t-23 146.5q0 88 29 162t83 126.5t131.5 83t175.5 30.5q164 0 257.5 -54t147.5 -142l-120 -81 q-43 75 -112 110.5t-179 35.5q-133 0 -202 -79t-69 -192q0 -62 25 -106.5t70 -75.5t106.5 -56t136.5 -49q97 -30 165.5 -66.5t113 -85.5t66 -115t21.5 -154q0 -189 -113 -302t-324 -113q-170 0 -281 68t-166 183z" />
<glyph unicode="&#x406;" horiz-adv-x="442" d="M150 0v1496h140v-1496h-140z" />
<glyph unicode="&#x407;" horiz-adv-x="442" d="M-26 1664v146h140v-146h-140zM150 0v1496h140v-1496h-140zM335 1664v146h136v-146h-136z" />
<glyph unicode="&#x408;" horiz-adv-x="851" d="M10 109l99 94q37 -37 88 -60.5t102 -23.5q54 0 102 13.5t85 45t57.5 83t20.5 129.5v1106h142v-1118q0 -103 -31.5 -177t-86.5 -121t-128 -70t-157 -23q-86 0 -164.5 31t-128.5 91z" />
<glyph unicode="&#x409;" horiz-adv-x="1666" d="M15 76q55 32 100 67t74.5 97.5t46 165.5t16.5 269v821h651v-649h291q114 0 193.5 -33.5t130 -89t74 -130.5t23.5 -159q0 -211 -111 -323t-320 -112h-421v1372h-380v-673q0 -187 -19.5 -313t-59 -207.5t-100 -130t-140.5 -83.5zM903 129h277q152 0 222.5 81t70.5 220 q0 60 -16 112.5t-50.5 92.5t-89.5 62.5t-135 22.5h-279v-591z" />
<glyph unicode="&#x40a;" horiz-adv-x="1676" d="M138 0v1496h139v-657h501v657h143v-657h273q114 0 196.5 -29.5t135 -83t78.5 -128.5t26 -168q0 -211 -110 -320.5t-318 -109.5h-424v710h-501v-710h-139zM921 129h277q150 0 220 77.5t70 219.5q0 60 -16.5 111.5t-51.5 89.5t-92.5 59.5t-135.5 21.5h-271v-579z" />
<glyph unicode="&#x40b;" horiz-adv-x="1281" d="M15 1374v122h949v-122h-463v-473l4 -4q84 69 164 91.5t154 22.5q175 0 261 -94t86 -254l2 -663h-140v595q0 60 -10.5 113t-39 92t-73.5 60.5t-115 21.5q-90 0 -166 -38t-127 -97v-747h-140v1374h-346z" />
<glyph unicode="&#x40c;" horiz-adv-x="1053" d="M135 0v1494h140v-663h201q36 0 74.5 8t74 32t66.5 69t51 116l124 438h132l-116 -434q-30 -109 -79.5 -183.5t-125.5 -98.5q97 -28 144 -105.5t76 -188.5l127 -484h-144l-119 466q-19 76 -47 123t-63.5 73t-75 35t-83.5 9h-217v-706h-140zM426 1630l298 241l95 -104 l-335 -204z" />
<glyph unicode="&#x40e;" horiz-adv-x="960" d="M33 1494h141q17 -53 43 -130.5t55 -165.5t60 -182.5t60 -183t52.5 -163t41.5 -121.5h6q15 43 38.5 117.5t52 165t58.5 188t58 188t51.5 166.5t39.5 121h139q-96 -295 -191 -588t-192 -588q-35 -105 -69 -169.5t-73 -100t-81 -47t-89 -11.5h-92v119h77q54 0 98 37t77 133 q6 21 12.5 40t10.5 40q-97 286 -192.5 568t-191.5 567zM211 1772h113q7 -55 53 -102t113 -47q35 0 65 13.5t52.5 33.5t36.5 47t16 55h112q-4 -41 -21.5 -86t-49.5 -82.5t-83.5 -62.5t-127.5 -25q-75 0 -126.5 25t-85 62.5t-49.5 82.5t-18 86z" />
<glyph unicode="&#x40f;" horiz-adv-x="1115" d="M140 0v1496h137v-1365h562v1365h142v-1496h-351l2 -329h-148l2 329h-346z" />
<glyph unicode="&#x410;" horiz-adv-x="1051" d="M21 0l437 1496h135l437 -1496h-144l-101 359h-520l-101 -359h-143zM295 484h458l-131 462l-93 349h-8q-4 -17 -17.5 -67t-28.5 -107.5t-28.5 -108.5t-18.5 -66q-6 -26 -25.5 -91t-40 -140t-40 -140.5t-27.5 -90.5z" />
<glyph unicode="&#x411;" horiz-adv-x="1034" d="M121 0v1496h745v-128h-608v-521h284q114 0 194.5 -31t132.5 -87t76.5 -132t24.5 -164q0 -211 -110.5 -322t-319.5 -111h-419zM258 131h280q150 0 219.5 79t69.5 220q0 60 -15.5 112.5t-51.5 91.5t-90.5 61.5t-133.5 22.5h-278v-587z" />
<glyph unicode="&#x412;" horiz-adv-x="1079" d="M140 0v1496h430q205 0 301.5 -105t96.5 -279q0 -103 -41 -189t-159 -138v-7q59 -15 102.5 -50.5t71.5 -83t39.5 -104.5t11.5 -117q0 -211 -108.5 -317t-287.5 -106h-457zM277 133h302q77 0 129.5 24t84.5 64.5t46.5 95.5t14.5 118q0 123 -65 202t-206 79h-306v-583z M277 839h285q137 0 203 73t66 196q0 120 -68 192t-211 72h-275v-533z" />
<glyph unicode="&#x413;" horiz-adv-x="934" d="M140 0v1496h765v-128h-626v-1368h-139z" />
<glyph unicode="&#x414;" horiz-adv-x="1240" d="M26 109l83 14q47 35 80 86t52 135t29.5 207.5t17.5 302.5l20 642h778v-1375h100v-424h-130v303h-898v-303h-132v412zM284 119h662v1255h-511l-20 -566q-4 -127 -12.5 -232t-23 -191t-38 -151.5t-57.5 -114.5z" />
<glyph unicode="&#x415;" horiz-adv-x="964" d="M140 0v1496h778v-128h-641v-545h550v-124h-550v-566h641v-133h-778z" />
<glyph unicode="&#x416;" horiz-adv-x="1642" d="M39 0l125 484q30 111 77 189t142 105q-73 24 -123.5 98t-78.5 184l-119 434h131l123 -438q19 -73 50.5 -117t68 -69t75 -32t75.5 -7h168v667h139v-667h168q37 0 75.5 7t75 32t66.5 69t50 117l124 438h129l-113 -434q-31 -109 -81 -183.5t-126 -98.5q97 -28 145 -105.5 t77 -188.5l127 -484h-146l-119 466q-19 76 -47.5 123t-63.5 73t-75 35t-81 9h-185v-706h-139v706h-185q-43 0 -83 -9t-75.5 -35t-63.5 -73t-47 -123l-118 -466h-142z" />
<glyph unicode="&#x417;" horiz-adv-x="997" d="M30 303q7 3 25.5 9t40 13.5t39 14t25.5 9.5q24 -121 105 -180.5t191 -59.5q139 0 217 80t80 239q0 146 -66.5 223.5t-179.5 77.5h-139v120h133q114 0 176.5 76.5t62.5 203.5q0 64 -20.5 110.5t-56 77.5t-85 46.5t-104.5 15.5q-110 0 -189.5 -62.5t-103.5 -165.5l-132 45 q15 73 55 131t96 99t126 61.5t150 20.5q195 0 298.5 -96t103.5 -279q0 -39 -9 -89.5t-29.5 -98.5t-54.5 -88t-88 -61v-6q66 -27 105 -71t59.5 -95.5t25.5 -103.5t5 -92q0 -209 -113.5 -325t-324.5 -116q-82 0 -153 19.5t-126.5 59t-93.5 99t-51 138.5z" />
<glyph unicode="&#x418;" horiz-adv-x="1178" d="M135 0v1496h136v-1234l8 -2l637 1236h133v-1496h-138v1237h-6l-636 -1237h-134z" />
<glyph unicode="&#x419;" horiz-adv-x="1178" d="M135 0v1496h136v-1234l8 -2l637 1236h133v-1496h-138v1237h-6l-636 -1237h-134zM314 1853h116q7 -55 52 -101.5t113 -46.5q74 0 119 46.5t49 101.5h113q-4 -43 -21.5 -88t-50 -81.5t-84 -61t-125.5 -24.5q-75 0 -127.5 24.5t-85.5 62t-49.5 82.5t-18.5 86z" />
<glyph unicode="&#x41a;" horiz-adv-x="1053" d="M135 0v1494h140v-663h201q36 0 74.5 8t74 32t66.5 69t51 116l124 438h132l-116 -434q-30 -109 -79.5 -183.5t-125.5 -98.5q97 -28 144 -105.5t76 -188.5l127 -484h-144l-119 466q-19 76 -47 123t-63.5 73t-75 35t-83.5 9h-217v-706h-140z" />
<glyph unicode="&#x41b;" horiz-adv-x="1149" d="M2 74q58 34 104 70.5t77.5 100t48 164t16.5 264.5v823h758v-1496h-138v1370h-490v-671q0 -189 -19 -315t-59 -209t-102.5 -129t-146.5 -79q-12 27 -25 52.5t-24 54.5z" />
<glyph unicode="&#x41c;" horiz-adv-x="1391" d="M140 0v1496h139q9 -24 28.5 -67.5t43 -99.5t50.5 -115t51 -115t42.5 -100.5t30.5 -67.5l174 -418h5l178 423l243 560h137v-1496h-137v1157l-7 -2l-170 -408l-199 -454h-100q-11 28 -38.5 92t-59.5 136t-60.5 136.5t-41.5 93.5l-165 402l-9 -2v-1151h-135z" />
<glyph unicode="&#x41d;" horiz-adv-x="1130" d="M140 0v1496h137v-673h572v673h142v-1496h-142v699h-572v-699h-137z" />
<glyph unicode="&#x41e;" horiz-adv-x="1055" d="M94 445v630q0 82 26 159t79 138.5t134.5 98.5t195.5 37q105 0 185 -36t134.5 -95t82.5 -137.5t28 -164.5v-647q0 -98 -31 -179t-88.5 -139.5t-135.5 -90.5t-175 -32q-111 0 -193 35.5t-136 98t-80 146.5t-26 178zM232 443q0 -71 18.5 -131t56 -104t93.5 -69t131 -25 q60 0 113 23t91.5 63t60 96.5t21.5 120.5v656q0 49 -16 103t-50.5 98t-89 73.5t-132.5 29.5q-77 0 -133 -27t-92.5 -70t-54 -98t-17.5 -109v-630z" />
<glyph unicode="&#x41f;" horiz-adv-x="1120" d="M140 0v1496h843v-1496h-142v1374h-564v-1374h-137z" />
<glyph unicode="&#x420;" horiz-adv-x="1026" d="M140 0v1496h422q207 0 317 -108t110 -330q0 -86 -22.5 -165.5t-73 -140t-130 -96.5t-193.5 -36h-291v-620h-139zM279 751h280q81 0 137.5 24.5t89.5 66.5t48 99.5t15 118.5q0 144 -70.5 226t-222.5 82h-277v-617z" />
<glyph unicode="&#x421;" horiz-adv-x="995" d="M107 423v650q0 95 29.5 174.5t85 137.5t135.5 90.5t181 32.5q148 0 258.5 -74.5t147.5 -212.5l-133 -49q-21 96 -92.5 150.5t-180.5 54.5q-70 0 -124.5 -24t-92 -65t-57 -96t-19.5 -117v-656q0 -62 20.5 -118t58 -96.5t91 -64t123.5 -23.5q105 0 178.5 53.5t96.5 156.5 l131 -48q-35 -144 -146.5 -218t-259.5 -74q-99 0 -179 32t-135.5 89.5t-86 138t-30.5 176.5z" />
<glyph unicode="&#x422;" horiz-adv-x="862" d="M6 1370v126h848v-126h-353v-1370h-138v1370h-357z" />
<glyph unicode="&#x423;" horiz-adv-x="960" d="M33 1494h141q17 -53 43 -130.5t55 -165.5t60 -182.5t60 -183t52.5 -163t41.5 -121.5h6q15 43 38.5 117.5t52 165t58.5 188t58 188t51.5 166.5t39.5 121h139q-96 -295 -191 -588t-192 -588q-35 -105 -69 -169.5t-73 -100t-81 -47t-89 -11.5h-92v119h77q54 0 98 37t77 133 q6 21 12.5 40t10.5 40q-97 286 -192.5 568t-191.5 567z" />
<glyph unicode="&#x424;" horiz-adv-x="1309" d="M94 772q0 142 26 257t84 198.5t151.5 132t229.5 58.5v78h135v-78q138 -7 233.5 -59t155 -138t85 -201t25.5 -248q0 -302 -120 -466t-379 -183v-123h-135v123q-136 2 -229.5 49t-151.5 133.5t-84 204.5t-26 262zM230 774q2 -269 83 -392.5t270 -131.5v1038 q-103 -4 -171 -41.5t-107.5 -104.5t-57 -160.5t-17.5 -207.5zM724 250q187 10 270 134.5t83 387.5q0 118 -19.5 211.5t-61.5 160.5t-108.5 103.5t-163.5 40.5v-1038z" />
<glyph unicode="&#x425;" horiz-adv-x="938" d="M13 0l383 772l-359 724h150l284 -597l280 597h152l-361 -724l385 -772h-153l-303 636l-305 -636h-153z" />
<glyph unicode="&#x426;" horiz-adv-x="1141" d="M140 0v1496h139v-1367h568v1367h140v-1369h105v-430h-131v303h-821z" />
<glyph unicode="&#x427;" horiz-adv-x="1072" d="M97 1077v419h135v-408q0 -187 63.5 -271t223.5 -84q45 0 125 19.5t152 62.5v681h140v-1496h-140l-2 692q-74 -37 -152 -57t-154 -20q-94 0 -167 26t-123 81.5t-75.5 142.5t-25.5 212z" />
<glyph unicode="&#x428;" horiz-adv-x="1642" d="M135 0v1496h138v-1365h476v1365h139v-1365h482v1365h140v-1496h-1375z" />
<glyph unicode="&#x429;" horiz-adv-x="1668" d="M133 0v1496h140v-1365h474v1365h141v-1365h480v1365h140v-1367h109v-432h-131v303h-1353z" />
<glyph unicode="&#x42a;" horiz-adv-x="1309" d="M24 1368v128h524v-647h291q111 0 191 -32t131.5 -88t75 -132t23.5 -164q0 -216 -111 -324.5t-316 -108.5h-422v1368h-387zM548 129h283q148 0 218.5 79.5t70.5 221.5q0 128 -69.5 208t-229.5 80h-273v-589z" />
<glyph unicode="&#x42b;" horiz-adv-x="1405" d="M146 0v1496h138v-649h284q114 0 194.5 -31t132 -87t75 -132t23.5 -164q0 -211 -109.5 -322t-317.5 -111h-420zM284 129h280q148 0 219 80t71 221q0 58 -16.5 110.5t-51.5 92.5t-91.5 62.5t-132.5 22.5h-278v-589zM1129 0v1496h139v-1496h-139z" />
<glyph unicode="&#x42c;" horiz-adv-x="1020" d="M119 0v1496h139v-647h282q114 0 195.5 -32t133.5 -88t76.5 -132t24.5 -164q0 -211 -110.5 -322t-319.5 -111h-421zM258 129h278q152 0 220.5 79.5t68.5 221.5q0 128 -70.5 208t-223.5 80h-273v-589z" />
<glyph unicode="&#x42d;" horiz-adv-x="999" d="M45 281l133 48q27 -105 96.5 -160t172.5 -55q80 0 135.5 28t91.5 74t51 107.5t15 125.5v252h-456v130h456v212q0 71 -16 132.5t-51 107.5t-88.5 72t-130.5 26q-105 0 -177 -58.5t-99 -154.5l-131 47q37 137 144.5 216t266.5 79q118 0 198.5 -37t129.5 -100.5t70.5 -146 t21.5 -175.5v-608q0 -101 -27.5 -186t-81 -145.5t-134.5 -93.5t-188 -33q-157 0 -261 77.5t-141 218.5z" />
<glyph unicode="&#x42e;" horiz-adv-x="1381" d="M129 0v1496h140v-675h191v265q0 82 23.5 158t74.5 134t129 94t186 36q105 0 182.5 -33.5t128.5 -90.5t75.5 -134.5t24.5 -163.5v-675q0 -103 -30.5 -182t-85 -132.5t-129.5 -81.5t-166 -28q-110 0 -187 33.5t-128 92.5t-74.5 139.5t-23.5 175.5v271h-191v-699h-140z M595 1082l2 -652q0 -141 68 -228.5t211 -87.5q116 0 190.5 73t74.5 213v682q0 51 -13.5 103t-45 95t-83 70t-126.5 27q-76 0 -128.5 -26t-85.5 -67t-48.5 -95t-15.5 -107z" />
<glyph unicode="&#x42f;" horiz-adv-x="1098" d="M58 0l110 458q24 96 61.5 163t116.5 101q-64 19 -108.5 54t-70 81t-37 102t-11.5 114q0 191 104 307t304 116h432v-1496h-138v684h-245q-38 0 -79 -9.5t-76.5 -36.5t-64.5 -74t-48 -123l-105 -441h-145zM256 1073q0 -142 80.5 -204.5t213.5 -62.5h271v566h-271 q-144 0 -219 -79.5t-75 -219.5z" />
<glyph unicode="&#x430;" horiz-adv-x="898" d="M74 293q0 66 20 126.5t63 103.5t109.5 68.5t159.5 25.5h237v146q0 86 -53.5 135.5t-160.5 49.5q-73 0 -133 -24.5t-92 -80.5q-24 13 -52 32.5t-51 33.5q45 78 128.5 122t199.5 44q74 0 138.5 -15t112 -51.5t74 -96.5t26.5 -151v-761h-137v88l-7 2q-43 -57 -116.5 -80 t-156.5 -23q-152 0 -230.5 87.5t-78.5 218.5zM200 301q0 -84 56 -137t165 -53q47 0 90 11t77 33.5t54.5 60.5t20.5 94v189h-242q-97 0 -159 -47.5t-62 -150.5z" />
<glyph unicode="&#x431;" horiz-adv-x="919" d="M86 550q0 47 2 100.5t4 100.5t4.5 86t6.5 62q8 116 32.5 203.5t63.5 150.5t94.5 107t127.5 76q69 33 143 58.5t176 66.5l38 -100q-60 -29 -110.5 -48.5t-95.5 -36.5t-85 -36.5t-79 -44.5q-100 -70 -138 -167.5t-46 -237.5q4 0 4 -2q49 76 122 110t142 34q115 0 186 -44 t107 -126q31 -69 40.5 -167t9.5 -198q0 -110 -13.5 -184.5t-45.5 -138.5q-47 -103 -135.5 -146t-186.5 -43q-117 0 -192 44.5t-114 118.5q-62 117 -62 402zM222 488q0 -86 6 -149.5t28 -110.5q29 -60 78 -90.5t128 -30.5q66 0 118 30.5t83 92.5q38 73 38 273q0 82 -6.5 158 t-21.5 117q-24 62 -71 96.5t-131 34.5q-75 0 -126.5 -34t-79.5 -97q-27 -51 -35 -126.5t-8 -163.5z" />
<glyph unicode="&#x432;" horiz-adv-x="898" d="M111 0v1060h394q154 0 230 -77.5t76 -204.5q0 -69 -29 -128t-105 -96h2q43 -14 72 -41t46.5 -59.5t25.5 -70t8 -73.5q0 -82 -27.5 -140.5t-72.5 -95.5t-105 -55.5t-129 -18.5h-386zM245 123h229q102 0 162.5 44t60.5 147q0 80 -48.5 128t-160.5 48h-243v-367zM245 607 h215q90 0 153.5 39.5t63.5 129.5q0 78 -56.5 121t-156.5 43h-219v-333z" />
<glyph unicode="&#x433;" horiz-adv-x="780" d="M111 0v1063h648v-119h-514v-944h-134z" />
<glyph unicode="&#x434;" horiz-adv-x="1046" d="M30 105l79 14q35 26 57.5 59t36.5 85.5t22.5 133.5t17.5 198l19 465h643v-941h88v-396h-129v277h-704v-277h-130v382zM273 119h499v825h-387q-4 -136 -10.5 -265t-17.5 -238.5t-31 -193t-53 -128.5z" />
<glyph unicode="&#x435;" horiz-adv-x="893" d="M80 538q0 100 14.5 197.5t56.5 172.5t114.5 121t186.5 46q96 0 166 -33t114 -92.5t64.5 -141t20.5 -178.5v-133h-604q0 -89 10.5 -159.5t40 -122t78 -80t124.5 -28.5q70 0 125.5 39t81.5 94l115 -57q-41 -93 -125 -144.5t-189 -51.5q-115 0 -190 33.5t-120 102t-64.5 172 t-19.5 243.5zM217 607h464v4q0 74 -9 135.5t-34 107t-69 70t-115 24.5q-70 0 -114.5 -25.5t-72 -72t-38 -109t-12.5 -134.5z" />
<glyph unicode="&#x436;" horiz-adv-x="1358" d="M33 0l96 346q21 78 54.5 134t106.5 72q-58 17 -92 71t-58 132l-89 305h130l90 -313q15 -50 37.5 -81.5t49.5 -47.5t57 -21.5t61 -5.5h135v469h133v-469h136q30 0 60 5.5t57 21.5t49.5 47.5t37.5 81.5q2 12 16 57t29 99t28 99t17 58h129q-6 -18 -18 -62t-25 -91t-26 -90 t-19 -62q-24 -78 -58.5 -131.5t-91.5 -71.5q73 -16 106 -72.5t54 -133.5l100 -346h-135l-84 312q-29 105 -80.5 136.5t-124.5 31.5h-157v-480h-133v480h-155q-37 0 -68 -7t-56.5 -25t-46 -51.5t-35.5 -84.5l-84 -312h-133z" />
<glyph unicode="&#x437;" horiz-adv-x="825" d="M26 176l107 58q25 -62 91 -94.5t148 -32.5q96 0 163 50t67 153q0 96 -52.5 141.5t-134.5 45.5h-127v112h129q80 0 127 44t47 127q0 82 -54.5 125t-144.5 43q-82 0 -144.5 -30t-89.5 -95l-104 61q36 95 128.5 142t204.5 47q171 0 255.5 -76t84.5 -207q0 -33 -7.5 -67.5 t-24 -66.5t-43 -59.5t-65.5 -42.5q90 -38 120 -101t30 -145q0 -155 -99.5 -238t-263.5 -83q-121 0 -215.5 44.5t-132.5 144.5z" />
<glyph unicode="&#x438;" horiz-adv-x="1026" d="M121 0v1058h137v-828h2l222 355q86 137 164 264t130 209h129v-1058h-137v813h-7l-215 -339l-296 -474h-129z" />
<glyph unicode="&#x439;" horiz-adv-x="1026" d="M121 0v1058h137v-828h2l222 355q86 137 164 264t130 209h129v-1058h-137v813h-7l-215 -339l-296 -474h-129zM224 1484h116q4 -29 18 -55.5t36.5 -48t52 -34t62.5 -12.5q76 0 121 46t49 104h113q-4 -41 -21.5 -86.5t-51 -82.5t-85 -62.5t-127.5 -25.5q-75 0 -126.5 25.5 t-86 62.5t-51.5 82.5t-19 86.5z" />
<glyph unicode="&#x43a;" horiz-adv-x="878" d="M103 0v1063h133v-472h160q30 0 60 5.5t57 22.5t49.5 47.5t37.5 82.5l90 314h129l-88 -308q-24 -78 -58.5 -130.5t-91.5 -70.5q73 -16 106 -72t55 -136l99 -346h-135l-86 312q-15 51 -34.5 84.5t-46 51.5t-57 25t-67.5 7h-179v-480h-133z" />
<glyph unicode="&#x43b;" horiz-adv-x="946" d="M10 74q56 30 93 62t59.5 86.5t31.5 139.5t9 223v475h628v-1060h-136v944h-366v-431q0 -129 -16 -219.5t-48.5 -155t-84 -104.5t-122.5 -67q-11 25 -24 53.5t-24 53.5z" />
<glyph unicode="&#x43c;" horiz-adv-x="1160" d="M111 0v1060h132q49 -96 98 -191t98 -192l148 -294l162 323q51 102 100.5 198t79.5 156h129v-1060h-135v778l-104 -208q-28 -53 -56 -107.5t-53.5 -103.5t-46 -91t-33.5 -68h-90q-37 69 -72 140t-72 140l-146 292h-2v-772h-137z" />
<glyph unicode="&#x43d;" horiz-adv-x="938" d="M111 0v1063h137v-466h444v466h139v-1063h-139v484h-444v-484h-137z" />
<glyph unicode="&#x43e;" horiz-adv-x="921" d="M86 525q0 103 8.5 192t32.5 149q41 101 127.5 155t211.5 54q107 0 179.5 -42t115.5 -108q41 -56 56.5 -163.5t15.5 -232.5q0 -39 -3 -85t-8 -92t-12.5 -87t-15.5 -70q-41 -116 -134.5 -163t-210.5 -47q-109 0 -179 40.5t-108 105.5q-43 58 -59.5 160.5t-16.5 233.5z M219 509q0 -109 10.5 -183t41.5 -117q58 -101 187 -102q71 0 129 35.5t84 111.5q17 43 21.5 119t4.5 167q0 96 -8 168t-24 111q-27 66 -79.5 99.5t-123.5 33.5q-69 0 -122.5 -31t-83.5 -94q-24 -43 -30.5 -125t-6.5 -193z" />
<glyph unicode="&#x43f;" horiz-adv-x="969" d="M125 0v1063h720v-1063h-135v944h-450v-944h-135z" />
<glyph unicode="&#x440;" horiz-adv-x="917" d="M97 -433v1493h133v-120q2 0 4 -2q50 75 116.5 106t144.5 31q109 0 174.5 -45t99 -119t44 -172.5t10.5 -202.5q0 -101 -11.5 -199.5t-48 -175.5t-104.5 -124t-179 -47q-82 0 -140.5 32t-105.5 92h-4v-547h-133zM230 533q0 -64 4 -137.5t27 -134.5t67 -101.5t126 -40.5 q79 0 125.5 34t70 92t31 132.5t7.5 153.5q0 84 -7.5 160.5t-31 133.5t-68.5 90t-123 33q-84 0 -130.5 -40t-68 -100.5t-25.5 -134t-4 -140.5z" />
<glyph unicode="&#x441;" horiz-adv-x="814" d="M69 546q0 111 20 208.5t67 168t122 111.5t184 41q117 0 195 -50.5t119 -140.5l-113 -67q-25 60 -76 95.5t-123 35.5q-84 0 -135.5 -33t-78 -89t-36 -129t-9.5 -153t8.5 -157t36 -138.5t78 -99.5t132.5 -38q73 0 124.5 36t75.5 89q29 -17 56.5 -31t57.5 -29 q-39 -90 -120.5 -139.5t-195.5 -49.5q-121 0 -196 42t-118 116t-59 177.5t-16 223.5z" />
<glyph unicode="&#x442;" horiz-adv-x="718" d="M2 944v116h714v-116h-290v-944h-136v944h-288z" />
<glyph unicode="&#x443;" horiz-adv-x="806" d="M6 1060h144q35 -114 69.5 -225t68.5 -222q8 -32 24.5 -87t34.5 -114t33.5 -114t25.5 -87h5q12 45 31.5 112t43 146t48.5 164t49 165t44 147.5t33 114.5h140l-394 -1286q-64 -211 -254 -211h-49v117h43q62 0 95.5 42t55.5 118l52 173q-89 262 -172 522.5t-171 524.5z" />
<glyph unicode="&#x444;" horiz-adv-x="1110" d="M80 525q0 101 10.5 185t36.5 148q43 105 136.5 160t222.5 57v443h131q0 -109 1.5 -220.5t1.5 -222.5q131 -4 218 -53.5t130 -133.5q35 -69 45.5 -162.5t10.5 -202.5t-13 -209.5t-59 -169.5q-49 -78 -135 -116t-197 -43q0 -103 -1.5 -204t-1.5 -204h-131v408 q-53 5 -103 12t-91.5 23.5t-77.5 44t-62 70.5q-43 70 -57.5 166.5t-14.5 223.5zM213 509q0 -96 8.5 -169t34.5 -121q33 -55 92.5 -83.5t135.5 -32.5q0 213 1 422.5t1 422.5q-78 -2 -142.5 -33t-93.5 -94q-21 -43 -29 -125.5t-8 -186.5zM617 103q87 4 152.5 38.5t92.5 103.5 q21 43 25.5 115.5t4.5 144.5q0 99 -7 181t-29 131q-31 69 -96 98t-143 33v-845z" />
<glyph unicode="&#x445;" horiz-adv-x="818" d="M28 0l305 546l-290 517h152l216 -420l213 420h152l-292 -519l308 -544h-152l-229 441l-233 -441h-150z" />
<glyph unicode="&#x446;" horiz-adv-x="973" d="M111 0v1060h137v-937h449v937h134v-937h100v-400h-127v277h-693z" />
<glyph unicode="&#x447;" horiz-adv-x="880" d="M64 699v364h133v-339q0 -107 49 -155t148 -48q51 0 122 20.5t129 60.5v461h133v-1063h-135v478q-64 -39 -142 -60.5t-140 -21.5q-139 0 -218 72t-79 231z" />
<glyph unicode="&#x448;" horiz-adv-x="1426" d="M117 0v1063h133v-938h393v938h135v-938h402v938h134v-1063h-1197z" />
<glyph unicode="&#x449;" horiz-adv-x="1465" d="M114 0v1060h131v-937h398v937h133v-937h402v937h131v-937h101v-388h-124v265h-1172z" />
<glyph unicode="&#x44a;" horiz-adv-x="1098" d="M21 944v119h455v-433h232q98 0 165 -24.5t108 -66.5t59 -98t18 -119q0 -146 -81.5 -234t-268.5 -88h-370v944h-317zM476 123h232q109 0 161 54.5t52 142.5q0 76 -50 130.5t-170 54.5l-225 2v-384z" />
<glyph unicode="&#x44b;" horiz-adv-x="1186" d="M109 0v1063h136v-433h229q96 0 164 -24.5t110 -66.5t60.5 -98t18.5 -119q0 -148 -83.5 -235t-272.5 -87h-362zM245 123h221q119 0 171.5 55.5t52.5 141.5q0 76 -51.5 130.5t-172.5 54.5l-221 2v-384zM933 0v1063h136v-1063h-136z" />
<glyph unicode="&#x44c;" horiz-adv-x="855" d="M103 0v1063h135v-433h228q97 0 165 -24.5t109.5 -66.5t60 -98t18.5 -119q0 -146 -83.5 -234t-271.5 -88h-361zM236 125h224q121 0 172.5 54.5t51.5 140.5q0 76 -51.5 132.5t-174.5 56.5l-222 -2v-382z" />
<glyph unicode="&#x44d;" horiz-adv-x="814" d="M24 176l116 60q24 -51 77.5 -88t126.5 -37q76 0 124.5 32.5t76 85t39 121.5t13.5 140h-390v110h390q-2 71 -13.5 133.5t-41 110.5t-77.5 76t-125 28q-66 0 -121 -35t-79 -96l-114 67q41 90 125.5 140.5t194.5 50.5t185.5 -41t120.5 -113t64 -169.5t19 -209.5 q-2 -117 -19 -217.5t-60 -175.5t-119.5 -118.5t-196.5 -43.5q-114 0 -195 49.5t-121 139.5z" />
<glyph unicode="&#x44e;" horiz-adv-x="1203" d="M123 0v1058h137v-463h136q0 45 2 88.5t6 79.5q17 142 111 226t242 84q84 0 150.5 -28t112.5 -77q30 -32 49 -77.5t27 -96.5q6 -43 10 -89.5t4 -89.5v-88q0 -47 -1 -91t-3 -87q-2 -58 -14.5 -106t-33.5 -89q-84 -168 -305 -167q-152 0 -239.5 76.5t-109.5 220.5 q-2 36 -5 73t-3 76v49h-136v-482h-137zM525 443q0 -43 2 -84t11 -80q14 -75 68 -123.5t149 -48.5q76 0 130.5 40t73.5 111q14 50 15.5 98t1.5 98v88q0 75 -2 153.5t-30 141.5q-24 53 -71 83t-118 30q-66 0 -116 -30t-80 -81q-17 -31 -23.5 -75t-10.5 -110v-211z" />
<glyph unicode="&#x44f;" horiz-adv-x="915" d="M56 0l77 316q15 62 44.5 113t84.5 72q-92 30 -132 96t-40 154q0 135 83 223.5t244 88.5h389v-1063h-135v464h-219q-70 -2 -117 -34t-70 -131l-74 -299h-135zM224 749q0 -91 57 -130.5t158 -39.5h232v363h-236q-103 0 -157 -51.5t-54 -141.5z" />
<glyph unicode="&#x451;" horiz-adv-x="893" d="M80 538q0 100 14.5 197.5t56.5 172.5t114.5 121t186.5 46q96 0 166 -33t114 -92.5t64.5 -141t20.5 -178.5v-133h-604q0 -89 10.5 -159.5t40 -122t78 -80t124.5 -28.5q70 0 125.5 39t81.5 94l115 -57q-41 -93 -125 -144.5t-189 -51.5q-115 0 -190 33.5t-120 102t-64.5 172 t-19.5 243.5zM209 1295v146h140v-146h-140zM217 607h464v4q0 74 -9 135.5t-34 107t-69 70t-115 24.5q-70 0 -114.5 -25.5t-72 -72t-38 -109t-12.5 -134.5zM570 1295v146h136v-146h-136z" />
<glyph unicode="&#x452;" horiz-adv-x="981" d="M8 1241v107h117v211h131v-211h428v-107h-428v-332h6q44 74 115.5 114t162.5 40q107 0 183.5 -49.5t111.5 -143.5q24 -57 32.5 -151.5t8.5 -197.5q0 -86 -10 -173.5t-33 -152.5q-37 -96 -119 -154t-219 -58h-21t-20 2v114q77 -7 141.5 23t99.5 93q28 52 37.5 128t9.5 156 q0 96 -5.5 167t-20.5 119q-21 72 -75 110t-138 38q-64 0 -111.5 -25.5t-76.5 -68.5t-43 -98t-14 -111l-2 -630h-131v1241h-117z" />
<glyph unicode="&#x453;" horiz-adv-x="763" d="M99 0v1060h648v-118h-513v-942h-135zM318 1227l153 351l136 -47l-207 -335z" />
<glyph unicode="&#x454;" horiz-adv-x="812" d="M69 546q0 111 20 208.5t67 168t122 111.5t184 41q114 0 193.5 -50.5t118.5 -140.5q-28 -17 -56 -33t-55 -34q-25 60 -77.5 95.5t-121.5 35.5q-78 0 -127 -28t-78 -76t-40.5 -110.5t-13.5 -133.5h392v-110h-392q2 -73 13.5 -141t39.5 -120.5t76.5 -85t125.5 -32.5 q71 0 122.5 36t75.5 89q31 -17 58.5 -31t57.5 -29q-39 -90 -120.5 -139.5t-195.5 -49.5q-121 0 -196 42t-118 116t-59 177.5t-16 223.5z" />
<glyph unicode="&#x455;" horiz-adv-x="855" d="M58 195l112 63q74 -150 258 -151q97 0 158 45t61 143q0 47 -16 78t-46.5 51.5t-70.5 35t-91 26.5q-78 19 -139.5 42.5t-106 57.5t-68 81t-23.5 113q0 136 90.5 215.5t249.5 79.5q136 0 219.5 -51.5t119.5 -143.5l-116 -59q-31 66 -88.5 98.5t-137.5 32.5 q-105 0 -154.5 -50t-49.5 -122q0 -43 20.5 -69.5t56 -46t81.5 -32t101 -28.5q75 -17 132 -40.5t95.5 -60.5t57.5 -87.5t19 -122.5q0 -138 -91 -223t-270 -85q-265 0 -363 210z" />
<glyph unicode="&#x456;" horiz-adv-x="401" d="M131 1336v141h140v-141h-140zM133 0v1063h136v-1063h-136z" />
<glyph unicode="&#x457;" horiz-adv-x="401" d="M-47 1280v146h139v-146h-139zM133 0v1063h136v-1063h-136zM314 1280v146h135v-146h-135z" />
<glyph unicode="&#x458;" horiz-adv-x="423" d="M-21 -318h42q69 2 97 48t28 122v1211h138v-1239q0 -115 -60 -190t-183 -75h-62v123zM146 1336v139h140v-139h-140z" />
<glyph unicode="&#x459;" horiz-adv-x="1389" d="M19 76q51 28 89 59t60.5 81.5t33.5 125.5t11 194v527h550v-429h226q99 0 166.5 -24.5t109.5 -67.5t60.5 -100t18.5 -120q0 -150 -85 -236t-272 -86h-361v944h-286v-427q0 -130 -16 -222t-48.5 -155.5t-84 -103.5t-122.5 -69zM763 125h220q121 0 173.5 53.5t52.5 141.5 q0 76 -52.5 131.5t-173.5 55.5h-220v-382z" />
<glyph unicode="&#x45a;" horiz-adv-x="1410" d="M119 0v1063h133v-435h388v435h136v-435h228q96 0 164.5 -24.5t110 -66.5t61 -97t19.5 -118q0 -148 -83.5 -235t-273.5 -87h-362v501h-388v-501h-133zM776 125h222q118 0 170.5 54.5t52.5 140.5q0 37 -11.5 70t-38.5 58.5t-70 39t-103 13.5h-222v-376z" />
<glyph unicode="&#x45b;" horiz-adv-x="941" d="M-2 1254v105h109v202h136v-202h417v-105h-417v-318h5q45 73 117 106t154 33q141 0 224.5 -87t83.5 -237v-751h-135v706q0 109 -52.5 172.5t-161.5 63.5q-103 0 -170.5 -69t-67.5 -181v-692h-133v1254h-109z" />
<glyph unicode="&#x45c;" horiz-adv-x="878" d="M103 0v1063h133v-472h160q30 0 60 5.5t57 22.5t49.5 47.5t37.5 82.5l90 314h129l-88 -308q-24 -78 -58.5 -130.5t-91.5 -70.5q73 -16 106 -72t55 -136l99 -346h-135l-86 312q-15 51 -34.5 84.5t-46 51.5t-57 25t-67.5 7h-179v-480h-133zM363 1230l156 348l133 -45 l-207 -337z" />
<glyph unicode="&#x45e;" horiz-adv-x="806" d="M6 1060h144q35 -114 69.5 -225t68.5 -222q8 -32 24.5 -87t34.5 -114t33.5 -114t25.5 -87h5q12 45 31.5 112t43 146t48.5 164t49 165t44 147.5t33 114.5h140l-394 -1286q-64 -211 -254 -211h-49v117h43q62 0 95.5 42t55.5 118l52 173q-89 262 -172 522.5t-171 524.5z M133 1477h115q6 -55 52 -101.5t113 -46.5q34 0 64 12.5t52.5 33t37 47.5t16.5 55h112q-4 -41 -21.5 -86t-50 -83t-84 -62.5t-126.5 -24.5q-76 0 -127.5 24.5t-84.5 62.5t-49.5 83t-18.5 86z" />
<glyph unicode="&#x45f;" horiz-adv-x="948" d="M117 0v1063h133v-938h449v938h136v-1063h-291v-288h-140v288h-287z" />
<glyph unicode="&#x490;" horiz-adv-x="934" d="M140 0v1496h636v250h129v-378h-626v-1368h-139z" />
<glyph unicode="&#x491;" horiz-adv-x="780" d="M111 0v1063h521v227h127v-348h-511v-942h-137z" />
<glyph unicode="&#x4d9;" horiz-adv-x="887" d="M74 433v135h601q0 86 -10.5 158t-40 123.5t-77.5 79.5t-124 28q-69 0 -126 -39.5t-84 -94.5l-114 57q43 92 133 144.5t196 52.5q214 0 298.5 -138.5t84.5 -411.5q0 -101 -15.5 -198t-57 -172t-114 -121t-185.5 -46q-97 0 -166.5 33t-114 92t-64.5 139.5t-20 178.5z M209 454q0 -76 11.5 -138t37.5 -107t70 -70t109 -25q66 0 111 27t72 73t38 108.5t13 133.5h-462v-2z" />
<glyph unicode="&#x1e80;" horiz-adv-x="1502" d="M37 1496h141l130 -673l98 -548h7l112 495l167 726h119l172 -739l107 -482h6l94 510l130 711h145l-304 -1496h-129l-168 722q-30 123 -56 247.5t-55 247.5h-6q-29 -119 -53.5 -231.5t-50.5 -234.5l-45 -195t-47.5 -205t-44 -193t-35.5 -158h-131q-75 376 -150.5 748 t-152.5 748zM529 1824l101 105l303 -247l-63 -69z" />
<glyph unicode="&#x1e81;" horiz-adv-x="1344" d="M17 1060h143l141 -555q25 -90 42.5 -167.5t28.5 -122.5h8l74 275q12 48 32.5 124t43 160t43 161.5t34.5 124.5h130q78 -281 149 -561q17 -74 36.5 -146t38.5 -144h7l73 283q4 17 15 61t24.5 101.5t30 121t30.5 121t24.5 101t14.5 62.5h143l-291 -1060h-131l-148 536 q-6 20 -17.5 61t-23 86.5t-23.5 86.5t-18 65h-2l-86 -318l-142 -517h-133zM466 1533l136 45l153 -348l-82 -34z" />
<glyph unicode="&#x1e82;" horiz-adv-x="1502" d="M37 1496h141l130 -673l98 -548h7l112 495l167 726h119l172 -739l107 -482h6l94 510l130 711h145l-304 -1496h-129l-168 722q-30 123 -56 247.5t-55 247.5h-6q-29 -119 -53.5 -231.5t-50.5 -234.5l-45 -195t-47.5 -205t-44 -193t-35.5 -158h-131q-75 376 -150.5 748 t-152.5 748zM634 1630l299 241l95 -104l-336 -204z" />
<glyph unicode="&#x1e83;" horiz-adv-x="1344" d="M17 1060h143l141 -555q25 -90 42.5 -167.5t28.5 -122.5h8l74 275q12 48 32.5 124t43 160t43 161.5t34.5 124.5h130q78 -281 149 -561q17 -74 36.5 -146t38.5 -144h7l73 283q4 17 15 61t24.5 101.5t30 121t30.5 121t24.5 101t14.5 62.5h143l-291 -1060h-131l-148 536 q-6 20 -17.5 61t-23 86.5t-23.5 86.5t-18 65h-2l-86 -318l-142 -517h-133zM620 1230l154 348l133 -45l-206 -337z" />
<glyph unicode="&#x1e84;" horiz-adv-x="1502" d="M37 1496h141l130 -673l98 -548h7l112 495l167 726h119l172 -739l107 -482h6l94 510l130 711h145l-304 -1496h-129l-168 722q-30 123 -56 247.5t-55 247.5h-6q-29 -119 -53.5 -231.5t-50.5 -234.5l-45 -195t-47.5 -205t-44 -193t-35.5 -158h-131q-75 376 -150.5 748 t-152.5 748zM495 1609v143h139v-143h-139zM849 1609v143h138v-143h-138z" />
<glyph unicode="&#x1e85;" horiz-adv-x="1344" d="M17 1060h143l141 -555q25 -90 42.5 -167.5t28.5 -122.5h8l74 275q12 48 32.5 124t43 160t43 161.5t34.5 124.5h130q78 -281 149 -561q17 -74 36.5 -146t38.5 -144h7l73 283q4 17 15 61t24.5 101.5t30 121t30.5 121t24.5 101t14.5 62.5h143l-291 -1060h-131l-148 536 q-6 20 -17.5 61t-23 86.5t-23.5 86.5t-18 65h-2l-86 -318l-142 -517h-133zM423 1282v146h141v-146h-141zM785 1282v146h136v-146h-136z" />
<glyph unicode="&#x1ef2;" horiz-adv-x="919" d="M15 1496h145q43 -107 87.5 -211.5t87.5 -209.5q30 -71 59 -147t60 -148l146 345l155 371h142l-374 -872v-624h-133v624zM181 1791l100 105l304 -246l-62 -70z" />
<glyph unicode="&#x1ef3;" horiz-adv-x="806" d="M6 1060h144q35 -114 69.5 -225t68.5 -222q8 -32 24.5 -87t34.5 -114t33.5 -114t25.5 -87h5q12 45 31.5 112t43 146t48.5 164t49 165t44 147.5t33 114.5h140l-394 -1286q-64 -211 -254 -211h-49v117h43q62 0 95.5 42t55.5 118l52 173q-89 262 -172 522.5t-171 524.5z M181 1533l135 45l152 -348l-81 -34z" />
<glyph unicode="&#x2000;" horiz-adv-x="982" />
<glyph unicode="&#x2001;" horiz-adv-x="1964" />
<glyph unicode="&#x2002;" horiz-adv-x="982" />
<glyph unicode="&#x2003;" horiz-adv-x="1964" />
<glyph unicode="&#x2004;" horiz-adv-x="654" />
<glyph unicode="&#x2005;" horiz-adv-x="491" />
<glyph unicode="&#x2006;" horiz-adv-x="327" />
<glyph unicode="&#x2007;" horiz-adv-x="327" />
<glyph unicode="&#x2008;" horiz-adv-x="245" />
<glyph unicode="&#x2009;" horiz-adv-x="392" />
<glyph unicode="&#x200a;" horiz-adv-x="109" />
<glyph unicode="&#x2010;" horiz-adv-x="769" d="M109 505v121h562v-121h-562z" />
<glyph unicode="&#x2011;" horiz-adv-x="769" d="M109 505v121h562v-121h-562z" />
<glyph unicode="&#x2012;" horiz-adv-x="769" d="M109 505v121h562v-121h-562z" />
<glyph unicode="&#x2013;" horiz-adv-x="1072" d="M43 507v127h987v-127h-987z" />
<glyph unicode="&#x2014;" horiz-adv-x="2147" d="M43 507v127h2062v-127h-2062z" />
<glyph unicode="&#x2015;" horiz-adv-x="2147" d="M43 507v129h2062v-129h-2062z" />
<glyph unicode="&#x2018;" horiz-adv-x="427" d="M129 1135v176l95 226h82l-54 -226h41v-176h-164z" />
<glyph unicode="&#x2019;" horiz-adv-x="427" d="M127 1135l54 226h-41v176h163v-176q-28 -54 -50.5 -111.5t-45.5 -114.5h-80z" />
<glyph unicode="&#x201a;" horiz-adv-x="406" d="M105 -230l57 224h-43v178h162v-172l-96 -230h-80z" />
<glyph unicode="&#x201c;" horiz-adv-x="582" d="M82 1135v176l96 226h80l-55 -226h42v-176h-163zM324 1135v176l95 226h82l-54 -226h41v-176h-164z" />
<glyph unicode="&#x201d;" horiz-adv-x="582" d="M88 1135l56 226h-43v178h164v-178l-95 -226h-82zM333 1135l54 226h-43v178h163v-178l-94 -226h-80z" />
<glyph unicode="&#x201e;" horiz-adv-x="698" d="M111 -230l57 224h-43v178h163v-172l-97 -230h-80zM400 -230l54 224h-43v178h163v-172l-94 -230h-80z" />
<glyph unicode="&#x2020;" horiz-adv-x="864" d="M35 866v119h330v511h132v-511h330v-119h-330v-1289h-132v1289h-330z" />
<glyph unicode="&#x2021;" horiz-adv-x="864" d="M35 290v118h330v458h-330v119h330v511h132v-511h330v-119h-330v-458h330v-118h-330v-713h-132v713h-330z" />
<glyph unicode="&#x2022;" horiz-adv-x="799" d="M174 589q0 47 18.5 89t48.5 73t72 49.5t89 18.5t89 -18.5t73 -49.5t49.5 -73t18.5 -89q0 -49 -18.5 -91t-49.5 -73t-73 -49.5t-89 -18.5t-89 18.5t-72 49.5t-48.5 73t-18.5 91z" />
<glyph unicode="&#x2023;" horiz-adv-x="973" d="M174 200v768l731 -373z" />
<glyph unicode="&#x2026;" horiz-adv-x="1362" d="M129 0v174h161v-174h-161zM585 0v174h162v-174h-162zM1047 0v174h164v-174h-164z" />
<glyph unicode="&#x202f;" horiz-adv-x="392" />
<glyph unicode="&#x2030;" horiz-adv-x="1870" d="M74 811v473q0 103 68.5 161.5t167.5 58.5q98 0 166 -58.5t68 -161.5v-473q0 -52 -18.5 -93t-50.5 -68.5t-75 -43t-90 -15.5q-97 0 -166.5 58.5t-69.5 161.5zM181 813q0 -56 35.5 -90.5t93.5 -34.5q55 0 90 34.5t35 90.5v469q0 54 -35 88t-90 34q-58 0 -93.5 -34 t-35.5 -88v-469zM213 -37l793 1572h102l-796 -1572h-99zM782 207v483q0 51 19.5 90t52 67.5t75.5 42t91 13.5q47 0 89 -13.5t74 -42t51.5 -67t19.5 -90.5v-483q0 -52 -19.5 -91.5t-51.5 -68t-74 -42t-89 -13.5q-48 0 -91 13.5t-75.5 42t-52 67.5t-19.5 92zM890 207 q0 -56 35.5 -86.5t94.5 -30.5q55 0 89.5 30t34.5 87v481q0 53 -34.5 84.5t-89.5 31.5q-58 0 -94 -31t-36 -85v-481zM1329 207v483q0 51 19.5 90t51.5 67.5t75 42t91 13.5q47 0 89 -13.5t74 -42t51.5 -67t19.5 -90.5v-483q0 -52 -19.5 -91.5t-51.5 -68t-74 -42t-89 -13.5 q-48 0 -91 13.5t-75 42t-51.5 67.5t-19.5 92zM1436 207q0 -56 36 -86.5t94 -30.5q55 0 89.5 30t34.5 87v481q0 53 -34.5 84.5t-89.5 31.5q-58 0 -94 -31t-36 -85v-481z" />
<glyph unicode="&#x2039;" horiz-adv-x="575" d="M101 492l245 392h134l-244 -392l244 -393h-134z" />
<glyph unicode="&#x203a;" horiz-adv-x="560" d="M101 99l241 393l-241 392h133l248 -392l-248 -393h-133z" />
<glyph unicode="&#x2044;" horiz-adv-x="298" d="M-320 -37l794 1572h100l-796 -1572h-98z" />
<glyph unicode="&#x205f;" horiz-adv-x="491" />
<glyph unicode="&#x2070;" horiz-adv-x="584" d="M58 1004v473q0 103 68.5 161.5t168.5 58.5q99 0 166.5 -58.5t67.5 -161.5v-473q0 -52 -18.5 -93t-50.5 -68.5t-75 -42.5t-90 -15q-97 0 -167 58t-70 161zM166 1006q0 -56 35 -90t94 -34q56 0 90 34t34 90v469q0 54 -34 88.5t-90 34.5q-58 0 -93.5 -34.5t-35.5 -88.5v-469 z" />
<glyph unicode="&#x2074;" horiz-adv-x="593" d="M28 931v91l262 668h116l-262 -660h228v254h110v-254h77v-99h-77v-137h-110v137h-344z" />
<glyph unicode="&#x2075;" horiz-adv-x="575" d="M45 983l109 15q7 -58 39.5 -90t87.5 -32q46 0 71.5 17.5t39.5 47t18.5 68t4.5 81.5q0 90 -25 146.5t-104 56.5q-39 0 -72 -18.5t-50 -49.5h-98v463h445v-92h-345l2 -258q24 21 57 34t83 13q109 0 161 -65.5t52 -225.5q0 -69 -12 -127t-39 -99t-73 -63.5t-116 -22.5 q-103 0 -164 50t-72 151z" />
<glyph unicode="&#x2076;" horiz-adv-x="575" d="M51 1041q0 66 12.5 119t30.5 92l216 434h120l-194 -389q39 12 78 12q116 0 164.5 -70.5t48.5 -182.5q0 -139 -65 -205t-174 -66q-117 0 -177 59t-60 197zM164 1045q0 -76 23.5 -121.5t100.5 -45.5q69 0 98 46t29 117q0 34 -4.5 66t-18.5 57.5t-37 41t-62 15.5 q-76 0 -102.5 -52.5t-26.5 -123.5z" />
<glyph unicode="&#x2077;" horiz-adv-x="530" d="M30 1471v219h479v-88l-302 -808h-113l296 798h-255v-121h-105z" />
<glyph unicode="&#x2078;" horiz-adv-x="579" d="M47 1045q0 168 101 215q-92 41 -92 191q0 127 68.5 185.5t165.5 58.5q98 0 165.5 -58.5t67.5 -185.5q0 -140 -93 -191q103 -54 103 -217q0 -72 -19 -119.5t-53.5 -78t-78.5 -44t-92 -13.5q-50 0 -94 12.5t-77 44t-52.5 80.5t-19.5 120zM152 1051q0 -94 38 -132.5 t100 -38.5q133 0 133 171q0 86 -35.5 126t-97.5 40t-100 -42t-38 -124zM162 1447q0 -76 33 -111t95 -35q127 0 127 150q0 69 -31.5 109t-95.5 40t-96 -40t-32 -113z" />
<glyph unicode="&#x2079;" horiz-adv-x="569" d="M49 1422q0 137 64.5 205t172.5 68q116 0 176.5 -60.5t60.5 -196.5q0 -69 -12 -122.5t-31 -90.5l-215 -433h-121l194 390q-37 -14 -76 -14q-118 0 -165.5 70.5t-47.5 183.5zM160 1438q0 -34 5 -66t17.5 -58t36.5 -41t62 -15q78 0 104 51.5t26 122.5q0 76 -24 122t-101 46 q-70 0 -98 -46t-28 -116z" />
<glyph unicode="&#x207a;" horiz-adv-x="595" d="M21 1127v86h233v221h88v-221h232v-86h-232v-222h-88v222h-233z" />
<glyph unicode="&#x207b;" horiz-adv-x="500" d="M62 1106v94h385v-94h-385z" />
<glyph unicode="&#x207c;" horiz-adv-x="595" d="M21 1017v89h553v-89h-553zM21 1227v89h553v-89h-553z" />
<glyph unicode="&#x207d;" horiz-adv-x="343" d="M62 1182q0 158 62.5 296.5t152.5 243.5l63 -32q-75 -111 -120.5 -241.5t-45.5 -256.5q0 -138 45.5 -270t120.5 -241l-61 -38q-90 103 -153.5 243t-63.5 296z" />
<glyph unicode="&#x207e;" horiz-adv-x="343" d="M33 681q75 108 121 240.5t46 268.5q0 127 -45.5 257.5t-121.5 240.5l61 32q93 -105 155.5 -243.5t62.5 -294.5q0 -77 -17.5 -152.5t-47.5 -144t-69.5 -129.5t-85.5 -113z" />
<glyph unicode="&#x207f;" horiz-adv-x="651" d="M69 600v699h112v-78q34 43 80.5 65.5t97.5 22.5q101 0 161.5 -58.5t60.5 -158.5v-492h-113v458q0 67 -36 105.5t-105 38.5q-70 0 -108 -43t-38 -110v-449h-112z" />
<glyph unicode="&#x2080;" horiz-adv-x="584" d="M58 13v484q0 51 19.5 90t52 66.5t75.5 42t90 14.5t89 -14.5t74 -42t51.5 -66.5t19.5 -90v-484q0 -52 -19.5 -92t-51.5 -67.5t-74 -42t-89 -14.5t-90 14.5t-75.5 42t-52 67.5t-19.5 92zM166 13q0 -56 35 -86t94 -30q56 0 90 30t34 86v482q0 53 -34 84.5t-90 31.5 q-58 0 -93.5 -31.5t-35.5 -84.5v-482z" />
<glyph unicode="&#x2081;" horiz-adv-x="482" d="M94 495v112l144 97h104v-897h-108v780z" />
<glyph unicode="&#x2082;" horiz-adv-x="579" d="M49 -103l323 458q26 37 35.5 69t9.5 68q0 46 -28 82.5t-96 36.5q-51 0 -88 -36.5t-43 -106.5l-111 18q11 101 75.5 161.5t168.5 60.5q115 0 175.5 -57.5t60.5 -158.5q0 -98 -65 -191l-283 -393h340v-101h-474v90z" />
<glyph unicode="&#x2083;" horiz-adv-x="579" d="M49 2l111 13q4 -56 35 -89t86 -33q80 0 108 52.5t28 123.5q0 72 -31 113.5t-100 41.5h-64v94h59q70 0 100 40t30 104t-28 106.5t-97 42.5q-50 0 -84 -33.5t-44 -89.5l-109 17q13 90 75.5 146.5t163.5 56.5q129 0 182 -69t53 -165q0 -27 -3 -53.5t-13 -53.5t-28.5 -50.5 t-50.5 -41.5q67 -32 83 -89t16 -126q0 -115 -58 -189t-190 -74q-96 0 -157.5 49t-72.5 156z" />
<glyph unicode="&#x2084;" horiz-adv-x="593" d="M28 37l271 667h116l-271 -661h236v254h110v-254h78v-99h-78v-137h-110v137h-352v93z" />
<glyph unicode="&#x2085;" horiz-adv-x="575" d="M41 -2l109 15q6 -58 39 -90t88 -32q45 0 71 17.5t40 47t18.5 68t4.5 81.5q0 90 -25 146.5t-105 56.5q-38 0 -71.5 -18.5t-49.5 -49.5h-98v464h445v-93h-345l2 -258q24 21 57 34t82 13q110 0 162 -65.5t52 -225.5q0 -69 -12.5 -127t-39 -99t-73 -63.5t-115.5 -22.5 q-103 0 -164.5 50t-71.5 151z" />
<glyph unicode="&#x2086;" horiz-adv-x="575" d="M51 54q0 69 12.5 120.5t30.5 90.5l216 434h120l-194 -389q37 14 78 14q116 0 164.5 -70.5t48.5 -184.5q0 -137 -65 -204.5t-174 -67.5q-117 0 -177 59.5t-60 197.5zM164 60q0 -76 23.5 -122.5t100.5 -46.5q69 0 98 47t29 116q0 34 -4.5 66t-18.5 57.5t-37 41t-62 15.5 q-76 0 -102.5 -51.5t-26.5 -122.5z" />
<glyph unicode="&#x2087;" horiz-adv-x="530" d="M30 484v220h479v-89l-302 -808h-113l296 800h-255v-123h-105z" />
<glyph unicode="&#x2088;" horiz-adv-x="579" d="M47 56q0 88 26 140t75 75q-92 41 -92 193q0 127 68.5 184.5t165.5 57.5q98 0 165.5 -57.5t67.5 -184.5q0 -140 -93 -193q103 -49 103 -215q0 -72 -19 -119.5t-53.5 -79t-78.5 -46t-92 -14.5q-50 0 -94 14.5t-77 44.5t-52.5 79.5t-19.5 120.5zM152 62q0 -92 38 -131.5 t100 -39.5q133 0 133 171q0 88 -35.5 127t-97.5 39t-100 -41t-38 -125zM162 460q0 -76 33 -111t95 -35t94.5 39t32.5 109q0 71 -31.5 111t-95.5 40t-96 -40t-32 -113z" />
<glyph unicode="&#x2089;" horiz-adv-x="569" d="M49 437q0 137 64.5 205t172.5 68q116 0 176.5 -60.5t60.5 -195.5q0 -70 -12 -123.5t-31 -90.5l-215 -433h-121l194 390q-37 -14 -76 -14q-118 0 -165.5 70.5t-47.5 183.5zM160 454q0 -35 5 -67t17.5 -58t36.5 -41t62 -15q78 0 104 51.5t26 122.5q0 76 -24 122t-101 46 q-70 0 -98 -46t-28 -115z" />
<glyph unicode="&#x208a;" horiz-adv-x="595" d="M21 170v86h233v220h88v-220h232v-86h-232v-221h-88v221h-233z" />
<glyph unicode="&#x208b;" horiz-adv-x="500" d="M62 148v95h385v-95h-385z" />
<glyph unicode="&#x208c;" horiz-adv-x="595" d="M21 58v88h553v-88h-553zM21 267v88h553v-88h-553z" />
<glyph unicode="&#x208d;" horiz-adv-x="343" d="M62 213q0 155 62.5 293.5t152.5 244.5l63 -33q-75 -109 -120.5 -240.5t-45.5 -258.5q0 -137 45.5 -269.5t120.5 -237.5l-61 -41q-45 52 -83 113.5t-68.5 131t-48 144.5t-17.5 153z" />
<glyph unicode="&#x208e;" horiz-adv-x="343" d="M33 -288q75 105 121 237.5t46 269.5q0 125 -45.5 256.5t-121.5 242.5l61 33q93 -105 155.5 -244t62.5 -294q0 -80 -17.5 -154t-47.5 -142.5t-69.5 -131t-85.5 -114.5z" />
<glyph unicode="&#x20ab;" horiz-adv-x="913" d="M142 671q0 86 11 164.5t42 139.5t89 98t153 37q69 0 114.5 -28t76.5 -67v215h-185v90h185v166h125v-166h96v-90h-96v-965h-125v88q-37 -50 -92.5 -73.5t-118.5 -23.5q-84 0 -137.5 31t-83.5 86t-42 131.5t-12 166.5zM160 8v117h620v-117h-620zM269 673q0 -69 6 -125 t26.5 -95.5t56.5 -61t94 -21.5q84 0 121.5 48t48.5 118q4 40 5 81t1 80q0 43 -3 88.5t-16 84.5q-13 56 -50.5 89.5t-106.5 33.5q-58 0 -94 -23.5t-55 -66.5t-26.5 -101t-7.5 -129z" />
<glyph unicode="&#x20ac;" horiz-adv-x="913" d="M30 593v93h84v137h-84v91h84v165q0 95 27 173.5t78.5 135.5t125.5 88.5t168 31.5q138 0 241.5 -71.5t140.5 -206.5l-132 -38q-28 86 -90 138.5t-160 52.5q-66 0 -115 -23.5t-83 -65.5t-49.5 -97.5t-15.5 -114.5v-168h415v-91h-415v-137h415v-93h-415v-189q0 -60 17 -113 t50.5 -92t82.5 -63.5t113 -24.5q101 0 162.5 52t94.5 145l127 -39q-39 -140 -142 -211t-242 -71q-92 0 -166 31t-125.5 87.5t-79.5 136.5t-28 177v174h-84z" />
<glyph unicode="&#x2105;" horiz-adv-x="1373" d="M86 1120q0 187 64.5 289.5t217.5 102.5q90 0 150.5 -43t83.5 -121q-24 -12 -52.5 -24.5t-52.5 -24.5q-13 49 -48.5 76t-80.5 27q-95 0 -131.5 -73t-36.5 -215q0 -54 6.5 -101t26 -84t51.5 -58.5t84 -21.5q47 0 80.5 27t48.5 72l98 -49q-57 -159 -234 -159 q-80 0 -132.5 27t-85 77.5t-45 120t-12.5 155.5zM234 -37q200 394 395.5 785t398.5 785h99q-200 -394 -397 -785t-399 -785h-97zM749 368q0 77 8 136.5t31 106.5q61 146 238 146q64 0 111 -20.5t78 -57.5q43 -47 59 -123t16 -186q0 -173 -47 -261q-69 -123 -228 -122 q-66 0 -110.5 16t-77.5 51q-45 49 -61.5 132t-16.5 182zM864 359q0 -88 12 -148.5t49 -89.5q37 -31 95 -31q100 0 135 93q13 36 17 84.5t4 108.5q0 133 -25 192q-37 81 -127 81q-43 0 -75.5 -16t-51.5 -52q-17 -35 -25 -88.5t-8 -133.5z" />
<glyph unicode="&#x2116;" horiz-adv-x="1674" d="M129 0v1496h133q95 -195 185.5 -390t184.5 -390q8 -17 35.5 -76t58.5 -125t56.5 -125t34.5 -76h8v1182h136v-1496h-134q-10 21 -53 113t-102 218.5t-126.5 269.5t-126 267.5t-100.5 212t-48 101.5h-4v-1182h-138zM1054 1149q0 69 7.5 127t32.5 103q35 62 87 97.5 t142 35.5q86 0 139.5 -33.5t84.5 -85.5q36 -66 35 -238q0 -80 -7 -133.5t-24 -96.5q-31 -69 -95.5 -101t-139.5 -32q-91 0 -145.5 33t-82.5 89q-21 43 -27.5 105.5t-6.5 129.5zM1084 617v99h477v-99h-477zM1163 1137q0 -62 7.5 -104t21.5 -67q17 -37 46.5 -56.5t79.5 -19.5 q94 0 133 82q13 27 17.5 73.5t4.5 111.5q0 62 -5 103t-15 65q-30 85 -133 85q-37 0 -69 -13.5t-51 -44.5q-17 -24 -27 -80.5t-10 -134.5z" />
<glyph unicode="&#x2122;" horiz-adv-x="1573" d="M76 1395v101h548v-101h-220v-741h-107v741h-221zM729 654v840h104q8 -17 27.5 -61t45 -99.5t54.5 -119t55 -121t46.5 -100.5t28.5 -60q8 17 27.5 60t46 100.5t54 121t53.5 119t45.5 99.5t27.5 61h101v-840h-105v573l-211 -439h-86l-208 442h-2v-576h-104z" />
<glyph unicode="&#x2153;" horiz-adv-x="1332" d="M119 1288v112l143 96h103v-896h-107v779zM154 -37l794 1572h101l-795 -1572h-100zM751 195l109 14q4 -56 35.5 -89.5t87.5 -33.5q80 0 107.5 52.5t27.5 123.5q0 72 -31 113.5t-100 41.5h-64v94h60q69 0 99 40t30 105q0 64 -28 106t-97 42q-49 0 -84 -33.5t-45 -89.5 l-107 18q12 91 74.5 146.5t163.5 55.5q129 0 181.5 -69t52.5 -165q0 -27 -3 -53.5t-12.5 -53.5t-28 -50.5t-50.5 -41.5q66 -32 82 -89t16 -125q0 -114 -57.5 -188t-188.5 -74q-97 0 -158.5 48t-71.5 155z" />
<glyph unicode="&#x2154;" horiz-adv-x="1332" d="M56 600v90l322 459q26 34 35.5 66t9.5 69q0 47 -27.5 82.5t-96.5 35.5q-51 0 -88 -35.5t-43 -104.5l-110 16q10 103 74.5 163.5t168.5 60.5q115 0 176 -57.5t61 -158.5q0 -47 -16.5 -97t-47.5 -95l-285 -393h340v-101h-473zM248 -37l793 1572h100l-795 -1572h-98z M800 195l109 14q5 -56 36 -89.5t87 -33.5q80 0 108 52.5t28 123.5q0 72 -31 113.5t-101 41.5h-64v94h60q69 0 99 40t30 105q0 64 -27.5 106t-97.5 42q-49 0 -83.5 -33.5t-45.5 -89.5l-107 18q13 91 75.5 146.5t162.5 55.5q130 0 182.5 -69t52.5 -165q0 -27 -3.5 -53.5 t-13 -53.5t-27.5 -50.5t-51 -41.5q66 -32 83 -89t17 -125q0 -114 -58.5 -188t-189.5 -74q-97 0 -158 48t-72 155z" />
<glyph unicode="&#x2155;" horiz-adv-x="1332" d="M117 1288v112l143 96h103v-896h-107v779zM123 -37l793 1572h101l-795 -1572h-99zM742 191l110 16q6 -58 38.5 -90.5t88.5 -32.5q45 0 70.5 18.5t40 47t18.5 67.5t4 82q0 91 -24.5 146.5t-104.5 55.5q-39 0 -72 -18.5t-51 -47.5h-97v462h446v-93h-347l2 -258q24 21 57 34 t83 13q109 0 161 -65.5t52 -224.5q0 -69 -11.5 -126.5t-39 -98.5t-73.5 -63.5t-114 -22.5q-103 0 -164.5 49t-72.5 150z" />
<glyph unicode="&#x2156;" horiz-adv-x="1332" d="M45 600v90l323 459q26 34 35.5 66t9.5 69q0 47 -28 82.5t-97 35.5q-52 0 -88 -35.5t-42 -104.5l-111 16q11 103 75.5 163.5t167.5 60.5q114 0 175.5 -57.5t61.5 -158.5q0 -47 -16 -97t-49 -95l-284 -393h341v-101h-474zM230 -37l794 1572h101l-796 -1572h-99zM811 191 l110 16q6 -58 38 -90.5t88 -32.5q45 0 71 18.5t40 47t18 67.5t4 82q0 91 -24.5 146.5t-104.5 55.5q-39 0 -72 -18.5t-50 -47.5h-96v462h445v-93h-347l2 -258q25 21 58 34t82 13q109 0 161 -65.5t52 -224.5q0 -69 -12 -126.5t-38.5 -98.5t-73 -63.5t-115.5 -22.5 q-103 0 -164.5 49t-71.5 150z" />
<glyph unicode="&#x2157;" horiz-adv-x="1332" d="M56 794l110 12q4 -55 35 -87.5t87 -32.5q80 0 107.5 52t27.5 124q0 71 -31 113t-99 42h-65v95h60q69 0 99 39t30 105q0 64 -28 105t-96 41q-49 0 -84 -32t-45 -88l-108 17q12 88 75 145.5t164 57.5q129 0 181.5 -69.5t52.5 -166.5q0 -51 -16 -106.5t-78 -90.5 q66 -35 82 -90.5t16 -124.5q0 -115 -58 -189t-189 -74q-97 0 -158.5 48.5t-71.5 154.5zM197 -37l794 1572h101l-795 -1572h-100zM802 191l109 16q7 -58 39.5 -90.5t87.5 -32.5q46 0 71.5 18.5t39.5 47t18.5 67.5t4.5 82q0 91 -25 146.5t-104 55.5q-39 0 -72 -18.5t-50 -47.5 h-98v462h445v-93h-345l2 -258q24 21 57 34t83 13q109 0 161 -65.5t52 -224.5q0 -69 -12 -126.5t-39 -98.5t-73 -63.5t-116 -22.5q-102 0 -163.5 49t-72.5 150z" />
<glyph unicode="&#x2158;" horiz-adv-x="1332" d="M43 737v90l263 669h115l-261 -659h227v253h110v-253h77v-100h-77v-137h-110v137h-344zM230 -37l794 1572h101l-796 -1572h-99zM813 191l110 16q6 -58 38 -90.5t88 -32.5q45 0 71.5 18.5t40 47t17.5 67.5t4 82q0 91 -24.5 146.5t-103.5 55.5q-39 0 -72.5 -18.5 t-50.5 -47.5h-96v462h445v-93h-347l3 -258q24 21 57 34t82 13q109 0 161 -65.5t52 -224.5q0 -69 -12 -126.5t-38.5 -98.5t-73 -63.5t-115.5 -22.5q-103 0 -164.5 49t-71.5 150z" />
<glyph unicode="&#x2159;" horiz-adv-x="1332" d="M135 1288v112l144 96h104v-896h-108v779zM176 -37l794 1572h101l-796 -1572h-99zM720 248q0 69 12 120t31 90l216 434h120l-194 -389q37 15 78 16q116 0 164.5 -71.5t48.5 -185.5q0 -137 -65 -203.5t-174 -66.5q-117 0 -177 58.5t-60 197.5zM833 254q0 -76 23.5 -123 t100.5 -47q69 0 98 47t29 117q0 34 -4.5 66t-18.5 57t-37.5 41t-62.5 16q-76 0 -102 -52t-26 -122z" />
<glyph unicode="&#x215a;" horiz-adv-x="1332" d="M82 790l109 14q6 -57 38.5 -90t88.5 -33q45 0 71 18.5t40 47.5t18.5 68t4.5 82q0 90 -25 146t-105 56q-38 0 -71.5 -18t-50.5 -49h-97v462h445v-92h-345l2 -258q24 22 57 35t82 13q110 0 161 -66t51 -225q0 -69 -11.5 -127t-38 -99t-73 -63.5t-115.5 -22.5 q-103 0 -164.5 49.5t-71.5 151.5zM260 -37l794 1572h101l-796 -1572h-99zM776 248q0 69 12 120t31 90l215 434h121l-194 -389q37 15 77 16q117 0 165.5 -71.5t48.5 -185.5q0 -137 -65 -203.5t-174 -66.5q-116 0 -176.5 58.5t-60.5 197.5zM888 254q0 -76 24 -123t101 -47 q70 0 98 47t28 117q0 34 -4 66t-17.5 57t-37.5 41t-63 16q-75 0 -102 -52t-27 -122z" />
<glyph unicode="&#x215b;" horiz-adv-x="1332" d="M114 1288v112l144 96h103v-896h-107v779zM140 -37l793 1572h101l-796 -1572h-98zM731 250q0 88 25.5 139.5t76.5 74.5q-93 41 -93 194q0 127 69 184t165 57q99 0 165.5 -57t66.5 -184q0 -139 -92 -194q103 -48 103 -214q0 -72 -19.5 -120t-53.5 -79.5t-78 -45t-92 -13.5 q-49 0 -93 13.5t-77.5 44t-53 79.5t-19.5 121zM837 256q0 -92 37 -132t100 -40q134 0 134 172q0 88 -36 126.5t-98 38.5t-99.5 -40.5t-37.5 -124.5zM845 654q0 -75 33 -111t96 -36q62 0 94.5 39t32.5 110q0 72 -31.5 111t-95.5 39t-96.5 -39.5t-32.5 -112.5z" />
<glyph unicode="&#x215c;" horiz-adv-x="1332" d="M56 794l110 12q4 -55 35 -87.5t87 -32.5q80 0 107.5 52t27.5 124q0 71 -31 113t-99 42h-65v95h60q69 0 99 39t30 105q0 64 -28 105t-96 41q-49 0 -84 -32t-45 -88l-108 17q12 88 75 145.5t164 57.5q129 0 181.5 -69.5t52.5 -166.5q0 -51 -16 -106.5t-78 -90.5 q66 -35 82 -90.5t16 -124.5q0 -115 -58 -189t-189 -74q-97 0 -158.5 48.5t-71.5 154.5zM217 -37l794 1572h101l-796 -1572h-99zM792 250q0 88 25.5 139.5t74.5 74.5q-92 41 -92 194q0 127 69 184t165 57q99 0 165.5 -57t66.5 -184q0 -139 -92 -194q104 -48 104 -214 q0 -72 -19.5 -120t-54 -79.5t-78.5 -45t-92 -13.5q-49 0 -93 13.5t-77 44t-52.5 79.5t-19.5 121zM897 256q0 -92 37.5 -132t99.5 -40q134 0 134 172q0 88 -36 126.5t-98 38.5t-99.5 -40.5t-37.5 -124.5zM905 654q0 -75 33.5 -111t95.5 -36t94.5 39t32.5 110q0 72 -31.5 111 t-95.5 39t-96.5 -39.5t-32.5 -112.5z" />
<glyph unicode="&#x215d;" horiz-adv-x="1332" d="M62 790l110 14q6 -57 38.5 -90t88.5 -33q45 0 71 18.5t39.5 47.5t18.5 68t5 82q0 90 -25 146t-105 56q-38 0 -72 -18t-50 -49h-97v462h445v-92h-346l2 -258q24 22 57 35t82 13q110 0 162 -66t52 -225q0 -69 -12.5 -127t-39 -99t-72.5 -63.5t-115 -22.5q-103 0 -164 49.5 t-73 151.5zM222 -37l793 1572h101l-796 -1572h-98zM785 250q0 88 26 139.5t75 74.5q-92 41 -92 194q0 127 68.5 184t165.5 57q99 0 165.5 -57t66.5 -184q0 -139 -92 -194q102 -48 102 -214q0 -72 -18.5 -120t-53.5 -79.5t-79 -45t-91 -13.5q-49 0 -93.5 13.5t-78 44 t-52.5 79.5t-19 121zM890 256q0 -92 38 -132t100 -40q133 0 133 172q0 88 -35.5 126.5t-97.5 38.5t-100 -40.5t-38 -124.5zM899 654q0 -75 33.5 -111t95.5 -36t94.5 39t32.5 110q0 72 -31.5 111t-95.5 39t-96.5 -39.5t-32.5 -112.5z" />
<glyph unicode="&#x215e;" horiz-adv-x="1332" d="M94 1278v218h480v-88l-303 -808h-111l294 798h-254v-120h-106zM144 -37l794 1572h100l-795 -1572h-99zM753 250q0 88 25.5 139.5t75.5 74.5q-93 41 -93 194q0 127 69 184t165 57q99 0 165.5 -57t66.5 -184q0 -139 -92 -194q104 -48 104 -214q0 -72 -19.5 -120t-54 -79.5 t-78.5 -45t-92 -13.5q-49 0 -93 13.5t-77 44t-52.5 79.5t-19.5 121zM858 256q0 -92 37.5 -132t99.5 -40q134 0 134 172q0 88 -36 126.5t-98 38.5t-99.5 -40.5t-37.5 -124.5zM866 654q0 -75 33.5 -111t95.5 -36t94.5 39t32.5 110q0 72 -31.5 111t-95.5 39t-96.5 -39.5 t-32.5 -112.5z" />
<glyph unicode="&#x2190;" horiz-adv-x="1775" d="M152 690l465 467l82 -82l-336 -328h1289v-113h-1289l336 -328l-82 -82z" />
<glyph unicode="&#x2191;" horiz-adv-x="1042" d="M60 1034l467 468l466 -468l-82 -82l-330 332v-1282h-113v1282l-326 -332z" />
<glyph unicode="&#x2192;" horiz-adv-x="1775" d="M154 634v113h1287l-335 328l84 82l464 -467l-464 -466l-84 82l335 328h-1287z" />
<glyph unicode="&#x2193;" horiz-adv-x="1042" d="M60 471l82 81l329 -335v1287h110v-1287l330 335l82 -81l-466 -467z" />
<glyph unicode="&#x2196;" horiz-adv-x="1805" d="M267 720v659h660v-113h-471l1183 -1176l-80 -80l-1181 1182v-472h-111z" />
<glyph unicode="&#x2198;" horiz-adv-x="1805" d="M265 1303l79 80l1178 -1180v468h115v-658h-663v114h473z" />
<glyph unicode="&#x21a9;" horiz-adv-x="1805" d="M92 690l462 467l84 -82l-332 -328h1071q64 0 108 19t71.5 52.5t40 79.5t12.5 97v175q0 103 -55.5 161t-176.5 58h-150v109h160q92 0 157 -25.5t105.5 -70.5t57.5 -107t17 -134v-166q0 -165 -88.5 -263t-276.5 -98h-1053l332 -328l-84 -82z" />
<glyph unicode="&#x21aa;" horiz-adv-x="1788" d="M94 995v166q0 72 17.5 134t57.5 107t104.5 70.5t156.5 25.5h159v-109h-148q-123 0 -176.5 -58t-53.5 -161v-175q0 -51 11.5 -97t38.5 -79.5t71 -52.5t109 -19h1075l-336 328l82 82l465 -467l-465 -466l-82 82l336 328h-1058q-187 0 -275.5 98.5t-88.5 262.5z" />
<glyph unicode="&#x21b3;" horiz-adv-x="1805" d="M258 632v856h116v-741h1151l-333 328l78 82l466 -467l-463 -466l-81 82l333 326h-1267z" />
<glyph unicode="&#x21b5;" horiz-adv-x="1805" d="M217 690l460 467l82 -82l-333 -328h1150v741h117v-856h-1267l333 -326l-82 -82z" />
<glyph unicode="&#x21de;" horiz-adv-x="1042" d="M69 1032l464 464l467 -464l-79 -82l-330 328l2 -482h242v-115h-242v-191h242v-114h-242v-376h-115v376h-242v114h242v191h-242v115h242v482l-330 -328z" />
<glyph unicode="&#x21df;" horiz-adv-x="1042" d="M69 464l79 82l330 -331v486h-242v114h242v191h-242v114h242v376h115v-376h242v-114h-242v-191h242v-114h-242l-2 -486l330 331l79 -82l-467 -464z" />
<glyph unicode="&#x21e0;" horiz-adv-x="1771" d="M125 690q117 116 233 232t231 233q19 -19 41 -39t41 -41l-338 -331h334v-112h-334l338 -329l-82 -79zM796 632v112h191v-112h-191zM1120 632v112h194v-112h-194zM1447 632v112h170v-112h-170z" />
<glyph unicode="&#x21e1;" horiz-adv-x="1032" d="M51 1030l470 466l464 -466l-80 -82l-331 336v-330h-112v330l-329 -336zM460 2v172h114v-172h-114zM460 308v191h114v-191h-114zM460 632v189h114v-189h-114z" />
<glyph unicode="&#x21e2;" horiz-adv-x="1771" d="M127 632v115h170v-115h-170zM430 632v115h194v-115h-194zM757 632v115h191v-115h-191zM1071 306l339 328h-333v113h333l-339 328l84 82l464 -467l-464 -466z" />
<glyph unicode="&#x21e3;" horiz-adv-x="1032" d="M51 464l80 82q82 -84 165.5 -166.5t165.5 -168.5v331h110v-331q82 86 165.5 168.5t165.5 166.5q21 -19 41 -39.5t39 -42.5l-464 -464zM460 673v191h112v-191h-112zM460 995v195h112v-195h-112zM460 1323v171h112v-171h-112z" />
<glyph unicode="&#x21e4;" horiz-adv-x="1745" d="M164 228v925h115v-925h-115zM383 690l464 467l84 -82l-336 -328h1087v-113h-1087l336 -328l-84 -82z" />
<glyph unicode="&#x21e5;" horiz-adv-x="1745" d="M166 634v113h1086l-336 328l84 82l465 -467l-465 -466l-84 82l336 328h-1086zM1570 228v925h114v-925h-114z" />
<glyph unicode="&#x21e7;" horiz-adv-x="1748" d="M97 690l781 808l780 -808h-388v-690h-784v690h-389zM314 776h267v-682h597v682h263l-563 583z" />
<glyph unicode="&#x21ea;" horiz-adv-x="1758" d="M88 690l782 808l782 -808h-390v-514h-784v514h-390zM306 776h266v-505h598v505h262l-562 583zM478 -21h784v-387h-784v387zM572 -114v-200h598v200h-598z" />
<glyph unicode="&#x2202;" horiz-adv-x="936" d="M74 460q0 111 27.5 201t76 152.5t112 95.5t133.5 33q66 0 141.5 -30t151.5 -127q2 148 -24.5 268.5t-76 205.5t-119.5 131t-154 46q-24 0 -52 -3t-60 -13l-2 107q37 10 65.5 13.5t59.5 3.5q131 0 223.5 -68t152 -179t86 -252.5t26.5 -289.5q0 -189 -31.5 -334.5t-86 -243 t-129.5 -148t-166 -50.5q-75 0 -140.5 31t-113 91.5t-74 150t-26.5 208.5zM191 464q0 -94 19.5 -164t53 -115t76.5 -66.5t93 -21.5q71 0 123.5 48t86.5 126t52.5 173.5t20.5 191.5q-76 115 -145.5 156t-135.5 41q-60 0 -105.5 -32.5t-76.5 -85t-46.5 -119t-15.5 -132.5z" />
<glyph unicode="&#x220f;" horiz-adv-x="1120" d="M140 -183v1679h841v-1679h-140v1557h-564v-1557h-137z" />
<glyph unicode="&#x2211;" horiz-adv-x="857" d="M51 1381v115h743v-124h-591l310 -709l-308 -721h610v-127h-761v121l307 727z" />
<glyph unicode="&#x221a;" horiz-adv-x="977" d="M39 776l238 97l252 -830q17 88 41.5 222.5t55 290.5t62.5 323.5t61 323.5t53.5 289t40.5 224h116l-366 -1894h-111l-279 907q-11 -5 -28 -12t-36.5 -16t-38 -17.5t-26.5 -10.5z" />
<glyph unicode="&#x221e;" horiz-adv-x="1291" d="M47 574q0 64 22.5 119.5t60.5 94.5t88.5 62t105.5 23q48 0 93 -18t86 -48.5t77 -70t65 -82.5q12 21 25.5 37.5t28.5 32.5q56 65 124.5 107t148.5 42q112 0 188.5 -80.5t76.5 -218.5q0 -66 -21.5 -121t-59.5 -95t-87 -61.5t-108 -21.5q-95 0 -172 63.5t-146 153.5 q-72 -94 -148 -155.5t-181 -61.5q-56 0 -104 20.5t-84 59.5t-57.5 93.5t-21.5 125.5zM148 574q0 -88 52 -142t122 -54q72 0 141.5 58.5t115.5 135.5q-21 35 -49.5 70t-61.5 63t-70 45.5t-74 17.5q-36 0 -67 -15.5t-56 -41t-39 -61t-14 -76.5zM706 574q28 -38 57 -73 t61 -62.5t66.5 -44t70.5 -16.5q71 0 123.5 56t52.5 140q0 86 -50 140t-119 54q-76 0 -141.5 -57t-120.5 -137z" />
<glyph unicode="&#x222b;" horiz-adv-x="651" d="M-47 -312q14 50 23 97q26 -7 46.5 -9t33.5 -2q47 0 80.5 19.5t56 64.5t37 117t20.5 179q8 148 11.5 325t7.5 413q0 134 3 222t7 156q17 203 85.5 296.5t197.5 93.5q24 0 58 -4t64 -15q-5 -24 -12 -48.5t-12 -48.5q-24 4 -44.5 6.5t-36.5 2.5q-46 0 -79.5 -18.5t-56 -63.5 t-35 -118t-16.5 -183q-2 -31 -3.5 -85.5t-2.5 -123.5t-1 -145t-1 -149.5t-2.5 -134.5t-3.5 -99q-4 -110 -7 -208t-14 -180q-24 -197 -93 -285.5t-198 -88.5q-24 0 -53.5 3.5t-59.5 13.5z" />
<glyph unicode="&#x2248;" horiz-adv-x="913" d="M30 443q35 49 89.5 85t118.5 36q52 0 99.5 -15.5t95 -34.5t95.5 -34.5t100 -15.5q47 0 93.5 23.5t82.5 71.5l62 -64q-43 -70 -107 -103t-133 -33q-52 0 -103.5 15.5t-101 32l-96 32t-87.5 15.5q-43 0 -75 -21.5t-62 -58.5zM30 761q35 50 89.5 85.5t118.5 35.5 q52 0 99.5 -15t95 -34.5t95.5 -35t100 -15.5q47 0 93.5 24.5t82.5 71.5l62 -65q-43 -70 -107 -103t-133 -33q-52 0 -103.5 15.5t-101 33.5t-96 33t-87.5 15q-43 0 -75 -21.5t-62 -57.5z" />
<glyph unicode="&#x2260;" horiz-adv-x="913" d="M43 385v112h243l149 247h-392v110h458l172 285h117l-175 -285h255v-110h-320l-150 -247h470v-112h-537l-155 -256l-112 4l151 252h-174z" />
<glyph unicode="&#x2264;" horiz-adv-x="913" d="M47 24v111h819v-111h-819zM47 574v103l819 355v-129l-685 -277q51 -21 144.5 -60t197 -80t198 -78.5t145.5 -58.5v-127z" />
<glyph unicode="&#x2265;" horiz-adv-x="913" d="M49 24v111h819v-111h-819zM49 222v127q35 12 89.5 34.5t119 48.5t134.5 53.5t135.5 55t121 49t88.5 36.5l-688 277v129l819 -355v-103z" />
<glyph unicode="&#x2303;" horiz-adv-x="1709" d="M232 890l622 622l621 -620l-90 -90l-531 529l-532 -531z" />
<glyph unicode="&#x2318;" horiz-adv-x="1771" d="M119 279q0 60 20.5 113t57.5 93t92 63.5t126 23.5h172v355h-172q-60 0 -113.5 23.5t-94.5 63.5t-64.5 92.5t-23.5 112.5t21.5 114t60.5 94t94.5 63.5t119.5 23.5q73 0 127.5 -23.5t91.5 -63.5t55.5 -93.5t18.5 -114.5v-176h350v176q0 60 21.5 114t60 94t93.5 63.5 t119 23.5q72 0 126.5 -23.5t92.5 -64.5t57 -93.5t19 -113.5q0 -58 -23.5 -110.5t-63.5 -93.5t-93.5 -64.5t-114.5 -23.5h-174v-355h174q74 0 129.5 -23.5t92.5 -63.5t55 -93.5t18 -112.5q0 -57 -18 -111t-55 -94.5t-92.5 -64.5t-129.5 -24q-71 0 -125.5 24t-92.5 63t-57 93 t-19 114v177h-350v-177q0 -57 -18.5 -109.5t-55.5 -93.5t-91.5 -66t-127.5 -25q-70 0 -124.5 22.5t-92.5 63t-58.5 93.5t-20.5 115zM236 279q0 -75 51 -126.5t128 -51.5q73 0 122.5 52t49.5 126v177h-172q-78 0 -128.5 -52.5t-50.5 -124.5zM236 1219q0 -76 51 -126t128 -50 h172v176q0 74 -50.5 124t-121.5 50q-76 0 -127.5 -49t-51.5 -125zM708 572h350v355h-350v-355zM1178 279q0 -75 51 -126.5t123 -51.5q76 0 126.5 52t50.5 126q0 72 -50.5 124.5t-126.5 52.5h-174v-177zM1178 1043h174q76 0 126.5 52t50.5 124q0 74 -50.5 124t-126.5 50 q-73 0 -123.5 -49t-50.5 -125v-176z" />
<glyph unicode="&#x2324;" horiz-adv-x="1709" d="M254 1370v126h1240v-126h-1240zM260 667l613 647l613 -645l-88 -90l-525 558l-522 -558z" />
<glyph unicode="&#x2325;" horiz-adv-x="2554" d="M92 1309v127h592l736 -1311h1012v-125h-1112l-735 1309h-493zM1129 1309v127h1303v-127h-1303z" />
<glyph unicode="&#x2326;" horiz-adv-x="2468" d="M193 0v1494h1418l726 -747l-726 -747h-1418zM310 119h1231l622 628l-622 627h-1231v-1255zM660 406l342 341l-342 341l84 84l340 -341l342 341l82 -84l-340 -341l340 -341l-82 -84l-342 345l-340 -345z" />
<glyph unicode="&#x232b;" horiz-adv-x="2468" d="M195 747l728 747h1414v-1494h-1416zM365 747l622 -628h1233v1255h-1233zM1024 406l339 341l-339 341l82 84l343 -341l340 341l82 -84l-342 -341l342 -341l-82 -84l-340 345l-343 -345z" />
<glyph unicode="&#x235f;" horiz-adv-x="1728" d="M99 747q0 157 59 295t162 241.5t242 163t298 59.5q157 0 296 -60.5t242.5 -164t162 -242t58.5 -295.5h-2q0 -157 -60.5 -295.5t-163.5 -242t-241.5 -162.5t-295.5 -59q-158 0 -295.5 59t-240.5 162.5t-162 242t-59 298.5zM222 744q0 -131 49 -246t135 -201t202 -136 t248 -50q131 0 247 50t202 136t135.5 201t49.5 246q0 132 -49.5 248t-135.5 202t-202 135.5t-247 49.5q-132 0 -248 -49.5t-202 -135.5t-135 -202t-49 -248zM327 890l350 69l162 319l172 -314l352 -74l-243 -243l56 -363l-337 163l-303 -163l45 354z" />
<glyph unicode="&#x23cf;" horiz-adv-x="1835" d="M142 195v293h1510v-293h-1510zM142 675l755 755l755 -755h-1510z" />
<glyph unicode="&#x25a0;" horiz-adv-x="1881" d="M265 86v1361h1360v-1361h-1360z" />
<glyph unicode="&#x25a1;" horiz-adv-x="1808" d="M176 0v1490h1478v-1490h-1478zM286 103h1261v1280h-1261v-1280z" />
<glyph unicode="&#x25b2;" horiz-adv-x="1762" d="M170 378l755 755l754 -755h-1509z" />
<glyph unicode="&#x25b6;" horiz-adv-x="1278" d="M297 0v1508l754 -753z" />
<glyph unicode="&#x25bc;" horiz-adv-x="1762" d="M170 1133h1509l-754 -755z" />
<glyph unicode="&#x25c0;" horiz-adv-x="1278" d="M217 755l755 753v-1508z" />
<glyph unicode="&#x25ca;" horiz-adv-x="724" d="M45 624l241 617h140q60 -154 121.5 -308.5t123.5 -308.5l-245 -618h-140zM160 620h2q49 -125 96.5 -247.5t96.5 -247.5h4l195 495q-49 124 -99.5 248.5t-99.5 249.5h-4q-48 -125 -95 -249.5t-96 -248.5z" />
<glyph unicode="&#x25cf;" horiz-adv-x="1812" d="M238 768q0 141 56.5 265t150 215.5t217 145t259.5 53.5q135 0 257.5 -53.5t216 -147t149.5 -217.5t56 -261q0 -138 -54 -261.5t-147.5 -217.5t-217 -148.5t-260.5 -54.5q-140 0 -264 53.5t-217.5 147t-147.5 217.5t-54 264z" />
<glyph unicode="&#x25fc;" horiz-adv-x="1063" d="M0 0v1065h1065v-1065h-1065z" />
<glyph unicode="&#x2602;" horiz-adv-x="1676" d="M107 782q0 138 65.5 266t167 228.5t226 160t242.5 59.5v67h62v-69q119 0 243 -58.5t224.5 -158t165.5 -228t65 -267.5q-35 39 -86.5 61.5t-107.5 22.5q-49 0 -96.5 -20.5t-87.5 -63.5h-6q-49 84 -160 84q-60 0 -134 -29v-654q0 -91 -55 -145.5t-158 -54.5 q-90 0 -149.5 50.5t-59.5 159.5v29h102v-29q0 -60 29 -87.5t74 -27.5q35 0 56.5 10.5t33 27.5t15.5 38.5t4 42.5v638q-30 14 -57.5 19.5t-53.5 5.5q-56 0 -100 -21.5t-83 -58.5q-36 43 -85.5 63.5t-101.5 20.5q-53 0 -104 -20.5t-88 -63.5zM1568 782l2 -2q-2 0 -2 2z" />
<glyph unicode="&#x2605;" horiz-adv-x="1750" d="M90 918l536 104l244 486l265 -480l538 -110l-372 -372l84 -554l-515 251l-459 -251l69 539z" />
<glyph unicode="&#x2606;" horiz-adv-x="1801" d="M84 931l546 105l243 484l266 -479l547 -110l-379 -379l84 -556l-515 252l-470 -256l72 548zM209 892l329 -328l-58 -465l396 213l442 -213l-75 475l320 318l-457 93l-230 415l-211 -421z" />
<glyph unicode="&#x2610;" horiz-adv-x="1808" d="M176 0v1490h1478v-1490h-1478zM286 103h1261v1280h-1261v-1280z" />
<glyph unicode="&#x2611;" horiz-adv-x="1826" d="M176 0v1490h1478v-1490h-1478zM286 101h1263v1282h-1263v-1282zM423 782q37 29 81 40t72 11q19 0 46 -38t54.5 -97.5t50 -132.5t32.5 -144q62 103 149 226t185.5 241t201.5 219.5t197 160.5l18 -14q-56 -43 -120.5 -115t-130 -161.5t-130 -187.5t-123 -194.5t-106.5 -184 t-81 -153.5q-109 -19 -152 -43q-17 64 -46.5 152.5t-62.5 172.5t-68.5 151.5t-66.5 90.5z" />
<glyph unicode="&#x2612;" horiz-adv-x="1826" d="M178 0v1490h1478v-1490h-1478zM288 103h1261v1280h-1261v-1280zM404 335l415 416l-415 415l88 88l417 -419l411 419l88 -86l-413 -413l420 -420l-92 -85l-416 419l-417 -424z" />
<glyph unicode="&#x2622;" horiz-adv-x="1799" d="M107 755q0 144 56 283.5t159.5 251.5t248.5 180.5t324 68.5q168 0 313.5 -59.5t253.5 -164t169.5 -245.5t61.5 -305q0 -165 -61.5 -311t-168 -255t-251.5 -172.5t-313 -63.5q-166 0 -310 61.5t-251.5 168t-169 251.5t-61.5 311zM185 755q0 -150 57 -280.5t155 -227.5 t229 -151.5t277 -54.5q142 0 270 56.5t225.5 154t155 223t57.5 262.5q0 170 -61.5 305.5t-161.5 230.5t-229 146.5t-264 51.5q-146 0 -275.5 -57t-226 -155t-152.5 -228t-56 -276zM248 755q0 185 76 320.5t246 244.5l212 -370q-49 -30 -77 -80.5t-34 -114.5h-423zM574 193 l211 366q64 -31 116 -30q43 0 108 30l214 -368q-170 -88 -331 -88q-174 0 -318 90zM727 755q0 73 50 123.5t122 50.5q34 0 65 -15t54 -38.5t36 -54.5t13 -66t-13 -65t-36 -52.5t-54 -36.5t-65 -14q-66 0 -119 47t-53 121zM1009 954l214 369q155 -86 241.5 -232.5 t86.5 -335.5h-424q-13 133 -118 199z" />
<glyph unicode="&#x2623;" horiz-adv-x="1840" d="M119 519q0 62 16.5 122t56.5 112.5t103.5 97t158.5 74.5q0 135 24.5 235t75 167.5t128 109.5t184.5 61l12 -31q-293 -85 -293 -326q0 -146 82 -231t238 -104v-47q-49 -10 -69.5 -39.5t-20.5 -59.5q0 -10 2 -20t6 -20l-41 -23q-129 155 -285 156q-62 0 -121.5 -26 t-104.5 -70t-73 -102t-28 -122q0 -48 13 -121l-23 -11q-17 54 -29 108.5t-12 109.5zM217 189l23 18q146 -129 252 -129q72 0 134 26.5t108 72t73.5 106.5t27.5 130q0 26 -6 65t-33 88l47 27q15 -24 37.5 -31.5t44.5 -7.5q39 0 70 37l50 -25q-37 -88 -36 -155 q0 -67 25.5 -126t71 -104.5t103 -71t122.5 -25.5q142 0 263 116l25 -17q-41 -56 -82 -91.5t-85 -56t-93.5 -28t-106.5 -7.5q-82 0 -166.5 22.5t-164.5 91.5q-90 -69 -174 -91.5t-160 -22.5q-56 0 -105 8.5t-93.5 30t-86.5 58t-85 92.5zM486 636q0 45 9 82h26q47 -4 90 -26 v-64q0 -164 189 -258q-4 -31 -16 -59.5t-29 -52.5q-60 27 -110 65t-85 88.5t-54.5 107.5t-19.5 117zM654 993q69 45 133.5 69t133.5 24q137 0 269 -93q-29 -57 -80 -92q-95 64 -185 65q-88 0 -192 -65q-31 17 -47.5 40t-31.5 52zM936 759v47q154 19 236 107t82 234 q0 234 -254 318l11 33q195 -43 287.5 -165t92.5 -333v-34.5t-2 -36.5q168 -66 249.5 -179.5t81.5 -257.5q0 -96 -38 -206l-28 9q17 92 17 140q0 64 -27 121t-72 99t-106.5 65.5t-129.5 23.5q-86 0 -154 -40.5t-119 -112.5l-50 29q7 20 7 43q0 34 -19.5 59t-64.5 37z M1041 370q189 94 189 266v26t-3 30q25 15 59 18.5t58 3.5q8 -35 8 -80q0 -116 -71.5 -217t-201.5 -159q-14 27 -24 54.5t-14 57.5z" />
<glyph unicode="&#x262e;" horiz-adv-x="1793" d="M101 759q0 162 61.5 303.5t168 246t248 164.5t303.5 60q168 0 313 -60t252.5 -164.5t168.5 -244t61 -299.5q0 -165 -62 -309t-170.5 -250.5t-255 -168t-311.5 -61.5q-158 0 -298.5 62.5t-247 169t-169 249.5t-62.5 302zM240 755q0 -58 6 -101t16.5 -77.5t27 -67.5 t39.5 -72l496 451v514q-129 -17 -236 -70.5t-184.5 -138.5t-121 -197t-43.5 -241zM402 340q50 -47 97 -86t96.5 -70.5t105.5 -52t124 -30.5v626zM948 105q127 15 230.5 73t200.5 162l-431 387v-622zM948 888l503 -449q39 69 61.5 148.5t22.5 177.5q0 125 -41 233t-117 190 t-184.5 138.5t-244.5 75.5v-514z" />
<glyph unicode="&#x262f;" horiz-adv-x="1779" d="M107 765q0 177 68 319.5t177.5 245t249.5 158.5t286 56q177 0 321.5 -63t248 -171t159.5 -251t56 -302q0 -176 -63 -319t-171 -245.5t-249 -157t-298 -54.5q-174 0 -319 65t-248 174t-160.5 251t-57.5 294zM525 1404l11 -9q45 13 90 13q88 0 160 -33t122.5 -83.5 t78.5 -110t28 -112.5q0 -109 -42 -203t-146 -197q-45 -45 -61.5 -111t-16.5 -111q0 -159 97.5 -248.5t275.5 -89.5q93 0 183 51t161 139t115 206.5t44 253.5q0 142 -52.5 276.5t-149 238t-232 167t-303.5 63.5q-96 0 -187.5 -25.5t-175.5 -74.5zM544 1049q0 -43 28 -75 t77 -32q47 0 78.5 32t31.5 75q0 39 -30 72.5t-82 33.5q-37 0 -70 -29.5t-33 -76.5zM1026 480q0 49 33 80t70 31q47 0 78.5 -34t31.5 -77q0 -47 -33.5 -76.5t-76.5 -29.5q-45 0 -74 33.5t-29 72.5z" />
<glyph unicode="&#x2672;" horiz-adv-x="1976" d="M107 905h455l182 -394l-129 76l-67 -60q-35 -32 -35 -63q0 -53 68 -53h412v-454h-398q-69 0 -96.5 22.5t-49.5 61.5l-242 447q-15 26 -20.5 54t-5.5 58q0 55 15 107t54 93zM197 873l102 -69q-41 -39 -63.5 -91.5t-22.5 -108.5q0 -62 20.5 -100t53.5 -58t74 -27.5t80 -7.5 h60q-24 16 -23 51q0 43 41 84l90 82l60 -37l-131 282h-341zM281 411l190 -351q19 -35 42 -55t72 -20h379v398h-510q-37 0 -61.5 2t-43 5.5t-34.5 8.5t-34 12zM383 1077l221 357q24 39 58.5 60.5t90.5 21.5h522q43 0 59 -5t31 -29l114 -187l138 82l-181 -413l-453 45l129 81 l-99 174l-266 -398zM428 1084l309 -179l258 390q-41 79 -101.5 130.5t-153.5 51.5q-62 0 -104 -59zM841 1488q66 -15 110 -71t83 -124l121 -216l-80 -49l343 -33l143 312l-86 -55l-127 199q-12 21 -27.5 29t-40.5 8h-439zM1051 168l237 363v-151h234l-247 420l370 220 l204 -380q19 -38 20 -64q0 -24 -8 -44.5t-18 -39.5l-232 -416q-19 -35 -33.5 -57.5t-28.5 -37t-32.5 -19.5t-45.5 -5h-181v-166zM1088 168l174 -279v96h207q19 0 43.5 10.5t44.5 45.5l222 404q-70 -64 -146 -80t-190 -16h-181v94zM1314 792l247 -412q41 4 88.5 21.5t88.5 45 t67.5 61.5t26.5 73q0 14 -4 27.5t-8 23.5l-192 342z" />
<glyph unicode="&#x2673;" horiz-adv-x="1867" d="M107 224q0 77 53 168l156 281l-99 54l15 28l254 47l90 -240l-17 -33l-101 62l-138 -249q-28 -51 -27 -92q0 -39 29 -65.5t97 -26.5h426v-158h-458q-129 0 -204.5 61.5t-75.5 162.5zM471 942l228 398q48 82 106.5 117t123.5 35q66 0 127.5 -38.5t100.5 -107.5l157 -277 l110 62l12 -30l-94 -241l-260 45l-13 26l105 58l-152 258q-17 31 -42.5 47.5t-54.5 16.5q-30 0 -58 -21.5t-46 -52.5l-212 -375zM776 695v122l90 65h106v-624h-118v491zM959 78l168 210l28 -4v-126h275q78 0 113 25.5t35 68.5q0 41 -34 99l-215 365l144 84l239 -417 q49 -84 49 -157q0 -103 -87 -164.5t-221 -61.5h-300v-127h-35z" />
<glyph unicode="&#x2674;" horiz-adv-x="1867" d="M107 224q0 77 53 168l156 281l-99 54l15 28l254 47l90 -240l-17 -33l-101 62l-138 -249q-28 -51 -27 -92q0 -39 29 -65.5t97 -26.5h426v-158h-458q-129 0 -204.5 61.5t-75.5 162.5zM471 942l228 398q48 82 106.5 117t123.5 35q66 0 127.5 -38.5t100.5 -107.5l157 -277 l110 62l12 -30l-94 -241l-260 45l-13 26l105 58l-152 258q-17 31 -42.5 47.5t-54.5 16.5q-30 0 -58 -21.5t-46 -52.5l-212 -375zM708 267v98l230 289q30 33 30 70q0 25 -17.5 44.5t-49.5 19.5q-31 0 -50.5 -25.5t-27.5 -67.5l-111 13q12 90 66.5 138.5t122.5 48.5 q78 0 129.5 -43.5t51.5 -124.5q0 -31 -11 -64t-35 -63l-178 -224h213v-109h-363zM959 78l168 210l28 -4v-126h275q78 0 113 25.5t35 68.5q0 41 -34 99l-215 365l144 84l239 -417q49 -84 49 -157q0 -103 -87 -164.5t-221 -61.5h-300v-127h-35z" />
<glyph unicode="&#x2675;" horiz-adv-x="1867" d="M107 224q0 77 53 168l156 281l-99 54l15 28l254 47l90 -240l-17 -33l-101 62l-138 -249q-28 -51 -27 -92q0 -39 29 -65.5t97 -26.5h426v-158h-458q-129 0 -204.5 61.5t-75.5 162.5zM471 942l228 398q48 82 106.5 117t123.5 35q66 0 127.5 -38.5t100.5 -107.5l157 -277 l110 62l12 -30l-94 -241l-260 45l-13 26l105 58l-152 258q-17 31 -42.5 47.5t-54.5 16.5q-30 0 -58 -21.5t-46 -52.5l-212 -375zM708 426l109 15q8 -41 28.5 -58.5t46.5 -17.5q39 0 61.5 27t22.5 66q0 41 -22.5 61.5t-56.5 20.5h-62v103h55q35 0 57.5 20.5t22.5 50.5 t-21.5 52t-51.5 22q-24 0 -43 -20.5t-31 -57.5l-111 12q15 76 67 124.5t118 48.5q96 0 140.5 -53.5t44.5 -125.5q0 -32 -11 -62t-47 -59q36 -30 49 -64t13 -71q0 -90 -52.5 -145t-143.5 -55q-30 0 -59 7.5t-53.5 27t-43 51.5t-26.5 80zM959 78l168 210l28 -4v-126h275 q78 0 113 25.5t35 68.5q0 41 -34 99l-215 365l144 84l239 -417q49 -84 49 -157q0 -103 -87 -164.5t-221 -61.5h-300v-127h-35z" />
<glyph unicode="&#x2676;" horiz-adv-x="1867" d="M107 224q0 77 53 168l156 281l-99 54l15 28l254 47l90 -240l-17 -33l-101 62l-138 -249q-28 -51 -27 -92q0 -39 29 -65.5t97 -26.5h426v-158h-458q-129 0 -204.5 61.5t-75.5 162.5zM471 942l228 398q48 82 106.5 117t123.5 35q66 0 127.5 -38.5t100.5 -107.5l157 -277 l110 62l12 -30l-94 -241l-260 45l-13 26l105 58l-152 258q-17 31 -42.5 47.5t-54.5 16.5q-30 0 -58 -21.5t-46 -52.5l-212 -375zM665 359v93l205 443h121l-199 -431h124v151h110v-151h47v-105h-47v-88h-110v88h-251zM959 78l168 210l28 -4v-126h275q78 0 113 25.5t35 68.5 q0 41 -34 99l-215 365l144 84l239 -417q49 -84 49 -157q0 -103 -87 -164.5t-221 -61.5h-300v-127h-35z" />
<glyph unicode="&#x2677;" horiz-adv-x="1867" d="M107 224q0 77 53 168l156 281l-99 54l15 28l254 47l90 -240l-17 -33l-101 62l-138 -249q-28 -51 -27 -92q0 -39 29 -65.5t97 -26.5h426v-158h-458q-129 0 -204.5 61.5t-75.5 162.5zM471 942l228 398q48 82 106.5 117t123.5 35q66 0 127.5 -38.5t100.5 -107.5l157 -277 l110 62l12 -30l-94 -241l-260 45l-13 26l105 58l-152 258q-17 31 -42.5 47.5t-54.5 16.5q-30 0 -58 -21.5t-46 -52.5l-212 -375zM718 417l109 22q17 -82 78 -82q28 0 44.5 11.5t25 30t11.5 40t3 41.5q0 41 -14 74t-61 33q-22 0 -39 -15.5t-32 -38.5h-101v349h325v-108h-220 v-101q21 11 41.5 15t42.5 4q82 0 123.5 -53.5t41.5 -137.5v-39q0 -88 -47 -148t-144 -60q-66 0 -117 34t-70 129zM959 78l168 210l28 -4v-126h275q78 0 113 25.5t35 68.5q0 41 -34 99l-215 365l144 84l239 -417q49 -84 49 -157q0 -103 -87 -164.5t-221 -61.5h-300v-127h-35z " />
<glyph unicode="&#x2678;" horiz-adv-x="1867" d="M107 224q0 77 53 168l156 281l-99 54l15 28l254 47l90 -240l-17 -33l-101 62l-138 -249q-28 -51 -27 -92q0 -39 29 -65.5t97 -26.5h426v-158h-458q-129 0 -204.5 61.5t-75.5 162.5zM471 942l228 398q48 82 106.5 117t123.5 35q66 0 127.5 -38.5t100.5 -107.5l157 -277 l110 62l12 -30l-94 -241l-260 45l-13 26l105 58l-152 258q-17 31 -42.5 47.5t-54.5 16.5q-30 0 -58 -21.5t-46 -52.5l-212 -375zM729 447q0 31 7.5 65t26.5 71q37 71 79 148t79 151h120l-118 -244h13q75 0 122.5 -54.5t47.5 -129.5q0 -52 -16.5 -91t-43 -62.5t-61.5 -35 t-71 -11.5q-82 0 -133.5 48.5t-51.5 144.5zM841 449q0 -43 20.5 -66.5t54.5 -23.5q30 0 51.5 23.5t21.5 66.5t-21.5 65t-51.5 22q-31 0 -53 -22t-22 -65zM959 78l168 210l28 -4v-126h275q78 0 113 25.5t35 68.5q0 41 -34 99l-215 365l144 84l239 -417q49 -84 49 -157 q0 -103 -87 -164.5t-221 -61.5h-300v-127h-35z" />
<glyph unicode="&#x2679;" horiz-adv-x="1867" d="M107 224q0 77 53 168l156 281l-99 54l15 28l254 47l90 -240l-17 -33l-101 62l-138 -249q-28 -51 -27 -92q0 -39 29 -65.5t97 -26.5h426v-158h-458q-129 0 -204.5 61.5t-75.5 162.5zM471 942l228 398q48 82 106.5 117t123.5 35q66 0 127.5 -38.5t100.5 -107.5l157 -277 l110 62l12 -30l-94 -241l-260 45l-13 26l105 58l-152 258q-17 31 -42.5 47.5t-54.5 16.5q-30 0 -58 -21.5t-46 -52.5l-212 -375zM727 673v197h369v-94l-210 -528h-121l205 513h-131v-88h-112zM959 78l168 210l28 -4v-126h275q78 0 113 25.5t35 68.5q0 41 -34 99l-215 365 l144 84l239 -417q49 -84 49 -157q0 -103 -87 -164.5t-221 -61.5h-300v-127h-35z" />
<glyph unicode="&#x267a;" horiz-adv-x="1867" d="M107 224q0 77 53 168l156 281l-99 54l15 28l254 47l90 -240l-17 -33l-101 62l-138 -249q-28 -51 -27 -92q0 -39 29 -65.5t97 -26.5h426v-158h-458q-129 0 -204.5 61.5t-75.5 162.5zM471 942l228 398q48 82 106.5 117t123.5 35q66 0 127.5 -38.5t100.5 -107.5l157 -277 l110 62l12 -30l-94 -241l-260 45l-13 26l105 58l-152 258q-17 31 -42.5 47.5t-54.5 16.5q-30 0 -58 -21.5t-46 -52.5l-212 -375zM959 78l168 210l28 -4v-126h275q78 0 113 25.5t35 68.5q0 41 -34 99l-215 365l144 84l239 -417q49 -84 49 -157q0 -103 -87 -164.5t-221 -61.5 h-300v-127h-35z" />
<glyph unicode="&#x267b;" horiz-adv-x="1910" d="M107 636q0 17 12 50l107 184l-88 44h346l168 -290l-100 57l-154 -281q-37 -58 -54 -102t-17 -72l-189 326q-31 52 -31 84zM342 1084l179 314q28 36 70.5 66t98.5 30q78 0 137 -40.5t91 -83.5l-260 -473zM376 181q0 38 14 76t38 81h536v-338h-408q-24 0 -54.5 9.5 t-58.5 30t-47.5 55t-19.5 86.5zM864 1492h390q60 0 80 -12.5t34 -36.5l99 -177l103 59l-177 -310h-359l113 71l-160 286q-26 46 -59 74.5t-64 45.5zM1009 172l185 294v-128h320q35 0 94.5 16t109.5 48l-214 -326q-33 -50 -69.5 -63t-66.5 -13h-174v-125zM1262 878l325 187 l185 -318q33 -54 32 -113q0 -51 -23.5 -94t-60 -74t-84 -48.5t-92.5 -17.5h-17z" />
<glyph unicode="&#x267c;" horiz-adv-x="1797" d="M107 757q0 164 62.5 308t170 251.5t251.5 170t308 62.5t307.5 -62.5t251.5 -170t170 -251.5t62 -308t-62 -307.5t-170 -251.5t-251.5 -170.5t-307.5 -62.5t-308 62.5t-251.5 170.5t-170 251.5t-62.5 307.5zM254 684q0 -29 21 -64l148 -240q0 43 51 129l117 209l74 -41 l-125 215h-259l65 -30l-81 -138q-11 -16 -11 -40zM435 1020l238 -140l193 355q-26 32 -69.5 62t-101.5 30q-43 0 -76.5 -20.5t-50.5 -52.5zM460 346q0 -38 14 -65t35.5 -43t44 -22.5t39.5 -6.5h306v251h-400q-39 -58 -39 -114zM823 1325q24 -10 49 -32.5t44 -55.5l118 -215 l-84 -54h269l133 232l-77 -43l-73 131q-10 19 -25.5 28t-58.5 9h-295zM933 340l138 -223v92h131q19 0 48.5 10.5t52.5 47.5l162 242q-37 -21 -83 -35t-71 -14h-240v99zM1122 866l198 -357h14q34 0 68 13.5t62 36t45.5 54.5t17.5 71q0 18 -4.5 40.5t-18.5 43.5l-139 238z" />
<glyph unicode="&#x267d;" horiz-adv-x="1797" d="M107 759q0 164 62.5 308t170 251.5t251.5 170t308 62.5t307.5 -62.5t251.5 -170t170 -251.5t62 -308t-62 -307.5t-170 -251.5t-251.5 -170.5t-307.5 -62.5t-308 62.5t-251.5 170.5t-170 251.5t-62.5 307.5zM148 759q0 -154 59.5 -292t161.5 -239t238.5 -160.5 t291.5 -59.5q154 0 292 59.5t239 160.5t160.5 239t59.5 292q0 155 -59.5 291t-160.5 238.5t-238.5 162t-292.5 59.5t-291.5 -59.5t-238.5 -162t-161.5 -238.5t-59.5 -291zM258 684q0 24 11 40l82 138l-65 30h258l125 -215l-74 41l-117 -209q-50 -86 -50 -129l-149 240 q-21 36 -21 64zM439 1020l133 234q17 32 50.5 52.5t76.5 20.5q58 0 102 -30.5t69 -61.5l-193 -355zM464 346q0 56 39 114h400v-251h-306q-16 0 -38.5 6.5t-44.5 22.5t-36 43t-14 65zM827 1325h295q44 0 59 -9t25 -28l74 -131l77 43l-134 -232h-269l84 54l-117 215 q-19 35 -44 56t-50 32zM938 340l137 219v-99h241q24 0 70 14t83 35l-162 -242q-24 -37 -53 -47.5t-48 -10.5h-131v-92zM1127 866l243 140l138 -238q14 -21 18.5 -42.5t4.5 -41.5q0 -39 -17.5 -71t-45 -54.5t-62 -36t-68.5 -13.5h-13z" />
<glyph unicode="&#x2693;" horiz-adv-x="1500" d="M138 454l305 -89l-86 -75q47 -45 90 -72t84 -41.5t78.5 -21.5t74.5 -9v854h-276v104h276v25q-58 17 -95 69t-37 113q0 82 57.5 138.5t137.5 56.5q38 0 72.5 -15.5t60 -41t41 -61.5t15.5 -77q0 -61 -34 -107.5t-87 -68.5v-31h279v-104h-279v-854h4q71 6 150.5 31.5 t174.5 112.5l-86 75l305 89l-45 -327l-81 88q-117 -118 -239 -169.5t-247 -62.5q-125 11 -248 62.5t-236 169.5l-82 -88z" />
<glyph unicode="&#x26a0;" horiz-adv-x="1900" d="M105 99q0 39 24 79l712 1260q24 41 52 59.5t57 18.5t55.5 -18.5t48.5 -54.5l711 -1265q21 -36 22 -79q0 -43 -26.5 -71t-87.5 -28h-1451q-62 0 -89.5 29t-27.5 70zM243 140q0 -11 13 -15t50 -4h1283q36 0 49.5 4t13.5 15q0 10 -9 24t-20 31l-638 1132q-19 37 -41 36 q-11 0 -22 -10.5t-19 -25.5l-634 -1134q-11 -17 -18.5 -30t-7.5 -23zM843 254q0 8 4.5 23.5t16.5 30t29.5 24.5t46.5 10q36 0 63 -24.5t27 -67.5q0 -41 -27 -64.5t-63 -23.5q-13 0 -30.5 4t-31.5 13.5t-24.5 28t-10.5 46.5zM845 1030q0 35 26 67t69 32q51 0 77 -29t26 -70 l-62 -604q-5 -16 -19 -27.5t-24 -11.5q-13 0 -27 10.5t-16 28.5z" />
<glyph unicode="&#x2706;" horiz-adv-x="928" d="M226 749q0 242 44 393t103.5 235t117 114.5t85.5 33.5v-448q-55 0 -76.5 -81.5t-21.5 -268.5q0 -27 4 -78.5t14.5 -104t30 -93t49.5 -45.5v-432q-18 0 -51 13t-71.5 45t-79.5 88t-74 142.5t-53.5 205.5t-20.5 281zM604 -26v432h129q17 0 30 -9.5t13 -33.5v-344 q0 -17 -9.5 -31t-33.5 -14h-129zM604 1077v448h129q17 0 30 -13.5t13 -29.5v-351q0 -54 -43 -54h-129z" />
<glyph unicode="&#x2708;" horiz-adv-x="1913" d="M101 901h161l138 -181h413l-241 772h204l445 -772h531q54 0 82.5 -31t28.5 -67q0 -35 -27.5 -64t-80.5 -29h-538l-447 -755h-206l247 755h-411l-131 -172h-162l82 273z" />
<glyph unicode="&#x2709;" horiz-adv-x="2300" d="M138 0v1443h2023v-1443h-2023zM267 224l492 486l-492 490v-976zM349 1311l790 -798l788 798h-1578zM363 138h1562l-478 482l-308 -310l-294 292zM1531 724l488 -488v981z" />
<glyph unicode="&#x2713;" horiz-adv-x="1642" d="M138 765q49 43 111.5 61.5t105.5 18.5q28 0 66.5 -50.5t76.5 -131t67.5 -179.5t41.5 -196q80 139 195.5 306t247.5 328.5t272.5 300t271.5 224.5l31 -37q-75 -58 -161.5 -155.5t-176 -220.5t-177.5 -261.5t-168 -273t-145.5 -257.5t-108.5 -216q-78 -17 -133.5 -34.5 t-83.5 -34.5q-14 62 -37 143t-51 167t-60.5 170t-64.5 153.5t-63 116t-57 58.5z" />
<glyph unicode="&#x2716;" horiz-adv-x="1594" d="M54 370l376 370l-376 370l372 374l372 -374l372 374l371 -374l-373 -370l373 -370l-371 -374l-372 376l-372 -376z" />
<glyph unicode="&#x271a;" horiz-adv-x="1607" d="M109 468v496h459v468h495v-468h468v-496h-458v-468h-497v468h-467z" />
<glyph unicode="&#x272a;" horiz-adv-x="1711" d="M90 744q0 158 60.5 297t163.5 242.5t242 164t298 60.5t297.5 -60.5t241.5 -164t163.5 -242.5t60.5 -297q0 -159 -60.5 -297.5t-163.5 -242t-241.5 -162.5t-297.5 -59q-160 0 -298.5 59t-241.5 162.5t-163.5 242t-60.5 297.5zM217 918l304 -301l-53 -428l367 198l406 -198 l-69 439l295 290l-426 88l-206 381l-197 -385z" />
<glyph unicode="&#x2794;" horiz-adv-x="1564" d="M51 654v185h1117l-512 507h262l598 -599l-602 -605l-258 -2l512 514h-1117z" />
<glyph unicode="&#xe000;" horiz-adv-x="913" d="M107 329v837q0 84 28.5 147.5t76.5 107.5t111.5 66.5t132.5 22.5t131 -22.5t111 -66.5t77.5 -107.5t28.5 -147.5v-837q0 -84 -28.5 -147t-77.5 -106t-111 -66t-131 -23q-70 0 -133 23t-111 66t-76.5 106t-28.5 147zM238 333q0 -103 60.5 -161t157.5 -58q96 0 155.5 58 t59.5 161v830q0 101 -59.5 159.5t-155.5 58.5q-97 0 -157.5 -58.5t-60.5 -159.5v-830z" />
<glyph unicode="&#xe001;" horiz-adv-x="803" d="M170 1198l2 144l211 154h136v-1496h-134v1352z" />
<glyph unicode="&#xe002;" horiz-adv-x="913" d="M97 0v127l500 789q35 55 53.5 121.5t18.5 119.5q0 43 -12 83t-37 71t-66 50.5t-98 19.5q-91 0 -146.5 -61.5t-73.5 -175.5l-135 22q19 154 112 248t247 94q168 0 261.5 -92.5t93.5 -254.5q0 -82 -28 -161t-75 -155l-458 -718h538v-127h-695z" />
<glyph unicode="&#xe003;" horiz-adv-x="913" d="M88 286l131 28q15 -88 60 -145.5t149 -57.5q64 0 108.5 23.5t71 62.5t38.5 95.5t12 122.5q0 154 -52 229.5t-167 75.5h-84v119h71q117 0 170 62.5t53 197.5q0 56 -10.5 107.5t-35 90.5t-66.5 62.5t-104 23.5q-52 0 -88.5 -17.5t-59.5 -46.5t-37 -65.5t-20 -77.5l-131 24 q10 66 35.5 122.5t66.5 98.5t99.5 65.5t134.5 23.5q105 0 172.5 -32.5t107.5 -87t56 -129.5t16 -157q0 -44 -7.5 -92t-27 -92t-53.5 -81t-88 -57q64 -14 101 -49.5t54.5 -84t23.5 -105.5t6 -117q0 -94 -18.5 -174t-61.5 -139t-115 -92.5t-178 -33.5q-60 0 -116.5 17 t-101.5 55t-75.5 94t-39.5 133z" />
<glyph unicode="&#xe004;" horiz-adv-x="913" d="M54 238v132l420 1126h141l-424 -1131h416v435h133v-435h120v-127h-120v-238h-133v238h-553z" />
<glyph unicode="&#xe005;" horiz-adv-x="913" d="M105 290l133 26q13 -94 63 -151.5t153 -57.5q75 0 119 31.5t67 85t29 125.5t6 154q0 78 -7.5 143.5t-31 112.5t-65.5 73t-109 26q-62 0 -115.5 -32t-84.5 -82h-122v752h656v-124h-536l5 -484q51 50 111.5 70.5t120.5 20.5q98 0 159.5 -36t96.5 -99.5t46.5 -148 t11.5 -184.5q0 -127 -16.5 -224.5t-56 -164t-109.5 -101t-177 -34.5q-302 0 -347 303z" />
<glyph unicode="&#xe006;" horiz-adv-x="913" d="M103 402q0 97 17.5 193.5t72.5 223.5l308 677h142l-305 -681l4 -2q31 19 69 29t79 10q82 0 142 -32t99 -88.5t57 -132.5t18 -164q0 -209 -87 -328.5t-270 -119.5q-346 0 -346 415zM236 408q0 -139 47.5 -219t168.5 -80q107 0 163 73.5t56 234.5q0 69 -11 127t-35.5 100 t-65.5 65.5t-103 23.5q-66 0 -108 -27t-67 -72t-35 -104t-10 -122z" />
<glyph unicode="&#xe007;" horiz-adv-x="803" d="M51 1163v333h708v-124l-462 -1372h-139l462 1372h-444v-209h-125z" />
<glyph unicode="&#xe008;" horiz-adv-x="913" d="M94 413q0 154 47.5 241.5t131.5 123.5q-90 47 -127 124t-37 210q0 103 28.5 178t75.5 124t110.5 72.5t134.5 23.5q73 0 137.5 -22.5t112 -71t74 -124t26.5 -180.5q0 -131 -42 -210t-119 -124q90 -39 132 -126t42 -241q0 -117 -30 -198.5t-79 -130.5t-116 -72t-138 -23 q-74 0 -139 23t-116 72t-80 131t-29 200zM228 421q0 -170 64.5 -241t165.5 -71q116 0 171 76.5t55 235.5q0 166 -60.5 233.5t-165.5 67.5q-101 0 -165.5 -68.5t-64.5 -232.5zM240 1104q0 -138 57.5 -203.5t160.5 -65.5t159 66.5t56 208.5q0 273 -215 273q-218 0 -218 -279z " />
<glyph unicode="&#xe009;" horiz-adv-x="913" d="M99 1060q0 209 87 328.5t270 119.5q348 0 348 -416q0 -97 -18 -193.5t-74 -223.5l-308 -677h-142l306 681l-4 2q-31 -18 -69.5 -28t-79.5 -10q-82 0 -142 32.5t-99 88t-57 132t-18 164.5zM234 1077q0 -69 11 -127t36 -100t65.5 -65.5t102.5 -23.5q67 0 109 25t66.5 68 t34.5 103t10 129q0 139 -47.5 219t-167.5 80q-108 0 -164 -73t-56 -235z" />
<glyph unicode="&#xe00a;" horiz-adv-x="913" d="M21 476v94h182l59 366h-165v94h180q2 6 7.5 42t14.5 85t17 107.5t17 108t14.5 84.5t5.5 41h96l-75 -468h248q0 6 5 42t13.5 85t18.5 107.5t18.5 108t14 84.5t5.5 41h99l-78 -468h174v-94h-188l-61 -366h172v-94h-187q0 -7 -5.5 -42.5t-14 -86t-17 -108.5t-17 -108.5 t-15.5 -87.5t-7 -43h-98l75 476h-245l-77 -476h-98l78 476h-166zM299 570h247q0 9 10 63.5t20.5 119t19 119.5t11.5 64h-248z" />
<glyph unicode="&#xe00b;" horiz-adv-x="913" d="M49 232l111 67q36 -71 100 -123.5t163 -61.5v592q-88 32 -153 68.5t-108 82.5t-64.5 105.5t-21.5 138.5q0 82 22.5 152t67.5 122.5t109.5 83.5t147.5 37v179h78v-179q135 -8 219 -69.5t121 -138.5l-112 -73q-33 64 -87.5 105t-140.5 50v-549q195 -49 278 -148t83 -275 q0 -179 -90.5 -289.5t-270.5 -121.5v-219h-78v219q-142 9 -233 75.5t-141 169.5zM211 1101q2 -100 55.5 -154.5t156.5 -97.5v523q-103 -10 -157.5 -85.5t-54.5 -185.5zM501 114q121 11 172 88t51 194q0 66 -14.5 111t-44 76.5t-70.5 54t-94 41.5v-565z" />
<glyph unicode="&#xe00c;" horiz-adv-x="913" d="M24 593v93h83v137h-83v91h83v165q0 95 27.5 173.5t79 135.5t125.5 88.5t168 31.5q138 0 241.5 -71.5t139.5 -206.5l-131 -38q-28 86 -90.5 138.5t-159.5 52.5q-66 0 -115.5 -23.5t-83 -65.5t-49.5 -97.5t-16 -114.5v-168h415v-91h-415v-137h415v-93h-415v-189 q0 -60 17 -113t50.5 -92t83 -63.5t113.5 -24.5q101 0 162.5 52t93.5 145l127 -39q-38 -140 -141.5 -211t-241.5 -71q-92 0 -166 31t-125.5 87.5t-80 136.5t-28.5 177v174h-83z" />
<glyph unicode="&#xe00d;" horiz-adv-x="848" d="M-82 -166l37 108q58 -19 109 -20q88 0 132 73.5t66 226.5q0 6 5.5 48t13 100t16.5 127t16 126.5t12.5 99.5t7.5 49h-171v116h189l27 216q10 77 32.5 150t60.5 127.5t97.5 88.5t147.5 34q37 0 74 -7t68 -18q-6 -30 -13.5 -58t-17.5 -62q-28 10 -59 15t-56 5 q-90 0 -137.5 -70t-65.5 -201q-2 -11 -5 -42.5t-8.5 -66.5t-9.5 -66.5t-6 -44.5h210v-116h-224q-4 -26 -14.5 -104.5t-21.5 -169t-21.5 -168.5t-14.5 -104q-24 -200 -95 -310.5t-221 -110.5q-37 0 -80 7t-80 22z" />
<glyph unicode="&#xe00e;" horiz-adv-x="913" d="M66 0v111q69 109 114.5 230t45.5 270q0 11 -1 22.5t-1 22.5h-158v109h141q-11 56 -27 107t-30.5 98t-25 93.5t-10.5 95.5q0 74 24 137t68 110t108 74.5t148 27.5q133 0 235.5 -63.5t147.5 -205.5l-125 -47q-43 109 -106.5 149t-149.5 40q-39 0 -76 -14.5t-66 -42 t-46.5 -69.5t-17.5 -98q0 -45 9.5 -89t25 -90.5t29 -99.5t24.5 -113h276v-109h-265q0 -159 -30 -283.5t-101 -249.5h597v-123h-757z" />
<glyph unicode="&#xe00f;" horiz-adv-x="913" d="M103 546q0 103 17.5 194t55 159.5t100 113.5t152.5 58v222h81v-218q109 -4 186 -54.5t113 -136.5l-111 -67q-24 56 -72.5 91.5t-115.5 39.5v-837q66 5 114 40.5t69 84.5q28 -17 57 -31t59 -29q-38 -86 -115.5 -135t-183.5 -54v-239h-81v244q-100 10 -162.5 55t-99.5 118 t-50 170.5t-13 210.5zM236 544q0 -72 7 -141.5t28.5 -127.5t57.5 -100t99 -56v821q-62 -13 -98.5 -50.5t-58 -91.5t-28.5 -118.5t-7 -135.5z" />
<glyph unicode="&#xe010;" horiz-adv-x="913" d="M41 1496h135q21 -55 59 -154t80 -205.5t80 -205t59 -155.5h6q19 56 57.5 155t79.5 205.5t79 205.5t57 154h140l-305 -767h257v-91h-289l-13 -43v-127h302v-90h-302v-378h-129v378h-295v90h295v125q0 7 -4.5 24t-6.5 21h-284v91h250z" />
<glyph unicode="&#xe024;" horiz-adv-x="913" d="M107 329v402q0 84 29.5 148.5t77.5 108.5t110.5 66.5t131.5 22.5t132.5 -22.5t112 -66.5t77 -108.5t28.5 -148.5v-402q0 -84 -28.5 -147t-77 -106t-112 -66t-132.5 -23q-70 0 -132 23t-110 66t-77.5 106t-29.5 147zM238 333q0 -103 60.5 -161t157.5 -58q96 0 155.5 58 t59.5 161v396q0 103 -59.5 161t-155.5 58q-97 0 -157.5 -57.5t-60.5 -161.5v-396z" />
<glyph unicode="&#xe025;" horiz-adv-x="913" d="M131 0v117h275v801l-215 -155l2 146l209 154h140v-946h279v-117h-690z" />
<glyph unicode="&#xe026;" horiz-adv-x="913" d="M99 0v123q8 8 45 44t86 83t105.5 99.5t103.5 97.5t79 76t34 36q54 51 77 106t23 98q0 76 -46.5 131.5t-151.5 55.5q-86 0 -145 -54.5t-75 -151.5l-131 26q24 141 117.5 224t237.5 83q154 0 247 -80.5t93 -228.5q0 -64 -39 -145t-123 -159q-4 -4 -29.5 -30t-63.5 -61 t-81 -76t-81.5 -77.5t-65.5 -62.5t-34 -32h534v-125h-716z" />
<glyph unicode="&#xe027;" horiz-adv-x="913" d="M64 -66l133 25q15 -82 58.5 -134.5t142.5 -52.5q125 0 172 77t47 200q0 142 -48 212t-161 70h-84v121h72q109 0 161 58t52 180q0 51 -10 100t-33.5 84t-63.5 56.5t-100 21.5q-49 0 -83.5 -15.5t-57.5 -43t-35.5 -62.5t-18.5 -72l-133 21q10 64 34.5 118t64.5 94t97 62.5 t130 22.5q103 0 169.5 -30t105.5 -83t54 -122.5t15 -149.5q0 -39 -7.5 -81.5t-26 -83.5t-48.5 -76.5t-77 -56.5q58 -15 91.5 -48.5t50.5 -78.5t21.5 -97.5t4.5 -107.5q0 -88 -17.5 -164t-59.5 -132t-111.5 -88.5t-172.5 -32.5q-58 0 -113 17.5t-100.5 52.5t-75 89t-39.5 130 z" />
<glyph unicode="&#xe028;" horiz-adv-x="913" d="M71 0v127l393 936h145l-396 -938h376v406h131v-406h127v-125h-127v-342h-131v342h-518z" />
<glyph unicode="&#xe029;" horiz-adv-x="913" d="M117 -62l135 23q13 -90 59 -141.5t147 -51.5q71 0 113 28t63.5 77t28 116t6.5 144q0 72 -7.5 131.5t-29 104t-61.5 68t-105 23.5q-60 0 -111.5 -29t-79.5 -76h-125v712h642v-123h-513v-441q50 43 108 61.5t114 18.5q99 0 159 -35t92.5 -93.5t43 -140.5t10.5 -174 q0 -117 -15 -209.5t-54.5 -154.5t-108.5 -95.5t-174 -33.5q-290 0 -337 291z" />
<glyph unicode="&#xe02a;" horiz-adv-x="913" d="M111 365q0 140 30.5 239.5t71.5 187.5l284 614h143l-287 -632q55 30 133 30q99 0 160.5 -36.5t94.5 -96.5t45 -136.5t12 -156.5q-10 -183 -87 -287t-259 -104q-171 0 -250 94.5t-91 283.5zM248 392q0 -58 8.5 -110t31 -90t62.5 -60.5t102 -22.5q100 0 155.5 63.5 t55.5 219.5q0 62 -9 116t-31.5 93t-62.5 62t-104 23q-115 0 -161.5 -81.5t-46.5 -212.5z" />
<glyph unicode="&#xe02b;" horiz-adv-x="913" d="M97 747v318h693v-121l-448 -1286h-145l448 1282h-419v-193h-129z" />
<glyph unicode="&#xe02c;" horiz-adv-x="913" d="M103 385q0 144 42 228t122 118q-84 47 -117 119.5t-33 194.5q0 96 27.5 167.5t74 116.5t107.5 68t130 23q71 0 133.5 -23t108.5 -68t73 -116.5t27 -167.5q0 -123 -41 -196t-110 -118q164 -73 164 -341q0 -112 -29 -188.5t-78.5 -124t-114 -69t-133.5 -21.5 q-72 0 -136 21.5t-112 68t-76.5 122.5t-28.5 186zM238 394q0 -152 61.5 -217.5t156.5 -65.5q111 0 164 69.5t53 217.5q0 150 -58.5 213.5t-158.5 63.5q-95 0 -156.5 -64.5t-61.5 -216.5zM250 1038q0 -129 54.5 -189.5t151.5 -60.5q98 0 152.5 60.5t54.5 196.5 q0 121 -51 185.5t-156 64.5q-103 0 -154.5 -67t-51.5 -190z" />
<glyph unicode="&#xe02d;" horiz-adv-x="913" d="M107 673q0 189 86 296.5t261 107.5q342 0 342 -396q0 -69 -8 -120.5t-20.5 -95.5t-30 -87t-38.5 -94l-291 -626h-143q14 32 38 83.5t52 112t57 125t57 125t51.5 111t38.5 82.5q-29 -17 -67 -27t-75 -10q-88 0 -147 30t-95.5 84t-52 130.5t-15.5 168.5zM243 671 q0 -142 43 -218.5t163 -76.5q115 0 162 84t47 224q0 53 -9 103t-32.5 87t-64.5 58.5t-105 21.5q-114 0 -155.5 -73t-48.5 -210z" />
<glyph unicode="&#xe02e;" horiz-adv-x="913" d="M62 402v84h164l53 308h-148v84h164q4 32 13.5 85.5t19.5 111.5t19.5 112t15.5 86h89l-67 -395h217q4 32 14 85.5t19.5 111.5t19.5 112t16 86h92l-71 -395h157v-84h-170q-4 -21 -11.5 -64.5t-16 -90t-16 -89.5t-9.5 -64h152v-84h-167q-4 -32 -14 -86t-19.5 -114 t-19.5 -114.5t-14 -87.5h-92l69 402h-218q-4 -32 -14 -86t-20.5 -114t-20.5 -114.5t-14 -87.5h-92l71 402h-151zM318 486h215l54 308h-215z" />
<glyph unicode="&#xe02f;" horiz-adv-x="913" d="M86 203q2 0 18.5 10.5t36 21t35.5 20.5l17 10q33 -56 90 -102t143 -56v486q-150 56 -232.5 133.5t-82.5 209.5q0 137 83 230.5t232 108.5v149h79v-149q119 -9 195 -62.5t111 -122.5q-3 -2 -20 -11.5t-36.5 -22.5t-35 -22.5t-18.5 -11.5q-30 55 -77.5 92t-118.5 45v-455 q164 -44 243 -129t79 -233t-80 -243t-242 -109v-185h-79v185q-125 8 -209 66t-131 147zM240 933q3 -75 53.5 -121.5t132.5 -82.5v430q-94 -10 -140 -73.5t-46 -152.5zM505 107q99 11 145.5 74t46.5 159q0 54 -13 90t-37.5 62.5t-60.5 44t-81 35.5v-465z" />
<glyph unicode="&#xe030;" horiz-adv-x="913" d="M71 501v86h73v108h-73v87h73v134q0 163 97 265.5t268 102.5q123 0 217.5 -63.5t127.5 -179.5l-130 -37q-24 75 -78.5 118.5t-136.5 43.5q-60 0 -104 -19.5t-73 -54t-43 -78.5t-14 -93v-139h372v-87h-372v-108h374v-86h-374v-152q0 -50 15.5 -94t45 -77.5t73 -53 t100.5 -19.5q86 0 140.5 43t83.5 123l123 -35q-35 -120 -129.5 -183t-217.5 -63q-174 0 -269.5 100.5t-95.5 268.5v142h-73z" />
<glyph unicode="&#xe031;" horiz-adv-x="913" d="M2 -183l39 107q30 -10 56 -13t49 -3q86 0 128 67.5t59 209.5l71 514h-168v109h183l30 205q9 74 29.5 141t58 120t96.5 84t143 31q37 0 72.5 -6t65.5 -18l-5 -17q-4 -17 -9 -38.5t-9.5 -39.5t-6.5 -23q-26 11 -55 15t-55 4q-86 0 -132.5 -63.5t-62.5 -185.5l-29 -209h205 v-109h-219l-70 -512q-24 -189 -93.5 -293.5t-218.5 -104.5q-34 0 -75.5 8t-76.5 20z" />
<glyph unicode="&#xe032;" horiz-adv-x="913" d="M111 0v103q62 94 103.5 198.5t41.5 227.5q0 7 -1 13t-1 12h-143v100h127q-8 39 -21.5 79.5t-27 81.5t-22.5 83t-9 85q0 62 22.5 117t64 96t100.5 64.5t131 23.5q118 0 206 -51t137 -175l-120 -54q-36 94 -93.5 126.5t-129.5 32.5q-33 0 -66.5 -11t-59.5 -33.5 t-41.5 -56.5t-15.5 -81q0 -31 7.5 -63t18 -71t25.5 -86t28 -107h248v-100h-240q0 -4 1.5 -9t1.5 -9q0 -123 -28 -226t-84 -196h529v-114h-689z" />
<glyph unicode="&#xe033;" horiz-adv-x="913" d="M138 576q0 89 15 166t50 137.5t91.5 98t138.5 48.5v187h80v-185q97 -4 164 -49.5t103 -118.5l-109 -62q-21 49 -62 79t-96 34v-692q54 5 94 36t60 72q2 0 19.5 -9.5t37.5 -21.5t37 -20.5t19 -8.5q-37 -74 -104 -117t-163 -49v-200h-80v202q-89 10 -146 50t-90 103.5 t-46 144.5t-13 175zM267 576q0 -57 6 -114.5t23.5 -105.5t50.5 -83t86 -47v679q-52 -13 -85.5 -43.5t-51 -76t-23.5 -99.5t-6 -110z" />
</font>
</defs>
</svg>
